<svg width="100.000000" height="100.000000" viewBox="0 0 100 100" fill="none" xmlns="http://www.w3.org/2000/svg" xmlns:xlink="http://www.w3.org/1999/xlink">
	<desc>
			Created with Pixso.
	</desc>
	<defs>
		<clipPath id="clip201_22461">
			<rect id="akar-icons:circle-check-fill" width="100.000000" height="100.000000" fill="white" fill-opacity="0"/>
		</clipPath>
	</defs>
	<rect id="akar-icons:circle-check-fill" width="100.000000" height="100.000000" fill="#FFFFFF" fill-opacity="0"/>
	<g clip-path="url(#clip201_22461)">
		<path id="Vector" d="M50 4.16C24.68 4.16 4.16 24.68 4.16 49.99C4.16 75.31 24.68 95.83 50 95.83C75.31 95.83 95.83 75.31 95.83 49.99C95.83 24.68 75.31 4.16 50 4.16ZM69.86 42.24C70.23 41.83 70.51 41.34 70.68 40.81C70.86 40.28 70.92 39.73 70.88 39.17C70.84 38.62 70.68 38.08 70.43 37.59C70.17 37.09 69.82 36.66 69.39 36.3C68.97 35.94 68.47 35.68 67.94 35.52C67.41 35.35 66.85 35.3 66.3 35.36C65.75 35.41 65.21 35.58 64.72 35.85C64.24 36.11 63.81 36.48 63.46 36.91L45.55 58.41L36.27 49.13C35.49 48.37 34.44 47.95 33.34 47.96C32.25 47.97 31.21 48.41 30.43 49.18C29.66 49.96 29.22 51 29.21 52.09C29.2 53.19 29.62 54.24 30.38 55.02L42.88 67.52C43.29 67.93 43.78 68.25 44.32 68.46C44.86 68.67 45.44 68.77 46.02 68.74C46.6 68.71 47.16 68.57 47.68 68.31C48.2 68.05 48.66 67.69 49.03 67.24L69.86 42.24Z" fill="#FA8B02" fill-opacity="1.000000" fill-rule="evenodd"/>
	</g>
</svg>
