<svg width="32.000000" height="32.000000" viewBox="0 0 32 32" fill="none" xmlns="http://www.w3.org/2000/svg" xmlns:xlink="http://www.w3.org/1999/xlink">
	<desc>
			Created with Pixso.
	</desc>
	<defs>
		<clipPath id="clip201_28782">
			<rect id="akar-icons:search" width="32.000000" height="32.000000" transform="translate(-0.250000 0.000000)" fill="white" fill-opacity="0"/>
		</clipPath>
	</defs>
	<rect id="akar-icons:search" width="32.000000" height="32.000000" transform="translate(-0.250000 0.000000)" fill="#FFFFFF" fill-opacity="0"/>
	<g clip-path="url(#clip201_28782)">
		<path id="Vector" d="M27.75 27.99L21.76 22M21.76 22.01C19.63 24.13 16.75 25.33 13.75 25.33C10.74 25.33 7.86 24.13 5.73 22.01C3.61 19.88 2.41 17 2.41 13.99C2.41 10.99 3.61 8.11 5.73 5.98C7.86 3.86 10.74 2.66 13.75 2.66C16.75 2.66 19.63 3.86 21.76 5.98C23.88 8.11 25.08 10.99 25.08 13.99C25.08 17 23.88 19.88 21.76 22.01Z" stroke="#FFFFFF" stroke-opacity="1.000000" stroke-width="2.000000" stroke-linecap="round"/>
	</g>
</svg>
