<svg width="20.000000" height="20.000000" viewBox="0 0 20 20" fill="none" xmlns="http://www.w3.org/2000/svg" xmlns:xlink="http://www.w3.org/1999/xlink">
	<desc>
			Created with Pixso.
	</desc>
	<defs>
		<clipPath id="clip201_29160">
			<rect id="bi:arrow-right" width="20.000000" height="20.000000" transform="matrix(-1 0 0 1 19.5 0)" fill="white" fill-opacity="0"/>
		</clipPath>
	</defs>
	<rect id="bi:arrow-right" width="20.000000" height="20.000000" transform="matrix(-1 0 0 1 19.5 0)" fill="#FFFFFF" fill-opacity="0"/>
	<g clip-path="url(#clip201_29160)">
		<path id="Vector" d="M17 10C17 9.85 16.94 9.72 16.84 9.62C16.74 9.52 16.6 9.46 16.46 9.46L3.83 9.46L7.2 6.09C7.3 5.99 7.35 5.85 7.35 5.71C7.35 5.57 7.3 5.43 7.2 5.33C7.1 5.23 6.96 5.17 6.82 5.17C6.67 5.17 6.54 5.23 6.44 5.33L2.15 9.62C2.1 9.67 2.06 9.72 2.04 9.79C2.01 9.85 2 9.92 2 10C2 10.07 2.01 10.14 2.04 10.2C2.06 10.27 2.1 10.32 2.15 10.37L6.44 14.66C6.54 14.76 6.67 14.82 6.82 14.82C6.96 14.82 7.1 14.76 7.2 14.66C7.3 14.56 7.35 14.42 7.35 14.28C7.35 14.14 7.3 14 7.2 13.9L3.83 10.53L16.46 10.53C16.6 10.53 16.74 10.47 16.84 10.37C16.94 10.27 17 10.14 17 10Z" fill="#333333" fill-opacity="1.000000" fill-rule="evenodd"/>
	</g>
</svg>
