<svg width="9.000000" height="24.000000" viewBox="0 0 9 24" fill="none" xmlns="http://www.w3.org/2000/svg" xmlns:xlink="http://www.w3.org/1999/xlink">
	<desc>
			Created with Pixso.
	</desc>
	<defs/>
	<path id="Vector" d="M4 -0.5C4.35 -0.5 4.7 -0.5 5.05 -0.5C5.52 -0.5 5.81 -0.24 5.83 0.22C5.86 0.68 5.9 1.13 5.57 1.56C5.29 1.93 5.47 2.35 5.77 2.69C6.41 3.39 7.04 4.12 7.69 4.82C7.95 5.09 8.15 5.41 8.29 5.76C8.42 6.1 8.48 6.48 8.47 6.85C8.46 8.98 8.47 11.12 8.47 13.25C8.47 13.74 8.38 14.22 8.19 14.67C7.51 16.29 7.5 17.91 8.19 19.53C8.56 20.41 8.53 21.33 8.42 22.23C8.39 22.57 8.23 22.88 7.98 23.1C7.72 23.32 7.4 23.44 7.06 23.44C6.15 23.45 5.22 23.61 4.37 23.08C4.07 22.9 3.72 22.99 3.42 23.16C2.52 23.64 1.55 23.5 0.62 23.38C-0.05 23.3 -0.46 22.73 -0.48 22.04C-0.52 21.07 -0.48 20.13 -0.1 19.19C0.46 17.81 0.43 16.36 -0.11 14.97C-0.38 14.29 -0.51 13.57 -0.5 12.84C-0.48 10.85 -0.48 8.85 -0.5 6.85C-0.51 6.48 -0.45 6.11 -0.32 5.76C-0.18 5.41 0.02 5.1 0.28 4.83C0.93 4.13 1.56 3.41 2.19 2.69C2.59 2.23 2.6 1.92 2.29 1.4C2.01 0.92 2.05 0.39 2.24 -0.1C2.34 -0.39 2.61 -0.5 2.91 -0.5L4 -0.5ZM0.33 20.1C0.53 20.11 0.66 20.12 0.8 20.13C1.06 20.14 1.32 20.17 1.31 20.5C1.3 20.8 1.05 20.88 0.82 20.84C0.21 20.73 0.16 21.06 0.21 21.52C0.22 21.71 0.21 21.9 0.23 22.09C0.27 22.39 0.45 22.67 0.73 22.69C1.51 22.76 2.32 22.93 3.08 22.54C3.59 22.27 4.13 22.14 4.62 22.43C5.39 22.88 6.21 22.74 7.01 22.74C7.48 22.74 7.73 22.44 7.76 21.97C7.78 21.75 7.75 21.52 7.77 21.3C7.82 20.92 7.67 20.83 7.31 20.84C5.85 20.86 4.39 20.85 2.93 20.85C2.79 20.85 2.65 20.85 2.51 20.84C2.29 20.81 2.14 20.69 2.15 20.47C2.15 20.27 2.3 20.16 2.49 20.14C2.63 20.13 2.77 20.13 2.91 20.13C4.33 20.13 5.76 20.12 7.18 20.13C7.53 20.13 7.65 20.09 7.5 19.7C6.78 17.89 6.81 16.08 7.58 14.29C7.64 14.14 7.69 14 7.73 13.85C7.83 13.49 7.76 13.33 7.32 13.33C5.2 13.35 3.07 13.34 0.95 13.34C0.12 13.34 0.05 13.43 0.36 14.21C0.38 14.26 0.4 14.31 0.42 14.35C0.86 15.32 1.01 16.34 0.98 17.4C0.94 18.33 0.72 19.25 0.33 20.1ZM7.64 10.17L7.76 10.11C7.76 9.51 7.76 8.91 7.76 8.31C7.76 8.08 7.59 8.09 7.43 8.08C7.2 8.06 7.02 7.97 7.03 7.7C7.05 7.47 7.23 7.39 7.44 7.38C7.59 7.36 7.76 7.38 7.76 7.14C7.75 6.71 7.8 6.28 7.58 5.87C7.46 5.64 7.34 5.54 7.06 5.65C6.73 5.8 6.37 5.86 6.02 5.82C5.66 5.79 5.32 5.66 5.02 5.45C4.32 4.98 3.64 4.98 2.94 5.45C2.38 5.84 1.75 5.91 1.09 5.73C0.51 5.58 0.34 5.67 0.24 6.27C0.21 6.47 0.23 6.68 0.2 6.89C0.15 7.29 0.33 7.39 0.7 7.38C2.27 7.37 3.83 7.38 5.4 7.38C5.56 7.37 5.71 7.38 5.87 7.39C6.06 7.41 6.19 7.52 6.2 7.73C6.2 7.77 6.19 7.81 6.18 7.86C6.16 7.9 6.14 7.93 6.11 7.97C6.08 8 6.04 8.02 6 8.04C5.96 8.06 5.92 8.07 5.88 8.07C5.72 8.08 5.57 8.09 5.41 8.09C3.86 8.09 2.32 8.11 0.77 8.08C0.29 8.06 0.18 8.21 0.19 8.66C0.23 9.65 0.2 10.64 0.21 11.63C0.21 11.77 0.15 11.94 0.32 12.09C0.88 11.61 1.44 11.12 2 10.64C2.3 10.37 2.69 10.13 3.04 10.33C3.66 10.7 3.93 10.3 4.27 9.95C4.52 9.7 4.76 9.45 5.01 9.21C5.58 8.69 6.16 8.69 6.72 9.21C7.04 9.52 7.33 9.85 7.64 10.17ZM6.86 4.97C6.29 4.33 5.78 3.75 5.26 3.17C5.07 2.95 4.82 2.72 4.83 2.42C4.85 1.65 4.37 1.65 3.83 1.7C3.74 1.71 3.65 1.71 3.57 1.7C3.33 1.68 3.2 1.77 3.21 2.01C3.22 2.52 2.96 2.9 2.64 3.25C2.13 3.81 1.63 4.38 1.11 4.97C1.66 5.21 2.13 5.15 2.55 4.86C3.51 4.21 4.45 4.22 5.41 4.86C5.84 5.16 6.3 5.22 6.86 4.97ZM6.51 12.62C6.9 12.62 7.17 12.62 7.45 12.62C7.56 12.62 7.66 12.64 7.73 12.54C7.84 12.39 7.74 11.23 7.6 11.09C7.14 10.62 6.67 10.16 6.21 9.69C6.03 9.52 5.82 9.42 5.61 9.62C5.16 10.05 4.72 10.5 4.28 10.93C4.18 11.04 4.15 11.15 4.27 11.25C4.98 11.82 5.38 12.95 6.51 12.62ZM0.84 12.57L4.53 12.57C4.01 12.05 3.54 11.55 3.06 11.08C2.9 10.93 2.69 10.97 2.53 11.11C2 11.57 1.47 12.04 0.84 12.58L0.84 12.57ZM4 0.98C4.27 0.98 4.55 0.97 4.83 0.98C5.14 1 5.14 0.81 5.14 0.59C5.15 0.36 5.11 0.19 4.81 0.2C4.3 0.21 3.78 0.21 3.25 0.2C2.95 0.19 2.83 0.27 2.82 0.6C2.82 0.95 2.98 1 3.27 0.99C3.51 0.97 3.75 0.99 4 0.98Z" fill="#FA8B02" fill-opacity="1.000000" fill-rule="nonzero"/>
	<path id="Vector" d="M5.05 -0.5C5.52 -0.5 5.81 -0.24 5.83 0.22C5.86 0.68 5.9 1.13 5.57 1.56C5.29 1.93 5.47 2.35 5.77 2.69C6.41 3.39 7.04 4.12 7.69 4.82C7.95 5.09 8.15 5.41 8.29 5.76C8.42 6.1 8.48 6.48 8.47 6.85C8.46 8.98 8.47 11.12 8.47 13.25C8.47 13.74 8.38 14.22 8.19 14.67C7.51 16.29 7.5 17.91 8.19 19.53C8.56 20.41 8.53 21.33 8.42 22.23C8.39 22.57 8.23 22.88 7.98 23.1C7.72 23.32 7.4 23.44 7.06 23.44C6.15 23.45 5.22 23.61 4.37 23.08C4.07 22.9 3.72 22.99 3.42 23.16C2.52 23.64 1.55 23.5 0.62 23.38C-0.05 23.3 -0.46 22.73 -0.48 22.04C-0.52 21.07 -0.48 20.13 -0.1 19.19C0.46 17.81 0.43 16.36 -0.11 14.97C-0.38 14.29 -0.51 13.57 -0.5 12.84C-0.48 10.85 -0.48 8.85 -0.5 6.85C-0.51 6.48 -0.45 6.11 -0.32 5.76C-0.18 5.41 0.02 5.1 0.28 4.83C0.93 4.13 1.56 3.41 2.19 2.69C2.59 2.23 2.6 1.92 2.29 1.4C2.01 0.92 2.05 0.39 2.24 -0.1C2.34 -0.39 2.61 -0.5 2.91 -0.5L4 -0.5C4.35 -0.5 4.7 -0.5 5.05 -0.5ZM0.8 20.13C1.06 20.14 1.32 20.17 1.31 20.5C1.3 20.8 1.05 20.88 0.82 20.84C0.21 20.73 0.16 21.06 0.21 21.52C0.22 21.71 0.21 21.9 0.23 22.09C0.27 22.39 0.45 22.67 0.73 22.69C1.51 22.76 2.32 22.93 3.08 22.54C3.59 22.27 4.13 22.14 4.62 22.43C5.39 22.88 6.21 22.74 7.01 22.74C7.48 22.74 7.73 22.44 7.76 21.97C7.78 21.75 7.75 21.52 7.77 21.3C7.82 20.92 7.67 20.83 7.31 20.84C5.85 20.86 4.39 20.85 2.93 20.85C2.79 20.85 2.65 20.85 2.51 20.84C2.29 20.81 2.14 20.69 2.15 20.47C2.15 20.27 2.3 20.16 2.49 20.14C2.63 20.13 2.77 20.13 2.91 20.13C4.33 20.13 5.76 20.12 7.18 20.13C7.53 20.13 7.65 20.09 7.5 19.7C6.78 17.89 6.81 16.08 7.58 14.29C7.64 14.14 7.69 14 7.73 13.85C7.83 13.49 7.76 13.33 7.32 13.33C5.2 13.35 3.07 13.34 0.95 13.34C0.12 13.34 0.05 13.43 0.36 14.21C0.38 14.26 0.4 14.31 0.42 14.35C0.86 15.32 1.01 16.34 0.98 17.4C0.94 18.33 0.72 19.25 0.33 20.1C0.53 20.11 0.66 20.12 0.8 20.13ZM7.76 10.11C7.76 9.51 7.76 8.91 7.76 8.31C7.76 8.08 7.59 8.09 7.43 8.08C7.2 8.06 7.02 7.97 7.03 7.7C7.05 7.47 7.23 7.39 7.44 7.38C7.59 7.36 7.76 7.38 7.76 7.14C7.75 6.71 7.8 6.28 7.58 5.87C7.46 5.64 7.34 5.54 7.06 5.65C6.73 5.8 6.37 5.86 6.02 5.82C5.66 5.79 5.32 5.66 5.02 5.45C4.32 4.98 3.64 4.98 2.94 5.45C2.38 5.84 1.75 5.91 1.09 5.73C0.51 5.58 0.34 5.67 0.24 6.27C0.21 6.47 0.23 6.68 0.2 6.89C0.15 7.29 0.33 7.39 0.7 7.38C2.27 7.37 3.83 7.38 5.4 7.38C5.56 7.37 5.71 7.38 5.87 7.39C6.06 7.41 6.19 7.52 6.2 7.73C6.2 7.77 6.19 7.81 6.18 7.86C6.16 7.9 6.14 7.93 6.11 7.97C6.08 8 6.04 8.02 6 8.04C5.96 8.06 5.92 8.07 5.88 8.07C5.72 8.08 5.57 8.09 5.41 8.09C3.86 8.09 2.32 8.11 0.77 8.08C0.29 8.06 0.18 8.21 0.19 8.66C0.23 9.65 0.2 10.64 0.21 11.63C0.21 11.77 0.15 11.94 0.32 12.09C0.88 11.61 1.44 11.12 2 10.64C2.3 10.37 2.69 10.13 3.04 10.33C3.66 10.7 3.93 10.3 4.27 9.95C4.52 9.7 4.76 9.45 5.01 9.21C5.58 8.69 6.16 8.69 6.72 9.21C7.04 9.52 7.33 9.85 7.64 10.17L7.76 10.11ZM5.26 3.17C5.07 2.95 4.82 2.72 4.83 2.42C4.85 1.65 4.37 1.65 3.83 1.7C3.74 1.71 3.65 1.71 3.57 1.7C3.33 1.68 3.2 1.77 3.21 2.01C3.22 2.52 2.96 2.9 2.64 3.25C2.13 3.81 1.63 4.38 1.11 4.97C1.66 5.21 2.13 5.15 2.55 4.86C3.51 4.21 4.45 4.22 5.41 4.86C5.84 5.16 6.3 5.22 6.86 4.97C6.29 4.33 5.78 3.75 5.26 3.17ZM7.45 12.62C7.56 12.62 7.66 12.64 7.73 12.54C7.84 12.39 7.74 11.23 7.6 11.09C7.14 10.62 6.67 10.16 6.21 9.69C6.03 9.52 5.82 9.42 5.61 9.62C5.16 10.05 4.72 10.5 4.28 10.93C4.18 11.04 4.15 11.15 4.27 11.25C4.98 11.82 5.38 12.95 6.51 12.62C6.9 12.62 7.17 12.62 7.45 12.62ZM4.53 12.57C4.01 12.05 3.54 11.55 3.06 11.08C2.9 10.93 2.69 10.97 2.53 11.11C2 11.57 1.47 12.04 0.84 12.58L0.84 12.57L4.53 12.57ZM4.83 0.98C5.14 1 5.14 0.81 5.14 0.59C5.15 0.36 5.11 0.19 4.81 0.2C4.3 0.21 3.78 0.21 3.25 0.2C2.95 0.19 2.83 0.27 2.82 0.6C2.82 0.95 2.98 1 3.27 0.99C3.51 0.97 3.75 0.99 4 0.98C4.27 0.98 4.55 0.97 4.83 0.98Z" stroke="#FA8B02" stroke-opacity="1.000000" stroke-width="0.200000"/>
</svg>
