<svg width="24.000000" height="22.000000" viewBox="0 0 24 22" fill="none" xmlns="http://www.w3.org/2000/svg" xmlns:xlink="http://www.w3.org/1999/xlink">
	<desc>
			Created with Pixso.
	</desc>
	<defs/>
	<path id="Vector" d="M11.97 -0.93C14.32 -0.93 16.68 -0.93 19.04 -0.93C19.98 -0.93 20.84 -0.76 21.34 0.17C21.53 0.5 21.64 0.86 21.64 1.23C21.64 1.67 21.64 2.1 21.64 2.53C21.64 3.35 21.64 3.35 22.45 3.42C23.62 3.53 24.37 4.95 23.8 5.97C23.76 6.06 23.69 6.13 23.6 6.18C23.51 6.23 23.41 6.24 23.31 6.23C23.22 6.22 23.13 6.17 23.05 6.11C22.98 6.04 22.93 5.95 22.91 5.85C22.88 5.64 22.87 5.43 22.88 5.21C22.91 4.67 22.64 4.47 22.13 4.49C21.77 4.5 21.62 4.64 21.64 4.99C21.66 5.14 21.64 5.3 21.64 5.46C21.64 9.4 21.64 13.35 21.64 17.3C21.64 18.36 21.42 18.68 20.37 18.96C20.06 19.05 19.96 19.21 19.97 19.5C19.97 19.85 19.98 20.2 19.96 20.56C19.95 20.88 19.83 21.18 19.62 21.42C19.41 21.65 19.12 21.81 18.81 21.85C18.28 21.93 17.75 21.94 17.22 21.88C16.36 21.77 15.95 21.31 15.93 20.42C15.92 20.09 15.92 19.75 15.93 19.42C15.93 19.13 15.79 18.99 15.5 18.99C13.14 18.99 10.78 18.99 8.43 18.99C8.1 18.99 7.96 19.14 7.97 19.46C7.98 19.79 7.98 20.13 7.97 20.46C7.94 21.31 7.53 21.77 6.7 21.88C6.17 21.95 5.64 21.94 5.11 21.85C4.8 21.82 4.51 21.67 4.29 21.44C4.08 21.2 3.95 20.9 3.93 20.59C3.92 20.47 3.92 20.35 3.93 20.23C3.99 19.54 4 18.96 3.05 18.8C2.4 18.68 2.25 18.03 2.25 17.38C2.26 13.44 2.25 9.49 2.25 5.54C2.25 5.39 2.24 5.23 2.25 5.07C2.28 4.69 2.17 4.47 1.73 4.49C1.33 4.5 1.03 4.59 1.03 5.07C1.03 5.32 1.02 5.58 0.99 5.83C0.98 5.94 0.93 6.05 0.84 6.12C0.76 6.2 0.65 6.24 0.54 6.23C0.48 6.24 0.42 6.24 0.36 6.22C0.3 6.2 0.25 6.17 0.2 6.13C0.16 6.1 0.12 6.05 0.09 6C0.06 5.94 0.05 5.89 0.04 5.83C-0.1 4.69 0.01 3.44 1.72 3.43C2.13 3.43 2.26 3.24 2.25 2.85C2.23 2.32 2.23 1.79 2.25 1.26C2.28 0.08 3.03 -0.73 4.19 -0.87C4.51 -0.91 4.82 -0.93 5.14 -0.93C7.41 -0.93 9.69 -0.93 11.97 -0.93ZM11.95 3.34C9.26 3.34 6.57 3.34 3.88 3.34C3.5 3.34 3.23 3.37 3.24 3.86C3.26 5.55 3.25 7.24 3.24 8.93C3.24 9.26 3.37 9.43 3.69 9.51C6.13 10.06 8.58 10.5 11.09 10.57C14.13 10.66 17.11 10.22 20.07 9.53C20.49 9.44 20.66 9.25 20.65 8.82C20.63 7.23 20.62 5.64 20.66 4.05C20.67 3.46 20.45 3.33 19.9 3.33C17.25 3.35 14.6 3.34 11.95 3.34L11.95 3.34ZM11.95 17.92C14.64 17.92 17.33 17.92 20.02 17.92C20.52 17.92 20.65 17.68 20.66 17.22C20.66 16.77 20.49 16.59 20.03 16.61C19.48 16.63 18.93 16.63 18.38 16.6C17.91 16.56 17.47 16.35 17.16 16C16.84 15.65 16.67 15.19 16.68 14.72C16.69 14.25 16.89 13.8 17.22 13.47C17.56 13.14 18.01 12.95 18.48 12.94C19.05 12.93 19.62 12.93 20.19 12.94C20.51 12.94 20.65 12.8 20.65 12.48C20.64 12.01 20.62 11.54 20.65 11.07C20.69 10.56 20.55 10.41 20.02 10.56C17.54 11.29 14.98 11.53 12.4 11.56C9.49 11.6 6.6 11.34 3.78 10.54C3.41 10.44 3.22 10.48 3.24 10.92C3.27 11.43 3.26 11.94 3.24 12.45C3.23 12.81 3.39 12.95 3.74 12.94C4.27 12.93 4.8 12.93 5.33 12.94C6.35 12.96 7.19 13.77 7.21 14.74C7.24 15.7 6.4 16.56 5.38 16.61C4.86 16.63 4.32 16.63 3.79 16.61C3.39 16.6 3.23 16.76 3.23 17.16C3.23 17.79 3.33 17.91 3.99 17.91C6.64 17.92 9.29 17.92 11.95 17.92L11.95 17.92ZM11.96 2.35L14.26 2.35C16.18 2.35 18.1 2.35 20.02 2.35C20.26 2.35 20.54 2.41 20.64 2.05C20.92 0.95 20.31 0.12 19.18 0.11C14.35 0.11 9.52 0.11 4.7 0.11C3.67 0.11 3.27 0.52 3.25 1.53C3.23 2.31 3.25 2.34 4.07 2.34L11.96 2.35ZM4.51 15.57C4.78 15.57 5.05 15.57 5.33 15.57C5.82 15.57 6.1 15.32 6.14 14.83C6.18 14.36 5.89 14 5.38 13.97C4.95 13.93 4.52 13.95 4.09 13.95C3.24 13.95 3.24 13.95 3.24 14.78C3.24 15.55 3.26 15.57 4.04 15.57L4.51 15.57ZM19.29 15.56C20.74 15.57 20.74 15.57 20.64 14.4C20.64 14.36 20.64 14.32 20.63 14.28C20.64 14.23 20.63 14.19 20.62 14.15C20.6 14.11 20.58 14.07 20.54 14.04C20.51 14.01 20.47 13.98 20.43 13.97C20.39 13.95 20.35 13.95 20.3 13.95C19.68 13.95 19.04 13.92 18.42 13.98C17.99 14.02 17.73 14.33 17.75 14.79C17.77 15.28 18.03 15.55 18.53 15.56C18.78 15.57 19.04 15.56 19.29 15.56L19.29 15.56ZM6.96 19.89C6.96 18.99 6.96 18.99 6.12 18.99C4.99 18.99 4.99 18.99 4.99 19.79C4.99 20.85 5 20.86 5.95 20.87C6.93 20.87 6.96 20.84 6.96 19.89ZM17.9 18.98C16.93 18.98 16.93 18.98 16.93 19.82C16.93 20.84 16.95 20.86 17.92 20.86C18.88 20.86 18.9 20.84 18.9 19.86C18.9 18.98 18.9 18.98 17.9 18.98Z" fill="#FA8B02" fill-opacity="1.000000" fill-rule="nonzero"/>
	<path id="Vector" d="M11.91 16.53C11.13 16.53 10.34 16.55 9.56 16.53C8.68 16.51 8.18 16 8.14 15.14C8.14 14.92 8.14 14.7 8.14 14.49C8.16 13.59 8.65 13.01 9.53 12.98C11.14 12.94 12.75 12.94 14.37 12.98C15.25 13.01 15.74 13.59 15.75 14.49C15.75 14.72 15.76 14.96 15.75 15.19C15.71 15.99 15.21 16.49 14.4 16.54C14.36 16.54 14.32 16.54 14.28 16.54L11.91 16.53ZM12 14.04C11.26 14.04 10.52 14.05 9.77 14.04C9.27 14.03 9.13 14.29 9.14 14.74C9.15 15.16 9.17 15.53 9.74 15.53C11.21 15.53 12.68 15.53 14.15 15.53C14.71 15.53 14.74 15.17 14.75 14.74C14.75 14.29 14.63 14.03 14.12 14.04C13.42 14.05 12.71 14.04 12 14.04Z" fill="#FA8B02" fill-opacity="1.000000" fill-rule="nonzero"/>
</svg>
