<svg width="24.000000" height="24.000000" viewBox="0 0 24 24" fill="none" xmlns="http://www.w3.org/2000/svg" xmlns:xlink="http://www.w3.org/1999/xlink">
	<desc>
			Created with Pixso.
	</desc>
	<defs/>
	<path id="Vector" d="M11.94 23.49L2.19 23.49C0.75 23.49 0 22.74 0 21.31C0 15.33 0 9.35 0 3.37C0 1.98 0.77 1.2 2.15 1.19C3.04 1.19 3.93 1.17 4.81 1.2C5.24 1.22 5.37 1.06 5.32 0.67C5.3 0.46 5.3 0.25 5.32 0.04C5.35 -0.28 5.53 -0.48 5.85 -0.5C6.17 -0.52 6.36 -0.32 6.44 -0.02C6.45 0.07 6.46 0.15 6.45 0.24C6.49 1.19 6.48 1.19 7.46 1.19C8.61 1.19 9.76 1.17 10.91 1.2C11.36 1.21 11.5 1.06 11.45 0.64C11.42 0.41 11.43 0.18 11.46 -0.04C11.47 -0.17 11.53 -0.29 11.63 -0.38C11.73 -0.47 11.86 -0.51 11.99 -0.5C12.29 -0.5 12.48 -0.33 12.53 -0.04C12.54 0.07 12.55 0.17 12.55 0.28C12.56 1.19 12.56 1.19 13.5 1.19C14.7 1.19 15.9 1.18 17.1 1.2C17.44 1.2 17.57 1.1 17.54 0.76C17.51 0.51 17.51 0.27 17.54 0.03C17.59 -0.3 17.79 -0.53 18.14 -0.5C18.45 -0.48 18.63 -0.28 18.66 0.04C18.66 0.08 18.66 0.11 18.66 0.15C18.72 1.19 18.72 1.19 19.8 1.19C20.51 1.19 21.22 1.18 21.93 1.19C23.2 1.22 23.99 2.01 23.99 3.27C23.99 9.32 23.99 15.37 23.99 21.42C23.99 22.7 23.19 23.49 21.9 23.49C18.58 23.5 15.26 23.5 11.94 23.49ZM11.99 8.05C8.55 8.05 5.11 8.06 1.66 8.04C1.22 8.04 1.12 8.17 1.12 8.6C1.13 12.84 1.13 17.08 1.13 21.33C1.13 22.11 1.37 22.36 2.16 22.36L21.83 22.36C22.61 22.36 22.86 22.11 22.86 21.33C22.86 17.09 22.85 12.85 22.87 8.6C22.87 8.17 22.76 8.05 22.32 8.05C18.88 8.07 15.44 8.05 11.99 8.05ZM11.99 6.92C15.45 6.92 18.91 6.92 22.37 6.93C22.75 6.93 22.87 6.82 22.86 6.44C22.83 5.38 22.86 4.32 22.85 3.26C22.85 2.62 22.57 2.34 21.92 2.33C21.19 2.31 20.46 2.33 19.73 2.33C18.7 2.33 18.7 2.33 18.67 3.33C18.67 3.38 18.67 3.44 18.67 3.49C18.64 3.81 18.45 4.01 18.14 4.03C17.79 4.05 17.59 3.84 17.54 3.5C17.52 3.29 17.51 3.08 17.54 2.87C17.59 2.46 17.46 2.3 17 2.31C15.88 2.35 14.75 2.32 13.62 2.32C12.58 2.32 12.58 2.32 12.55 3.33C12.55 3.4 12.55 3.47 12.54 3.54C12.49 3.84 12.31 4.02 12.02 4.03C11.95 4.04 11.87 4.03 11.81 4.01C11.74 3.99 11.68 3.95 11.62 3.91C11.57 3.86 11.53 3.8 11.5 3.74C11.47 3.68 11.45 3.61 11.45 3.54C11.42 3.29 11.42 3.05 11.44 2.81C11.49 2.4 11.32 2.31 10.94 2.31C9.67 2.34 8.4 2.32 7.13 2.32C6.45 2.32 6.45 2.32 6.45 2.98C6.46 3.15 6.45 3.33 6.44 3.5C6.4 3.82 6.21 4.02 5.89 4.03C5.56 4.03 5.34 3.83 5.32 3.48C5.31 3.24 5.31 2.99 5.32 2.75C5.34 2.45 5.26 2.31 4.92 2.32C3.97 2.34 3.01 2.32 2.06 2.33C1.42 2.33 1.14 2.62 1.14 3.27C1.13 4.31 1.16 5.35 1.12 6.4C1.11 6.84 1.25 6.94 1.68 6.94C5.12 6.92 8.56 6.92 11.99 6.92L11.99 6.92Z" fill="#FA8B02" fill-opacity="1.000000" fill-rule="nonzero"/>
	<path id="Vector" d="M12.06 12.91C11.91 13.07 11.77 13.25 11.6 13.4C11.56 13.45 11.5 13.49 11.44 13.52C11.38 13.54 11.32 13.56 11.25 13.56C11.19 13.56 11.12 13.55 11.06 13.52C11 13.5 10.94 13.46 10.89 13.42C10.65 13.21 10.58 12.92 10.79 12.68C11.31 12.07 11.83 11.47 12.41 10.91C12.72 10.6 13.19 10.8 13.29 11.23C13.31 11.35 13.32 11.47 13.32 11.6C13.32 14.01 13.32 16.43 13.32 18.85C13.32 18.95 13.31 19.06 13.3 19.16C13.23 19.47 13.04 19.65 12.71 19.64C12.41 19.62 12.24 19.44 12.2 19.14C12.19 19 12.19 18.86 12.19 18.72C12.19 16.97 12.19 15.21 12.19 13.46L12.19 12.95L12.06 12.91Z" fill="#FA8B02" fill-opacity="1.000000" fill-rule="nonzero"/>
</svg>
