<svg width="25.000000" height="18.000000" viewBox="0 0 25 18" fill="none" xmlns="http://www.w3.org/2000/svg" xmlns:xlink="http://www.w3.org/1999/xlink">
	<desc>
			Created with Pixso.
	</desc>
	<defs/>
	<path id="Vector" d="M12 17.26C8.25 17.26 4.5 17.26 0.76 17.26C0.01 17.26 0 17.24 0 16.49L0 2.2C0 1.48 0.01 1.46 0.73 1.46C5.2 1.46 9.66 1.47 14.13 1.47C14.49 1.47 14.73 1.39 14.97 1.09C15.33 0.67 15.77 0.32 16.27 0.09C16.77 -0.15 17.32 -0.27 17.87 -0.27C18.42 -0.27 18.97 -0.15 19.47 0.09C19.97 0.32 20.41 0.67 20.77 1.09C20.99 1.36 21.21 1.49 21.56 1.47C22.19 1.45 22.82 1.47 23.45 1.46C23.82 1.46 24 1.58 24 1.98C23.99 6.9 23.99 11.82 24 16.75C24 17.24 23.71 17.26 23.34 17.26C20.79 17.26 18.23 17.26 15.67 17.26L12 17.26ZM14.89 6.52C14.91 6.42 14.92 6.4 14.91 6.39C14.84 6.24 14.77 6.11 14.7 5.97C14.18 4.9 13.9 3.79 14.21 2.61C14.32 2.17 14.18 2.12 13.79 2.13C11.38 2.14 8.96 2.14 6.55 2.13C6.14 2.13 6.01 2.23 6.01 2.65C6.03 5.29 6.02 7.94 6.03 10.58C6.03 10.71 5.97 10.86 6.11 10.97C6.34 10.9 6.48 10.71 6.65 10.56C8.05 9.32 9.46 8.08 10.84 6.83C10.96 6.72 11.09 6.64 11.23 6.58C11.38 6.53 11.53 6.5 11.68 6.51C12.75 6.53 13.82 6.52 14.89 6.52ZM0.64 6.83C0.64 8.25 0.65 9.67 0.64 11.09C0.64 11.42 0.72 11.55 1.07 11.54C2.37 11.52 3.66 11.52 4.96 11.54C5.28 11.54 5.37 11.44 5.37 11.12C5.36 8.27 5.36 5.42 5.37 2.56C5.37 2.25 5.29 2.13 4.96 2.13C3.66 2.15 2.37 2.15 1.08 2.13C0.73 2.13 0.63 2.24 0.64 2.59C0.65 3.99 0.64 5.41 0.64 6.83L0.64 6.83ZM10.96 7.62L6.15 11.89C6.02 12.01 6.02 12.16 6.02 12.32C6.02 13.6 6.03 14.88 6.02 16.15C6.02 16.5 6.13 16.6 6.47 16.6C7.82 16.58 9.17 16.58 10.51 16.6C10.9 16.6 10.98 16.46 10.97 16.11C10.95 15.18 10.96 14.25 10.96 13.33L10.96 7.62ZM23.35 10.22C23.35 9.34 23.34 8.47 23.36 7.59C23.36 7.3 23.27 7.18 22.97 7.19C22.18 7.2 21.39 7.2 20.61 7.19C20.5 7.18 20.4 7.21 20.31 7.26C20.22 7.31 20.14 7.38 20.09 7.47C19.61 8.11 19.06 8.71 18.46 9.24C18.32 9.37 18.2 9.5 18.2 9.73C18.21 10.78 18.21 11.83 18.2 12.88C18.2 13.15 18.31 13.24 18.57 13.23C20.04 13.22 21.51 13.22 22.98 13.23C23.29 13.23 23.36 13.12 23.36 12.84C23.34 11.97 23.35 11.09 23.35 10.22ZM17.9 0.4C17.43 0.4 16.97 0.5 16.55 0.7C16.12 0.89 15.75 1.18 15.46 1.54C15.16 1.9 14.95 2.32 14.83 2.77C14.72 3.22 14.7 3.69 14.79 4.15C15.16 6.04 16.34 7.41 17.66 8.7C17.89 8.92 18.02 8.77 18.18 8.62C19.01 7.84 19.73 6.94 20.3 5.96C20.67 5.32 20.91 4.61 21 3.88C21.04 3.44 21 3 20.87 2.58C20.73 2.16 20.51 1.78 20.22 1.45C19.93 1.12 19.57 0.86 19.17 0.68C18.77 0.5 18.34 0.4 17.9 0.4ZM13.83 7.2C13.07 7.2 12.56 7.2 12.05 7.2C11.78 7.2 11.63 7.26 11.63 7.57C11.64 8.55 11.64 9.53 11.63 10.51C11.63 10.73 11.7 10.86 11.92 10.95C13.68 11.61 15.45 12.28 17.21 12.96C17.54 13.09 17.56 12.93 17.55 12.68C17.54 12.17 17.5 11.66 17.56 11.16C17.69 10.07 17.32 9.29 16.55 8.45C15.68 7.5 14.89 6.86 13.83 7.2ZM14.57 16.59C15.43 16.59 16.29 16.58 17.14 16.59C17.47 16.6 17.56 16.49 17.56 16.17C17.54 15.49 17.55 14.81 17.56 14.12C17.56 13.91 17.51 13.77 17.29 13.69C15.54 13.03 13.79 12.36 12.04 11.69C11.74 11.57 11.64 11.63 11.64 11.96C11.65 13.36 11.65 14.76 11.64 16.16C11.64 16.53 11.8 16.6 12.11 16.59C12.93 16.58 13.75 16.59 14.57 16.59L14.57 16.59ZM3.01 12.18C2.35 12.18 1.69 12.19 1.02 12.17C0.72 12.16 0.63 12.26 0.64 12.56C0.65 13.78 0.65 15.01 0.64 16.23C0.64 16.5 0.72 16.6 1 16.6C2.33 16.59 3.65 16.59 4.98 16.6C5.28 16.6 5.37 16.49 5.37 16.2C5.35 14.97 5.35 13.75 5.37 12.53C5.37 12.25 5.28 12.17 5 12.17C4.34 12.19 3.67 12.18 3.01 12.18L3.01 12.18ZM20.72 16.59C21.47 16.59 22.23 16.59 22.98 16.59C23.24 16.59 23.36 16.53 23.36 16.24C23.34 15.57 23.34 14.91 23.36 14.24C23.36 13.97 23.26 13.88 22.99 13.88C21.52 13.89 20.05 13.89 18.58 13.88C18.33 13.88 18.2 13.94 18.2 14.23C18.22 14.89 18.22 15.56 18.2 16.23C18.2 16.5 18.31 16.6 18.57 16.59C19.29 16.58 20 16.59 20.72 16.59L20.72 16.59ZM23.35 4.33L23.35 3.59C23.35 2.02 23.35 2.02 21.77 2.13C21.74 2.13 21.7 2.13 21.67 2.13C21.51 2.13 21.44 2.19 21.49 2.36C21.91 3.73 21.56 4.99 20.91 6.2C20.76 6.49 20.9 6.52 21.14 6.51C21.75 6.51 22.37 6.5 22.98 6.51C23.29 6.52 23.36 6.38 23.35 6.1C23.34 5.52 23.35 4.92 23.35 4.33L23.35 4.33Z" fill="#FA8B02" fill-opacity="1.000000" fill-rule="nonzero"/>
	<path id="Vector" d="M0.3 17.44Q0.42 17.46 0.76 17.46L12 17.46L15.67 17.46L19.51 17.46L23.34 17.46Q23.52 17.46 23.62 17.45Q23.79 17.43 23.9 17.36Q23.97 17.33 24.02 17.28Q24.2 17.1 24.2 16.75L24.2 1.98Q24.2 1.62 24.02 1.44Q24.01 1.43 23.99 1.42Q23.81 1.26 23.45 1.26Q23.2 1.27 22.69 1.26Q21.93 1.26 21.55 1.27Q21.35 1.28 21.21 1.21Q21.07 1.14 20.92 0.96Q20.64 0.62 20.3 0.36Q19.95 0.09 19.55 -0.09Q19.15 -0.28 18.73 -0.38Q18.31 -0.47 17.87 -0.47Q17.43 -0.47 17.01 -0.38Q16.58 -0.28 16.18 -0.09Q15.79 0.09 15.46 0.35Q15.11 0.62 14.82 0.97Q14.68 1.14 14.52 1.21Q14.37 1.27 14.13 1.27L0.73 1.26Q0.41 1.26 0.29 1.28Q0.07 1.31 -0.05 1.42Q-0.16 1.54 -0.19 1.76Q-0.21 1.88 -0.21 2.2L-0.21 16.49Q-0.21 16.83 -0.19 16.95Q-0.16 17.18 -0.05 17.3Q0.07 17.41 0.3 17.44ZM12 17.26L0.76 17.26C0.01 17.26 0 17.24 0 16.49L0 2.2C0 1.48 0.01 1.46 0.73 1.46Q7.43 1.46 14.13 1.47C14.49 1.47 14.73 1.39 14.97 1.09C15.33 0.67 15.77 0.32 16.27 0.09C16.77 -0.15 17.32 -0.27 17.87 -0.27C18.42 -0.27 18.97 -0.15 19.47 0.09C19.97 0.32 20.41 0.67 20.77 1.09C20.99 1.36 21.21 1.49 21.56 1.47C21.93 1.46 22.31 1.46 22.68 1.46C22.94 1.46 23.2 1.47 23.45 1.46C23.82 1.46 24 1.58 24 1.98Q23.98 9.36 24 16.75C24 17.24 23.71 17.26 23.34 17.26C20.79 17.26 18.23 17.26 15.67 17.26L12 17.26ZM17.9 0.4C17.43 0.4 16.97 0.5 16.55 0.7C16.12 0.89 15.75 1.18 15.46 1.54C15.16 1.9 14.95 2.32 14.83 2.77C14.72 3.22 14.7 3.69 14.79 4.15C15.16 6.04 16.34 7.41 17.66 8.7C17.87 8.91 18.01 8.78 18.15 8.64C18.16 8.63 18.17 8.62 18.18 8.62C19.01 7.84 19.73 6.94 20.3 5.96C20.67 5.32 20.91 4.61 21 3.88C21.04 3.44 21 3 20.87 2.58C20.73 2.16 20.51 1.78 20.22 1.45C19.93 1.12 19.57 0.86 19.17 0.68C18.77 0.5 18.34 0.4 17.9 0.4ZM16.08 1.21Q16.33 1.02 16.63 0.88Q16.93 0.74 17.24 0.67Q17.56 0.6 17.9 0.6Q18.21 0.6 18.51 0.67Q18.8 0.73 19.09 0.86Q19.37 0.99 19.62 1.17Q19.87 1.35 20.07 1.58Q20.28 1.81 20.43 2.08Q20.58 2.34 20.68 2.64Q20.77 2.95 20.8 3.25Q20.83 3.55 20.8 3.86Q20.73 4.39 20.57 4.89Q20.4 5.39 20.13 5.86Q19.72 6.56 19.22 7.19Q18.69 7.87 18.04 8.47Q18.03 8.48 18.01 8.5Q17.91 8.6 17.87 8.61L17.87 8.61Q17.84 8.6 17.8 8.56Q17.24 8.01 16.86 7.58Q16.38 7.04 16.04 6.54Q15.24 5.36 14.99 4.11Q14.93 3.79 14.93 3.46Q14.94 3.14 15.02 2.82Q15.11 2.5 15.25 2.21Q15.4 1.92 15.61 1.67Q15.82 1.41 16.08 1.21ZM23.35 4.28L23.35 3.59C23.35 2.02 23.35 2.02 21.77 2.13L21.67 2.13C21.51 2.13 21.44 2.19 21.49 2.36C21.91 3.73 21.56 4.99 20.91 6.2C20.76 6.49 20.9 6.52 21.14 6.51C21.34 6.51 21.55 6.51 21.75 6.51C22.16 6.5 22.57 6.5 22.98 6.51C23.29 6.52 23.36 6.38 23.35 6.1C23.34 5.73 23.35 5.35 23.35 4.97L23.35 4.97C23.35 4.77 23.35 4.57 23.35 4.38L23.35 4.33L23.35 4.33L23.35 4.33L23.35 4.28ZM23.15 4.33L23.15 4.33L23.15 3.59Q23.15 2.92 23.13 2.71Q23.1 2.45 23.02 2.38Q22.94 2.3 22.68 2.29Q22.47 2.28 21.79 2.33L21.78 2.33L21.69 2.33Q21.81 2.72 21.85 3.13Q21.92 3.74 21.8 4.37Q21.64 5.27 21.09 6.29Q21.08 6.3 21.08 6.31Q21.1 6.31 21.13 6.31L21.14 6.31L21.14 6.31Q21.34 6.31 21.75 6.31Q22.57 6.3 22.98 6.31Q23.07 6.31 23.11 6.3Q23.12 6.3 23.13 6.29Q23.15 6.26 23.15 6.11Q23.14 5.73 23.15 4.97Q23.15 4.54 23.15 4.33ZM14.89 6.52C14.9 6.48 14.9 6.45 14.91 6.43C14.91 6.4 14.92 6.39 14.91 6.39C14.91 6.37 14.9 6.36 14.89 6.34C14.89 6.33 14.88 6.33 14.88 6.32C14.82 6.2 14.76 6.08 14.7 5.97C14.18 4.9 13.9 3.79 14.21 2.61C14.32 2.17 14.18 2.12 13.79 2.13Q10.17 2.14 6.55 2.13C6.14 2.13 6.01 2.23 6.01 2.65C6.03 4.41 6.03 6.18 6.03 7.94L6.03 7.94C6.02 8.82 6.02 9.7 6.03 10.58C6.03 10.61 6.02 10.64 6.02 10.67C6.01 10.78 6 10.89 6.11 10.97C6.34 10.9 6.48 10.71 6.65 10.56C8.05 9.32 9.46 8.08 10.84 6.83C10.96 6.72 11.09 6.64 11.23 6.58C11.38 6.53 11.53 6.5 11.68 6.51C12.46 6.53 13.22 6.52 14 6.52L14 6.52C14.29 6.52 14.59 6.52 14.89 6.52ZM10.71 6.68Q10.8 6.59 10.92 6.51Q11.03 6.44 11.16 6.39Q11.29 6.35 11.42 6.33Q11.55 6.3 11.69 6.31Q12.46 6.33 14 6.32Q14.39 6.32 14.66 6.32Q14.65 6.3 14.64 6.29Q14.56 6.13 14.52 6.05Q14.08 5.16 13.94 4.37Q13.83 3.7 13.91 3.06Q13.95 2.81 14.01 2.56Q14.05 2.43 14.04 2.36Q14.04 2.35 14.04 2.35Q14.03 2.34 14 2.34Q13.94 2.32 13.8 2.33L6.55 2.33Q6.32 2.33 6.26 2.38Q6.21 2.43 6.21 2.65L6.22 6.61L6.23 10.58Q6.23 10.62 6.22 10.69Q6.28 10.64 6.4 10.53Q6.47 10.45 6.52 10.42Q6.77 10.19 7.29 9.73Q9.58 7.7 10.71 6.68ZM0.64 6.83C0.64 7.2 0.64 7.57 0.64 7.93C0.65 8.98 0.65 10.04 0.64 11.09C0.64 11.42 0.72 11.55 1.07 11.54C2.37 11.52 3.66 11.52 4.96 11.54C5.28 11.54 5.37 11.44 5.37 11.12Q5.36 6.84 5.37 2.56C5.37 2.25 5.29 2.13 4.96 2.13Q3.02 2.16 1.08 2.13C0.73 2.13 0.63 2.24 0.64 2.59C0.65 3.62 0.65 4.66 0.64 5.7C0.64 6.08 0.64 6.45 0.64 6.83L0.64 6.83ZM0.87 11.31Q0.83 11.27 0.83 11.09L0.83 11.09L0.84 8.25L0.84 6.83L0.84 6.83Q0.84 6.45 0.84 5.7Q0.85 3.62 0.83 2.58Q0.83 2.41 0.87 2.37Q0.9 2.33 1.07 2.33Q3.02 2.36 4.96 2.33Q5.11 2.33 5.14 2.36Q5.17 2.4 5.17 2.56L5.17 11.12Q5.17 11.28 5.14 11.31Q5.11 11.34 4.96 11.34Q2.9 11.31 1.07 11.34Q0.9 11.34 0.87 11.31ZM13.83 7.2C13.55 7.2 13.31 7.2 13.09 7.2C12.7 7.2 12.38 7.2 12.05 7.2C11.78 7.2 11.63 7.26 11.63 7.57C11.64 8.55 11.64 9.53 11.63 10.51C11.63 10.73 11.7 10.86 11.92 10.95Q14.57 11.94 17.21 12.96C17.54 13.09 17.56 12.93 17.55 12.68C17.55 12.55 17.55 12.42 17.54 12.29C17.53 11.91 17.52 11.53 17.56 11.16C17.69 10.07 17.32 9.29 16.55 8.45C15.68 7.5 14.89 6.86 13.83 7.2ZM20.09 7.47C19.61 8.11 19.06 8.71 18.46 9.24C18.32 9.37 18.2 9.5 18.2 9.73Q18.22 11.3 18.2 12.88C18.2 13.15 18.31 13.24 18.57 13.23Q20.78 13.22 22.98 13.23C23.29 13.23 23.36 13.12 23.36 12.84C23.35 12.21 23.35 11.57 23.35 10.94L23.35 10.94C23.35 10.7 23.35 10.46 23.35 10.22C23.35 9.98 23.35 9.74 23.35 9.49L23.35 9.49C23.35 8.86 23.35 8.23 23.36 7.59C23.36 7.3 23.27 7.18 22.97 7.19C22.18 7.2 21.39 7.2 20.61 7.19C20.5 7.18 20.4 7.21 20.31 7.26C20.22 7.31 20.14 7.38 20.09 7.47ZM11.86 7.42Q11.9 7.4 12.05 7.4Q12.38 7.4 13.09 7.4Q13.55 7.4 13.83 7.4L13.86 7.4L13.89 7.39Q14.23 7.28 14.55 7.32Q14.86 7.35 15.17 7.52Q15.46 7.67 15.78 7.96Q16.05 8.2 16.4 8.58Q16.98 9.21 17.21 9.78Q17.21 9.79 17.22 9.8Q17.45 10.41 17.36 11.14Q17.33 11.4 17.33 11.72Q17.33 11.92 17.34 12.3Q17.35 12.56 17.35 12.68Q17.35 12.75 17.35 12.8Q17.32 12.79 17.28 12.77L11.99 10.76Q11.89 10.72 11.86 10.67Q11.83 10.62 11.83 10.51Q11.84 8.61 11.83 7.57Q11.83 7.45 11.86 7.42ZM23.13 7.41Q23.16 7.44 23.16 7.59L23.16 7.59Q23.15 8.23 23.15 9.49Q23.15 9.98 23.15 10.22Q23.15 10.46 23.15 10.94Q23.15 12.21 23.16 12.84Q23.16 12.98 23.13 13.01Q23.13 13.01 23.11 13.02Q23.06 13.03 22.98 13.03L18.57 13.03Q18.45 13.03 18.42 13.01Q18.42 13.01 18.41 12.99Q18.4 12.95 18.4 12.88Q18.42 11.3 18.4 9.73Q18.4 9.65 18.43 9.59Q18.44 9.57 18.45 9.56Q18.49 9.49 18.59 9.39Q19.05 8.98 19.47 8.53Q19.88 8.08 20.25 7.59L20.25 7.58L20.26 7.57Q20.29 7.53 20.32 7.49Q20.36 7.46 20.41 7.43Q20.44 7.41 20.48 7.4Q20.54 7.38 20.61 7.39Q21.89 7.4 22.97 7.39Q23.1 7.38 23.13 7.41ZM10.76 7.79L6.15 11.89C6.02 12 6.02 12.15 6.02 12.3L6.02 12.32C6.02 12.67 6.02 13.02 6.02 13.37L6.02 13.37C6.03 14.3 6.03 15.23 6.02 16.15C6.02 16.5 6.13 16.6 6.47 16.6C7.82 16.58 9.17 16.58 10.51 16.6C10.9 16.6 10.98 16.46 10.97 16.11C10.96 15.44 10.96 14.77 10.96 14.1C10.96 13.84 10.96 13.59 10.96 13.33L10.96 7.62L10.76 7.79ZM10.76 8.06L6.28 12.03L6.28 12.04Q6.27 12.04 6.27 12.05Q6.24 12.08 6.23 12.13Q6.22 12.17 6.22 12.3L6.22 12.32Q6.22 12.67 6.22 13.37Q6.23 15.23 6.22 16.16Q6.22 16.33 6.25 16.36Q6.29 16.4 6.47 16.4Q8.67 16.37 10.52 16.4Q10.7 16.4 10.74 16.36Q10.77 16.31 10.77 16.11Q10.76 15.44 10.76 14.1Q10.76 13.58 10.76 13.33L10.76 8.06ZM14.77 16.59C14.71 16.59 14.64 16.59 14.57 16.59L14.57 16.59C14.29 16.59 14 16.59 13.72 16.59L13.72 16.59C13.18 16.59 12.65 16.58 12.11 16.59C11.8 16.6 11.64 16.53 11.64 16.16C11.65 14.76 11.65 13.36 11.64 11.96C11.64 11.63 11.74 11.57 12.04 11.69Q14.66 12.7 17.29 13.69C17.51 13.77 17.56 13.91 17.56 14.12C17.55 14.81 17.54 15.49 17.56 16.17C17.56 16.49 17.47 16.6 17.14 16.59C16.57 16.58 16 16.59 15.43 16.59L15.43 16.59C15.21 16.59 14.99 16.59 14.77 16.59ZM14.77 16.39Q15.03 16.39 15.43 16.39Q16.57 16.38 17.15 16.39L17.15 16.39Q17.3 16.4 17.33 16.36Q17.36 16.33 17.36 16.17Q17.34 15.42 17.36 14.12Q17.36 14 17.34 13.95Q17.31 13.91 17.22 13.87L11.97 11.87Q11.89 11.84 11.85 11.84Q11.84 11.88 11.84 11.96Q11.86 14.41 11.84 16.16Q11.84 16.33 11.88 16.36Q11.93 16.39 12.11 16.39Q12.65 16.38 13.72 16.39Q14.29 16.39 14.57 16.39L14.77 16.39L14.77 16.39ZM3.01 12.18C2.82 12.18 2.63 12.18 2.44 12.18C1.97 12.18 1.49 12.18 1.02 12.17C0.72 12.16 0.63 12.26 0.64 12.56C0.65 13.78 0.65 15.01 0.64 16.23C0.64 16.5 0.72 16.6 1 16.6Q1.99 16.59 2.98 16.59L2.99 16.59Q3.99 16.59 4.98 16.6C5.28 16.6 5.37 16.49 5.37 16.2C5.35 14.97 5.35 13.75 5.37 12.53C5.37 12.25 5.28 12.17 5 12.17C4.53 12.18 4.06 12.18 3.58 12.18L3.58 12.18C3.46 12.18 3.34 12.18 3.21 12.18C3.15 12.18 3.08 12.18 3.01 12.18L3.01 12.18ZM3.21 12.38L3.21 12.38L3.01 12.38Q2.82 12.38 2.44 12.38Q1.49 12.38 1.02 12.37L1.02 12.37Q0.93 12.37 0.88 12.38Q0.86 12.39 0.86 12.39Q0.83 12.42 0.84 12.56Q0.86 14.24 0.84 16.23Q0.84 16.35 0.86 16.38Q0.86 16.38 0.88 16.38Q0.92 16.4 1 16.4L2.98 16.39L4.98 16.4Q5.12 16.4 5.14 16.37Q5.17 16.34 5.17 16.2L5.17 12.53Q5.17 12.45 5.15 12.41Q5.15 12.39 5.15 12.39Q5.14 12.38 5.13 12.38Q5.08 12.37 5.01 12.37Q4.53 12.38 3.58 12.38Q3.37 12.38 3.21 12.38ZM20.92 16.59C20.86 16.59 20.79 16.59 20.72 16.59L20.72 16.59C20.49 16.59 20.27 16.59 20.04 16.59L20.04 16.59C19.55 16.59 19.06 16.59 18.57 16.59C18.31 16.6 18.2 16.5 18.2 16.23Q18.22 15.23 18.2 14.23C18.2 13.94 18.33 13.88 18.58 13.88Q20.78 13.89 22.99 13.88C23.26 13.88 23.36 13.97 23.36 14.24C23.34 14.91 23.34 15.57 23.36 16.24C23.36 16.53 23.24 16.59 22.98 16.59C22.48 16.59 21.98 16.59 21.47 16.59C21.29 16.59 21.11 16.59 20.92 16.59ZM20.92 16.39L22.98 16.39Q23.11 16.39 23.14 16.37Q23.14 16.37 23.15 16.35Q23.16 16.32 23.16 16.24Q23.13 15.31 23.16 14.24Q23.16 14.12 23.13 14.1Q23.11 14.08 22.99 14.08L18.58 14.08Q18.45 14.08 18.42 14.1Q18.42 14.1 18.41 14.12Q18.4 14.15 18.4 14.23Q18.42 15.23 18.4 16.23Q18.4 16.35 18.43 16.37Q18.45 16.39 18.57 16.39Q19.06 16.39 20.04 16.39Q20.49 16.39 20.72 16.39L20.92 16.39L20.92 16.39Z" fill="#FA8B02" fill-opacity="1.000000" fill-rule="evenodd"/>
	<path id="Vector" d="M15.98 3.53C15.98 3.28 16.03 3.03 16.12 2.8C16.22 2.57 16.36 2.36 16.53 2.19C16.71 2.01 16.92 1.87 17.15 1.78C17.38 1.68 17.63 1.63 17.88 1.64C18.13 1.63 18.39 1.68 18.62 1.78C18.86 1.87 19.07 2.02 19.25 2.2C19.43 2.38 19.58 2.59 19.67 2.83C19.77 3.06 19.82 3.32 19.81 3.57C19.81 3.83 19.76 4.08 19.66 4.31C19.55 4.55 19.41 4.76 19.22 4.93C19.04 5.11 18.82 5.25 18.58 5.34C18.35 5.43 18.09 5.47 17.84 5.46C17.59 5.46 17.34 5.41 17.11 5.31C16.88 5.21 16.67 5.07 16.5 4.89C16.33 4.71 16.19 4.5 16.1 4.26C16.01 4.03 15.97 3.78 15.98 3.53ZM16.63 3.56C16.63 3.9 16.76 4.22 16.99 4.45C17.23 4.69 17.55 4.82 17.88 4.82C18.21 4.82 18.53 4.69 18.77 4.45C19 4.22 19.14 3.9 19.14 3.56C19.14 3.23 19 2.91 18.77 2.68C18.53 2.44 18.21 2.31 17.88 2.31C17.55 2.31 17.23 2.44 16.99 2.68C16.76 2.91 16.63 3.23 16.63 3.56Z" fill="#FA8B02" fill-opacity="1.000000" fill-rule="nonzero"/>
	<path id="Vector" d="M16.13 2.36Q16.02 2.53 15.94 2.73Q15.86 2.92 15.82 3.12Q15.78 3.32 15.78 3.53Q15.77 3.73 15.8 3.93Q15.84 4.14 15.91 4.33Q15.99 4.53 16.1 4.7Q16.21 4.88 16.36 5.03Q16.5 5.18 16.67 5.3Q16.84 5.41 17.03 5.5Q17.22 5.58 17.43 5.62Q17.63 5.66 17.83 5.66Q18.05 5.67 18.25 5.64Q18.46 5.6 18.66 5.53Q18.86 5.45 19.03 5.34Q19.21 5.22 19.36 5.08Q19.52 4.93 19.64 4.76Q19.75 4.59 19.84 4.39Q19.92 4.2 19.97 3.99Q20.01 3.79 20.01 3.57Q20.02 3.36 19.98 3.15Q19.94 2.95 19.86 2.75Q19.78 2.55 19.66 2.38Q19.54 2.21 19.39 2.06Q19.24 1.91 19.07 1.79Q18.9 1.67 18.7 1.59Q18.48 1.51 18.26 1.47Q18.07 1.43 17.88 1.44Q17.67 1.43 17.47 1.47Q17.27 1.51 17.08 1.59Q16.88 1.67 16.71 1.78Q16.54 1.9 16.39 2.05Q16.25 2.19 16.13 2.36ZM17.84 5.46C18.09 5.47 18.35 5.43 18.58 5.34C18.82 5.25 19.04 5.11 19.22 4.93C19.41 4.76 19.55 4.55 19.66 4.31C19.76 4.08 19.81 3.83 19.81 3.57C19.82 3.32 19.77 3.06 19.67 2.83C19.58 2.59 19.43 2.38 19.25 2.2C19.07 2.02 18.86 1.87 18.62 1.78C18.39 1.68 18.13 1.63 17.88 1.64C17.63 1.63 17.38 1.68 17.15 1.78C16.92 1.87 16.71 2.01 16.53 2.19C16.36 2.36 16.22 2.57 16.12 2.8C16.03 3.03 15.98 3.28 15.98 3.53C15.97 3.78 16.01 4.03 16.1 4.26C16.19 4.5 16.33 4.71 16.5 4.89C16.67 5.07 16.88 5.21 17.11 5.31C17.34 5.41 17.59 5.46 17.84 5.46ZM16.63 3.56C16.63 3.9 16.76 4.22 16.99 4.45C17.23 4.69 17.55 4.82 17.88 4.82C18.21 4.82 18.53 4.69 18.77 4.45C19 4.22 19.14 3.9 19.14 3.56C19.14 3.23 19 2.91 18.77 2.68C18.53 2.44 18.21 2.31 17.88 2.31C17.55 2.31 17.23 2.44 16.99 2.68C16.76 2.91 16.63 3.23 16.63 3.56ZM17.29 4.44Q17.21 4.38 17.14 4.31Q17.06 4.24 17 4.15Q16.95 4.06 16.91 3.97Q16.87 3.87 16.85 3.77Q16.83 3.67 16.83 3.56Q16.83 3.46 16.85 3.36Q16.87 3.26 16.91 3.16Q16.95 3.06 17 2.98Q17.06 2.89 17.14 2.82Q17.21 2.74 17.29 2.69Q17.38 2.63 17.48 2.59Q17.58 2.55 17.68 2.53Q17.78 2.51 17.88 2.51Q17.99 2.51 18.09 2.53Q18.19 2.55 18.29 2.59Q18.38 2.63 18.47 2.69Q18.55 2.74 18.63 2.82Q18.7 2.89 18.76 2.98Q18.82 3.06 18.86 3.16Q18.9 3.26 18.92 3.36Q18.94 3.46 18.94 3.56Q18.94 3.67 18.92 3.77Q18.9 3.87 18.86 3.97Q18.82 4.06 18.76 4.15Q18.7 4.24 18.63 4.31Q18.55 4.38 18.47 4.44Q18.38 4.5 18.29 4.54Q18.19 4.58 18.09 4.6Q17.99 4.62 17.88 4.62Q17.78 4.62 17.68 4.6Q17.58 4.58 17.48 4.54Q17.38 4.5 17.29 4.44Z" fill="#FA8B02" fill-opacity="1.000000" fill-rule="evenodd"/>
</svg>
