<svg width="24.000000" height="24.000000" viewBox="0 0 24 24" fill="none" xmlns="http://www.w3.org/2000/svg" xmlns:xlink="http://www.w3.org/1999/xlink">
	<desc>
			Created with Pixso.
	</desc>
	<defs>
		<clipPath id="clip201_23882">
			<rect id="clarity:logout-line" width="24.000000" height="24.000000" transform="translate(0.000000 -0.500000)" fill="white" fill-opacity="0"/>
		</clipPath>
	</defs>
	<g opacity="0.800000">
		<rect id="clarity:logout-line" width="24.000000" height="24.000000" transform="translate(0.000000 -0.500000)" fill="#FFFFFF" fill-opacity="0"/>
		<g clip-path="url(#clip201_23882)">
			<path id="Vector" d="M4.66 3.5L15.33 3.5L15.33 10.03L16.66 10.03L16.66 3.5C16.66 3.14 16.52 2.8 16.27 2.55C16.02 2.3 15.68 2.16 15.33 2.16L4.66 2.16C4.31 2.16 3.97 2.3 3.72 2.55C3.47 2.8 3.33 3.14 3.33 3.5L3.33 19.5C3.33 19.85 3.47 20.19 3.72 20.44C3.97 20.69 4.31 20.83 4.66 20.83L15.33 20.83C15.68 20.83 16.02 20.69 16.27 20.44C16.52 20.19 16.66 19.85 16.66 19.5L4.66 19.5L4.66 3.5Z" fill="#333333" fill-opacity="1.000000" fill-rule="nonzero"/>
			<path id="Vector" d="M18.77 11.01C18.64 10.91 18.48 10.85 18.31 10.86C18.14 10.86 17.98 10.93 17.86 11.05C17.75 11.17 17.68 11.33 17.67 11.5C17.66 11.66 17.72 11.83 17.83 11.96L20.08 14.16L10.42 14.16C10.24 14.16 10.07 14.23 9.94 14.36C9.82 14.48 9.75 14.65 9.75 14.83C9.75 15.01 9.82 15.17 9.94 15.3C10.07 15.42 10.24 15.49 10.42 15.49L20.08 15.49L17.83 17.8C17.76 17.86 17.7 17.93 17.66 18.02C17.62 18.1 17.6 18.19 17.6 18.28C17.59 18.37 17.61 18.47 17.64 18.55C17.68 18.64 17.73 18.71 17.79 18.78C17.86 18.84 17.93 18.9 18.02 18.93C18.11 18.96 18.2 18.98 18.29 18.97C18.38 18.97 18.47 18.95 18.55 18.91C18.64 18.87 18.71 18.81 18.77 18.74L22.66 14.87L18.77 11.01Z" fill="#333333" fill-opacity="1.000000" fill-rule="nonzero"/>
		</g>
	</g>
</svg>
