<svg width="24.000000" height="24.000000" viewBox="0 0 24 24" fill="none" xmlns="http://www.w3.org/2000/svg" xmlns:xlink="http://www.w3.org/1999/xlink">
	<desc>
			Created with Pixso.
	</desc>
	<defs>
		<clipPath id="clip201_28914">
			<rect id="clarity:window-close-line" width="24.000000" height="24.000000" transform="translate(0.000000 -0.920044)" fill="white" fill-opacity="0"/>
		</clipPath>
	</defs>
	<g opacity="0.400000">
		<rect id="clarity:window-close-line" width="24.000000" height="24.000000" transform="translate(0.000000 -0.920044)" fill="#FFFFFF" fill-opacity="0"/>
		<g clip-path="url(#clip201_28914)">
			<path id="Vector" d="M12.93 11.07L17.79 6.21C17.9 6.09 17.96 5.92 17.95 5.76C17.95 5.59 17.88 5.43 17.76 5.31C17.64 5.19 17.48 5.12 17.31 5.12C17.15 5.11 16.98 5.17 16.85 5.27L12 10.14L7.13 5.27C7.01 5.16 6.84 5.1 6.68 5.11C6.51 5.11 6.35 5.18 6.23 5.3C6.11 5.42 6.04 5.58 6.04 5.75C6.03 5.92 6.09 6.08 6.19 6.21L11.05 11.07L6.19 15.93C6.12 15.99 6.06 16.07 6.02 16.15C5.98 16.23 5.96 16.32 5.96 16.42C5.95 16.51 5.97 16.6 6 16.68C6.03 16.77 6.08 16.85 6.15 16.91C6.21 16.98 6.29 17.03 6.38 17.06C6.46 17.1 6.56 17.11 6.65 17.11C6.74 17.1 6.83 17.08 6.91 17.04C7 17 7.07 16.94 7.13 16.87L12 12.01L16.85 16.87C16.98 16.98 17.15 17.04 17.31 17.03C17.48 17.03 17.64 16.96 17.76 16.84C17.88 16.72 17.95 16.56 17.95 16.39C17.96 16.23 17.9 16.06 17.79 15.93L12.93 11.07Z" fill="#333333" fill-opacity="1.000000" fill-rule="nonzero"/>
		</g>
	</g>
</svg>
