<svg width="25.000000" height="24.000000" viewBox="0 0 25 24" fill="none" xmlns="http://www.w3.org/2000/svg" xmlns:xlink="http://www.w3.org/1999/xlink">
	<desc>
			Created with Pixso.
	</desc>
	<defs/>
	<path id="Vector" d="M10.47 14.93C10.18 16.17 9.59 16.99 8.56 17.43C6.85 18.18 4.9 17.24 4.37 15.4C4.27 15.05 4.14 14.92 3.79 14.96C3.61 14.97 3.43 14.97 3.25 14.96C2.21 14.96 1.51 15.53 1.36 16.55C1.19 17.67 1.06 18.79 0.89 19.91C0.83 20.29 0.94 20.4 1.33 20.41C2.71 20.41 2.71 20.43 2.71 19.04C2.71 18.71 2.66 18.38 3.18 18.45C3.41 18.48 3.49 18.55 3.49 18.78C3.48 20.23 3.48 21.68 3.49 23.14C3.49 23.45 3.34 23.48 3.09 23.48C2.84 23.49 2.69 23.43 2.7 23.13C2.72 22.59 2.7 22.05 2.71 21.51C2.72 21.26 2.63 21.18 2.37 21.17C1.14 21.09 1.14 21.08 1.14 22.29C1.14 22.54 1.13 22.8 1.14 23.05C1.15 23.3 1.13 23.49 0.78 23.49C0.45 23.49 0.34 23.38 0.36 23.05C0.38 22.64 0.36 22.23 0.36 21.81C0.36 21.52 0.42 21.22 0.09 21.01C-0.07 20.91 -0.01 20.67 0.02 20.5C0.21 19.13 0.39 17.76 0.59 16.39C0.8 14.98 2.07 14.05 3.27 14.17C3.86 14.23 4.45 14.17 5.05 14.19C5.32 14.2 5.41 14.11 5.42 13.82C5.43 13.27 5.39 12.83 4.84 12.46C4.12 11.98 3.73 11.21 3.57 10.34C3.52 10.08 3.43 9.95 3.14 9.92C2.88 9.91 2.64 9.82 2.44 9.66C2.24 9.51 2.09 9.29 2.02 9.05C1.83 8.51 1.93 8.01 2.35 7.62C2.43 7.55 2.49 7.46 2.52 7.36C2.55 7.26 2.56 7.15 2.53 7.05C2.46 6.57 2.41 6.09 2.34 5.61C1.99 3.18 3.91 1.62 5.65 1.79C6.63 1.88 7.63 1.71 8.61 1.88C9.33 2.01 10 2.19 10.08 3.1C10.1 3.32 10.31 3.34 10.49 3.37C11.53 3.57 12 4.14 12 5.2C12 5.6 12 5.99 12 6.39C12 6.89 11.99 7.33 12.45 7.77C13.17 8.49 12.67 9.73 11.64 9.91C11.3 9.97 11.19 10.1 11.11 10.43C10.91 11.34 10.38 12.14 9.63 12.68C9.36 12.88 9.15 13.81 9.31 14.09C9.33 14.12 9.37 14.15 9.41 14.17C9.45 14.19 9.49 14.2 9.54 14.19C10 14.17 10.5 14.34 10.81 13.78C10.94 13.55 11.24 13.43 11.52 13.44C11.87 13.47 11.93 13.27 11.97 13C12.08 12.24 12.23 11.48 12.31 10.72C12.36 10.26 12.54 9.98 12.99 9.8C13.85 9.46 14.7 9.05 15.55 8.67C15.95 8.5 16 8.31 15.64 8.03C14.99 7.53 14.55 6.81 14.4 6.01C14.35 5.77 14.25 5.7 14.01 5.67C13.26 5.56 12.77 5.03 12.76 4.35C12.75 3.67 13.24 3.1 13.97 3C14.25 2.96 14.31 2.87 14.35 2.61C14.61 0.74 16.01 -0.5 17.82 -0.5C19.62 -0.5 21.02 0.75 21.27 2.62C21.31 2.89 21.39 2.96 21.65 2.99C22.39 3.1 22.87 3.67 22.86 4.35C22.85 4.68 22.73 4.99 22.5 5.23C22.28 5.47 21.98 5.62 21.65 5.65C21.37 5.69 21.25 5.78 21.2 6.05C21.06 6.84 20.62 7.47 20.02 7.99C19.62 8.34 19.64 8.47 20.14 8.7C21 9.09 21.87 9.48 22.75 9.85C22.89 9.9 23.02 9.99 23.11 10.11C23.21 10.23 23.26 10.37 23.27 10.52C23.5 12.03 23.74 13.54 23.97 15.05C24.01 15.3 24.05 15.55 23.77 15.71C23.57 15.83 23.64 16.04 23.64 16.2C23.63 17.26 23.64 18.32 23.64 19.38C23.64 20.63 23.14 21.37 21.99 21.82C21.76 21.91 21.69 22.02 21.7 22.25C21.71 22.52 21.68 22.79 21.71 23.06C21.73 23.38 21.63 23.5 21.29 23.5C20.95 23.5 20.92 23.33 20.92 23.07C20.93 22.19 20.91 21.31 20.93 20.43C20.94 20.1 20.84 20 20.5 20C18.67 20.01 16.84 20.01 15 20C14.64 20 14.57 20.11 14.66 20.43C14.73 20.7 14.76 20.97 14.46 21.15C14.29 21.26 14.34 21.44 14.34 21.59C14.33 22.09 14.32 22.6 14.34 23.1C14.35 23.41 14.22 23.49 13.92 23.5C13.6 23.5 13.52 23.37 13.53 23.08C13.55 22.57 13.52 22.07 13.54 21.57C13.56 21.26 13.43 21.18 13.14 21.17C12 21.15 12 21.14 12 22.27C12 22.53 11.99 22.78 12 23.03C12.01 23.31 12 23.5 11.62 23.5C11.24 23.5 11.23 23.33 11.23 23.04C11.24 21.66 11.24 20.27 11.23 18.89C11.23 18.57 11.31 18.46 11.65 18.46C12 18.46 12.02 18.64 12 18.9C11.99 18.97 11.99 19.04 12 19.11C12.05 19.53 11.79 20.15 12.12 20.33C12.51 20.54 13.09 20.39 13.59 20.41C13.83 20.41 13.85 20.27 13.83 20.08C13.64 18.82 13.47 17.56 13.27 16.3C13.2 15.89 13.03 15.62 12.46 15.72C11.75 15.84 10.97 15.88 10.47 14.93ZM13.94 15.68C13.94 14.63 13.94 13.69 13.94 12.75C13.94 12.48 13.88 12.23 14.33 12.23C14.77 12.24 14.7 12.5 14.7 12.76C14.7 14.75 14.72 16.75 14.7 18.74C14.7 19.13 14.79 19.25 15.2 19.25C16.93 19.22 18.65 19.22 20.38 19.25C20.84 19.26 20.94 19.11 20.94 18.67C20.91 16.66 20.94 14.65 20.92 12.64C20.92 12.34 21 12.24 21.32 12.24C21.63 12.24 21.72 12.34 21.71 12.64C21.69 13.09 21.71 13.54 21.71 13.99C21.71 14.98 21.71 14.96 22.71 14.96C23.08 14.96 23.17 14.85 23.11 14.49C22.91 13.31 22.74 12.12 22.57 10.93C22.53 10.66 22.39 10.53 22.16 10.43C21.44 10.11 20.71 9.79 20 9.46C19.78 9.36 19.68 9.37 19.54 9.61C18.67 11.09 16.95 11.09 16.11 9.62C15.98 9.4 15.89 9.35 15.66 9.46C14.92 9.8 14.18 10.12 13.44 10.44C13.25 10.53 13.12 10.63 13.09 10.87C12.99 11.6 12.87 12.32 12.75 13.05C12.71 13.3 12.72 13.47 12.99 13.61C13.19 13.7 13.35 13.86 13.45 14.05C13.54 14.25 13.57 14.47 13.53 14.68C13.46 15.09 13.65 15.33 13.94 15.68ZM11.24 7C11.24 6.36 11.24 5.79 11.24 5.21C11.23 4.51 11 4.24 10.31 4.14C9.81 4.07 9.42 3.82 9.35 3.34C9.29 2.86 9 2.73 8.61 2.66C7.57 2.49 6.53 2.59 5.49 2.58C4.27 2.56 3.31 3.37 3.12 4.57C2.99 5.45 3.24 6.29 3.34 7.22C3.83 6.69 4.46 6.73 5 6.54C5.33 6.41 5.61 6.45 5.87 6.73C6.2 7.07 6.63 7.2 7.09 7.22C7.4 7.23 7.7 7.18 7.98 7.05C8.26 6.92 8.51 6.73 8.7 6.49C9.04 6.05 9.39 6.01 9.86 6.29C10.27 6.55 10.72 6.74 11.24 7ZM10.46 8.92C10.46 8.45 10.46 8.11 10.46 7.77C10.47 7.23 9.95 7.3 9.68 7.09C9.5 6.96 9.35 6.97 9.15 7.13C7.79 8.25 7.02 8.3 5.45 7.4C4.96 7.12 4.25 7.5 4.25 8.04C4.25 8.56 4.24 9.08 4.25 9.6C4.26 10.27 4.49 10.91 4.9 11.44C5.31 11.97 5.88 12.36 6.52 12.54C7.82 12.91 9.18 12.37 9.95 11.22C10.45 10.48 10.49 9.64 10.46 8.92ZM20.51 4.18C20.51 3.78 20.52 3.39 20.51 2.99C20.51 2.7 20.57 2.26 20.3 2.18C20.03 2.1 19.72 2.39 19.54 2.68C19.5 2.76 19.44 2.83 19.38 2.9C19.23 3.08 19.04 3.26 18.81 3.27C17.79 3.35 16.67 3.73 15.97 2.53C15.92 2.46 15.85 2.4 15.77 2.35C15.3 2.02 15.16 2.07 15.14 2.65C15.1 3.56 15.1 4.48 15.12 5.39C15.12 6.11 15.4 6.79 15.9 7.3C16.41 7.81 17.09 8.09 17.81 8.09C18.52 8.1 19.21 7.82 19.72 7.31C20.22 6.81 20.51 6.12 20.51 5.41C20.53 5 20.51 4.59 20.51 4.18ZM6.18 13.25L6.18 14.2C6.18 14.91 6.17 14.93 5.47 14.96C5.23 14.97 5.04 14.97 5.14 15.31C5.39 16.19 6.35 16.89 7.36 16.89C8.36 16.89 9.34 16.18 9.56 15.3C9.62 15.08 9.58 14.99 9.33 14.96C8.52 14.87 8.52 14.86 8.52 14.03C8.52 13.88 8.52 13.74 8.52 13.6C8.54 13.36 8.44 13.26 8.2 13.32C7.56 13.5 6.92 13.44 6.18 13.25ZM17.81 2.56C18.18 2.53 18.62 2.71 18.88 2.28C19.07 1.97 19.34 1.72 19.66 1.57C19.96 1.42 19.95 1.28 19.73 1.05C18.82 0.1 17.14 0.01 16.11 0.87C15.6 1.3 15.6 1.31 16.14 1.67C16.28 1.76 16.46 1.87 16.54 2.01C16.82 2.55 17.27 2.65 17.81 2.56ZM21.7 18.42C21.7 19.17 21.7 19.93 21.7 20.68C21.7 20.8 21.69 20.98 21.76 21.03C21.89 21.12 22.02 20.98 22.13 20.91C22.36 20.77 22.54 20.57 22.67 20.34C22.79 20.11 22.86 19.85 22.85 19.59C22.86 18.44 22.84 17.3 22.86 16.15C22.87 15.62 22.51 15.77 22.23 15.76C21.96 15.74 21.66 15.68 21.68 16.16C21.73 16.91 21.7 17.67 21.7 18.42ZM17.79 9.94C18.39 9.93 18.91 9.46 18.97 8.92C19 8.69 18.97 8.59 18.69 8.66C18.22 8.8 17.73 8.83 17.25 8.74C17.06 8.71 16.79 8.51 16.68 8.7C16.55 8.91 16.7 9.18 16.84 9.4C16.94 9.56 17.08 9.7 17.25 9.79C17.41 9.89 17.6 9.94 17.79 9.94ZM12.01 14.96L12.28 14.96C12.54 14.96 12.76 14.87 12.75 14.57C12.74 14.27 12.52 14.19 12.26 14.19C12.04 14.19 11.83 14.18 11.61 14.2C11.56 14.2 11.51 14.21 11.47 14.23C11.42 14.25 11.38 14.28 11.35 14.31C11.31 14.35 11.29 14.39 11.27 14.44C11.25 14.49 11.25 14.54 11.25 14.59C11.25 14.82 11.41 14.94 11.63 14.95C11.76 14.96 11.89 14.95 12.01 14.95L12.01 14.96ZM14.37 4.32C14.19 4.17 14.55 3.78 14.11 3.76C13.78 3.75 13.57 3.98 13.57 4.31C13.56 4.66 13.78 4.91 14.13 4.9C14.52 4.88 14.24 4.52 14.37 4.31L14.37 4.32ZM21.56 3.75C21.41 3.74 21.31 3.75 21.3 3.86C21.29 4.17 21.29 4.47 21.3 4.77C21.3 4.89 21.4 4.91 21.5 4.9C21.82 4.87 22.03 4.7 22.05 4.36C22.07 3.99 21.86 3.8 21.56 3.75ZM3.53 8.57C3.34 8.43 3.71 8.03 3.24 8.03C2.91 8.03 2.72 8.26 2.73 8.6C2.73 8.93 2.93 9.15 3.27 9.14C3.68 9.12 3.39 8.77 3.53 8.57ZM11.21 8.55C11.35 8.73 11.04 9.09 11.44 9.13C11.77 9.16 11.97 8.93 11.98 8.6C11.99 8.28 11.81 8.05 11.48 8.04C11.07 8.01 11.32 8.37 11.21 8.54L11.21 8.55Z" fill="#FA8B02" fill-opacity="1.000000" fill-rule="nonzero"/>
	<path id="Vector" d="M8.64 17.62Q7.97 17.91 7.25 17.89Q6.56 17.87 5.94 17.57Q5.31 17.26 4.86 16.73Q4.39 16.17 4.18 15.46Q4.12 15.25 4.05 15.19Q3.99 15.14 3.82 15.16L3.81 15.16L3.81 15.16Q3.52 15.17 3.24 15.16L3.25 14.96L3.25 15.16Q2.54 15.16 2.1 15.53Q1.66 15.89 1.55 16.58Q1.47 17.14 1.32 18.26Q1.17 19.38 1.09 19.94Q1.07 20.06 1.08 20.12Q1.08 20.16 1.09 20.17Q1.13 20.21 1.33 20.21Q1.35 20.21 1.39 20.21Q1.95 20.21 2.13 20.19Q2.34 20.16 2.4 20.1Q2.47 20.03 2.49 19.81Q2.51 19.63 2.51 19.04Q2.51 19.02 2.51 18.96Q2.51 18.8 2.51 18.73Q2.53 18.57 2.59 18.47Q2.76 18.19 3.21 18.25Q3.45 18.29 3.56 18.4Q3.69 18.53 3.69 18.78L3.69 23.14Q3.69 23.46 3.5 23.59Q3.41 23.65 3.29 23.67Q3.22 23.68 3.09 23.68Q2.82 23.69 2.68 23.58Q2.49 23.44 2.5 23.12Q2.51 22.82 2.51 22.2Q2.51 21.74 2.51 21.51Q2.51 21.44 2.5 21.41Q2.5 21.4 2.5 21.39L2.5 21.39Q2.48 21.37 2.36 21.37Q2.35 21.37 2.34 21.37Q1.82 21.33 1.66 21.34Q1.48 21.35 1.43 21.4Q1.38 21.44 1.36 21.62Q1.34 21.78 1.34 22.29Q1.34 22.29 1.34 22.29Q1.34 22.38 1.34 22.55Q1.33 22.88 1.34 23.04Q1.35 23.17 1.34 23.25Q1.32 23.38 1.27 23.47Q1.13 23.69 0.78 23.69Q0.45 23.69 0.29 23.53Q0.14 23.37 0.16 23.04Q0.17 22.71 0.16 22.04Q0.16 21.89 0.16 21.82Q0.16 21.77 0.16 21.68Q0.16 21.46 0.14 21.37Q0.11 21.25 -0.02 21.18Q-0.19 21.06 -0.21 20.83Q-0.22 20.73 -0.19 20.53Q-0.18 20.49 -0.18 20.47L0.4 16.37Q0.48 15.81 0.76 15.33Q1.03 14.88 1.44 14.55Q1.84 14.23 2.31 14.08Q2.8 13.92 3.29 13.97Q3.52 14 3.81 14Q3.99 14 4.36 13.99Q4.82 13.98 5.05 13.99Q5.13 13.99 5.17 13.98Q5.19 13.98 5.19 13.97Q5.2 13.97 5.2 13.95Q5.22 13.9 5.22 13.82Q5.23 13.37 5.15 13.14Q5.05 12.85 4.73 12.63Q4.17 12.25 3.82 11.64Q3.5 11.09 3.37 10.38Q3.34 10.23 3.3 10.18Q3.25 10.14 3.12 10.12L3.14 9.92L3.12 10.12Q2.67 10.1 2.32 9.82Q1.96 9.54 1.83 9.11L2.02 9.05L1.83 9.12Q1.67 8.65 1.76 8.24Q1.86 7.8 2.21 7.47L2.22 7.47L2.22 7.46Q2.3 7.4 2.33 7.3Q2.36 7.2 2.34 7.1L2.33 7.09L2.33 7.08Q2.29 6.82 2.23 6.3Q2.17 5.86 2.14 5.63Q2.01 4.72 2.28 3.9Q2.52 3.15 3.07 2.59Q3.59 2.05 4.28 1.79Q4.97 1.52 5.67 1.59Q5.95 1.61 6.3 1.62Q6.51 1.62 6.94 1.61Q7.5 1.6 7.78 1.61Q8.26 1.62 8.64 1.69Q8.98 1.74 9.19 1.81Q9.49 1.89 9.69 2.03Q10.21 2.37 10.28 3.08Q10.28 3.11 10.3 3.12Q10.34 3.14 10.48 3.17Q10.51 3.17 10.53 3.17Q11.38 3.34 11.79 3.83Q12.2 4.33 12.2 5.2L12.2 5.79L12.2 6.39Q12.2 6.4 12.2 6.41Q12.2 6.65 12.21 6.76Q12.22 6.94 12.25 7.07Q12.33 7.38 12.58 7.63Q12.89 7.93 12.97 8.35Q13.04 8.73 12.89 9.11Q12.75 9.49 12.44 9.75Q12.11 10.03 11.68 10.11Q11.49 10.14 11.42 10.21Q11.35 10.28 11.31 10.48Q11.15 11.19 10.75 11.8Q10.34 12.41 9.75 12.84Q9.7 12.88 9.63 13.03Q9.55 13.19 9.51 13.4Q9.46 13.61 9.46 13.78Q9.45 13.93 9.49 13.99L9.31 14.09L9.48 13.98Q9.48 13.99 9.49 13.99Q9.49 13.99 9.5 13.99L9.51 13.99L9.53 13.99Q9.63 13.98 9.83 13.99Q10.01 14 10.09 14Q10.22 13.99 10.31 13.97Q10.51 13.91 10.63 13.68Q10.76 13.45 11.03 13.33Q11.27 13.23 11.53 13.25Q11.67 13.25 11.71 13.21Q11.75 13.16 11.78 12.97Q11.82 12.68 11.91 12.09Q12.06 11.16 12.11 10.69Q12.16 10.29 12.34 10.03Q12.53 9.77 12.92 9.61Q13.46 9.4 14.54 8.91Q15.16 8.63 15.47 8.49Q15.6 8.44 15.66 8.39Q15.67 8.37 15.68 8.36L15.68 8.36Q15.68 8.36 15.68 8.36L15.68 8.36Q15.68 8.35 15.67 8.33Q15.62 8.27 15.52 8.18Q15 7.79 14.66 7.23Q14.32 6.68 14.2 6.04Q14.18 5.94 14.15 5.91Q14.11 5.88 13.99 5.87Q13.35 5.78 12.96 5.36Q12.77 5.16 12.67 4.9Q12.57 4.64 12.56 4.36Q12.56 4.07 12.66 3.8Q12.75 3.54 12.94 3.33Q13.12 3.12 13.38 2.98Q13.64 2.85 13.95 2.8Q14.08 2.79 14.1 2.76Q14.13 2.72 14.15 2.59Q14.25 1.86 14.57 1.24Q14.88 0.64 15.37 0.2Q15.86 -0.24 16.48 -0.47Q17.11 -0.7 17.82 -0.7Q18.53 -0.7 19.16 -0.47Q19.77 -0.23 20.26 0.21Q20.75 0.65 21.06 1.25Q21.37 1.87 21.47 2.59Q21.49 2.72 21.51 2.75Q21.54 2.77 21.68 2.79Q21.99 2.84 22.25 2.98Q22.5 3.11 22.69 3.32Q22.87 3.53 22.97 3.8Q23.06 4.06 23.06 4.36Q23.05 4.64 22.95 4.9Q22.84 5.16 22.65 5.37Q22.46 5.58 22.21 5.7Q21.95 5.83 21.67 5.85L21.65 5.65L21.68 5.85Q21.52 5.87 21.47 5.91Q21.42 5.95 21.4 6.09Q21.19 7.24 20.15 8.14Q20.01 8.26 19.96 8.33Q19.95 8.36 19.94 8.37Q19.94 8.37 19.94 8.36Q19.94 8.35 19.94 8.34L19.94 8.34Q19.95 8.36 19.97 8.38Q20.05 8.43 20.22 8.51Q21.92 9.29 22.83 9.67L22.75 9.85L22.81 9.66Q23.09 9.76 23.27 9.99Q23.45 10.22 23.47 10.51L23.27 10.52L23.47 10.49L23.95 13.63L24.17 15.02Q24.19 15.15 24.19 15.22Q24.2 15.35 24.18 15.45Q24.14 15.73 23.87 15.89Q23.84 15.91 23.83 15.93Q23.83 15.97 23.83 16.08Q23.84 16.16 23.84 16.2L23.84 17.23L23.84 18.48L23.84 19.25L23.84 19.38Q23.84 20.38 23.41 21.01Q22.98 21.65 22.07 22Q21.95 22.05 21.92 22.09Q21.89 22.13 21.9 22.24Q21.91 22.37 21.9 22.61Q21.89 22.9 21.91 23.04Q21.93 23.37 21.78 23.53Q21.63 23.7 21.29 23.7Q20.95 23.7 20.81 23.49Q20.75 23.4 20.73 23.27Q20.72 23.19 20.72 23.06Q20.73 22.7 20.72 21.97Q20.72 20.94 20.73 20.42Q20.74 20.26 20.71 20.23Q20.67 20.2 20.5 20.2L15 20.2Q14.89 20.2 14.84 20.21Q14.82 20.22 14.82 20.22Q14.82 20.22 14.82 20.21Q14.83 20.21 14.83 20.2Q14.83 20.21 14.83 20.23Q14.83 20.28 14.85 20.38Q14.93 20.66 14.89 20.86Q14.84 21.15 14.57 21.32Q14.54 21.34 14.54 21.36Q14.53 21.39 14.53 21.49Q14.54 21.56 14.54 21.59Q14.54 21.66 14.53 21.79Q14.52 22.66 14.54 23.09Q14.55 23.41 14.38 23.56Q14.23 23.69 13.93 23.7Q13.6 23.7 13.45 23.53Q13.32 23.37 13.33 23.07Q13.34 22.83 13.34 22.36Q13.33 21.83 13.34 21.56Q13.35 21.47 13.33 21.43Q13.33 21.41 13.32 21.41Q13.29 21.38 13.13 21.37Q13.12 21.37 13.1 21.37Q12.63 21.36 12.49 21.38Q12.32 21.39 12.28 21.43Q12.23 21.48 12.22 21.65Q12.2 21.79 12.2 22.27Q12.2 22.36 12.2 22.53Q12.19 22.86 12.2 23.02Q12.21 23.16 12.2 23.24Q12.19 23.37 12.13 23.47Q11.99 23.7 11.62 23.7Q11.25 23.7 11.11 23.49Q11.05 23.39 11.04 23.26Q11.03 23.18 11.03 23.04Q11.04 20.59 11.03 18.89Q11.03 18.74 11.05 18.64Q11.08 18.51 11.17 18.42Q11.31 18.26 11.65 18.26Q12 18.26 12.14 18.48Q12.19 18.57 12.2 18.7Q12.21 18.79 12.2 18.91Q12.19 19.01 12.2 19.1L12 19.11L12.2 19.09Q12.22 19.26 12.18 19.62Q12.14 19.91 12.15 20.02Q12.16 20.13 12.21 20.15Q12.35 20.23 12.59 20.24Q12.75 20.25 13.1 20.23Q13.44 20.2 13.6 20.21Q13.64 20.21 13.65 20.2Q13.64 20.21 13.63 20.22L13.63 20.22Q13.63 20.21 13.63 20.2Q13.64 20.17 13.63 20.11Q13.58 19.77 13.48 19.1Q13.22 17.25 13.07 16.33Q13.02 16.06 12.92 15.97Q12.8 15.86 12.5 15.92Q12.16 15.97 11.93 15.98Q11.6 15.99 11.33 15.92Q10.67 15.74 10.29 15.02L10.47 14.93L10.66 14.97Q10.44 15.96 9.95 16.6Q9.45 17.26 8.64 17.62ZM8.48 17.25Q9.2 16.94 9.63 16.36Q10.06 15.78 10.27 14.88L10.39 14.36L10.65 14.84Q10.94 15.4 11.44 15.53Q11.64 15.59 11.91 15.58Q12.12 15.57 12.43 15.52Q12.92 15.44 13.18 15.67Q13.4 15.86 13.46 16.27Q13.62 17.19 13.88 19.04Q13.98 19.72 14.02 20.05Q14.06 20.28 13.98 20.41Q13.87 20.61 13.59 20.61Q13.44 20.6 13.13 20.62Q12.75 20.65 12.57 20.64Q12.24 20.62 12.02 20.5Q11.79 20.38 11.75 20.06Q11.74 19.9 11.78 19.57Q11.82 19.26 11.8 19.14L11.8 19.13L11.8 19.13Q11.79 19.01 11.8 18.88Q11.81 18.72 11.79 18.69Q11.79 18.68 11.78 18.68Q11.74 18.66 11.65 18.66Q11.49 18.66 11.46 18.69Q11.43 18.72 11.43 18.89Q11.44 20.59 11.43 23.04Q11.43 23.23 11.45 23.27Q11.45 23.28 11.47 23.28Q11.52 23.3 11.62 23.3Q11.72 23.3 11.76 23.28Q11.78 23.27 11.79 23.27Q11.81 23.23 11.8 23.04Q11.79 22.86 11.8 22.52Q11.8 22.36 11.8 22.27Q11.8 21.77 11.82 21.6Q11.85 21.3 12 21.15Q12.14 21.01 12.45 20.98Q12.62 20.96 13.11 20.97Q13.14 20.97 13.14 20.97Q13.45 20.98 13.59 21.11Q13.76 21.26 13.74 21.58Q13.73 21.83 13.74 22.36Q13.74 22.84 13.73 23.08Q13.73 23.23 13.76 23.26Q13.78 23.29 13.92 23.29Q14.08 23.29 14.11 23.26Q14.14 23.24 14.14 23.1Q14.12 22.66 14.13 21.79Q14.14 21.65 14.14 21.59Q14.14 21.57 14.13 21.51Q14.12 21.35 14.15 21.26Q14.19 21.08 14.36 20.98Q14.48 20.91 14.5 20.79Q14.52 20.68 14.47 20.49Q14.43 20.34 14.43 20.23Q14.42 20.08 14.5 19.98Q14.58 19.87 14.73 19.83Q14.84 19.8 15 19.8L20.5 19.8Q20.84 19.8 20.99 19.95Q21.14 20.1 21.13 20.43Q21.12 20.94 21.12 21.97Q21.13 22.7 21.12 23.07Q21.12 23.23 21.14 23.27Q21.15 23.27 21.16 23.28Q21.21 23.3 21.29 23.3Q21.46 23.3 21.49 23.26Q21.52 23.23 21.51 23.07Q21.49 22.91 21.5 22.61Q21.5 22.37 21.5 22.26Q21.49 22.02 21.59 21.87Q21.69 21.72 21.92 21.63Q22.72 21.32 23.08 20.79Q23.44 20.26 23.44 19.38L23.44 19.25L23.44 18.48L23.44 17.23L23.44 16.2Q23.44 16.18 23.44 16.11Q23.42 15.94 23.45 15.84Q23.49 15.65 23.67 15.54Q23.77 15.48 23.79 15.38Q23.8 15.3 23.77 15.08L23.55 13.69L23.07 10.55L23.07 10.54Q23.06 10.37 22.95 10.23Q22.85 10.1 22.69 10.04L22.68 10.04L22.67 10.04Q21.76 9.65 20.06 8.88Q19.84 8.78 19.73 8.7Q19.57 8.58 19.55 8.42Q19.52 8.26 19.64 8.1Q19.72 7.99 19.89 7.84Q20.82 7.03 21 6.01Q21.06 5.74 21.21 5.61Q21.35 5.49 21.63 5.45L21.63 5.45L21.63 5.45Q21.84 5.43 22.03 5.34Q22.22 5.25 22.36 5.1Q22.5 4.94 22.58 4.75Q22.65 4.56 22.66 4.35Q22.67 3.91 22.39 3.59Q22.1 3.26 21.62 3.19Q21.36 3.15 21.24 3.04Q21.11 2.92 21.07 2.65Q20.98 1.99 20.7 1.43Q20.43 0.9 19.99 0.51Q19.56 0.11 19.01 -0.09Q18.45 -0.31 17.82 -0.31Q17.19 -0.31 16.62 -0.09Q16.07 0.11 15.64 0.5Q15.2 0.89 14.93 1.43Q14.64 1.98 14.55 2.64Q14.51 2.9 14.4 3.02Q14.28 3.16 14 3.2Q13.53 3.27 13.24 3.59Q12.96 3.91 12.96 4.35Q12.97 4.78 13.26 5.09Q13.55 5.4 14.04 5.47Q14.28 5.5 14.41 5.61Q14.55 5.73 14.59 5.97Q14.7 6.53 15 7.03Q15.31 7.52 15.77 7.87Q16.12 8.15 16.08 8.42Q16.04 8.68 15.63 8.86Q15.32 8.99 14.7 9.27Q13.62 9.77 13.06 9.99Q12.79 10.09 12.66 10.27Q12.54 10.44 12.51 10.74Q12.46 11.21 12.31 12.16Q12.21 12.74 12.17 13.03Q12.13 13.33 12.02 13.46Q11.85 13.67 11.5 13.64Q11.34 13.63 11.19 13.7Q11.04 13.76 10.98 13.87Q10.78 14.24 10.42 14.35Q10.28 14.39 10.11 14.4Q10.01 14.4 9.81 14.39Q9.63 14.38 9.54 14.39L9.54 14.19L9.58 14.38Q9.45 14.41 9.33 14.36Q9.2 14.3 9.14 14.19L9.14 14.19L9.13 14.18Q9.05 14.04 9.06 13.77Q9.06 13.56 9.12 13.31Q9.17 13.06 9.26 12.86Q9.37 12.62 9.52 12.52Q10.05 12.13 10.41 11.58Q10.77 11.03 10.92 10.39Q10.99 10.08 11.13 9.93Q11.29 9.77 11.61 9.72Q11.93 9.66 12.18 9.45Q12.41 9.25 12.52 8.97Q12.62 8.69 12.58 8.42Q12.52 8.13 12.31 7.92Q11.96 7.58 11.86 7.16Q11.82 7 11.81 6.79Q11.8 6.66 11.8 6.41Q11.8 6.4 11.8 6.39L11.8 5.79L11.8 5.2Q11.8 4.48 11.48 4.09Q11.16 3.7 10.45 3.57Q10.44 3.56 10.41 3.56Q10.21 3.52 10.11 3.47Q9.9 3.36 9.88 3.12Q9.85 2.84 9.74 2.64Q9.65 2.48 9.47 2.36Q9.32 2.26 9.07 2.19Q8.89 2.13 8.58 2.08Q8.22 2.02 7.77 2.01Q7.5 2 6.94 2.01Q6.51 2.02 6.29 2.02Q5.93 2.01 5.63 1.99Q5.03 1.93 4.42 2.16Q3.81 2.39 3.36 2.86Q2.87 3.36 2.66 4.03Q2.42 4.75 2.54 5.58Q2.57 5.8 2.63 6.25Q2.69 6.76 2.73 7.02L2.53 7.05L2.72 7Q2.78 7.21 2.71 7.42Q2.65 7.63 2.48 7.77L2.35 7.62L2.49 7.76Q1.95 8.26 2.21 8.99L2.21 8.99L2.21 8.99Q2.31 9.3 2.56 9.5Q2.82 9.71 3.15 9.72L3.15 9.72L3.15 9.72Q3.44 9.75 3.59 9.91Q3.71 10.04 3.76 10.31Q3.88 10.95 4.17 11.45Q4.47 11.97 4.95 12.3Q5.38 12.59 5.53 13.01Q5.59 13.19 5.61 13.41Q5.63 13.58 5.62 13.83Q5.61 14.13 5.47 14.26Q5.33 14.4 5.04 14.39Q4.82 14.38 4.36 14.39Q4 14.4 3.81 14.4Q3.5 14.4 3.25 14.37Q2.84 14.33 2.43 14.46Q2.03 14.59 1.68 14.86Q1.33 15.14 1.1 15.53Q0.86 15.94 0.79 16.42L0.22 20.53Q0.21 20.55 0.2 20.6Q0.17 20.82 0.2 20.84Q0.45 21 0.53 21.27Q0.55 21.37 0.56 21.49Q0.56 21.56 0.56 21.69Q0.55 21.78 0.55 21.81Q0.56 21.88 0.56 22.03Q0.58 22.72 0.55 23.06Q0.55 23.22 0.58 23.25Q0.61 23.29 0.78 23.29Q0.87 23.29 0.91 23.27Q0.92 23.27 0.92 23.26Q0.95 23.22 0.94 23.05Q0.94 22.88 0.94 22.54Q0.94 22.38 0.94 22.29Q0.94 22.29 0.94 22.29Q0.94 21.75 0.96 21.58Q1 21.25 1.16 21.1Q1.31 20.96 1.64 20.94Q1.82 20.93 2.36 20.97L2.37 20.97L2.37 20.97L2.37 20.97L2.37 20.97L2.37 20.97L2.38 20.97L2.38 20.97L2.38 20.97L2.38 20.97L2.38 20.97L2.38 20.97L2.38 20.97Q2.65 20.98 2.78 21.11Q2.92 21.24 2.91 21.52Q2.91 21.74 2.91 22.2Q2.91 22.82 2.9 23.14Q2.9 23.21 2.91 23.25Q2.92 23.26 2.92 23.26Q2.95 23.29 3.09 23.28Q3.24 23.28 3.27 23.26Q3.27 23.26 3.27 23.26Q3.27 23.26 3.27 23.25Q3.29 23.22 3.29 23.14L3.29 18.78Q3.29 18.72 3.28 18.69Q3.28 18.68 3.28 18.68Q3.28 18.68 3.28 18.68Q3.26 18.67 3.16 18.65Q3.03 18.63 2.96 18.65Q2.94 18.66 2.93 18.67Q2.91 18.72 2.91 18.96Q2.91 19.02 2.91 19.04Q2.91 19.65 2.89 19.85Q2.85 20.21 2.69 20.38Q2.52 20.54 2.17 20.58Q1.98 20.61 1.39 20.61Q1.35 20.61 1.33 20.61Q1.16 20.61 1.04 20.58Q0.89 20.54 0.79 20.44Q0.7 20.33 0.68 20.18Q0.66 20.06 0.69 19.88Q0.78 19.32 0.92 18.21Q1.07 17.08 1.16 16.52Q1.29 15.68 1.84 15.22Q2.4 14.76 3.25 14.76L3.26 14.76L3.27 14.76Q3.52 14.77 3.78 14.76L3.79 14.96L3.77 14.76Q4.11 14.72 4.3 14.88Q4.47 15.02 4.57 15.35Q4.75 15.98 5.16 16.47Q5.56 16.94 6.11 17.21Q6.66 17.47 7.27 17.49Q7.89 17.51 8.48 17.25ZM13.74 12.75Q13.74 12.72 13.74 12.67Q13.74 12.54 13.74 12.48Q13.75 12.35 13.81 12.26Q13.95 12.03 14.33 12.03Q14.7 12.04 14.84 12.27Q14.89 12.36 14.9 12.49Q14.91 12.55 14.91 12.67Q14.9 12.73 14.9 12.76L14.91 14.75L14.9 18.74Q14.9 18.96 14.94 19.01Q14.98 19.05 15.2 19.05Q17.95 19.01 20.38 19.05Q20.63 19.05 20.68 18.99Q20.74 18.93 20.74 18.68L20.72 12.64Q20.72 12.33 20.86 12.19Q21 12.04 21.32 12.04Q21.63 12.04 21.78 12.19Q21.92 12.34 21.91 12.65Q21.89 12.95 21.9 13.54Q21.91 13.84 21.91 13.99Q21.91 14.4 21.92 14.53Q21.93 14.67 21.97 14.7Q22 14.73 22.12 14.75Q22.25 14.76 22.65 14.76Q22.69 14.76 22.71 14.76Q22.82 14.76 22.88 14.74Q22.91 14.74 22.92 14.73Q22.92 14.73 22.93 14.7Q22.93 14.64 22.91 14.53Q22.62 12.75 22.37 10.96Q22.35 10.82 22.29 10.74Q22.22 10.67 22.08 10.61Q20.83 10.07 19.91 9.64Q19.85 9.61 19.81 9.61Q19.8 9.6 19.79 9.6L19.79 9.6L19.8 9.6Q19.79 9.61 19.78 9.61Q19.75 9.64 19.71 9.71Q19.37 10.29 18.86 10.61Q18.37 10.92 17.82 10.92Q17.26 10.92 16.77 10.62Q16.27 10.3 15.93 9.72Q15.87 9.61 15.85 9.6Q15.85 9.6 15.85 9.6Q15.85 9.6 15.84 9.6Q15.8 9.61 15.74 9.64Q15.02 9.97 13.58 10.61Q13.54 10.62 13.52 10.63Q13.4 10.68 13.35 10.74Q13.3 10.79 13.29 10.89Q13.16 11.83 12.95 13.08Q12.92 13.24 12.94 13.3Q12.96 13.37 13.08 13.43L12.99 13.61L13.08 13.42Q13.44 13.6 13.63 13.96Q13.81 14.32 13.73 14.72L13.53 14.68L13.73 14.72Q13.69 14.93 13.78 15.12Q13.85 15.26 14.09 15.56L13.94 15.68L13.74 15.68L13.74 12.75L13.74 12.75ZM14.14 12.75L14.14 12.75L14.14 16.24L13.79 15.81Q13.65 15.65 13.58 15.55Q13.48 15.41 13.42 15.29Q13.27 14.99 13.33 14.65L13.33 14.65L13.33 14.64Q13.39 14.38 13.27 14.14Q13.15 13.9 12.91 13.79L12.9 13.79L12.9 13.78Q12.64 13.65 12.56 13.43Q12.51 13.27 12.55 13.01Q12.77 11.77 12.89 10.84Q12.92 10.61 13.06 10.46Q13.17 10.35 13.36 10.26L13.37 10.26L13.37 10.26L13.37 10.26L13.38 10.26L13.38 10.26L13.38 10.25L13.38 10.25L13.39 10.25L13.39 10.25L13.39 10.25L13.4 10.25L13.4 10.25L13.4 10.25L13.4 10.24L13.42 10.24Q14.86 9.61 15.57 9.27Q15.82 9.16 16 9.23Q16.09 9.27 16.16 9.36Q16.22 9.42 16.28 9.52Q16.56 10.02 16.98 10.28Q17.38 10.52 17.81 10.52Q18.25 10.52 18.65 10.27Q19.08 10 19.37 9.5Q19.51 9.27 19.69 9.22Q19.85 9.17 20.08 9.28Q20.99 9.7 22.24 10.24Q22.47 10.34 22.59 10.48Q22.73 10.65 22.77 10.9Q23.02 12.69 23.31 14.46Q23.33 14.63 23.32 14.74Q23.31 14.89 23.22 14.99Q23.13 15.09 22.99 15.13Q22.87 15.16 22.71 15.16Q22.69 15.16 22.65 15.16Q22.22 15.16 22.08 15.14Q21.81 15.11 21.68 14.98Q21.55 14.85 21.52 14.57Q21.51 14.43 21.51 13.99Q21.51 13.84 21.5 13.54Q21.49 12.94 21.51 12.64Q21.51 12.49 21.49 12.46Q21.46 12.44 21.32 12.44Q21.17 12.44 21.15 12.46Q21.12 12.49 21.12 12.64L21.14 18.67Q21.14 18.87 21.11 18.99Q21.07 19.16 20.98 19.26Q20.88 19.37 20.71 19.42Q20.57 19.45 20.37 19.45Q17.95 19.41 15.2 19.45Q15.02 19.45 14.9 19.42Q14.75 19.38 14.65 19.28Q14.56 19.18 14.52 19.03Q14.5 18.91 14.5 18.73L14.51 14.75L14.5 12.76Q14.5 12.73 14.51 12.66Q14.51 12.5 14.49 12.47Q14.49 12.46 14.47 12.46Q14.43 12.43 14.33 12.43Q14.22 12.43 14.17 12.45Q14.16 12.46 14.15 12.46Q14.13 12.49 14.14 12.66Q14.14 12.72 14.14 12.75ZM11.04 5.22Q11.03 4.76 10.88 4.58Q10.73 4.41 10.28 4.34Q9.83 4.28 9.55 4.05Q9.21 3.79 9.16 3.36Q9.12 3.11 8.98 3Q8.86 2.91 8.57 2.86Q8.1 2.78 7.49 2.77Q7.13 2.76 6.39 2.77Q5.79 2.78 5.49 2.78Q5.07 2.77 4.7 2.9Q4.33 3.03 4.05 3.27Q3.76 3.51 3.57 3.85Q3.38 4.19 3.32 4.6Q3.26 4.98 3.3 5.45Q3.32 5.75 3.42 6.35Q3.51 6.91 3.54 7.2L3.34 7.22L3.19 7.09Q3.45 6.81 3.82 6.66Q4.03 6.57 4.45 6.48Q4.78 6.4 4.93 6.35Q5.24 6.24 5.5 6.29Q5.78 6.34 6.02 6.59Q6.4 6.99 7.1 7.02Q7.52 7.04 7.9 6.87Q8.28 6.69 8.54 6.36Q8.85 5.98 9.2 5.92Q9.55 5.87 9.96 6.12Q10.24 6.29 10.85 6.58Q11.16 6.73 11.33 6.82L11.24 7L11.04 7L11.04 5.21L11.04 5.22ZM11.44 5.21L11.44 7.32L11.15 7.17Q10.98 7.09 10.68 6.95Q10.04 6.64 9.75 6.47Q9.46 6.29 9.26 6.32Q9.06 6.35 8.85 6.61Q8.54 7.02 8.07 7.23Q7.6 7.44 7.08 7.42Q6.22 7.39 5.73 6.87Q5.58 6.71 5.42 6.68Q5.27 6.65 5.07 6.73Q4.89 6.79 4.54 6.87Q4.15 6.95 3.97 7.03Q3.68 7.14 3.48 7.36L3.18 7.68L3.14 7.24Q3.11 6.96 3.02 6.41Q2.92 5.79 2.9 5.49Q2.86 4.97 2.92 4.54Q3 4.06 3.22 3.65Q3.45 3.26 3.79 2.97Q4.13 2.68 4.57 2.53Q5 2.37 5.49 2.38Q5.79 2.38 6.39 2.37Q7.13 2.36 7.5 2.37Q8.13 2.38 8.64 2.47Q9.02 2.53 9.23 2.69Q9.5 2.89 9.55 3.31Q9.59 3.58 9.79 3.74Q10 3.9 10.34 3.95Q10.63 3.99 10.82 4.07Q11.04 4.16 11.18 4.32Q11.32 4.48 11.38 4.71Q11.43 4.92 11.44 5.21L11.44 5.21ZM10.26 7.77Q10.26 7.61 10.18 7.55Q10.12 7.49 9.92 7.42Q9.8 7.38 9.74 7.35Q9.63 7.31 9.55 7.25Q9.49 7.2 9.44 7.2Q9.38 7.2 9.28 7.28Q8.74 7.73 8.31 7.95Q7.84 8.19 7.39 8.22Q6.94 8.25 6.44 8.08Q5.98 7.93 5.35 7.57Q5.22 7.5 5.06 7.5Q4.91 7.51 4.76 7.59Q4.61 7.66 4.53 7.79Q4.45 7.91 4.45 8.04Q4.45 8.21 4.44 8.56Q4.44 9.25 4.45 9.6Q4.46 10.06 4.61 10.51Q4.77 10.95 5.06 11.32Q5.35 11.69 5.74 11.96Q6.13 12.22 6.58 12.35Q7.02 12.48 7.49 12.45Q7.94 12.43 8.36 12.26Q8.79 12.1 9.15 11.81Q9.52 11.51 9.78 11.11Q10.1 10.64 10.21 10.03Q10.29 9.58 10.26 8.93L10.26 8.93L10.26 7.78L10.26 7.77L10.26 7.77ZM10.66 7.77L10.66 7.78L10.66 8.92L10.46 8.92L10.66 8.92Q10.69 9.6 10.6 10.1Q10.48 10.79 10.12 11.33Q9.81 11.79 9.4 12.12Q8.99 12.45 8.51 12.64Q8.02 12.82 7.51 12.85Q6.98 12.88 6.47 12.73Q5.95 12.59 5.51 12.29Q5.07 11.99 4.74 11.57Q4.42 11.14 4.24 10.64Q4.06 10.14 4.04 9.6Q4.04 9.25 4.04 8.56Q4.04 8.21 4.04 8.04Q4.05 7.78 4.2 7.56Q4.34 7.36 4.57 7.23Q4.8 7.11 5.05 7.1Q5.33 7.09 5.55 7.22Q6.14 7.56 6.56 7.7Q7 7.85 7.36 7.82Q7.73 7.8 8.13 7.59Q8.52 7.39 9.03 6.97Q9.43 6.65 9.8 6.93Q9.86 6.98 10.05 7.04Q10.18 7.09 10.24 7.12Q10.36 7.17 10.44 7.24Q10.66 7.43 10.66 7.77L10.66 7.77ZM20.31 3Q20.31 2.94 20.31 2.83Q20.32 2.39 20.24 2.37Q20.15 2.34 20.01 2.45Q19.85 2.57 19.71 2.79Q19.63 2.91 19.54 3.03Q19.39 3.21 19.25 3.31Q19.04 3.46 18.83 3.47Q18.66 3.48 18.33 3.52Q17.88 3.58 17.66 3.59Q17.28 3.6 16.99 3.54Q16.23 3.37 15.8 2.63L15.97 2.53L15.81 2.65Q15.76 2.58 15.67 2.53L15.66 2.52L15.65 2.52Q15.49 2.4 15.4 2.36Q15.36 2.35 15.35 2.35Q15.35 2.35 15.37 2.34Q15.38 2.34 15.39 2.33Q15.38 2.34 15.37 2.37Q15.34 2.46 15.34 2.66Q15.29 3.98 15.32 5.39L15.32 5.39L15.32 5.39Q15.32 5.89 15.51 6.35Q15.7 6.81 16.05 7.16Q16.4 7.51 16.85 7.7Q17.31 7.89 17.81 7.89Q18.3 7.9 18.76 7.71Q19.22 7.52 19.58 7.17Q19.93 6.82 20.12 6.36Q20.31 5.91 20.31 5.41L20.31 5.41L20.31 5.4Q20.32 5.13 20.32 4.58Q20.31 4.31 20.31 4.18Q20.31 4.05 20.32 3.78Q20.32 3.26 20.31 3L20.31 3ZM20.71 2.99Q20.72 3.26 20.71 3.78Q20.71 4.05 20.71 4.18Q20.71 4.31 20.72 4.58Q20.72 5.14 20.71 5.42L20.51 5.41L20.71 5.41Q20.71 5.99 20.49 6.52Q20.27 7.05 19.86 7.45Q19.45 7.86 18.92 8.08Q18.38 8.3 17.81 8.29Q17.23 8.29 16.7 8.07Q16.17 7.85 15.76 7.44Q15.36 7.03 15.14 6.5Q14.92 5.97 14.92 5.39L15.12 5.39L14.92 5.4Q14.88 3.98 14.94 2.64Q14.95 2.39 14.99 2.26Q15.05 2.05 15.2 1.98Q15.35 1.91 15.55 1.99Q15.68 2.05 15.88 2.19L15.77 2.35L15.87 2.18Q16.02 2.26 16.13 2.4L16.14 2.41L16.14 2.43Q16.33 2.75 16.58 2.93Q16.79 3.09 17.07 3.15Q17.31 3.2 17.65 3.19Q17.85 3.18 18.28 3.13Q18.63 3.09 18.8 3.07Q18.99 3.06 19.23 2.77Q19.31 2.67 19.37 2.57Q19.55 2.3 19.77 2.13Q20.07 1.9 20.35 1.99Q20.62 2.06 20.69 2.39Q20.72 2.53 20.71 2.84Q20.71 2.94 20.71 2.99L20.71 2.99ZM6.38 14.2Q6.38 14.52 6.37 14.64Q6.34 14.86 6.23 14.97Q6.13 15.09 5.91 15.12Q5.79 15.14 5.48 15.16Q5.47 15.16 5.46 15.16Q5.3 15.17 5.29 15.17Q5.31 15.16 5.31 15.14Q5.31 15.18 5.33 15.26Q5.41 15.55 5.61 15.81Q5.8 16.07 6.08 16.27Q6.36 16.47 6.68 16.58Q7.02 16.69 7.35 16.69Q7.69 16.69 8.03 16.58Q8.36 16.47 8.63 16.26Q8.91 16.06 9.1 15.81Q9.29 15.54 9.37 15.26Q9.38 15.19 9.38 15.15Q9.38 15.15 9.38 15.14Q9.38 15.15 9.39 15.16Q9.4 15.17 9.4 15.18L9.4 15.18Q9.37 15.16 9.31 15.16Q8.95 15.12 8.82 15.09Q8.58 15.03 8.47 14.9Q8.36 14.77 8.34 14.53Q8.32 14.4 8.32 14.03L8.32 14.03Q8.32 13.98 8.32 13.89Q8.32 13.69 8.32 13.59Q8.33 13.53 8.32 13.5Q8.32 13.49 8.32 13.49Q8.32 13.49 8.32 13.5Q8.33 13.5 8.34 13.5L8.33 13.5Q8.31 13.5 8.25 13.52Q7.77 13.65 7.22 13.62Q6.75 13.6 6.14 13.45L6.18 13.25L6.38 13.25L6.38 14.2ZM5.98 14.2L5.98 13L6.23 13.06Q6.81 13.2 7.24 13.22Q7.73 13.25 8.15 13.13Q8.43 13.05 8.59 13.2Q8.74 13.33 8.72 13.61Q8.72 13.7 8.72 13.88Q8.72 13.98 8.72 14.03L8.72 14.03Q8.72 14.38 8.74 14.49Q8.75 14.61 8.78 14.64Q8.8 14.67 8.91 14.7Q9.02 14.72 9.35 14.76Q9.63 14.79 9.73 14.95Q9.79 15.04 9.78 15.16Q9.78 15.24 9.75 15.35Q9.66 15.71 9.42 16.04Q9.2 16.35 8.87 16.59Q8.54 16.83 8.16 16.96Q7.76 17.09 7.36 17.09Q6.95 17.09 6.55 16.96Q6.17 16.83 5.84 16.6Q5.52 16.36 5.29 16.05Q5.05 15.73 4.95 15.37Q4.84 15.01 5.05 14.85Q5.13 14.79 5.26 14.77Q5.32 14.77 5.44 14.76Q5.46 14.76 5.46 14.76Q5.9 14.74 5.94 14.7Q5.98 14.65 5.98 14.2ZM18.71 2.18Q19.02 1.65 19.58 1.38Q19.66 1.35 19.69 1.31Q19.69 1.31 19.7 1.31L19.7 1.31Q19.69 1.32 19.69 1.32Q19.69 1.33 19.69 1.33Q19.69 1.32 19.68 1.31Q19.65 1.26 19.59 1.19Q19.28 0.87 18.84 0.68Q18.42 0.5 17.95 0.48Q17.48 0.46 17.04 0.59Q16.58 0.73 16.23 1.03Q16.03 1.2 15.96 1.26Q15.93 1.29 15.92 1.31Q15.93 1.31 15.93 1.29Q15.93 1.27 15.92 1.26Q15.93 1.27 15.96 1.3Q16.03 1.36 16.25 1.5Q16.26 1.51 16.3 1.54Q16.45 1.63 16.52 1.69Q16.65 1.79 16.72 1.91L16.72 1.91L16.72 1.92Q16.88 2.23 17.15 2.33Q17.39 2.43 17.78 2.37L17.79 2.37L17.79 2.37Q17.9 2.36 18.12 2.37Q18.38 2.38 18.48 2.35Q18.63 2.32 18.71 2.17L18.71 2.18ZM19.05 2.38Q18.88 2.66 18.58 2.74Q18.47 2.77 18.33 2.77Q18.25 2.77 18.1 2.77Q17.91 2.76 17.83 2.76L17.81 2.56L17.84 2.76Q17.35 2.84 17.01 2.71Q16.6 2.55 16.36 2.1L16.54 2.01L16.37 2.11Q16.34 2.06 16.26 2Q16.21 1.95 16.08 1.87Q16.05 1.85 16.03 1.83Q15.79 1.68 15.7 1.61Q15.54 1.46 15.53 1.3Q15.52 1.15 15.67 0.99Q15.75 0.91 15.98 0.72Q16.39 0.37 16.92 0.21Q17.43 0.05 17.97 0.08Q18.52 0.11 19 0.32Q19.51 0.53 19.87 0.91Q20.11 1.16 20.09 1.36Q20.07 1.59 19.75 1.75Q19.3 1.96 19.05 2.38L19.05 2.38ZM21.9 20.68Q21.9 20.7 21.9 20.73Q21.9 20.83 21.9 20.88Q21.91 20.9 21.91 20.9Q21.9 20.88 21.87 20.86Q21.87 20.86 21.85 20.86Q21.85 20.86 21.84 20.86L21.85 20.86Q21.87 20.85 21.95 20.79Q22 20.75 22.03 20.74L22.03 20.74L22.03 20.73Q22.33 20.55 22.49 20.25Q22.66 19.94 22.65 19.6L22.65 19.59L22.65 19.59Q22.65 19.14 22.65 18.23Q22.65 16.84 22.66 16.15Q22.66 16.04 22.64 15.98Q22.63 15.96 22.62 15.96Q22.59 15.94 22.41 15.95Q22.29 15.96 22.23 15.96Q22.2 15.95 22.15 15.95Q21.96 15.94 21.92 15.96Q21.91 15.97 21.9 15.98Q21.88 16.04 21.88 16.15Q21.91 16.69 21.9 17.77Q21.9 18.2 21.9 18.42L21.9 20.68ZM21.5 20.68L21.5 18.42Q21.5 18.2 21.5 17.77Q21.52 16.7 21.48 16.17Q21.46 15.75 21.72 15.61Q21.82 15.56 21.96 15.55Q22.04 15.54 22.17 15.55Q22.22 15.56 22.24 15.56Q22.28 15.56 22.38 15.55Q22.51 15.54 22.58 15.55Q22.72 15.56 22.82 15.61Q23.07 15.75 23.06 16.15Q23.05 16.84 23.05 18.22Q23.05 19.14 23.05 19.59L22.85 19.59L23.05 19.59Q23.06 20.04 22.84 20.44Q22.63 20.84 22.24 21.08L22.13 20.91L22.24 21.07Q22.23 21.08 22.19 21.11Q22.06 21.21 21.98 21.23Q21.79 21.3 21.64 21.19Q21.53 21.11 21.51 20.93Q21.5 20.86 21.5 20.72Q21.5 20.69 21.5 20.68ZM18.77 8.9Q18.78 8.82 18.78 8.79Q18.78 8.78 18.78 8.78L18.78 8.78Q18.78 8.79 18.79 8.81Q18.82 8.84 18.84 8.84Q18.81 8.84 18.74 8.86Q17.99 9.07 17.22 8.94Q17.14 8.92 17 8.87Q16.87 8.82 16.83 8.82Q16.83 8.82 16.83 8.82Q16.83 8.82 16.83 8.81Q16.85 8.81 16.85 8.8Q16.81 8.87 16.85 8.99Q16.89 9.1 17.01 9.29L17.01 9.29L17.01 9.29Q17.14 9.5 17.35 9.62Q17.56 9.74 17.8 9.74L17.79 9.94L17.79 9.74Q18.16 9.74 18.45 9.48Q18.59 9.36 18.67 9.21Q18.76 9.06 18.77 8.9L18.77 8.9ZM19.17 8.94Q19.15 9.18 19.02 9.4Q18.91 9.61 18.72 9.78Q18.53 9.95 18.3 10.04Q18.05 10.14 17.8 10.14L17.79 10.14L17.79 10.14Q17.45 10.14 17.15 9.97Q16.85 9.79 16.67 9.5L16.84 9.4L16.67 9.5Q16.52 9.27 16.47 9.11Q16.37 8.82 16.51 8.6Q16.63 8.4 16.87 8.42Q16.96 8.43 17.14 8.5Q17.25 8.54 17.29 8.54Q17.97 8.66 18.63 8.47Q18.95 8.38 19.09 8.54Q19.16 8.62 19.18 8.75Q19.18 8.83 19.17 8.94L19.17 8.94ZM12.28 14.76Q12.44 14.76 12.5 14.71Q12.55 14.68 12.55 14.57Q12.54 14.47 12.49 14.43Q12.42 14.39 12.26 14.39Q12.21 14.39 12.1 14.39Q11.78 14.38 11.63 14.4L11.62 14.4L11.61 14.4Q11.58 14.4 11.55 14.41Q11.52 14.42 11.49 14.45Q11.47 14.47 11.46 14.51Q11.45 14.54 11.45 14.57L11.45 14.58L11.45 14.59Q11.45 14.67 11.49 14.7Q11.54 14.74 11.64 14.75Q11.73 14.76 11.9 14.75Q11.97 14.75 12.01 14.75L12.21 14.75L12.21 14.96L12.01 14.96L12.01 14.76L12.28 14.76ZM12.28 15.16L11.81 15.16L11.81 14.95L12.01 14.95L12.01 15.15Q11.98 15.15 11.91 15.15Q11.72 15.16 11.62 15.15Q11.37 15.13 11.22 15Q11.05 14.85 11.05 14.59L11.25 14.59L11.05 14.6Q11.04 14.48 11.08 14.37Q11.12 14.26 11.2 14.18Q11.28 14.09 11.39 14.04Q11.5 14 11.61 14L11.61 14.2L11.59 14Q11.77 13.98 12.1 13.99Q12.21 13.99 12.26 13.99Q12.54 13.99 12.71 14.1Q12.94 14.25 12.95 14.56Q12.96 14.88 12.73 15.04Q12.56 15.16 12.28 15.16ZM14.1 3.96Q13.95 3.95 13.86 4.05Q13.77 4.14 13.77 4.31Q13.76 4.5 13.86 4.6Q13.96 4.7 14.12 4.7Q14.16 4.7 14.17 4.69Q14.16 4.7 14.15 4.72Q14.15 4.71 14.14 4.61Q14.13 4.5 14.13 4.44Q14.14 4.3 14.2 4.21L14.57 3.63L14.57 4.73L14.25 4.47Q14.13 4.38 14.12 4.22Q14.11 4.15 14.13 4.03Q14.14 3.97 14.14 3.95Q14.14 3.94 14.14 3.93Q14.14 3.94 14.14 3.94Q14.15 3.96 14.17 3.97Q14.15 3.96 14.1 3.96L14.1 3.96ZM14.12 3.56Q14.42 3.57 14.51 3.78Q14.54 3.86 14.54 3.96Q14.54 4.01 14.53 4.09Q14.51 4.17 14.52 4.19Q14.52 4.19 14.52 4.19Q14.51 4.19 14.51 4.18Q14.51 4.17 14.5 4.16L14.37 4.32L14.17 4.32L14.17 4.31L14.37 4.31L14.54 4.42Q14.53 4.44 14.54 4.58Q14.55 4.66 14.55 4.71Q14.54 4.81 14.51 4.88Q14.42 5.09 14.13 5.1Q13.79 5.11 13.57 4.88Q13.36 4.65 13.37 4.31Q13.37 3.98 13.57 3.77Q13.78 3.55 14.11 3.56L14.12 3.56ZM21.5 3.87Q21.49 4.28 21.5 4.77L21.5 4.77L21.5 4.77Q21.5 4.76 21.49 4.74Q21.48 4.72 21.46 4.71Q21.45 4.71 21.45 4.71L21.45 4.71Q21.46 4.71 21.47 4.71Q21.66 4.69 21.75 4.6Q21.84 4.51 21.85 4.35Q21.87 4.01 21.52 3.94L21.56 3.75L21.55 3.95Q21.46 3.94 21.44 3.95Q21.46 3.94 21.48 3.92Q21.5 3.89 21.5 3.87L21.5 3.87ZM21.1 3.85Q21.11 3.75 21.17 3.67Q21.22 3.6 21.32 3.57Q21.41 3.54 21.57 3.55L21.58 3.55L21.59 3.55Q21.9 3.61 22.07 3.81Q22.27 4.03 22.25 4.37Q22.23 4.7 22.02 4.89Q21.83 5.07 21.52 5.1Q21.37 5.12 21.27 5.06Q21.1 4.97 21.1 4.77L21.3 4.77L21.1 4.78Q21.08 4.27 21.1 3.85L21.1 3.85ZM3.24 8.23Q3.08 8.23 3.01 8.32Q2.92 8.42 2.93 8.59Q2.93 8.77 3.02 8.86Q3.1 8.94 3.26 8.94Q3.31 8.93 3.32 8.93Q3.31 8.93 3.3 8.95Q3.3 8.96 3.3 8.96Q3.3 8.95 3.3 8.94Q3.3 8.92 3.29 8.86Q3.28 8.75 3.29 8.68Q3.29 8.55 3.36 8.46L3.53 8.57L3.41 8.73Q3.29 8.64 3.27 8.48Q3.26 8.41 3.28 8.29Q3.29 8.23 3.29 8.21Q3.29 8.2 3.29 8.2Q3.29 8.2 3.3 8.21Q3.31 8.23 3.32 8.24Q3.3 8.23 3.24 8.23L3.24 8.23ZM3.24 7.83Q3.55 7.83 3.65 8.03Q3.69 8.11 3.69 8.22Q3.69 8.26 3.68 8.35Q3.67 8.42 3.67 8.44Q3.67 8.42 3.64 8.4L3.8 8.52L3.69 8.68Q3.68 8.7 3.69 8.82Q3.7 8.9 3.7 8.95Q3.7 9.05 3.66 9.13Q3.56 9.32 3.27 9.34Q2.94 9.35 2.73 9.14Q2.53 8.93 2.53 8.6Q2.52 8.27 2.71 8.06Q2.91 7.83 3.24 7.83L3.24 7.83ZM11.46 8.93Q11.61 8.95 11.69 8.86Q11.78 8.77 11.78 8.6Q11.79 8.43 11.71 8.34Q11.62 8.24 11.47 8.24Q11.41 8.23 11.4 8.24Q11.41 8.23 11.43 8.21Q11.43 8.2 11.43 8.2Q11.43 8.2 11.43 8.21Q11.43 8.24 11.43 8.3Q11.44 8.4 11.44 8.45Q11.44 8.56 11.39 8.64L11.21 8.54L11.41 8.54L11.41 8.55L11.21 8.55L11.38 8.43Q11.45 8.52 11.45 8.66Q11.45 8.72 11.44 8.83Q11.42 8.93 11.43 8.94Q11.42 8.93 11.41 8.92Q11.42 8.93 11.46 8.93L11.46 8.93ZM11.42 9.33Q11.14 9.3 11.05 9.09Q11.02 9.01 11.03 8.91Q11.03 8.86 11.04 8.78Q11.05 8.7 11.05 8.67Q11.05 8.66 11.05 8.66Q11.05 8.66 11.05 8.66L11.01 8.61L11.01 8.49L11.04 8.45Q11.04 8.44 11.04 8.34Q11.03 8.25 11.03 8.2Q11.03 8.1 11.07 8.02Q11.18 7.82 11.49 7.84Q11.82 7.85 12.01 8.07Q12.19 8.29 12.18 8.61Q12.17 8.94 11.97 9.14Q11.76 9.36 11.42 9.33L11.42 9.33Z" fill="#FA8B02" fill-opacity="1.000000" fill-rule="evenodd"/>
	<path id="Vector" d="M17.41 22.33C17.41 22.1 17.42 21.86 17.41 21.63C17.4 21.36 17.41 21.17 17.79 21.16C18.2 21.15 18.21 21.35 18.21 21.65C18.2 22.15 18.19 22.65 18.21 23.15C18.22 23.46 18.04 23.48 17.8 23.49C17.56 23.49 17.39 23.43 17.41 23.13C17.43 22.86 17.41 22.6 17.41 22.33Z" fill="#FA8B02" fill-opacity="1.000000" fill-rule="nonzero"/>
	<path id="Vector" d="M17.21 21.64Q17.21 21.5 17.21 21.43Q17.23 21.29 17.28 21.2Q17.31 21.16 17.33 21.13Q17.48 20.97 17.79 20.96Q18.11 20.95 18.27 21.11Q18.3 21.14 18.33 21.18Q18.39 21.28 18.4 21.42Q18.41 21.51 18.41 21.65Q18.39 22.52 18.41 23.14Q18.41 23.39 18.29 23.53Q18.26 23.57 18.2 23.6Q18.12 23.66 18 23.67Q17.92 23.69 17.8 23.69Q17.53 23.69 17.39 23.58Q17.34 23.55 17.31 23.5Q17.2 23.36 17.21 23.12Q17.22 22.95 17.22 22.59Q17.21 22.42 17.21 22.33Q17.21 22.25 17.21 22.09Q17.22 21.79 17.21 21.64ZM17.41 22.33C17.41 22.25 17.41 22.17 17.41 22.1C17.42 21.94 17.42 21.79 17.41 21.63C17.4 21.36 17.41 21.17 17.79 21.16C18.2 21.15 18.21 21.35 18.21 21.65C18.2 22.15 18.19 22.65 18.21 23.15C18.22 23.46 18.04 23.48 17.8 23.49C17.56 23.49 17.39 23.43 17.41 23.13C17.42 22.95 17.42 22.77 17.42 22.59C17.41 22.5 17.41 22.41 17.41 22.33Z" fill="#FA8B02" fill-opacity="1.000000" fill-rule="evenodd"/>
</svg>
