<svg width="25.000000" height="14.000000" viewBox="0 0 25 14" fill="none" xmlns="http://www.w3.org/2000/svg" xmlns:xlink="http://www.w3.org/1999/xlink">
	<desc>
			Created with Pixso.
	</desc>
	<defs/>
	<path id="Vector" d="M12.04 -0.69L23.22 -0.69C23.96 -0.69 23.99 -0.66 23.99 0.08C23.99 1 23.98 1.91 24 2.83C24 3.22 23.88 3.42 23.49 3.54C22.08 3.98 21.23 5.13 21.24 6.52C21.25 7.89 22.1 9.02 23.49 9.45C23.85 9.56 24 9.72 24 10.1C23.98 11.09 23.97 12.09 24 13.08C24 13.53 23.82 13.69 23.38 13.69C15.8 13.68 8.22 13.68 0.64 13.69C0.17 13.69 -0.02 13.53 0 13.05C0.02 12.08 0.01 11.1 0 10.13C0 9.76 0.11 9.58 0.48 9.46C1.91 9.01 2.75 7.89 2.75 6.5C2.75 5.1 1.91 3.98 0.48 3.53C0.11 3.42 0 3.23 0 2.86C0.02 1.91 0.03 0.95 0 0C-0.02 -0.53 0.18 -0.7 0.7 -0.7C4.48 -0.68 8.26 -0.69 12.04 -0.69ZM8.77 0C6.26 0 3.74 0.01 1.23 -0.01C0.81 -0.02 0.68 0.11 0.7 0.52C0.73 1.14 0.73 1.77 0.7 2.39C0.69 2.74 0.81 2.9 1.13 3.04C2.46 3.61 3.23 4.63 3.41 6.05C3.58 7.52 3.1 8.88 1.8 9.54C0.7 10.09 0.63 10.83 0.71 11.79C0.73 12 0.73 12.2 0.71 12.4C0.64 12.89 0.84 13.01 1.32 13.01C6.11 12.99 10.91 13 15.69 13C16.02 13 16.39 13.07 16.66 12.94C16.93 12.81 16.74 12.4 16.8 12.12C16.84 11.92 16.93 11.77 17.15 11.78C17.38 11.79 17.46 11.96 17.47 12.16C17.49 12.31 17.49 12.45 17.48 12.6C17.46 12.87 17.55 13 17.85 13C19.54 12.99 21.23 12.99 22.92 13C23.21 13 23.3 12.89 23.3 12.61C23.29 11.9 23.29 11.18 23.3 10.47C23.3 10.2 23.18 10.09 22.95 9.99C21.4 9.33 20.57 8.15 20.58 6.48C20.58 4.84 21.41 3.67 22.93 3.02C23.22 2.89 23.31 2.73 23.3 2.44C23.29 1.78 23.28 1.12 23.3 0.46C23.31 0.1 23.18 -0.01 22.82 -0.01C21.41 0.01 20 -0.01 18.58 0C18.24 0 17.85 -0.13 17.57 0.08C17.35 0.25 17.52 0.6 17.47 0.87C17.44 1.08 17.34 1.22 17.12 1.21C16.92 1.21 16.83 1.07 16.8 0.89C16.78 0.78 16.78 0.67 16.79 0.56C16.86 0.09 16.65 -0.02 16.2 -0.02C13.73 0.01 11.25 0 8.77 0Z" fill="#FA8B02" fill-opacity="1.000000" fill-rule="nonzero"/>
	<path id="Vector" d="M23.68 -0.87Q23.54 -0.89 23.22 -0.89L12.04 -0.89L3.57 -0.89L0.7 -0.9Q0.47 -0.9 0.32 -0.86Q0.13 -0.81 0.01 -0.69Q-0.22 -0.48 -0.2 0.01Q-0.16 1.11 -0.2 2.86Q-0.2 3.2 -0.06 3.4Q0.08 3.62 0.42 3.72Q1.25 3.99 1.79 4.54Q1.9 4.65 1.99 4.78Q2.19 5.04 2.31 5.32Q2.55 5.85 2.55 6.5Q2.55 7.14 2.31 7.68Q2.19 7.96 1.99 8.21Q1.9 8.34 1.79 8.45Q1.25 9.01 0.42 9.27Q0.08 9.38 -0.07 9.59Q-0.2 9.79 -0.2 10.13Q-0.17 11.82 -0.2 13.04Q-0.22 13.48 0 13.69Q0.2 13.89 0.64 13.89L12.01 13.89L23.38 13.89Q23.8 13.89 24 13.7L24 13.7Q24.2 13.5 24.19 13.07Q24.17 11.68 24.19 10.11Q24.2 9.75 24.03 9.55Q23.88 9.36 23.55 9.26Q22.8 9.03 22.3 8.54Q22.14 8.39 22.01 8.22Q21.8 7.95 21.67 7.64Q21.45 7.13 21.44 6.52Q21.44 6.04 21.58 5.6Q21.58 5.59 21.58 5.59Q21.66 5.34 21.79 5.11Q21.88 4.94 21.99 4.79Q22.13 4.61 22.29 4.46Q22.79 3.97 23.55 3.73Q23.9 3.62 24.06 3.4Q24.2 3.19 24.19 2.83Q24.18 2.18 24.19 0.89Q24.19 0.35 24.19 0.08Q24.19 -0.25 24.17 -0.38Q24.14 -0.61 24.03 -0.73Q23.91 -0.84 23.68 -0.87ZM12.04 -0.69L23.22 -0.69C23.96 -0.69 23.99 -0.66 23.99 0.08C23.99 0.35 23.99 0.62 23.99 0.88C23.98 1.53 23.98 2.18 24 2.83C24 3.22 23.88 3.42 23.49 3.54C22.08 3.98 21.23 5.13 21.24 6.52C21.25 7.89 22.1 9.02 23.49 9.45C23.85 9.56 24 9.72 24 10.1C23.98 11.09 23.97 12.09 24 13.08C24 13.53 23.82 13.69 23.38 13.69Q18.23 13.69 13.09 13.69Q6.87 13.68 0.64 13.69C0.17 13.69 -0.02 13.53 0 13.05C0.02 12.08 0.01 11.1 0 10.13C0 9.76 0.11 9.58 0.48 9.46C1.91 9.01 2.75 7.89 2.75 6.5C2.75 5.1 1.91 3.98 0.48 3.53C0.11 3.42 0 3.23 0 2.86C0.02 1.91 0.03 0.95 0 0C-0.02 -0.53 0.18 -0.7 0.7 -0.7C3.57 -0.69 6.44 -0.69 9.3 -0.69C10.22 -0.69 11.13 -0.69 12.04 -0.69ZM16.79 0.56C16.86 0.09 16.65 -0.02 16.2 -0.02C14.33 0 12.46 0 10.58 0C9.98 0 9.38 0 8.77 0C8.12 0 7.48 0 6.83 0C4.96 0 3.1 0 1.23 -0.01C0.81 -0.02 0.68 0.11 0.7 0.52C0.73 1.14 0.73 1.77 0.7 2.39C0.69 2.74 0.81 2.9 1.13 3.04C2.46 3.61 3.23 4.63 3.41 6.05C3.58 7.52 3.1 8.88 1.8 9.54C0.7 10.09 0.63 10.83 0.71 11.79C0.73 12 0.73 12.2 0.71 12.4C0.64 12.89 0.84 13.01 1.32 13.01C4.76 13 8.21 13 11.65 13L11.65 13L11.66 13C13 13 14.35 13 15.69 13C15.78 13 15.87 13 15.96 13.01C16.21 13.02 16.46 13.03 16.66 12.94C16.84 12.85 16.82 12.65 16.8 12.45C16.79 12.34 16.78 12.22 16.8 12.12C16.84 11.92 16.93 11.77 17.15 11.78C17.38 11.79 17.46 11.96 17.47 12.16C17.49 12.31 17.49 12.45 17.48 12.6C17.46 12.87 17.55 13 17.85 13Q19.12 13 20.38 13Q21.65 13 22.92 13C23.21 13 23.3 12.89 23.3 12.61C23.29 11.9 23.29 11.18 23.3 10.47C23.3 10.2 23.18 10.09 22.95 9.99C21.4 9.33 20.57 8.15 20.58 6.48C20.58 4.84 21.41 3.67 22.93 3.02C23.22 2.89 23.31 2.73 23.3 2.44C23.29 1.78 23.28 1.12 23.3 0.46C23.31 0.1 23.18 -0.01 22.82 -0.01C22.05 0 21.27 0 20.5 0C19.86 0 19.22 0 18.58 0C18.49 0 18.39 -0.01 18.29 -0.02C18.03 -0.05 17.77 -0.07 17.57 0.08C17.43 0.19 17.45 0.37 17.47 0.56C17.48 0.67 17.49 0.78 17.47 0.87C17.44 1.08 17.34 1.22 17.12 1.21C16.92 1.21 16.83 1.07 16.8 0.89C16.78 0.78 16.78 0.67 16.79 0.56ZM16.61 0.92Q16.59 0.83 16.59 0.73Q16.58 0.64 16.59 0.54L16.59 0.54L16.59 0.53Q16.63 0.3 16.56 0.25Q16.49 0.18 16.2 0.18L12.4 0.2L10.58 0.2L8.77 0.2L8.77 0.2L5 0.2L1.23 0.19L1.23 0.19Q1 0.19 0.95 0.24Q0.89 0.29 0.9 0.51Q0.94 1.36 0.9 2.4Q0.9 2.59 0.96 2.68Q1.02 2.78 1.21 2.86Q2.18 3.27 2.77 3.99Q2.82 4.04 2.86 4.11Q2.93 4.2 2.99 4.29Q3.48 5.04 3.6 6.03Q3.75 7.23 3.34 8.18Q3.13 8.67 2.79 9.04Q2.42 9.45 1.89 9.71Q1.52 9.9 1.3 10.13Q1.14 10.29 1.04 10.49Q1.02 10.54 1 10.58Q0.91 10.81 0.89 11.12Q0.87 11.38 0.91 11.78Q0.92 11.94 0.92 12.1Q0.92 12.26 0.91 12.42L0.91 12.42L0.91 12.43Q0.87 12.68 0.94 12.74Q1.02 12.81 1.32 12.81L6.1 12.8L15.69 12.8Q15.78 12.8 15.97 12.81Q16.21 12.82 16.32 12.81Q16.48 12.8 16.58 12.76Q16.58 12.76 16.58 12.76Q16.6 12.74 16.61 12.71Q16.62 12.65 16.6 12.47Q16.58 12.21 16.6 12.08Q16.65 11.86 16.76 11.74Q16.81 11.68 16.88 11.64Q17 11.57 17.16 11.58Q17.32 11.59 17.44 11.67Q17.5 11.71 17.55 11.78Q17.66 11.92 17.67 12.14Q17.68 12.16 17.68 12.18Q17.69 12.39 17.68 12.61Q17.67 12.74 17.7 12.77Q17.72 12.8 17.85 12.8L20.38 12.8L22.92 12.8Q23.05 12.8 23.07 12.77Q23.1 12.75 23.1 12.61Q23.08 11.48 23.1 10.46Q23.1 10.35 23.05 10.29Q23.01 10.23 22.87 10.17Q21.66 9.66 21.03 8.74Q21.02 8.73 21.02 8.73Q20.93 8.59 20.85 8.46Q20.37 7.6 20.38 6.48Q20.38 5.41 20.83 4.58Q20.92 4.41 21.02 4.26Q21.03 4.24 21.05 4.23Q21.67 3.34 22.85 2.83Q23.01 2.77 23.06 2.69Q23.1 2.61 23.1 2.45Q23.07 1.24 23.1 0.45Q23.11 0.27 23.06 0.23Q23.02 0.19 22.83 0.19L18.59 0.2Q18.48 0.2 18.27 0.18Q18.03 0.16 17.92 0.16Q17.78 0.17 17.69 0.24Q17.66 0.26 17.66 0.32Q17.65 0.38 17.67 0.54Q17.69 0.78 17.67 0.9Q17.63 1.13 17.51 1.26Q17.46 1.31 17.4 1.35Q17.28 1.42 17.11 1.41Q16.97 1.41 16.86 1.34Q16.8 1.31 16.75 1.25Q16.63 1.12 16.61 0.92Z" fill="#FA8B02" fill-opacity="1.000000" fill-rule="evenodd"/>
	<path id="Vector" d="M6.49 10.09C6.23 10.03 6.07 9.88 6.23 9.59C6.32 9.45 6.43 9.33 6.56 9.22C8.5 7.27 10.45 5.33 12.4 3.38L12.51 3.27C12.69 3.1 12.88 2.99 13.08 3.2C13.29 3.4 13.17 3.6 13 3.76C12.13 4.63 11.26 5.49 10.39 6.36C9.25 7.5 8.1 8.65 6.96 9.79C6.83 9.92 6.72 10.07 6.49 10.09Z" fill="#FA8B02" fill-opacity="1.000000" fill-rule="nonzero"/>
	<path id="Vector" d="M6.23 9.26Q6.14 9.36 6.06 9.48L6.05 9.49L6.05 9.5Q5.93 9.73 5.98 9.91Q6 9.97 6.03 10.03Q6.04 10.04 6.04 10.05Q6.17 10.22 6.45 10.28L6.47 10.29L6.5 10.29Q6.59 10.28 6.66 10.25Q6.76 10.22 6.85 10.16Q6.93 10.11 7.06 9.98Q7.09 9.94 7.1 9.93L10.53 6.5L13.14 3.9Q13.33 3.72 13.37 3.55Q13.41 3.44 13.39 3.35Q13.36 3.19 13.23 3.05Q13.08 2.91 12.92 2.89Q12.83 2.88 12.74 2.9Q12.56 2.94 12.37 3.13L12.26 3.24L6.42 9.07Q6.32 9.16 6.23 9.26ZM6.56 9.22C6.43 9.33 6.32 9.45 6.23 9.59C6.07 9.88 6.23 10.03 6.49 10.09C6.72 10.07 6.83 9.92 6.96 9.79Q8.67 8.07 10.39 6.36Q11.69 5.06 13 3.76C13.17 3.6 13.29 3.4 13.08 3.2C12.88 2.99 12.69 3.1 12.51 3.27L12.4 3.38Q9.48 6.3 6.56 9.22Z" fill="#FA8B02" fill-opacity="1.000000" fill-rule="evenodd"/>
	<path id="Vector" d="M7.44 2.72C7.64 2.72 7.85 2.76 8.04 2.84C8.23 2.92 8.4 3.03 8.55 3.18C8.69 3.33 8.81 3.5 8.88 3.69C8.96 3.88 9 4.09 9 4.29C9 4.5 8.96 4.71 8.87 4.9C8.79 5.09 8.67 5.26 8.53 5.41C8.38 5.55 8.2 5.67 8.01 5.74C7.81 5.82 7.61 5.86 7.4 5.86C7.19 5.85 6.99 5.81 6.8 5.73C6.61 5.65 6.43 5.53 6.29 5.38C6.14 5.23 6.03 5.06 5.95 4.86C5.87 4.67 5.83 4.46 5.84 4.26C5.84 4.05 5.88 3.85 5.97 3.66C6.05 3.47 6.17 3.3 6.32 3.15C6.46 3.01 6.64 2.9 6.83 2.83C7.02 2.75 7.23 2.71 7.44 2.72ZM7.4 5.17C7.52 5.17 7.64 5.15 7.74 5.11C7.85 5.07 7.95 5 8.04 4.92C8.12 4.84 8.19 4.75 8.23 4.64C8.28 4.53 8.3 4.42 8.31 4.3C8.31 4.19 8.29 4.07 8.25 3.96C8.2 3.85 8.14 3.75 8.06 3.67C7.98 3.59 7.88 3.52 7.78 3.47C7.67 3.43 7.56 3.4 7.44 3.4C7.2 3.39 6.98 3.48 6.81 3.65C6.64 3.81 6.54 4.03 6.54 4.27C6.53 4.5 6.62 4.73 6.78 4.9C6.95 5.07 7.17 5.17 7.4 5.17Z" fill="#FA8B02" fill-opacity="1.000000" fill-rule="nonzero"/>
	<path id="Vector" d="M8.42 2.82Q8.28 2.72 8.11 2.65Q7.95 2.59 7.78 2.55Q7.61 2.52 7.44 2.52Q7.26 2.52 7.09 2.55Q6.92 2.58 6.76 2.64Q6.6 2.7 6.45 2.8Q6.3 2.89 6.18 3.01Q6.05 3.13 5.95 3.27Q5.85 3.42 5.78 3.58Q5.72 3.73 5.68 3.89Q5.64 4.07 5.64 4.25Q5.63 4.43 5.67 4.6Q5.7 4.77 5.76 4.94Q5.83 5.1 5.92 5.25Q6.02 5.39 6.14 5.52Q6.27 5.65 6.41 5.75Q6.55 5.84 6.72 5.91Q6.88 5.98 7.05 6.02Q7.22 6.05 7.4 6.06Q7.58 6.06 7.75 6.03Q7.92 5.99 8.08 5.93Q8.25 5.86 8.39 5.77Q8.54 5.67 8.66 5.55Q8.79 5.42 8.89 5.28Q8.99 5.14 9.06 4.97Q9.12 4.82 9.16 4.66Q9.2 4.48 9.2 4.29Q9.2 4.12 9.17 3.95Q9.14 3.78 9.07 3.61Q9 3.45 8.91 3.31Q8.81 3.16 8.69 3.04Q8.56 2.91 8.42 2.82ZM7.44 2.72C7.23 2.71 7.02 2.75 6.83 2.83C6.64 2.9 6.46 3.01 6.32 3.15C6.17 3.3 6.05 3.47 5.97 3.66C5.88 3.85 5.84 4.05 5.84 4.26C5.83 4.46 5.87 4.67 5.95 4.86C6.03 5.06 6.14 5.23 6.29 5.38C6.43 5.53 6.61 5.65 6.8 5.73C6.99 5.81 7.19 5.85 7.4 5.86C7.61 5.86 7.81 5.82 8.01 5.74C8.2 5.67 8.38 5.55 8.53 5.41C8.67 5.26 8.79 5.09 8.87 4.9C8.96 4.71 9 4.5 9 4.29C9 4.09 8.96 3.88 8.88 3.69C8.81 3.5 8.69 3.33 8.55 3.18C8.4 3.03 8.23 2.92 8.04 2.84C7.85 2.76 7.64 2.72 7.44 2.72ZM7.4 5.17C7.52 5.17 7.64 5.15 7.74 5.11C7.85 5.07 7.95 5 8.04 4.92C8.12 4.84 8.19 4.75 8.23 4.64C8.28 4.53 8.3 4.42 8.31 4.3C8.31 4.19 8.29 4.07 8.25 3.96C8.2 3.85 8.14 3.75 8.06 3.67C7.98 3.59 7.88 3.52 7.78 3.47C7.67 3.43 7.56 3.4 7.44 3.4C7.2 3.39 6.98 3.48 6.81 3.65C6.64 3.81 6.54 4.03 6.54 4.27C6.53 4.5 6.62 4.73 6.78 4.9C6.95 5.07 7.17 5.17 7.4 5.17ZM7.79 4.86Q7.73 4.9 7.67 4.92Q7.61 4.95 7.54 4.96Q7.48 4.97 7.41 4.97Q7.27 4.97 7.15 4.91Q7.03 4.86 6.93 4.76Q6.83 4.66 6.78 4.53Q6.73 4.41 6.74 4.27Q6.74 4.13 6.79 4.01Q6.84 3.89 6.95 3.79Q7.05 3.69 7.17 3.64Q7.29 3.6 7.44 3.6Q7.5 3.6 7.57 3.61Q7.63 3.63 7.7 3.66Q7.76 3.68 7.81 3.72Q7.87 3.76 7.92 3.81Q7.96 3.86 8 3.91Q8.04 3.97 8.06 4.03Q8.08 4.1 8.1 4.16Q8.11 4.23 8.11 4.3Q8.11 4.37 8.09 4.43Q8.08 4.5 8.05 4.56Q8.02 4.62 7.98 4.68Q7.95 4.73 7.9 4.78Q7.85 4.83 7.79 4.86Z" fill="#FA8B02" fill-opacity="1.000000" fill-rule="evenodd"/>
	<path id="Vector" d="M13.37 8.68C13.37 8.88 13.33 9.09 13.26 9.28C13.18 9.47 13.06 9.64 12.92 9.79C12.78 9.94 12.6 10.05 12.41 10.13C12.22 10.21 12.02 10.25 11.81 10.26C11.61 10.26 11.4 10.23 11.21 10.15C11.02 10.08 10.84 9.97 10.69 9.82C10.55 9.68 10.43 9.51 10.35 9.32C10.27 9.13 10.22 8.93 10.22 8.72C10.22 8.51 10.25 8.3 10.33 8.1C10.4 7.91 10.52 7.73 10.67 7.58C10.81 7.43 10.99 7.31 11.18 7.22C11.38 7.14 11.59 7.1 11.8 7.1C12.21 7.11 12.61 7.28 12.9 7.57C13.2 7.86 13.37 8.26 13.37 8.68ZM12.67 8.66C12.66 8.55 12.64 8.43 12.59 8.33C12.55 8.23 12.48 8.13 12.4 8.05C12.32 7.97 12.22 7.91 12.12 7.87C12.01 7.83 11.9 7.81 11.78 7.81C11.67 7.81 11.55 7.83 11.44 7.88C11.33 7.92 11.23 7.99 11.15 8.08C11.07 8.16 11 8.26 10.96 8.37C10.92 8.49 10.9 8.6 10.9 8.72C10.91 8.95 11.01 9.17 11.18 9.33C11.35 9.49 11.57 9.58 11.8 9.58C11.91 9.58 12.03 9.55 12.14 9.51C12.25 9.46 12.34 9.39 12.43 9.3C12.51 9.22 12.57 9.12 12.61 9.01C12.65 8.9 12.67 8.78 12.67 8.66Z" fill="#FA8B02" fill-opacity="1.000000" fill-rule="nonzero"/>
	<path id="Vector" d="M13.28 9.66Q13.38 9.52 13.44 9.35Q13.51 9.2 13.54 9.03Q13.57 8.86 13.57 8.67Q13.57 8.5 13.53 8.33Q13.5 8.16 13.43 8Q13.36 7.84 13.27 7.7Q13.17 7.55 13.04 7.43Q12.92 7.3 12.78 7.21Q12.63 7.11 12.47 7.04Q12.32 6.98 12.16 6.95Q11.99 6.91 11.8 6.9Q11.62 6.9 11.44 6.94Q11.27 6.97 11.11 7.04Q10.94 7.11 10.79 7.21Q10.65 7.31 10.52 7.44Q10.4 7.57 10.3 7.72Q10.21 7.86 10.14 8.03Q10.08 8.2 10.05 8.37Q10.02 8.55 10.02 8.72Q10.02 8.9 10.06 9.07Q10.09 9.24 10.16 9.4Q10.23 9.56 10.33 9.7Q10.43 9.85 10.56 9.97Q10.68 10.09 10.83 10.18Q10.97 10.28 11.14 10.34Q11.3 10.4 11.47 10.43Q11.64 10.46 11.82 10.46Q11.99 10.45 12.16 10.42Q12.33 10.39 12.49 10.32Q12.65 10.25 12.8 10.15Q12.94 10.06 13.06 9.93Q13.19 9.81 13.28 9.66ZM11.81 10.26C11.61 10.26 11.4 10.23 11.21 10.15C11.02 10.08 10.84 9.97 10.69 9.82C10.55 9.68 10.43 9.51 10.35 9.32C10.27 9.13 10.22 8.93 10.22 8.72C10.22 8.51 10.25 8.3 10.33 8.1C10.4 7.91 10.52 7.73 10.67 7.58C10.81 7.43 10.99 7.31 11.18 7.22C11.38 7.14 11.59 7.1 11.8 7.1C12.21 7.11 12.61 7.28 12.9 7.57C13.2 7.86 13.37 8.26 13.37 8.68C13.37 8.88 13.33 9.09 13.26 9.28C13.18 9.47 13.06 9.64 12.92 9.79C12.78 9.94 12.6 10.05 12.41 10.13C12.22 10.21 12.02 10.25 11.81 10.26ZM12.67 8.66C12.66 8.55 12.64 8.43 12.59 8.33C12.55 8.23 12.48 8.13 12.4 8.05C12.32 7.97 12.22 7.91 12.12 7.87C12.01 7.83 11.9 7.81 11.78 7.81C11.67 7.81 11.55 7.83 11.44 7.88C11.33 7.92 11.23 7.99 11.15 8.08C11.07 8.16 11 8.26 10.96 8.37C10.92 8.49 10.9 8.6 10.9 8.72C10.91 8.95 11.01 9.17 11.18 9.33C11.35 9.49 11.57 9.58 11.8 9.58C11.91 9.58 12.03 9.55 12.14 9.51C12.25 9.46 12.34 9.39 12.43 9.3C12.51 9.22 12.57 9.12 12.61 9.01C12.65 8.9 12.67 8.78 12.67 8.66ZM12.35 8.3Q12.38 8.35 12.41 8.41Q12.44 8.47 12.45 8.53Q12.46 8.6 12.47 8.66L12.47 8.67L12.47 8.67Q12.47 8.74 12.46 8.81Q12.45 8.87 12.42 8.94Q12.4 9 12.36 9.06Q12.33 9.12 12.28 9.17Q12.23 9.22 12.18 9.26Q12.12 9.3 12.06 9.32Q12 9.35 11.93 9.37Q11.86 9.38 11.8 9.38Q11.66 9.38 11.54 9.33Q11.42 9.28 11.32 9.18Q11.21 9.08 11.16 8.96Q11.11 8.85 11.1 8.71Q11.1 8.65 11.11 8.58Q11.12 8.51 11.15 8.45Q11.17 8.38 11.21 8.32Q11.25 8.27 11.29 8.22Q11.34 8.17 11.4 8.13Q11.45 8.09 11.52 8.06Q11.56 8.04 11.6 8.03Q11.69 8.01 11.79 8.01Q11.85 8.01 11.92 8.02Q11.98 8.03 12.04 8.05Q12.11 8.08 12.16 8.11Q12.22 8.15 12.26 8.2Q12.31 8.24 12.35 8.3Z" fill="#FA8B02" fill-opacity="1.000000" fill-rule="evenodd"/>
	<path id="Vector" d="M17.47 6.51C17.47 6.71 17.48 6.91 17.47 7.11C17.46 7.31 17.33 7.46 17.11 7.44C16.9 7.42 16.8 7.26 16.8 7.06C16.79 6.69 16.79 6.33 16.8 5.96C16.8 5.74 16.89 5.55 17.14 5.54C17.38 5.54 17.48 5.73 17.48 5.95C17.48 6.14 17.48 6.32 17.48 6.5L17.47 6.51Z" fill="#FA8B02" fill-opacity="1.000000" fill-rule="nonzero"/>
	<path id="Vector" d="M17.58 7.42Q17.66 7.3 17.67 7.12Q17.68 6.98 17.67 6.7Q17.67 6.68 17.67 6.66L17.68 6.66L17.68 5.95L17.68 5.95Q17.67 5.7 17.56 5.54Q17.5 5.46 17.42 5.41Q17.3 5.34 17.13 5.34Q16.97 5.34 16.86 5.42Q16.77 5.47 16.71 5.56Q16.71 5.56 16.71 5.56Q16.6 5.72 16.6 5.96Q16.59 6.55 16.6 7.06Q16.6 7.28 16.7 7.42Q16.71 7.43 16.72 7.44Q16.76 7.5 16.83 7.54Q16.94 7.62 17.09 7.64Q17.25 7.65 17.37 7.6Q17.44 7.56 17.51 7.5Q17.55 7.46 17.58 7.42ZM17.47 6.51C17.47 6.57 17.47 6.64 17.47 6.71C17.48 6.84 17.48 6.98 17.47 7.11C17.46 7.31 17.33 7.46 17.11 7.44C16.9 7.42 16.8 7.26 16.8 7.06C16.79 6.69 16.79 6.33 16.8 5.96C16.8 5.74 16.89 5.55 17.14 5.54C17.38 5.54 17.48 5.73 17.48 5.95L17.48 6.5L17.47 6.51Z" fill="#FA8B02" fill-opacity="1.000000" fill-rule="evenodd"/>
	<path id="Vector" d="M16.79 3.39C16.79 3.19 16.78 2.99 16.79 2.79C16.8 2.59 16.9 2.43 17.12 2.43C17.35 2.43 17.45 2.59 17.46 2.79C17.48 3.17 17.48 3.55 17.46 3.93C17.46 4.16 17.35 4.33 17.1 4.32C16.87 4.31 16.8 4.14 16.78 3.94C16.77 3.74 16.79 3.58 16.79 3.39Z" fill="#FA8B02" fill-opacity="1.000000" fill-rule="nonzero"/>
	<path id="Vector" d="M16.71 2.43Q16.61 2.58 16.59 2.78Q16.59 2.92 16.59 3.2Q16.59 3.33 16.59 3.39Q16.59 3.46 16.59 3.59Q16.58 3.82 16.58 3.95Q16.6 4.17 16.7 4.31Q16.75 4.38 16.81 4.43Q16.93 4.51 17.09 4.52Q17.27 4.53 17.4 4.45Q17.47 4.41 17.53 4.34Q17.55 4.32 17.56 4.3Q17.66 4.15 17.66 3.94Q17.68 3.34 17.66 2.78Q17.66 2.59 17.57 2.46Q17.55 2.43 17.52 2.4Q17.47 2.34 17.4 2.3Q17.28 2.23 17.12 2.23Q16.97 2.23 16.85 2.3Q16.78 2.34 16.73 2.41Q16.72 2.42 16.71 2.43ZM17.46 3.93C17.48 3.55 17.48 3.17 17.46 2.79C17.45 2.59 17.35 2.43 17.12 2.43C16.9 2.43 16.8 2.59 16.79 2.79C16.79 2.93 16.79 3.06 16.79 3.19C16.79 3.26 16.79 3.33 16.79 3.39C16.79 3.46 16.79 3.53 16.79 3.6C16.78 3.71 16.78 3.82 16.78 3.94C16.8 4.14 16.87 4.31 17.1 4.32C17.35 4.33 17.46 4.16 17.46 3.93Z" fill="#FA8B02" fill-opacity="1.000000" fill-rule="evenodd"/>
	<path id="Vector" d="M17.47 9.65C17.47 9.83 17.48 10.02 17.47 10.2C17.46 10.4 17.36 10.56 17.14 10.57C16.92 10.57 16.81 10.42 16.8 10.22C16.79 9.82 16.79 9.42 16.8 9.02C16.8 8.97 16.81 8.93 16.82 8.88C16.84 8.84 16.87 8.8 16.9 8.77C16.93 8.74 16.97 8.71 17.02 8.7C17.06 8.69 17.11 8.68 17.15 8.69C17.38 8.7 17.46 8.86 17.47 9.06C17.48 9.26 17.47 9.45 17.47 9.65Z" fill="#FA8B02" fill-opacity="1.000000" fill-rule="nonzero"/>
	<path id="Vector" d="M17.55 10.58Q17.66 10.44 17.67 10.22L17.67 10.21Q17.68 10.08 17.68 9.83Q17.67 9.71 17.67 9.65Q17.67 9.6 17.68 9.5Q17.68 9.2 17.67 9.05Q17.66 8.82 17.55 8.68Q17.51 8.62 17.44 8.58Q17.33 8.5 17.17 8.49Q17.12 8.48 17.07 8.49Q17.01 8.49 16.95 8.51Q16.9 8.53 16.85 8.56Q16.8 8.59 16.76 8.62Q16.72 8.66 16.69 8.71Q16.66 8.76 16.64 8.81Q16.62 8.86 16.61 8.92Q16.6 8.97 16.6 9.02Q16.58 9.62 16.6 10.23Q16.61 10.42 16.71 10.56Q16.72 10.58 16.75 10.61Q16.8 10.67 16.87 10.7Q16.99 10.77 17.15 10.77Q17.3 10.77 17.42 10.7Q17.49 10.65 17.54 10.59Q17.54 10.58 17.55 10.58ZM16.8 9.02Q16.8 9.07 16.8 9.11Q16.78 9.67 16.8 10.22C16.81 10.42 16.92 10.57 17.14 10.57C17.36 10.56 17.46 10.4 17.47 10.2C17.48 10.08 17.48 9.96 17.48 9.83C17.47 9.77 17.47 9.71 17.47 9.65C17.47 9.6 17.47 9.55 17.48 9.49C17.48 9.35 17.48 9.2 17.47 9.06C17.46 8.86 17.38 8.7 17.15 8.69C17.11 8.68 17.06 8.69 17.02 8.7C16.97 8.71 16.93 8.74 16.9 8.77C16.87 8.8 16.84 8.84 16.82 8.88C16.81 8.93 16.8 8.97 16.8 9.02Z" fill="#FA8B02" fill-opacity="1.000000" fill-rule="evenodd"/>
</svg>
