<svg width="40.000000" height="30.000000" viewBox="0 0 40 30" fill="none" xmlns="http://www.w3.org/2000/svg" xmlns:xlink="http://www.w3.org/1999/xlink">
	<desc>
			Created with Pixso.
	</desc>
	<defs/>
	<rect id="Discover" rx="12.000000" width="40.000000" height="30.000000" transform="translate(-0.363281 0.000000)" fill="#FFFFFF" fill-opacity="0"/>
	<rect id="BASE" width="40.000000" height="30.000000" transform="translate(-0.363281 0.000000)" fill="#FFFFFF" fill-opacity="0"/>
	<rect id="BASE" x="-0.363281" rx="4.000000" width="40.000000" height="30.000000" fill="#FFFFFF" fill-opacity="1.000000"/>
	<rect id="BASE" x="0.136719" y="0.500000" rx="4.000000" width="39.000000" height="29.000000" stroke="#B2BCCA" stroke-opacity="1.000000" stroke-width="1.000000"/>
	<path id="Stripe" d="M38.63 23.25L19.63 29L35.63 29C37.29 29 38.63 27.65 38.63 26L38.63 23.25Z" fill="#FD6020" fill-opacity="1.000000" fill-rule="evenodd"/>
	<path id="DISC-VER" d="M10.7905 12.9332C10.7905 13.269 10.9746 13.4033 11.5898 13.6719C12.8193 14.2092 13.127 14.6122 13.1885 15.4181L13.1885 15.6196C13.127 16.6941 12.3276 17.5 11.3438 17.4329C10.606 17.4329 9.86816 17.0299 9.49902 16.2911L10.1753 15.5524C10.3599 16.0225 10.7905 16.3583 11.2822 16.3583L11.3438 16.3583C11.7129 16.3583 12.0815 15.9553 12.0815 15.4852C12.0815 15.2166 11.9585 15.0151 11.7744 14.8808C11.5283 14.7465 11.2822 14.6122 11.0361 14.545C10.0527 14.2092 9.74512 13.7391 9.74512 12.9332L9.74512 12.866C9.80664 11.9258 10.5444 11.1871 11.4053 11.2543C11.9585 11.2543 12.5122 11.5229 12.9424 11.9258L12.3892 12.7318C12.1431 12.4631 11.8354 12.2616 11.5283 12.2616C11.1592 12.1945 10.8521 12.5303 10.7905 12.9332ZM13.4956 14.4106C13.4956 16.0896 14.7256 17.4999 16.2627 17.4999C16.7544 17.4999 17.1851 17.3656 17.6152 17.1641L17.6152 15.821C17.3081 16.2239 16.8774 16.4926 16.3857 16.4926C15.4019 16.4926 14.6025 15.6866 14.6025 14.6121L14.6025 14.4778C14.541 13.4033 15.3403 12.463 16.3242 12.3959C16.8159 12.3959 17.3081 12.6645 17.6152 13.0674L17.6152 11.7243C17.2466 11.4556 16.7544 11.3885 16.3242 11.3885C14.7256 11.2542 13.4956 12.6645 13.4956 14.4106ZM3.16602 11.3886L5.01074 11.3886C6.48633 11.4557 7.65479 12.799 7.59326 14.4108C7.59326 15.2838 7.22412 16.0897 6.60938 16.6942C6.05615 17.1642 5.37939 17.4329 4.70312 17.3657L3.16602 17.3657L3.16602 11.3886ZM8.02344 17.3657L9.06885 17.3657L9.06885 11.3886L8.02344 11.3886L8.02344 17.3657ZM24.5635 11.3886L25.978 15.4182L27.4536 11.3886L28.5605 11.3886L26.2852 17.5001L25.7319 17.5001L23.457 11.3886L24.5635 11.3886ZM29.0522 17.3657L32.0039 17.3657L32.0039 16.3583L30.0977 16.3583L30.0977 14.7466L31.9424 14.7466L31.9424 13.7392L30.0977 13.7392L30.0977 12.396L32.0039 12.396L32.0039 11.3886L29.0522 11.3886L29.0522 17.3657ZM34.2173 11.3886C35.4473 11.3886 36.1235 11.993 36.1235 13.1348C36.1851 14.0078 35.6318 14.7466 34.8936 14.8809L36.5537 17.3658L35.2627 17.3658L33.8486 14.9481L33.7256 14.9481L33.7256 17.3658L32.6802 17.3658L32.6802 11.3886L34.2173 11.3886ZM34.0332 14.1421L33.7256 14.1421L33.7256 12.3288L34.0332 12.3288C34.7095 12.3288 35.0166 12.6646 35.0166 13.2019C35.0166 13.8063 34.7095 14.1421 34.0332 14.1421ZM5.93311 15.8882C5.56396 16.2241 5.01074 16.4255 4.51855 16.3584L4.21143 16.3584L4.21143 12.396L4.51855 12.396C5.01074 12.3289 5.56396 12.5303 5.93311 12.8661C6.30176 13.2691 6.48633 13.8063 6.48633 14.3436C6.48633 14.9481 6.30176 15.4853 5.93311 15.8882Z" clip-rule="evenodd" fill="#333333" fill-opacity="1.000000" fill-rule="evenodd"/>
	<path id="O" d="M20.75 11.25C19.21 11.25 17.92 12.59 17.92 14.33C17.92 16.01 19.15 17.42 20.75 17.49C22.35 17.56 23.58 16.15 23.64 14.4C23.58 12.66 22.35 11.25 20.75 11.25L20.75 11.25Z" fill="#FD6020" fill-opacity="1.000000" fill-rule="evenodd"/>
</svg>
