<svg width="21.000000" height="24.000000" viewBox="0 0 21 24" fill="none" xmlns="http://www.w3.org/2000/svg" xmlns:xlink="http://www.w3.org/1999/xlink">
	<desc>
			Created with Pixso.
	</desc>
	<defs/>
	<path id="Vector" d="M10 23.49L0.3 23.49C-0.54 23.49 -0.75 23.25 -0.8 22.41C-0.9 20.67 -0.37 19.2 0.92 18.01C1.44 17.53 2.06 17.21 2.69 16.93C3.78 16.43 4.91 16.02 6.07 15.7C6.42 15.59 6.6 15.42 6.66 15.08C6.72 14.77 6.79 14.47 6.85 14.16C7.01 13.29 6.89 12.54 6.05 12C5.45 11.61 5.16 10.99 5.2 10.25C5.22 9.99 5.13 9.86 4.88 9.75C4.06 9.41 3.62 8.79 3.62 7.89C3.63 7.02 4.05 6.4 4.85 6.07C5.11 5.96 5.16 5.85 5.12 5.58C5.01 4.89 4.75 4.37 4.04 4.16C3.81 4.1 3.6 3.95 3.39 3.83C2.76 3.48 2.41 2.95 2.41 2.23C2.41 1.49 2.77 0.94 3.42 0.59C4.36 0.1 5.38 -0.11 6.42 -0.25C9.14 -0.62 11.86 -0.6 14.56 -0.08C15.25 0.04 15.91 0.26 16.53 0.57C17.21 0.92 17.6 1.47 17.6 2.23C17.6 2.97 17.22 3.52 16.57 3.86C16.22 4.05 15.87 4.24 15.5 4.4C15.38 4.44 15.27 4.52 15.19 4.62C15.11 4.72 15.06 4.84 15.04 4.97C14.99 5.26 14.83 5.56 14.87 5.83C14.91 6.1 15.31 6.09 15.53 6.25C16.14 6.7 16.43 7.29 16.38 8.05C16.32 8.83 15.92 9.4 15.22 9.71C14.89 9.85 14.78 10.01 14.79 10.35C14.82 11.05 14.46 11.56 13.97 12.02C13.65 12.31 13.18 12.48 13.13 12.97C13.05 13.8 13.16 14.64 13.46 15.43C13.54 15.64 13.76 15.63 13.94 15.69C15.33 16.13 16.73 16.56 18.01 17.28C20.44 18.65 20.94 20.62 20.77 22.78C20.73 23.28 20.38 23.49 19.9 23.49C18.89 23.49 17.88 23.49 16.88 23.49L10 23.49ZM5.21 6.79C4.62 7.06 4.38 7.46 4.4 7.99C4.42 8.49 4.82 9.01 5.32 9.05C5.97 9.1 6.05 9.46 6 9.96C5.96 10.26 6 10.56 6.12 10.83C6.24 11.1 6.43 11.34 6.67 11.51C7.08 11.8 7.46 12.14 7.8 12.51C8.53 13.33 9.42 13.64 10.5 13.5C10.86 13.46 11.18 13.38 11.45 13.14C12.05 12.61 12.63 12.06 13.26 11.57C13.82 11.13 14.08 10.6 14 9.9C13.95 9.43 14.05 9.11 14.64 9.06C15.17 9.02 15.56 8.5 15.6 7.97C15.64 7.5 15.35 7.08 14.85 6.86C14.75 7.06 14.82 7.27 14.8 7.47C14.78 7.71 14.66 7.87 14.41 7.89C14.17 7.9 14.03 7.74 14.01 7.5C13.99 7.31 13.99 7.12 14 6.93C14.05 6.52 13.9 6.44 13.5 6.49C11.26 6.79 8.99 6.8 6.74 6.53C6.01 6.44 6.01 6.44 6 7.2C6 7.32 5.99 7.44 5.97 7.56C5.96 7.65 5.91 7.73 5.84 7.79C5.78 7.85 5.69 7.88 5.6 7.88C5.5 7.88 5.42 7.85 5.35 7.79C5.28 7.73 5.23 7.65 5.22 7.56C5.2 7.3 5.2 7.05 5.21 6.79ZM16.79 2.22C16.79 1.77 16.54 1.47 16.16 1.28C15.66 1.03 15.13 0.85 14.58 0.75C12.03 0.19 9.45 0.2 6.87 0.49C5.83 0.6 4.8 0.8 3.86 1.27C3.23 1.58 3 2.22 3.35 2.73C3.75 3.3 4.44 3.45 5.02 3.73C5.08 3.76 5.21 3.67 5.29 3.61C5.85 3.27 6.48 3.04 7.14 2.94C8.74 2.64 10.35 2.65 11.96 2.8C12.95 2.89 13.92 3.08 14.76 3.67C14.82 3.71 14.88 3.73 14.95 3.73C15.02 3.74 15.09 3.72 15.15 3.68C15.53 3.48 15.92 3.29 16.3 3.08C16.46 3 16.58 2.87 16.67 2.72C16.75 2.57 16.8 2.39 16.79 2.22L16.79 2.22ZM9.99 5.89C11.21 5.93 12.42 5.86 13.62 5.65C13.8 5.62 14 5.64 14.1 5.42C14.54 4.57 14.39 4.2 13.49 3.91C13.37 3.87 13.26 3.83 13.14 3.8C11.07 3.39 8.95 3.39 6.88 3.8C6.64 3.85 6.41 3.93 6.19 4.04C5.95 4.16 5.57 4.22 5.71 4.64C5.84 5.04 5.71 5.59 6.41 5.67C7.6 5.82 8.79 5.93 9.99 5.89ZM10.4 20.46C10.4 20.17 10.4 19.87 10.4 19.58C10.4 18.58 10.88 18.25 11.81 18.65C13.41 19.34 14.4 20.55 14.71 22.26C14.78 22.66 14.98 22.73 15.31 22.69C15.75 22.63 15.48 22.32 15.5 22.12C15.49 21.98 15.46 21.85 15.41 21.72C15.1 20.48 14.37 19.38 13.34 18.61C12.32 17.85 11.06 17.46 9.79 17.5C8.51 17.55 7.28 18.04 6.32 18.88C5.36 19.72 4.71 20.87 4.49 22.13C4.4 22.64 4.53 22.77 5.01 22.69C5.32 22.64 5.25 22.38 5.28 22.2C5.68 20.42 6.72 19.19 8.44 18.56C9.11 18.32 9.58 18.66 9.6 19.37C9.61 19.84 9.6 20.31 9.6 20.78C9.6 21.36 9.71 21.97 9.08 22.35C9.05 22.36 9.03 22.38 9.01 22.4C9 22.42 8.98 22.44 8.97 22.46C8.97 22.49 8.96 22.52 8.96 22.54C8.96 22.57 8.97 22.59 8.98 22.62C9.05 22.72 9.17 22.69 9.27 22.69C9.72 22.69 10.17 22.69 10.62 22.69C10.76 22.69 10.94 22.75 11.01 22.61C11.09 22.44 10.93 22.3 10.81 22.24C10.41 22 10.37 21.65 10.39 21.25C10.41 20.99 10.4 20.73 10.4 20.46ZM4.48 17.19L4.38 17.09C3.78 17.35 3.16 17.58 2.58 17.87C0.77 18.79 -0.08 20.27 0 22.3C0.01 22.58 0.07 22.71 0.38 22.7C1.35 22.69 2.32 22.69 3.29 22.7C3.52 22.7 3.63 22.65 3.65 22.39C3.7 21.85 3.83 21.32 4.03 20.82C4.12 20.6 4.09 20.5 3.83 20.42C3.01 20.17 2.85 19.71 3.32 18.98C3.71 18.38 4.1 17.79 4.48 17.19ZM15.49 17.15C15.9 17.8 16.31 18.4 16.69 19.01C17.14 19.71 16.97 20.17 16.18 20.42C15.94 20.49 15.87 20.57 15.96 20.81C16.17 21.31 16.29 21.84 16.34 22.37C16.36 22.67 16.51 22.7 16.74 22.69C17.7 22.69 18.65 22.69 19.6 22.69C19.89 22.69 19.99 22.61 20 22.31C20.14 19.46 18.28 17.84 15.49 17.15ZM7.73 13.6C7.65 14.23 7.6 14.84 7.4 15.41C7.36 15.54 7.36 15.66 7.51 15.72C8.32 16.03 9.13 16.33 9.95 16.63C10.03 16.64 10.12 16.63 10.2 16.59C10.93 16.32 11.66 16.04 12.39 15.77C12.52 15.72 12.66 15.66 12.6 15.48C12.41 14.87 12.36 14.24 12.26 13.61C10.74 14.6 9.26 14.62 7.73 13.6ZM11.21 20.51C11.25 20.82 11.1 21.21 11.29 21.54C11.94 22.7 11.95 22.69 13.31 22.69C13.4 22.69 13.49 22.68 13.57 22.69C13.91 22.72 14 22.58 13.92 22.26C13.62 21.04 12.94 20.13 11.84 19.54C11.24 19.22 11.21 19.25 11.21 19.94L11.21 20.51ZM8.79 20.59C8.79 20.19 8.78 19.92 8.79 19.64C8.79 19.36 8.69 19.3 8.44 19.41C7.14 19.99 6.37 20.99 6.06 22.36C6.02 22.58 6.08 22.69 6.32 22.69C6.8 22.69 7.29 22.69 7.77 22.69C7.88 22.69 8.01 22.7 8.05 22.59C8.29 21.88 9.12 21.37 8.79 20.59L8.79 20.59ZM6.51 17.67C6.3 17.5 6.08 17.37 5.93 17.18C5.71 16.92 5.58 16.95 5.41 17.24C5 17.9 4.56 18.54 4.14 19.2C4.07 19.32 3.81 19.48 4.04 19.61C4.24 19.73 4.51 19.85 4.72 19.52C5.1 18.89 5.63 18.39 6.21 17.94C6.29 17.88 6.36 17.81 6.51 17.68L6.51 17.67ZM14.38 16.97C14.27 16.96 13.57 17.65 13.59 17.72C13.61 17.78 13.66 17.84 13.71 17.88C14.35 18.35 14.91 18.94 15.35 19.6C15.53 19.87 15.79 19.7 15.96 19.61C16.18 19.5 15.95 19.35 15.89 19.24C15.46 18.57 15.02 17.9 14.58 17.24C14.52 17.14 14.44 17.05 14.38 16.98L14.38 16.97ZM11.77 16.86C12.69 17.42 12.75 17.42 13.36 16.76C13.44 16.67 13.64 16.59 13.53 16.44C13.44 16.32 13.25 16.31 13.1 16.37C12.66 16.53 12.23 16.69 11.77 16.86L11.77 16.86ZM8.32 16.88C7.77 16.68 7.33 16.52 6.89 16.37C6.74 16.31 6.55 16.33 6.47 16.46C6.4 16.58 6.57 16.66 6.63 16.75C6.97 17.25 7.38 17.41 7.91 17.05C8.04 16.99 8.18 16.93 8.32 16.88L8.32 16.88Z" fill="#FA8B02" fill-opacity="1.000000" fill-rule="nonzero"/>
	<path id="Vector" d="M10 11.49C9.72 11.49 9.44 11.5 9.17 11.48C9.12 11.48 9.07 11.47 9.03 11.45C8.98 11.43 8.94 11.4 8.91 11.37C8.88 11.33 8.85 11.29 8.83 11.25C8.82 11.2 8.81 11.15 8.81 11.11C8.81 11.06 8.81 11.01 8.82 10.96C8.84 10.92 8.86 10.87 8.89 10.84C8.92 10.8 8.96 10.77 9.01 10.75C9.05 10.73 9.1 10.72 9.15 10.72C9.72 10.7 10.29 10.7 10.85 10.72C10.9 10.72 10.95 10.73 10.99 10.75C11.04 10.77 11.08 10.8 11.11 10.84C11.14 10.88 11.16 10.92 11.18 10.97C11.19 11.01 11.19 11.06 11.19 11.11C11.19 11.21 11.15 11.3 11.08 11.37C11.01 11.44 10.92 11.48 10.83 11.48C10.55 11.51 10.27 11.49 10 11.49Z" fill="#FA8B02" fill-opacity="1.000000" fill-rule="nonzero"/>
	<path id="Vector" d="M8.06 7.11C8.33 7.14 8.73 7 8.76 7.52C8.78 7.74 8.23 8.27 8.01 8.28C7.79 8.29 7.2 7.72 7.2 7.51C7.2 7.21 7.42 7.11 8.06 7.11Z" fill="#FA8B02" fill-opacity="1.000000" fill-rule="nonzero"/>
	<path id="Vector" d="M12.01 7.11C12.33 7.13 12.72 7.02 12.79 7.5C12.82 7.71 12.21 8.29 11.99 8.28C11.77 8.28 11.24 7.75 11.22 7.53C11.21 7.21 11.39 7.11 12.01 7.11Z" fill="#FA8B02" fill-opacity="1.000000" fill-rule="nonzero"/>
	<path id="Vector" d="M10.01 9.92C9.85 9.92 9.7 9.91 9.55 9.89C9.45 9.88 9.36 9.83 9.3 9.75C9.24 9.68 9.21 9.58 9.22 9.48C9.22 9.44 9.23 9.39 9.24 9.34C9.26 9.3 9.29 9.26 9.32 9.22C9.35 9.19 9.39 9.16 9.44 9.14C9.48 9.12 9.53 9.11 9.58 9.11C9.82 9.09 10.06 9.1 10.3 9.1C10.58 9.1 10.78 9.21 10.77 9.52C10.77 9.79 10.57 9.9 10.32 9.91C10.21 9.91 10.11 9.91 10.01 9.91L10.01 9.92Z" fill="#FA8B02" fill-opacity="1.000000" fill-rule="nonzero"/>
	<path id="Vector" d="M10.04 11.89C10.18 11.9 10.32 11.89 10.46 11.92C10.55 11.92 10.63 11.96 10.69 12.03C10.75 12.09 10.78 12.17 10.78 12.26C10.8 12.48 10.69 12.65 10.48 12.68C10.19 12.71 9.9 12.72 9.6 12.7C9.55 12.7 9.5 12.69 9.45 12.67C9.4 12.65 9.36 12.62 9.32 12.58C9.29 12.54 9.26 12.49 9.24 12.44C9.23 12.39 9.22 12.34 9.23 12.29C9.24 12.05 9.39 11.92 9.63 11.91C9.77 11.91 9.91 11.91 10.05 11.91L10.04 11.89Z" fill="#FA8B02" fill-opacity="1.000000" fill-rule="nonzero"/>
</svg>
