<svg width="50.000000" height="50.000000" viewBox="0 0 50 50" fill="none" xmlns="http://www.w3.org/2000/svg" xmlns:xlink="http://www.w3.org/1999/xlink">
	<desc>
			Created with Pixso.
	</desc>
	<defs>
		<clipPath id="clip201_29148">
			<rect id="bx:key" width="24.000000" height="24.000000" transform="translate(13.000000 13.000000)" fill="white" fill-opacity="0"/>
		</clipPath>
	</defs>
	<g opacity="0.300000">
		<circle id="Ellipse 6" cx="25.000000" cy="25.000000" r="25.000000" fill="#FA8B02" fill-opacity="1.000000"/>
	</g>
	<rect id="bx:key" width="24.000000" height="24.000000" transform="translate(13.000000 13.000000)" fill="#FFFFFF" fill-opacity="0"/>
	<g clip-path="url(#clip201_29148)">
		<path id="Vector" d="M20 30C21.15 29.99 22.26 29.59 23.16 28.87C24.05 28.14 24.66 27.12 24.89 26L27 26L27 28L29 28L29 26L31 26L31 29L33 29L33 26L34 26L34 24L24.89 24C24.66 22.87 24.05 21.85 23.16 21.12C22.26 20.4 21.15 20 20 20C17.24 20 15 22.24 15 25C15 27.75 17.24 30 20 30ZM20 22C21.65 22 23 23.34 23 25C23 26.65 21.65 28 20 28C18.34 28 17 26.65 17 25C17 23.34 18.34 22 20 22Z" fill="#FA8B02" fill-opacity="1.000000" fill-rule="nonzero"/>
	</g>
</svg>
