<svg width="24.000000" height="24.000000" viewBox="0 0 24 24" fill="none" xmlns="http://www.w3.org/2000/svg" xmlns:xlink="http://www.w3.org/1999/xlink">
	<desc>
			Created with Pixso.
	</desc>
	<defs>
		<clipPath id="clip201_28942">
			<rect id="grommet-icons:google" width="24.000000" height="24.000000" transform="translate(0.000000 -0.920044)" fill="white" fill-opacity="0"/>
		</clipPath>
	</defs>
	<rect id="grommet-icons:google" width="24.000000" height="24.000000" transform="translate(0.000000 -0.920044)" fill="#FFFFFF" fill-opacity="0"/>
	<g clip-path="url(#clip201_28942)">
		<path id="Vector" d="M5.26 8.84C5.73 7.42 6.63 6.19 7.84 5.32C9.05 4.45 10.5 3.98 12 3.98C13.69 3.98 15.21 4.58 16.41 5.57L19.91 2.07C17.78 0.22 15.05 -0.93 12 -0.93C7.27 -0.93 3.19 1.77 1.24 5.72L5.26 8.84Z" fill="#EA4335" fill-opacity="1.000000" fill-rule="nonzero"/>
		<path id="Vector" d="M16.04 17.09C14.95 17.79 13.56 18.17 12 18.17C10.51 18.17 9.06 17.7 7.86 16.84C6.65 15.97 5.75 14.75 5.27 13.34L1.23 16.41C2.22 18.42 3.76 20.1 5.66 21.28C7.56 22.46 9.76 23.08 12 23.08C14.93 23.08 17.73 22.03 19.83 20.08L16.04 17.09L16.04 17.09Z" fill="#34A853" fill-opacity="1.000000" fill-rule="nonzero"/>
		<path id="Vector" d="M19.83 20.08C22.02 18.03 23.45 14.98 23.45 11.08C23.45 10.36 23.34 9.6 23.18 8.89L12 8.89L12 13.53L18.43 13.53C18.11 15.09 17.26 16.3 16.04 17.09L19.83 20.08Z" fill="#4A90E2" fill-opacity="1.000000" fill-rule="nonzero"/>
		<path id="Vector" d="M5.27 13.34C5.03 12.61 4.9 11.85 4.9 11.08C4.9 10.29 5.03 9.54 5.26 8.84L1.24 5.72C0.41 7.39 -0.01 9.22 0 11.08C0 13 0.44 14.81 1.23 16.41L5.27 13.34Z" fill="#FBBC05" fill-opacity="1.000000" fill-rule="nonzero"/>
	</g>
</svg>
