<svg width="19.000000" height="19.000000" viewBox="0 0 19 19" fill="none" xmlns="http://www.w3.org/2000/svg" xmlns:xlink="http://www.w3.org/1999/xlink">
	<desc>
			Created with Pixso.
	</desc>
	<defs/>
	<path id="Vector" d="M16.1 -0.15C16.71 -0.15 17.29 0.09 17.72 0.52C18.15 0.95 18.39 1.53 18.39 2.14L18.39 15.85C18.39 16.46 18.15 17.04 17.72 17.47C17.29 17.9 16.71 18.14 16.1 18.14L2.39 18.14C1.78 18.14 1.2 17.9 0.77 17.47C0.34 17.04 0.1 16.46 0.1 15.85L0.1 2.14C0.1 1.53 0.34 0.95 0.77 0.52C1.2 0.09 1.78 -0.15 2.39 -0.15L16.1 -0.15ZM0.1 4.42L18.39 4.42" stroke="#333333" stroke-opacity="1.000000" stroke-width="1.000000" stroke-linejoin="round" stroke-linecap="round"/>
	<path id="Vector" d="M10.39 9C10.39 9.63 9.88 10.14 9.25 10.14C8.61 10.14 8.1 9.63 8.1 9C8.1 8.36 8.61 7.85 9.25 7.85C9.88 7.85 10.39 8.36 10.39 9Z" fill="#333333" fill-opacity="1.000000" fill-rule="evenodd"/>
	<path id="Vector" d="M5.82 9C5.82 9.63 5.31 10.14 4.67 10.14C4.04 10.14 3.53 9.63 3.53 9C3.53 8.36 4.04 7.85 4.67 7.85C5.31 7.85 5.82 8.36 5.82 9Z" fill="#333333" fill-opacity="1.000000" fill-rule="evenodd"/>
	<path id="Vector" d="M14.96 9C14.96 9.63 14.45 10.14 13.82 10.14C13.19 10.14 12.67 9.63 12.67 9C12.67 8.36 13.19 7.85 13.82 7.85C14.45 7.85 14.96 8.36 14.96 9Z" fill="#333333" fill-opacity="1.000000" fill-rule="evenodd"/>
	<path id="Vector" d="M10.39 13.57C10.39 14.2 9.88 14.71 9.25 14.71C8.61 14.71 8.1 14.2 8.1 13.57C8.1 12.94 8.61 12.42 9.25 12.42C9.88 12.42 10.39 12.94 10.39 13.57Z" fill="#333333" fill-opacity="1.000000" fill-rule="evenodd"/>
	<path id="Vector" d="M5.82 13.57C5.82 14.2 5.31 14.71 4.67 14.71C4.04 14.71 3.53 14.2 3.53 13.57C3.53 12.94 4.04 12.42 4.67 12.42C5.31 12.42 5.82 12.94 5.82 13.57Z" fill="#333333" fill-opacity="1.000000" fill-rule="evenodd"/>
	<path id="Vector" d="M14.96 13.57C14.96 14.2 14.45 14.71 13.82 14.71C13.19 14.71 12.67 14.2 12.67 13.57C12.67 12.94 13.19 12.42 13.82 12.42C14.45 12.42 14.96 12.94 14.96 13.57Z" fill="#333333" fill-opacity="1.000000" fill-rule="evenodd"/>
</svg>
