<svg width="21.000000" height="21.000000" viewBox="0 0 21 21" fill="none" xmlns="http://www.w3.org/2000/svg" xmlns:xlink="http://www.w3.org/1999/xlink">
	<desc>
			Created with Pixso.
	</desc>
	<defs/>
	<path id="Vector" d="M12.3 20.39Q11.18 20.64 10 20.64Q8.81 20.64 7.69 20.39Q6.75 20.18 5.85 19.8Q4.95 19.42 4.14 18.89Q3.24 18.3 2.47 17.52Q1.69 16.75 1.1 15.85Q0.57 15.04 0.19 14.14Q-0.19 13.24 -0.4 12.3Q-0.65 11.18 -0.65 10Q-0.65 8.81 -0.4 7.69Q-0.19 6.75 0.19 5.85Q0.57 4.95 1.1 4.14Q1.69 3.24 2.47 2.47Q3.24 1.69 4.14 1.1Q4.95 0.57 5.85 0.19Q6.75 -0.19 7.69 -0.4Q8.81 -0.65 10 -0.65Q11.18 -0.65 12.3 -0.4Q13.24 -0.19 14.14 0.19Q15.04 0.57 15.85 1.1Q16.75 1.69 17.52 2.47Q18.3 3.24 18.89 4.14Q19.42 4.95 19.8 5.85Q20.18 6.75 20.39 7.69Q20.64 8.81 20.64 10Q20.64 11.18 20.39 12.3Q20.18 13.24 19.8 14.14Q19.42 15.04 18.89 15.85Q18.3 16.75 17.52 17.52Q16.75 18.3 15.85 18.89Q15.04 19.42 14.14 19.8Q13.24 20.18 12.3 20.39ZM0.85 10C0.85 15.04 4.95 19.14 10 19.14C15.04 19.14 19.14 15.04 19.14 10C19.14 4.95 15.04 0.85 10 0.85C4.95 0.85 0.85 4.95 0.85 10Z" fill="#FA8B02" fill-opacity="1.000000" fill-rule="evenodd"/>
	<path id="Vector" d="M10 6.57L10 11.14L14 11.14" stroke="#FA8B02" stroke-opacity="1.000000" stroke-width="1.500000" stroke-linejoin="round" stroke-linecap="round"/>
</svg>
