<svg width="25.000000" height="24.000000" viewBox="0 0 25 24" fill="none" xmlns="http://www.w3.org/2000/svg" xmlns:xlink="http://www.w3.org/1999/xlink">
	<desc>
			Created with Pixso.
	</desc>
	<defs/>
	<path id="Vector" d="M7.18 12.35C7.46 11.7 7.4 11.4 6.91 10.95C6.29 10.4 5.85 9.69 5.63 8.89C5.57 8.59 5.39 8.33 5.14 8.15C4.22 7.49 4.01 6.35 4.6 5.38C4.7 5.22 4.76 5.09 4.71 4.9C4.22 3.17 5.2 1.16 7.29 0.34C8.49 -0.13 9.79 -0.31 11.08 -0.18C11.85 -0.12 12.49 0.19 12.79 0.98C12.93 1.32 13.18 1.6 13.49 1.79C14.74 2.6 14.97 3.29 14.52 4.71C14.47 4.87 14.41 5 14.54 5.19C15.27 6.19 15.06 7.51 14.04 8.24C13.87 8.36 13.75 8.53 13.7 8.73C13.44 9.66 12.91 10.49 12.17 11.11C11.86 11.39 11.84 12.32 12.12 12.61C12.26 12.76 12.35 12.63 12.41 12.55C12.99 11.75 13.8 11.86 14.59 12.03C16.78 12.5 18.34 13.74 19.01 15.92C19.68 18.13 19.74 20.41 19.75 22.69C19.75 23.16 19.47 23.21 19.1 23.21C15.6 23.21 12.1 23.21 8.61 23.21C5.98 23.21 3.35 23.21 0.73 23.21C0.04 23.21 -0.01 23.16 0 22.46C0.01 20.51 0.12 18.57 0.54 16.65C1.14 13.88 3.25 12.06 5.96 11.93C6.5 11.91 6.5 11.91 7.18 12.35ZM10.04 22.45C11.73 22.45 13.42 22.43 15.11 22.46C15.52 22.46 15.64 22.34 15.63 21.93C15.6 20.82 15.62 19.71 15.62 18.59C15.62 18.39 15.6 18.17 15.83 18.05C16.12 17.88 16.38 18.1 16.38 18.54C16.39 19.7 16.39 20.87 16.38 22.04C16.38 22.35 16.47 22.47 16.79 22.45C17.4 22.43 18.01 22.44 18.62 22.45C18.85 22.45 18.98 22.4 18.97 22.14C18.9 20.04 18.87 17.93 18.17 15.91C17.64 14.36 16.5 13.43 14.98 12.92C14.68 12.82 14.52 12.88 14.36 13.16C13.72 14.26 13.07 15.35 12.4 16.43C12.26 16.66 12.18 16.93 12.19 17.21C12.2 18.51 12.19 19.82 12.19 21.12C12.19 21.74 12.1 21.82 11.5 21.82C10.37 21.82 9.24 21.82 8.11 21.82C7.44 21.82 7.38 21.77 7.38 21.12C7.38 19.87 7.37 18.61 7.38 17.36C7.39 17.01 7.3 16.67 7.11 16.38C6.47 15.34 5.84 14.31 5.24 13.25C5.03 12.88 4.82 12.87 4.49 13C2.84 13.66 1.77 14.82 1.36 16.56C0.93 18.37 0.83 20.2 0.76 22.05C0.75 22.39 0.88 22.46 1.19 22.45C1.86 22.43 2.54 22.43 3.22 22.45C3.56 22.46 3.67 22.36 3.67 22.01C3.65 20.88 3.66 19.75 3.66 18.62C3.66 18.33 3.68 18.01 4.04 18C4.41 17.99 4.44 18.31 4.44 18.61C4.44 19.7 4.46 20.8 4.43 21.89C4.42 22.32 4.54 22.46 4.98 22.46C6.67 22.43 8.36 22.45 10.04 22.45ZM9.74 11.26C9.79 11.26 9.91 11.25 10.03 11.23C11.73 10.96 12.58 9.81 13.03 8.28C13.11 7.97 13.23 7.77 13.54 7.62C14.35 7.19 14.42 6.05 13.69 5.55C13.52 5.43 13.45 5.26 13.36 5.09C13.06 4.49 12.66 3.93 12.2 3.43C12.09 3.31 11.96 3.09 11.73 3.3C11.25 3.77 10.66 3.8 10.03 3.79C9.01 3.78 7.98 3.77 6.97 3.95C6.31 4.07 5.79 4.38 5.7 5.13C5.66 5.3 5.58 5.46 5.45 5.58C4.8 6.29 4.95 7.21 5.82 7.65C6.12 7.81 6.22 8.02 6.29 8.33C6.63 10.04 8.05 11.26 9.74 11.26ZM5.39 3.93C6.22 3.16 7.13 3.09 8.04 3.06C8.78 3.03 9.53 3.03 10.27 3.03C10.65 3.03 10.99 2.95 11.27 2.67C11.73 2.19 11.87 2.18 12.4 2.57C12.88 2.93 13.22 3.42 13.56 3.9C13.64 4.01 13.66 4.2 13.85 4.21C14.09 3.46 14 3.09 13.34 2.64C12.75 2.24 12.25 1.79 11.98 1.11C11.87 0.82 11.6 0.69 11.33 0.65C9.59 0.43 7.93 0.62 6.49 1.72C5.84 2.22 5.45 2.91 5.39 3.93ZM13.67 12.79C13.35 12.66 13.23 12.87 13.08 13C12.24 13.74 11.39 14.49 10.55 15.25C9.78 15.96 9.79 15.96 9.01 15.23C8.22 14.47 7.42 13.73 6.62 12.97C6.42 12.78 6.23 12.62 5.92 12.79C5.94 12.85 5.96 12.92 5.99 12.98C6.6 14.01 7.22 15.03 7.83 16.07C7.96 16.29 8.13 16.31 8.35 16.31C9.05 16.31 9.75 16.24 10.44 16.33C11.31 16.44 11.8 16.1 12.18 15.34C12.62 14.46 13.16 13.64 13.67 12.79ZM8.14 19.08C8.14 19.62 8.15 20.15 8.14 20.69C8.13 20.96 8.22 21.06 8.49 21.06C9.33 21.05 10.16 21.04 10.99 21.06C11.32 21.06 11.41 20.93 11.41 20.63C11.4 19.58 11.4 18.54 11.41 17.5C11.41 17.18 11.31 17.08 10.99 17.09C10.18 17.1 9.36 17.11 8.54 17.09C8.21 17.08 8.13 17.21 8.14 17.52C8.16 18.04 8.14 18.56 8.14 19.08L8.14 19.08ZM11.49 13.16C11.32 12.83 11.22 12.48 11.17 12.11C11.15 11.79 11.03 11.8 10.78 11.88C10.16 12.06 9.5 12.09 8.87 11.96C8.17 11.82 8.17 11.82 7.99 12.52C7.93 12.77 7.75 13.02 8.05 13.27C8.57 13.71 9.05 14.19 9.54 14.66C9.7 14.82 9.83 14.86 10.02 14.68C10.45 14.28 10.9 13.9 11.34 13.51C11.43 13.43 11.55 13.36 11.49 13.16L11.49 13.16Z" fill="#FA8B02" fill-opacity="1.000000" fill-rule="nonzero"/>
	<path id="Vector" d="M6.91 10.95C6.29 10.4 5.85 9.69 5.63 8.89C5.57 8.59 5.39 8.33 5.14 8.15C4.22 7.49 4.01 6.35 4.6 5.38C4.7 5.22 4.76 5.09 4.71 4.9C4.22 3.17 5.2 1.16 7.29 0.34C8.49 -0.13 9.79 -0.31 11.08 -0.18C11.85 -0.12 12.49 0.19 12.79 0.98C12.93 1.32 13.18 1.6 13.49 1.79C14.74 2.6 14.97 3.29 14.52 4.71C14.47 4.87 14.41 5 14.54 5.19C15.27 6.19 15.06 7.51 14.04 8.24C13.87 8.36 13.75 8.53 13.7 8.73C13.44 9.66 12.91 10.49 12.17 11.11C11.86 11.39 11.84 12.32 12.12 12.61C12.26 12.76 12.35 12.63 12.41 12.55C12.99 11.75 13.8 11.86 14.59 12.03C16.78 12.5 18.34 13.74 19.01 15.92C19.68 18.13 19.74 20.41 19.75 22.69C19.75 23.16 19.47 23.21 19.1 23.21C15.6 23.21 12.1 23.21 8.61 23.21C5.98 23.21 3.35 23.21 0.73 23.21C0.04 23.21 -0.01 23.16 0 22.46C0.01 20.51 0.12 18.57 0.54 16.65C1.14 13.88 3.25 12.06 5.96 11.93C6.5 11.91 6.5 11.91 7.18 12.35C7.46 11.7 7.4 11.4 6.91 10.95ZM15.11 22.46C15.52 22.46 15.64 22.34 15.63 21.93C15.6 20.82 15.62 19.71 15.62 18.59C15.62 18.39 15.6 18.17 15.83 18.05C16.12 17.88 16.38 18.1 16.38 18.54C16.39 19.7 16.39 20.87 16.38 22.04C16.38 22.35 16.47 22.47 16.79 22.45C17.4 22.43 18.01 22.44 18.62 22.45C18.85 22.45 18.98 22.4 18.97 22.14C18.9 20.04 18.87 17.93 18.17 15.91C17.64 14.36 16.5 13.43 14.98 12.92C14.68 12.82 14.52 12.88 14.36 13.16C13.72 14.26 13.07 15.35 12.4 16.43C12.26 16.66 12.18 16.93 12.19 17.21C12.2 18.51 12.19 19.82 12.19 21.12C12.19 21.74 12.1 21.82 11.5 21.82C10.37 21.82 9.24 21.82 8.11 21.82C7.44 21.82 7.38 21.77 7.38 21.12C7.38 19.87 7.37 18.61 7.38 17.36C7.39 17.01 7.3 16.67 7.11 16.38C6.47 15.34 5.84 14.31 5.24 13.25C5.03 12.88 4.82 12.87 4.49 13C2.84 13.66 1.77 14.82 1.36 16.56C0.93 18.37 0.83 20.2 0.76 22.05C0.75 22.39 0.88 22.46 1.19 22.45C1.86 22.43 2.54 22.43 3.22 22.45C3.56 22.46 3.67 22.36 3.67 22.01C3.65 20.88 3.66 19.75 3.66 18.62C3.66 18.33 3.68 18.01 4.04 18C4.41 17.99 4.44 18.31 4.44 18.61C4.44 19.7 4.46 20.8 4.43 21.89C4.42 22.32 4.54 22.46 4.98 22.46C6.67 22.43 8.36 22.45 10.04 22.45C11.73 22.45 13.42 22.43 15.11 22.46ZM10.03 11.23C11.73 10.96 12.58 9.81 13.03 8.28C13.11 7.97 13.23 7.77 13.54 7.62C14.35 7.19 14.42 6.05 13.69 5.55C13.52 5.43 13.45 5.26 13.36 5.09C13.06 4.49 12.66 3.93 12.2 3.43C12.09 3.31 11.96 3.09 11.73 3.3C11.25 3.77 10.66 3.8 10.03 3.79C9.01 3.78 7.98 3.77 6.97 3.95C6.31 4.07 5.79 4.38 5.7 5.13C5.66 5.3 5.58 5.46 5.45 5.58C4.8 6.29 4.95 7.21 5.82 7.65C6.12 7.81 6.22 8.02 6.29 8.33C6.63 10.04 8.05 11.26 9.74 11.26C9.79 11.26 9.91 11.25 10.03 11.23ZM8.04 3.06C8.78 3.03 9.53 3.03 10.27 3.03C10.65 3.03 10.99 2.95 11.27 2.67C11.73 2.19 11.87 2.18 12.4 2.57C12.88 2.93 13.22 3.42 13.56 3.9C13.64 4.01 13.66 4.2 13.85 4.21C14.09 3.46 14 3.09 13.34 2.64C12.75 2.24 12.25 1.79 11.98 1.11C11.87 0.82 11.6 0.69 11.33 0.65C9.59 0.43 7.93 0.62 6.49 1.72C5.84 2.22 5.45 2.91 5.39 3.93C6.22 3.16 7.13 3.09 8.04 3.06ZM13.08 13C12.24 13.74 11.39 14.49 10.55 15.25C9.78 15.96 9.79 15.96 9.01 15.23C8.22 14.47 7.42 13.73 6.62 12.97C6.42 12.78 6.23 12.62 5.92 12.79C5.94 12.85 5.96 12.92 5.99 12.98C6.6 14.01 7.22 15.03 7.83 16.07C7.96 16.29 8.13 16.31 8.35 16.31C9.05 16.31 9.75 16.24 10.44 16.33C11.31 16.44 11.8 16.1 12.18 15.34C12.62 14.46 13.16 13.64 13.67 12.79C13.35 12.66 13.23 12.87 13.08 13ZM8.14 20.69C8.13 20.96 8.22 21.06 8.49 21.06C9.33 21.05 10.16 21.04 10.99 21.06C11.32 21.06 11.41 20.93 11.41 20.63C11.4 19.58 11.4 18.54 11.41 17.5C11.41 17.18 11.31 17.08 10.99 17.09C10.18 17.1 9.36 17.11 8.54 17.09C8.21 17.08 8.13 17.21 8.14 17.52C8.16 18.04 8.14 18.56 8.14 19.08L8.14 19.08C8.14 19.62 8.15 20.15 8.14 20.69ZM11.17 12.11C11.15 11.79 11.03 11.8 10.78 11.88C10.16 12.06 9.5 12.09 8.87 11.96C8.17 11.82 8.17 11.82 7.99 12.52C7.93 12.77 7.75 13.02 8.05 13.27C8.57 13.71 9.05 14.19 9.54 14.66C9.7 14.82 9.83 14.86 10.02 14.68C10.45 14.28 10.9 13.9 11.34 13.51C11.43 13.43 11.55 13.36 11.49 13.16L11.49 13.16C11.32 12.83 11.22 12.48 11.17 12.11Z" stroke="#FA8B02" stroke-opacity="1.000000" stroke-width="0.200000"/>
	<path id="Vector" d="M17.17 6.17L17.17 0.96C17.17 0.91 17.17 0.86 17.17 0.8C17.18 0.53 17.26 0.31 17.58 0.32C17.87 0.33 17.98 0.55 17.94 0.79C17.84 1.35 18.16 1.62 18.56 1.92C20.25 3.2 21.92 4.5 23.6 5.8C23.8 5.96 24.08 6.1 23.97 6.42C23.86 6.74 23.57 6.69 23.3 6.69L19.19 6.69C17.95 6.69 17.95 6.69 17.95 7.95C17.95 9.1 17.95 10.25 17.95 11.4C17.95 11.68 17.97 12.01 17.59 12.02C17.16 12.04 17.17 11.69 17.17 11.39C17.17 9.65 17.17 7.91 17.17 6.17ZM22.31 5.79C20.95 4.74 19.6 3.69 18.23 2.65C17.97 2.44 17.96 2.65 17.96 2.84C17.96 3.71 17.97 4.58 17.95 5.45C17.94 5.83 18.09 5.92 18.44 5.92C19.58 5.9 20.73 5.92 21.88 5.91C22.01 5.91 22.16 5.96 22.31 5.79Z" fill="#FA8B02" fill-opacity="1.000000" fill-rule="nonzero"/>
	<path id="Vector" d="M17.17 0.96C17.17 0.91 17.17 0.86 17.17 0.8C17.18 0.53 17.26 0.31 17.58 0.32C17.87 0.33 17.98 0.55 17.94 0.79C17.84 1.35 18.16 1.62 18.56 1.92C20.25 3.2 21.92 4.5 23.6 5.8C23.8 5.96 24.08 6.1 23.97 6.42C23.86 6.74 23.57 6.69 23.3 6.69L19.19 6.69C17.95 6.69 17.95 6.69 17.95 7.95C17.95 9.1 17.95 10.25 17.95 11.4C17.95 11.68 17.97 12.01 17.59 12.02C17.16 12.04 17.17 11.69 17.17 11.39C17.17 9.65 17.17 7.91 17.17 6.17L17.17 0.96ZM18.23 2.65C17.97 2.44 17.96 2.65 17.96 2.84C17.96 3.71 17.97 4.58 17.95 5.45C17.94 5.83 18.09 5.92 18.44 5.92C19.58 5.9 20.73 5.92 21.88 5.91C22.01 5.91 22.16 5.96 22.31 5.79C20.95 4.74 19.6 3.69 18.23 2.65Z" stroke="#FA8B02" stroke-opacity="1.000000" stroke-width="0.200000"/>
	<path id="Vector" d="M9.79 17.54C10.02 17.54 10.25 17.53 10.47 17.54C10.52 17.54 10.57 17.55 10.62 17.57C10.66 17.58 10.7 17.61 10.74 17.64C10.77 17.68 10.8 17.72 10.82 17.76C10.84 17.81 10.85 17.85 10.85 17.9C10.85 17.95 10.85 18 10.84 18.05C10.82 18.09 10.8 18.14 10.77 18.17C10.74 18.21 10.7 18.24 10.65 18.26C10.61 18.28 10.56 18.29 10.51 18.29C10.03 18.31 9.54 18.31 9.05 18.29C9 18.29 8.95 18.28 8.91 18.26C8.86 18.24 8.82 18.22 8.79 18.18C8.76 18.14 8.73 18.1 8.72 18.05C8.7 18.01 8.7 17.96 8.7 17.91C8.7 17.86 8.71 17.81 8.72 17.77C8.74 17.72 8.77 17.68 8.8 17.65C8.84 17.61 8.88 17.59 8.92 17.57C8.97 17.55 9.01 17.54 9.06 17.54C9.31 17.53 9.55 17.54 9.79 17.54Z" fill="#FA8B02" fill-opacity="1.000000" fill-rule="nonzero"/>
	<path id="Vector" d="M10.47 17.54C10.52 17.54 10.57 17.55 10.62 17.57C10.66 17.58 10.7 17.61 10.74 17.64C10.77 17.68 10.8 17.72 10.82 17.76C10.84 17.81 10.85 17.85 10.85 17.9C10.85 17.95 10.85 18 10.84 18.05C10.82 18.09 10.8 18.14 10.77 18.17C10.74 18.21 10.7 18.24 10.65 18.26C10.61 18.28 10.56 18.29 10.51 18.29C10.03 18.31 9.54 18.31 9.05 18.29C9 18.29 8.95 18.28 8.91 18.26C8.86 18.24 8.82 18.22 8.79 18.18C8.76 18.14 8.73 18.1 8.72 18.05C8.7 18.01 8.7 17.96 8.7 17.91C8.7 17.86 8.71 17.81 8.72 17.77C8.74 17.72 8.77 17.68 8.8 17.65C8.84 17.61 8.88 17.59 8.92 17.57C8.97 17.55 9.01 17.54 9.06 17.54C9.31 17.53 9.55 17.54 9.79 17.54C10.02 17.54 10.25 17.53 10.47 17.54Z" stroke="#FA8B02" stroke-opacity="1.000000" stroke-width="0.200000"/>
	<path id="Vector" d="M9.79 19.44C9.55 19.44 9.31 19.45 9.06 19.44C9.02 19.44 8.97 19.43 8.92 19.42C8.88 19.4 8.84 19.37 8.8 19.34C8.77 19.3 8.74 19.26 8.73 19.21C8.71 19.17 8.7 19.12 8.7 19.07C8.7 19.02 8.7 18.98 8.72 18.93C8.73 18.88 8.76 18.84 8.79 18.8C8.82 18.77 8.87 18.74 8.91 18.72C8.95 18.7 9 18.69 9.05 18.69C9.52 18.68 9.99 18.68 10.46 18.69C10.7 18.7 10.85 18.84 10.85 19.09C10.84 19.31 10.69 19.43 10.47 19.45C10.25 19.46 10.02 19.44 9.79 19.44Z" fill="#FA8B02" fill-opacity="1.000000" fill-rule="nonzero"/>
	<path id="Vector" d="M9.06 19.44C9.02 19.44 8.97 19.43 8.92 19.42C8.88 19.4 8.84 19.37 8.8 19.34C8.77 19.3 8.74 19.26 8.73 19.21C8.71 19.17 8.7 19.12 8.7 19.07C8.7 19.02 8.7 18.98 8.72 18.93C8.73 18.88 8.76 18.84 8.79 18.8C8.82 18.77 8.87 18.74 8.91 18.72C8.95 18.7 9 18.69 9.05 18.69C9.52 18.68 9.99 18.68 10.46 18.69C10.7 18.7 10.85 18.84 10.85 19.09C10.84 19.31 10.69 19.43 10.47 19.45C10.25 19.46 10.02 19.44 9.79 19.44C9.55 19.44 9.31 19.45 9.06 19.44Z" stroke="#FA8B02" stroke-opacity="1.000000" stroke-width="0.200000"/>
	<path id="Vector" d="M9.76 20.58C9.53 20.58 9.31 20.58 9.08 20.58C9.03 20.59 8.98 20.58 8.94 20.56C8.89 20.55 8.85 20.52 8.82 20.49C8.78 20.46 8.75 20.42 8.74 20.37C8.72 20.33 8.71 20.28 8.71 20.23C8.7 20.18 8.7 20.13 8.72 20.09C8.73 20.04 8.75 20 8.78 19.96C8.82 19.92 8.86 19.9 8.9 19.88C8.94 19.86 8.99 19.85 9.04 19.85C9.53 19.83 10.01 19.83 10.5 19.85C10.54 19.84 10.59 19.85 10.64 19.87C10.68 19.89 10.72 19.92 10.76 19.95C10.79 19.99 10.82 20.03 10.83 20.08C10.85 20.12 10.85 20.17 10.85 20.22C10.85 20.27 10.84 20.31 10.82 20.36C10.81 20.4 10.78 20.45 10.75 20.48C10.71 20.51 10.67 20.54 10.63 20.56C10.58 20.58 10.53 20.58 10.49 20.58C10.24 20.59 10 20.58 9.75 20.58L9.76 20.58Z" fill="#FA8B02" fill-opacity="1.000000" fill-rule="nonzero"/>
	<path id="Vector" d="M9.08 20.58C9.03 20.59 8.98 20.58 8.94 20.56C8.89 20.55 8.85 20.52 8.82 20.49C8.78 20.46 8.75 20.42 8.74 20.37C8.72 20.33 8.71 20.28 8.71 20.23C8.7 20.18 8.7 20.13 8.72 20.09C8.73 20.04 8.75 20 8.78 19.96C8.82 19.92 8.86 19.9 8.9 19.88C8.94 19.86 8.99 19.85 9.04 19.85C9.53 19.83 10.01 19.83 10.5 19.85C10.54 19.84 10.59 19.85 10.64 19.87C10.68 19.89 10.72 19.92 10.76 19.95C10.79 19.99 10.82 20.03 10.83 20.08C10.85 20.12 10.85 20.17 10.85 20.22C10.85 20.27 10.84 20.31 10.82 20.36C10.81 20.4 10.78 20.45 10.75 20.48C10.71 20.51 10.67 20.54 10.63 20.56C10.58 20.58 10.53 20.58 10.49 20.58C10.24 20.59 10 20.58 9.75 20.58L9.76 20.58C9.53 20.58 9.31 20.58 9.08 20.58Z" stroke="#FA8B02" stroke-opacity="1.000000" stroke-width="0.200000"/>
</svg>
