<svg width="24.000000" height="24.000000" viewBox="0 0 24 24" fill="none" xmlns="http://www.w3.org/2000/svg" xmlns:xlink="http://www.w3.org/1999/xlink">
	<desc>
			Created with Pixso.
	</desc>
	<defs>
		<clipPath id="clip201_5166">
			<rect id="icon_ticket" width="24.000000" height="24.000000" fill="white" fill-opacity="0"/>
		</clipPath>
	</defs>
	<g opacity="0.800000">
		<rect id="icon_ticket" width="24.000000" height="24.000000" fill="#FFFFFF" fill-opacity="0"/>
		<g clip-path="url(#clip201_5166)">
			<path id="Vector" d="M11.95 20.28L0.83 20.28C0.06 20.28 0 20.22 0 19.45C0 18.25 0.01 17.05 0 15.85C-0.01 15.42 0.14 15.22 0.59 15.15C0.98 15.11 1.33 14.92 1.59 14.63C1.84 14.34 1.98 13.96 1.97 13.57C1.97 13.19 1.84 12.82 1.59 12.54C1.34 12.25 0.99 12.07 0.61 12.02C0.15 11.96 0.02 11.75 0.02 11.32C0.04 10.07 0.04 8.81 0.02 7.56C0.01 7.08 0.22 6.9 0.67 6.84C6.8 5.94 12.93 5.03 19.05 4.11C19.86 3.99 20.68 3.88 21.49 3.73C21.97 3.64 22.23 3.75 22.28 4.28C22.35 4.97 22.5 5.65 22.56 6.34C22.6 6.73 22.72 6.89 23.14 6.88C23.97 6.87 23.99 6.92 23.99 7.74C23.99 8.92 23.99 10.1 23.99 11.28C23.99 11.71 23.91 11.96 23.4 12.02C23.02 12.06 22.67 12.24 22.41 12.53C22.16 12.81 22.02 13.18 22.02 13.56C22.01 13.95 22.15 14.32 22.4 14.62C22.65 14.91 23.01 15.1 23.39 15.15C23.86 15.22 23.97 15.45 23.96 15.87C23.94 17.1 23.94 18.34 23.96 19.57C23.97 20.11 23.77 20.29 23.23 20.29C19.48 20.27 15.71 20.28 11.95 20.28ZM9.03 19.57C11.62 19.57 14.2 19.57 16.79 19.57C17.14 19.57 17.35 19.53 17.33 19.09C17.32 18.79 17.18 18.3 17.67 18.29C18.21 18.28 18.05 18.79 18.05 19.11C18.05 19.43 18.13 19.58 18.49 19.57C19.93 19.56 21.37 19.56 22.81 19.57C23.14 19.57 23.29 19.49 23.28 19.13C23.26 18.18 23.27 17.22 23.28 16.27C23.28 15.98 23.19 15.86 22.9 15.76C21.89 15.39 21.36 14.63 21.35 13.59C21.34 12.6 21.91 11.78 22.91 11.41C23.21 11.3 23.31 11.15 23.31 10.85C23.29 9.93 23.29 9.02 23.31 8.1C23.32 7.71 23.18 7.58 22.79 7.59C21.48 7.61 20.17 7.59 18.86 7.59C18.11 7.59 18.1 7.59 18.07 8.36C18.06 8.62 18.04 8.88 17.72 8.89C17.4 8.91 17.34 8.65 17.34 8.39C17.34 8.28 17.33 8.17 17.34 8.05C17.38 7.71 17.21 7.6 16.88 7.6C11.66 7.61 6.43 7.61 1.21 7.6C0.87 7.6 0.75 7.7 0.75 8.05C0.77 9.01 0.77 9.96 0.75 10.92C0.75 11.21 0.87 11.33 1.14 11.43C2.13 11.78 2.7 12.6 2.7 13.6C2.7 14.61 2.15 15.39 1.13 15.76C0.85 15.86 0.75 15.98 0.76 16.27C0.77 17.17 0.8 18.07 0.75 18.97C0.73 19.49 0.92 19.59 1.39 19.58C3.94 19.56 6.49 19.57 9.03 19.57ZM5.89 6.79L5.9 6.91L16.9 6.91C18.41 6.91 19.93 6.89 21.44 6.92C21.86 6.92 21.95 6.78 21.88 6.39C21.78 5.9 21.71 5.4 21.65 4.9C21.61 4.56 21.47 4.47 21.14 4.53C20.03 4.71 18.92 4.86 17.81 5.02C16.9 5.15 16.89 5.15 16.93 6.04C16.95 6.27 16.89 6.46 16.64 6.5C16.39 6.54 16.28 6.36 16.23 6.14C16.2 6.03 16.18 5.91 16.18 5.8C16.2 5.36 16 5.28 15.59 5.34C13.45 5.68 11.3 5.99 9.16 6.31C8.06 6.48 6.97 6.64 5.89 6.79L5.89 6.79Z" fill="#FA8B02" fill-opacity="1.000000" fill-rule="nonzero"/>
			<path id="Vector" d="M0.3 20.75Q0.47 20.78 0.83 20.78L11.95 20.78L13.57 20.78L23.23 20.79Q23.5 20.79 23.7 20.74Q23.94 20.68 24.11 20.53Q24.13 20.51 24.15 20.5Q24.17 20.48 24.19 20.46Q24.47 20.15 24.46 19.57Q24.43 18.03 24.46 15.87Q24.47 15.31 24.19 15Q23.94 14.73 23.47 14.65L23.46 14.65L23.45 14.65Q23.35 14.64 23.26 14.61Q23.17 14.58 23.08 14.53Q23 14.49 22.92 14.43Q22.84 14.37 22.78 14.29Q22.71 14.22 22.67 14.13Q22.62 14.05 22.58 13.96Q22.55 13.86 22.54 13.77Q22.52 13.67 22.52 13.57L22.52 13.56L22.52 13.55Q22.52 13.36 22.59 13.18Q22.66 13.01 22.79 12.86Q22.92 12.72 23.07 12.63Q23.25 12.54 23.45 12.52Q23.95 12.46 24.21 12.18Q24.26 12.13 24.3 12.07Q24.42 11.89 24.46 11.66Q24.49 11.5 24.49 11.28L24.49 10.09L24.49 8.91L24.49 7.75L24.49 7.74Q24.49 7.36 24.47 7.19Q24.43 6.85 24.24 6.65Q24.22 6.64 24.21 6.63Q24.02 6.44 23.69 6.4Q23.51 6.38 23.13 6.38Q23.1 6.38 23.07 6.38Q23.06 6.35 23.06 6.29Q23.02 5.93 22.91 5.22Q22.81 4.56 22.78 4.23Q22.73 3.71 22.44 3.44Q22.38 3.39 22.31 3.35Q21.97 3.13 21.39 3.23Q20.75 3.35 19.46 3.55Q19.14 3.59 18.98 3.62L0.6 6.34Q0.08 6.42 -0.19 6.7Q-0.23 6.74 -0.26 6.78Q-0.49 7.08 -0.48 7.57Q-0.45 9.02 -0.48 11.32Q-0.48 11.85 -0.22 12.15Q0.04 12.45 0.55 12.52Q0.75 12.54 0.91 12.63Q1.08 12.72 1.21 12.87Q1.34 13.02 1.41 13.19Q1.47 13.36 1.47 13.56L1.47 13.57L1.47 13.58Q1.47 13.68 1.46 13.78Q1.44 13.87 1.41 13.96Q1.37 14.06 1.33 14.14Q1.28 14.22 1.21 14.3Q1.15 14.37 1.07 14.43Q1 14.49 0.91 14.54Q0.82 14.58 0.73 14.61Q0.63 14.64 0.54 14.65L0.53 14.65L0.52 14.65Q0 14.73 -0.25 15.03Q-0.51 15.33 -0.5 15.86Q-0.49 16.72 -0.5 18.45Q-0.5 19.11 -0.5 19.45Q-0.5 19.8 -0.47 19.98Q-0.42 20.31 -0.23 20.51L-0.23 20.51Q-0.22 20.51 -0.22 20.52Q-0.02 20.7 0.3 20.75ZM11.95 20.28L0.83 20.28C0.06 20.28 0 20.22 0 19.45C0 19.11 0 18.78 0 18.45C0.01 17.58 0.01 16.72 0 15.85C-0.01 15.42 0.14 15.22 0.59 15.15C0.98 15.11 1.33 14.92 1.59 14.63C1.84 14.34 1.98 13.96 1.97 13.57C1.97 13.19 1.84 12.82 1.59 12.54C1.34 12.25 0.99 12.07 0.61 12.02C0.15 11.96 0.02 11.75 0.02 11.32C0.04 10.07 0.04 8.81 0.02 7.56C0.01 7.08 0.22 6.9 0.67 6.84Q9.86 5.49 19.05 4.11C19.86 3.99 20.68 3.88 21.49 3.73C21.97 3.64 22.23 3.75 22.28 4.28C22.35 4.97 22.5 5.65 22.56 6.34C22.6 6.73 22.72 6.89 23.14 6.88C23.97 6.87 23.99 6.92 23.99 7.74C23.99 8.13 23.99 8.52 23.99 8.92C23.99 9.7 23.99 10.49 23.99 11.28C23.99 11.71 23.91 11.96 23.4 12.02C23.02 12.06 22.67 12.24 22.41 12.53C22.16 12.81 22.02 13.18 22.02 13.56C22.01 13.95 22.15 14.32 22.4 14.62C22.65 14.91 23.01 15.1 23.39 15.15C23.86 15.22 23.97 15.45 23.96 15.87C23.94 17.1 23.94 18.34 23.96 19.57C23.97 20.11 23.77 20.29 23.23 20.29C20.31 20.28 17.39 20.28 14.46 20.28L14.46 20.28C13.62 20.28 12.79 20.28 11.95 20.28ZM8.55 6.91L16.9 6.91L16.99 6.91C17.37 6.91 17.75 6.91 18.13 6.91C19.24 6.9 20.34 6.9 21.44 6.92C21.86 6.92 21.95 6.78 21.88 6.39C21.78 5.9 21.71 5.4 21.65 4.9C21.61 4.56 21.47 4.47 21.14 4.53C20.03 4.71 18.92 4.86 17.81 5.02L17.79 5.03C16.9 5.15 16.89 5.15 16.93 6.04C16.94 6.19 16.92 6.32 16.84 6.41C16.79 6.45 16.73 6.49 16.64 6.5C16.51 6.52 16.41 6.48 16.35 6.41C16.29 6.34 16.25 6.24 16.23 6.14C16.2 6.03 16.18 5.91 16.18 5.8C16.2 5.36 16 5.28 15.59 5.34C13.45 5.68 11.3 5.99 9.16 6.31Q8.84 6.36 8.52 6.41Q7.45 6.57 6.38 6.72Q6.14 6.76 5.9 6.79Q5.89 6.79 5.89 6.79L5.89 6.79L5.89 6.83L5.9 6.91L8.55 6.91ZM11.92 6.41L15.79 6.41Q15.76 6.33 15.75 6.25Q15.72 6.15 15.7 6.05Q15.69 5.94 15.68 5.83Q15.67 5.84 15.66 5.84L12.94 6.26L11.92 6.41ZM17.39 6.41Q17.71 6.41 18.13 6.41Q20.27 6.4 21.37 6.42Q21.25 5.77 21.16 5.03Q20.27 5.18 18.53 5.43Q18.09 5.49 17.88 5.52L17.86 5.52Q17.54 5.57 17.42 5.59Q17.42 5.71 17.43 6.01Q17.44 6.23 17.39 6.41ZM9.03 19.57L16.79 19.57C17.14 19.57 17.35 19.53 17.33 19.09C17.33 19.04 17.33 18.99 17.32 18.93C17.29 18.64 17.26 18.3 17.67 18.29C18.12 18.28 18.09 18.63 18.06 18.93C18.06 18.99 18.05 19.06 18.05 19.11C18.05 19.43 18.13 19.58 18.49 19.57C19.93 19.56 21.37 19.56 22.81 19.57C23.14 19.57 23.29 19.49 23.28 19.13C23.26 18.18 23.27 17.22 23.28 16.27C23.28 15.98 23.19 15.86 22.9 15.76C21.89 15.39 21.36 14.63 21.35 13.59C21.34 12.6 21.91 11.78 22.91 11.41C23.21 11.3 23.31 11.15 23.31 10.85C23.29 9.93 23.29 9.02 23.31 8.1C23.32 7.71 23.18 7.58 22.79 7.59C21.85 7.6 20.91 7.6 19.97 7.59C19.6 7.59 19.23 7.59 18.86 7.59C18.11 7.59 18.1 7.59 18.07 8.36C18.06 8.62 18.04 8.88 17.72 8.89C17.4 8.91 17.34 8.65 17.34 8.39C17.34 8.35 17.34 8.32 17.34 8.28C17.33 8.2 17.33 8.13 17.34 8.05C17.38 7.71 17.21 7.6 16.88 7.6Q9.05 7.61 1.21 7.6C0.87 7.6 0.75 7.7 0.75 8.05C0.77 9.01 0.77 9.96 0.75 10.92C0.75 11.21 0.87 11.33 1.14 11.43C2.13 11.78 2.7 12.6 2.7 13.6C2.7 14.61 2.15 15.39 1.13 15.76C0.85 15.86 0.75 15.98 0.76 16.27C0.76 16.37 0.76 16.46 0.76 16.56C0.78 17.36 0.79 18.17 0.75 18.97C0.73 19.49 0.92 19.59 1.39 19.58C3.34 19.57 5.28 19.57 7.23 19.57C7.83 19.57 8.43 19.57 9.03 19.57ZM16.83 19.07Q16.81 19.07 16.79 19.07L9.03 19.07L9.03 19.07L1.39 19.08Q1.31 19.08 1.25 19.08Q1.25 19.04 1.25 19Q1.28 18.45 1.28 17.76Q1.28 17.36 1.26 16.55Q1.26 16.36 1.26 16.27Q1.26 16.25 1.26 16.24Q1.28 16.24 1.3 16.23Q2.05 15.96 2.52 15.43Q2.62 15.33 2.7 15.21Q2.86 15 2.96 14.76Q3.2 14.23 3.2 13.6Q3.2 12.99 2.98 12.47Q2.87 12.21 2.7 11.98Q2.55 11.77 2.37 11.6Q1.94 11.18 1.31 10.96Q1.28 10.95 1.25 10.94Q1.25 10.93 1.25 10.93Q1.28 9.42 1.25 8.1L16.84 8.1Q16.83 8.19 16.84 8.29Q16.84 8.36 16.84 8.39Q16.84 8.76 16.98 9Q17.04 9.12 17.14 9.2Q17.21 9.26 17.29 9.3Q17.32 9.32 17.34 9.33Q17.52 9.41 17.74 9.39Q18.05 9.38 18.25 9.22Q18.55 8.97 18.57 8.38Q18.58 8.2 18.59 8.1Q18.69 8.09 18.86 8.09Q19.23 8.09 19.97 8.09Q21.85 8.1 22.8 8.09L22.81 8.09L22.81 8.09Q22.78 9.25 22.81 10.86Q22.81 10.89 22.81 10.92Q22.78 10.93 22.74 10.94Q22.09 11.18 21.65 11.62Q21.48 11.79 21.35 11.98Q21.15 12.25 21.03 12.56Q20.85 13.04 20.85 13.59Q20.86 14.38 21.2 14.98Q21.26 15.1 21.35 15.22Q21.42 15.32 21.5 15.41Q21.96 15.95 22.74 16.23Q22.76 16.24 22.78 16.24Q22.78 16.25 22.78 16.26Q22.76 17.81 22.78 19.07Q20.44 19.05 18.55 19.07Q18.56 19.03 18.56 18.97Q18.58 18.79 18.57 18.69Q18.57 18.48 18.51 18.32Q18.46 18.17 18.36 18.06Q18.28 17.98 18.18 17.92Q17.96 17.79 17.66 17.79Q17.39 17.79 17.19 17.92Q17.17 17.93 17.15 17.94Q17.07 18 17 18.08Q16.9 18.19 16.85 18.35Q16.8 18.51 16.8 18.72Q16.81 18.81 16.82 18.99Q16.83 19.04 16.83 19.07Z" fill="#FA8B02" fill-opacity="1.000000" fill-rule="evenodd"/>
			<path id="Vector" d="M8.92 15.09C7.57 15.09 6.22 15.09 4.88 15.09C4.6 15.09 4.25 15.11 4.26 14.7C4.27 14.34 4.59 14.35 4.86 14.35C7.61 14.35 10.36 14.35 13.11 14.35C13.37 14.35 13.69 14.34 13.69 14.71C13.69 15.12 13.35 15.09 13.07 15.09C11.69 15.09 10.31 15.09 8.92 15.09Z" fill="#FA8B02" fill-opacity="1.000000" fill-rule="nonzero"/>
			<path id="Vector" d="M4.84 15.59Q4.86 15.59 4.88 15.59L8.92 15.59L8.96 15.59L13.07 15.59Q13.09 15.59 13.12 15.59Q13.28 15.59 13.37 15.58Q13.56 15.57 13.71 15.5Q13.84 15.44 13.94 15.35Q14.02 15.27 14.07 15.18Q14.19 14.98 14.19 14.71Q14.19 14.46 14.08 14.28Q14.07 14.25 14.06 14.23Q14.01 14.16 13.94 14.09Q13.84 14 13.7 13.94Q13.55 13.88 13.37 13.86Q13.28 13.85 13.13 13.85L13.11 13.85L7.83 13.85L4.86 13.85L4.82 13.85Q4.67 13.85 4.58 13.86Q4.4 13.88 4.26 13.93Q4.12 13.99 4.02 14.09Q3.95 14.15 3.9 14.22Q3.89 14.25 3.87 14.27Q3.77 14.45 3.76 14.69Q3.76 14.96 3.87 15.16Q3.87 15.17 3.88 15.18Q3.93 15.27 4 15.34Q4.1 15.44 4.25 15.5Q4.39 15.57 4.59 15.58Q4.68 15.59 4.84 15.59ZM8.92 15.09L4.88 15.09C4.86 15.09 4.85 15.09 4.84 15.09C4.57 15.09 4.25 15.09 4.26 14.7C4.27 14.35 4.56 14.35 4.82 14.35L4.86 14.35L13.11 14.35L13.13 14.35C13.39 14.35 13.69 14.35 13.69 14.71C13.69 15.09 13.39 15.09 13.13 15.09C13.11 15.09 13.09 15.09 13.07 15.09C12.15 15.09 11.23 15.09 10.31 15.09L10.31 15.09C9.84 15.09 9.38 15.09 8.92 15.09Z" fill="#FA8B02" fill-opacity="1.000000" fill-rule="evenodd"/>
			<path id="Vector" d="M9.03 16.59C10.38 16.59 11.73 16.59 13.08 16.59C13.36 16.59 13.71 16.56 13.7 16.97C13.69 17.37 13.34 17.33 13.06 17.33C10.34 17.33 7.63 17.33 4.92 17.33C4.86 17.33 4.8 17.33 4.75 17.33C4.51 17.32 4.27 17.26 4.26 16.97C4.25 16.65 4.5 16.59 4.77 16.59L9.03 16.59Z" fill="#FA8B02" fill-opacity="1.000000" fill-rule="nonzero"/>
			<path id="Vector" d="M13.14 16.09Q13.1 16.09 13.08 16.09L4.77 16.09Q4.4 16.09 4.16 16.23Q4.05 16.29 3.97 16.39Q3.9 16.46 3.86 16.55Q3.85 16.55 3.85 16.56Q3.76 16.75 3.77 16.99Q3.77 17.19 3.85 17.35Q3.86 17.38 3.88 17.4Q3.92 17.47 3.97 17.53Q4.06 17.62 4.17 17.69Q4.39 17.82 4.73 17.83L4.74 17.83L13.06 17.83Q13.08 17.83 13.13 17.83Q13.28 17.83 13.37 17.82Q13.56 17.81 13.71 17.75Q13.84 17.69 13.94 17.6Q14.01 17.53 14.07 17.45Q14.07 17.44 14.07 17.43Q14.19 17.24 14.2 16.98Q14.2 16.71 14.09 16.51Q14.09 16.5 14.08 16.5Q14.03 16.41 13.96 16.33Q13.86 16.24 13.72 16.18Q13.57 16.11 13.38 16.1Q13.29 16.09 13.14 16.09ZM4.77 16.59L13.08 16.59C13.1 16.59 13.12 16.59 13.14 16.59C13.41 16.59 13.71 16.59 13.7 16.97C13.69 17.34 13.4 17.33 13.14 17.33C13.11 17.33 13.08 17.33 13.06 17.33L4.75 17.33C4.51 17.32 4.27 17.26 4.26 16.97C4.25 16.65 4.5 16.59 4.77 16.59Z" fill="#FA8B02" fill-opacity="1.000000" fill-rule="evenodd"/>
			<path id="Vector" d="M8.92 12.83C7.57 12.83 6.22 12.83 4.88 12.83C4.61 12.83 4.25 12.87 4.27 12.45C4.29 12.09 4.61 12.12 4.87 12.12L13.11 12.12C13.38 12.12 13.68 12.11 13.69 12.47C13.7 12.84 13.39 12.84 13.12 12.84C11.72 12.84 10.32 12.83 8.92 12.83Z" fill="#FA8B02" fill-opacity="1.000000" fill-rule="nonzero"/>
			<path id="Vector" d="M4.82 13.33Q4.86 13.33 4.88 13.33L8.92 13.33L11.01 13.33L13.12 13.34L13.13 13.34L13.13 13.34L13.13 13.34Q13.29 13.34 13.37 13.33Q13.56 13.31 13.71 13.25Q13.85 13.19 13.96 13.09Q14.02 13.03 14.07 12.95Q14.09 12.92 14.1 12.89Q14.2 12.7 14.19 12.46Q14.19 12.22 14.08 12.03Q14.07 12.01 14.06 11.99Q14.01 11.92 13.94 11.86Q13.84 11.76 13.7 11.7Q13.55 11.64 13.37 11.62Q13.28 11.62 13.13 11.62L13.11 11.62L4.87 11.62Q4.85 11.62 4.82 11.62Q4.68 11.62 4.59 11.62Q4.41 11.64 4.27 11.69Q4.13 11.75 4.03 11.85Q3.96 11.9 3.91 11.97Q3.9 12 3.88 12.03Q3.78 12.2 3.77 12.43Q3.76 12.71 3.87 12.91Q3.87 12.92 3.87 12.92Q3.93 13.01 4 13.09Q4.1 13.19 4.24 13.25Q4.38 13.31 4.58 13.33Q4.66 13.34 4.82 13.33ZM8.92 12.83L4.88 12.83C4.86 12.83 4.84 12.83 4.82 12.83C4.55 12.84 4.25 12.84 4.27 12.45C4.28 12.11 4.57 12.12 4.82 12.12C4.84 12.12 4.85 12.12 4.87 12.12L13.11 12.12L13.13 12.12C13.39 12.12 13.68 12.12 13.69 12.47C13.7 12.84 13.39 12.84 13.13 12.84L13.12 12.84C11.72 12.84 10.32 12.83 8.92 12.83Z" fill="#FA8B02" fill-opacity="1.000000" fill-rule="evenodd"/>
			<path id="Vector" d="M6.83 9.86L8.79 9.86C9.04 9.86 9.31 9.87 9.32 10.21C9.33 10.54 9.06 10.57 8.8 10.57C7.46 10.57 6.12 10.57 4.77 10.57C4.52 10.57 4.24 10.55 4.27 10.2C4.29 9.88 4.55 9.86 4.81 9.87L6.83 9.86Z" fill="#FA8B02" fill-opacity="1.000000" fill-rule="nonzero"/>
			<path id="Vector" d="M9.64 9.66Q9.39 9.36 8.79 9.36L6.83 9.36L4.82 9.37Q4.46 9.36 4.25 9.46Q4.12 9.51 4.02 9.61Q3.96 9.66 3.91 9.73Q3.89 9.76 3.88 9.79Q3.78 9.96 3.77 10.17Q3.75 10.41 3.84 10.61Q3.85 10.62 3.86 10.64Q3.91 10.73 3.97 10.8Q4.06 10.9 4.19 10.96Q4.33 11.03 4.52 11.06Q4.62 11.07 4.77 11.07L8.8 11.07Q9.17 11.07 9.38 10.96Q9.51 10.9 9.6 10.8Q9.66 10.73 9.71 10.65Q9.72 10.64 9.73 10.62Q9.82 10.43 9.82 10.2Q9.81 9.86 9.64 9.66ZM4.81 9.87C4.55 9.86 4.29 9.88 4.27 10.2C4.24 10.55 4.52 10.57 4.77 10.57L8.8 10.57C9.06 10.57 9.33 10.54 9.32 10.21C9.31 9.87 9.04 9.86 8.79 9.86L6.83 9.86L4.81 9.87Z" fill="#FA8B02" fill-opacity="1.000000" fill-rule="evenodd"/>
			<path id="Vector" d="M18.06 11.53C18.06 11.89 18.07 12.25 18.06 12.6C18.05 12.85 17.95 13.05 17.67 13.04C17.41 13.03 17.33 12.83 17.33 12.61C17.32 11.9 17.32 11.18 17.33 10.47C17.33 10.22 17.43 10.02 17.72 10.03C17.97 10.05 18.06 10.23 18.06 10.46C18.06 10.82 18.06 11.18 18.06 11.53Z" fill="#FA8B02" fill-opacity="1.000000" fill-rule="nonzero"/>
			<path id="Vector" d="M18.39 13.19Q18.55 12.96 18.56 12.61L18.56 12.61Q18.56 12.37 18.56 11.89Q18.56 11.65 18.56 11.54L18.56 10.46L18.56 10.45Q18.55 10.11 18.39 9.88Q18.33 9.79 18.25 9.73Q18.19 9.67 18.11 9.63Q17.95 9.55 17.74 9.53Q17.52 9.53 17.34 9.6Q17.24 9.64 17.16 9.71Q17.08 9.77 17.02 9.85Q17 9.87 16.99 9.9Q16.83 10.13 16.83 10.47L16.83 12.61Q16.83 12.94 16.98 13.18Q17.04 13.27 17.12 13.34Q17.19 13.4 17.27 13.44Q17.27 13.44 17.28 13.44Q17.44 13.53 17.65 13.54Q17.86 13.55 18.03 13.47Q18.04 13.47 18.04 13.47Q18.13 13.43 18.21 13.37Q18.29 13.31 18.36 13.23Q18.37 13.21 18.39 13.19ZM18.06 11.53C18.06 11.65 18.06 11.77 18.06 11.89C18.06 12.13 18.06 12.36 18.06 12.6C18.05 12.85 17.95 13.05 17.67 13.04C17.41 13.03 17.33 12.83 17.33 12.61Q17.32 11.54 17.33 10.47C17.33 10.22 17.43 10.02 17.72 10.03C17.97 10.05 18.06 10.23 18.06 10.46C18.06 10.82 18.06 11.18 18.06 11.53Z" fill="#FA8B02" fill-opacity="1.000000" fill-rule="evenodd"/>
			<path id="Vector" d="M18.06 15.65C18.06 16.01 18.07 16.36 18.06 16.72C18.06 16.96 17.96 17.16 17.67 17.16C17.41 17.16 17.33 16.96 17.33 16.74C17.32 16.03 17.32 15.32 17.33 14.61C17.33 14.36 17.43 14.14 17.71 14.16C18 14.17 18.07 14.4 18.07 14.64L18.06 15.65Z" fill="#FA8B02" fill-opacity="1.000000" fill-rule="nonzero"/>
			<path id="Vector" d="M18.56 16.72Q18.56 17.05 18.41 17.29Q18.39 17.31 18.37 17.33Q18.31 17.41 18.24 17.48Q18.16 17.54 18.06 17.58Q17.88 17.66 17.67 17.66L17.66 17.66L17.66 17.66Q17.47 17.66 17.31 17.59Q17.29 17.58 17.28 17.57Q17.2 17.53 17.13 17.47Q17.05 17.4 16.99 17.31Q16.84 17.08 16.83 16.75Q16.82 15.67 16.83 14.6Q16.83 14.27 16.98 14.04Q16.99 14.01 17.01 13.99Q17.08 13.9 17.17 13.83Q17.24 13.77 17.33 13.73Q17.35 13.72 17.37 13.71Q17.54 13.65 17.74 13.66Q17.94 13.67 18.11 13.75Q18.12 13.76 18.14 13.77Q18.22 13.82 18.28 13.88Q18.37 13.96 18.43 14.06Q18.57 14.29 18.57 14.64L18.56 15.65Q18.56 15.77 18.56 16Q18.56 16.48 18.56 16.72ZM18.06 15.65C18.06 15.77 18.06 15.89 18.06 16.01C18.06 16.24 18.06 16.48 18.06 16.72C18.06 16.96 17.96 17.16 17.67 17.16C17.41 17.16 17.33 16.96 17.33 16.74Q17.32 15.67 17.33 14.61C17.33 14.36 17.43 14.14 17.71 14.16C18 14.17 18.07 14.4 18.07 14.64L18.06 15.65Z" fill="#FA8B02" fill-opacity="1.000000" fill-rule="evenodd"/>
		</g>
	</g>
</svg>
