<svg width="24.000000" height="24.000000" viewBox="0 0 24 24" fill="none" xmlns="http://www.w3.org/2000/svg" xmlns:xlink="http://www.w3.org/1999/xlink">
	<desc>
			Created with Pixso.
	</desc>
	<defs>
		<clipPath id="clip201_5158">
			<rect id="icon_language" width="24.000000" height="24.000000" fill="white" fill-opacity="0"/>
		</clipPath>
	</defs>
	<rect id="icon_language" width="24.000000" height="24.000000" fill="#FFFFFF" fill-opacity="0"/>
	<g clip-path="url(#clip201_5158)">
		<path id="Vector" d="M23.99 14.16C23.99 16.65 23.99 19.13 23.99 21.62C23.99 23.14 23.14 23.99 21.62 23.99C17.97 23.99 14.32 23.99 10.67 23.99C9.27 23.99 8.47 23.29 8.31 21.9C8.23 21.27 8.14 20.64 8.08 20C8.05 19.69 7.86 19.74 7.67 19.74C5.93 19.74 4.2 19.74 2.46 19.74C0.84 19.74 0 18.91 0 17.29L0 2.42C0 0.83 0.83 0 2.4 0L9.07 0C10.55 0 11.38 0.77 11.5 2.26C11.55 2.81 11.65 3.36 11.7 3.91C11.72 4.19 11.84 4.25 12.11 4.25C15.25 4.24 18.39 4.24 21.53 4.24C23.15 4.24 23.99 5.09 23.99 6.71C23.99 9.19 23.99 11.68 23.99 14.16ZM10.75 22.55C10.89 22.57 10.95 22.58 11 22.58C14.59 22.58 18.19 22.58 21.79 22.58C22.36 22.58 22.58 22.33 22.58 21.7C22.58 16.65 22.58 11.6 22.58 6.55C22.58 5.91 22.33 5.66 21.7 5.66C18.56 5.66 15.42 5.66 12.28 5.66C12 5.66 11.91 5.7 11.95 6.02C12.2 7.87 12.43 9.73 12.66 11.58C12.95 13.91 13.22 16.23 13.53 18.55C13.59 19.04 13.5 19.4 13.17 19.76C12.37 20.66 11.59 21.58 10.75 22.55ZM1.41 9.87C1.41 12.41 1.41 14.95 1.41 17.49C1.41 18.04 1.66 18.32 2.17 18.32C5.38 18.33 8.59 18.32 11.79 18.33C12.02 18.33 12.08 18.27 12.05 18.04C11.96 17.4 11.89 16.75 11.81 16.11C11.54 13.99 11.26 11.87 11 9.76C10.68 7.24 10.38 4.72 10.07 2.2C10 1.62 9.76 1.42 9.16 1.42C6.88 1.42 4.61 1.42 2.33 1.42C1.62 1.42 1.41 1.62 1.41 2.33C1.41 4.84 1.41 7.35 1.41 9.87ZM11.32 19.74C10.71 19.74 10.2 19.74 9.69 19.74C9.53 19.74 9.47 19.8 9.49 19.96C9.55 20.49 9.62 21.01 9.69 21.63L11.32 19.74Z" fill="#FA8B02" fill-opacity="1.000000" fill-rule="nonzero"/>
		<path id="Vector" d="M15.75 10.58C15.85 10.58 15.95 10.58 16.05 10.58C16.31 10.58 16.62 10.66 16.82 10.54C17.02 10.42 16.88 10.08 16.91 9.84C16.97 9.46 17.29 9.16 17.64 9.17C17.98 9.18 18.27 9.48 18.32 9.84C18.35 10.07 18.22 10.39 18.39 10.52C18.59 10.69 18.92 10.57 19.19 10.57C19.57 10.59 19.94 10.57 20.32 10.58C20.78 10.59 21.1 10.85 21.14 11.24C21.18 11.6 20.91 11.92 20.46 11.98C20.39 11.99 20.33 12.01 20.28 12.06C20.23 12.1 20.19 12.16 20.18 12.23C19.87 13.18 19.39 14.07 18.76 14.85C18.61 15.04 18.66 15.15 18.83 15.28C19.23 15.6 19.63 15.93 20.03 16.25C20.45 16.59 20.54 17.03 20.26 17.36C19.99 17.7 19.57 17.69 19.16 17.36C18.7 17 18.25 16.63 17.81 16.25C17.66 16.13 17.57 16.13 17.43 16.25C16.98 16.63 16.53 17 16.08 17.36C15.66 17.69 15.24 17.68 14.97 17.36C14.7 17.03 14.79 16.59 15.21 16.25C15.61 15.92 16 15.59 16.41 15.28C16.58 15.14 16.63 15.04 16.47 14.84C15.84 14.06 15.36 13.18 15.06 12.22C15 12.05 14.91 12 14.73 11.98C14.56 11.96 14.4 11.88 14.28 11.75C14.16 11.62 14.09 11.45 14.09 11.28C14.1 10.91 14.41 10.6 14.84 10.58C15.14 10.56 15.45 10.58 15.75 10.58L15.75 10.58ZM16.48 11.99C16.72 12.65 17.05 13.26 17.46 13.83C17.58 14.01 17.66 13.99 17.78 13.83C18.14 13.33 18.44 12.8 18.67 12.24C18.77 12.02 18.69 11.99 18.49 11.99C17.84 12 17.19 11.99 16.48 11.99Z" fill="#FA8B02" fill-opacity="1.000000" fill-rule="nonzero"/>
		<path id="Vector" d="M6.4 4.98C7.65 4.98 7.66 5 7.9 6.22C8.31 8.27 8.73 10.32 9.13 12.36C9.2 12.68 9.22 13.01 8.92 13.24C8.69 13.41 8.45 13.46 8.18 13.33C7.91 13.2 7.81 12.97 7.75 12.7C7.64 12.1 7.52 11.51 7.41 10.91C7.37 10.66 7.27 10.56 7 10.57C6.57 10.6 6.14 10.6 5.71 10.57C5.45 10.56 5.37 10.68 5.33 10.89C5.22 11.47 5.1 12.06 4.99 12.64C4.89 13.16 4.57 13.46 4.17 13.4C3.72 13.33 3.48 12.93 3.59 12.38C3.93 10.69 4.28 8.99 4.62 7.3C4.73 6.77 4.82 6.24 4.93 5.71C5.06 5.13 5.25 4.98 5.85 4.98C6.04 4.98 6.22 4.98 6.4 4.98ZM6.35 9.16C6.42 9.16 6.49 9.16 6.56 9.16C7.07 9.16 7.05 9.16 6.95 8.64C6.81 7.99 6.7 7.34 6.57 6.69C6.54 6.57 6.55 6.38 6.35 6.39C6.2 6.41 6.2 6.57 6.17 6.69C6.05 7.29 5.94 7.9 5.83 8.52C5.71 9.16 5.71 9.16 6.35 9.16Z" fill="#FA8B02" fill-opacity="1.000000" fill-rule="nonzero"/>
	</g>
</svg>
