<svg width="24.000000" height="24.000000" viewBox="0 0 24 24" fill="none" xmlns="http://www.w3.org/2000/svg" xmlns:xlink="http://www.w3.org/1999/xlink">
	<desc>
			Created with Pixso.
	</desc>
	<defs>
		<clipPath id="clip201_5149">
			<rect id="icon_guide" width="24.000000" height="24.000000" fill="white" fill-opacity="0"/>
		</clipPath>
	</defs>
	<rect id="icon_guide" width="24.000000" height="24.000000" fill="#FFFFFF" fill-opacity="0"/>
	<g clip-path="url(#clip201_5149)">
		<path id="Vector" d="M7.18 12.85C7.46 12.2 7.4 11.9 6.91 11.45C6.29 10.9 5.85 10.19 5.63 9.39C5.57 9.09 5.39 8.83 5.14 8.65C4.22 7.99 4.01 6.86 4.6 5.88C4.7 5.72 4.76 5.59 4.71 5.4C4.22 3.67 5.2 1.66 7.29 0.84C8.49 0.37 9.79 0.19 11.08 0.32C11.85 0.38 12.49 0.69 12.79 1.48C12.93 1.82 13.18 2.1 13.49 2.29C14.74 3.1 14.97 3.79 14.52 5.21C14.47 5.37 14.41 5.5 14.54 5.69C15.27 6.69 15.06 8.01 14.04 8.74C13.87 8.86 13.75 9.03 13.7 9.23C13.44 10.16 12.91 10.99 12.17 11.62C11.86 11.89 11.84 12.82 12.12 13.11C12.26 13.26 12.35 13.13 12.41 13.05C12.99 12.25 13.8 12.36 14.59 12.53C16.78 13 18.34 14.24 19.01 16.42C19.68 18.63 19.74 20.91 19.75 23.19C19.75 23.66 19.47 23.71 19.1 23.71C15.6 23.71 12.1 23.71 8.61 23.71C5.98 23.71 3.35 23.71 0.73 23.71C0.04 23.71 -0.01 23.66 0 22.96C0.01 21.01 0.12 19.07 0.54 17.15C1.14 14.38 3.25 12.56 5.96 12.43C6.5 12.41 6.5 12.41 7.18 12.85ZM10.04 22.95C11.73 22.95 13.42 22.93 15.11 22.96C15.52 22.96 15.64 22.84 15.63 22.43C15.6 21.32 15.62 20.21 15.62 19.09C15.62 18.89 15.6 18.67 15.83 18.55C16.12 18.38 16.38 18.6 16.38 19.04C16.39 20.21 16.39 21.37 16.38 22.54C16.38 22.85 16.47 22.97 16.79 22.95C17.4 22.93 18.01 22.94 18.62 22.95C18.85 22.95 18.98 22.9 18.97 22.64C18.9 20.54 18.87 18.43 18.17 16.41C17.64 14.86 16.5 13.93 14.98 13.42C14.68 13.32 14.52 13.38 14.36 13.66C13.72 14.76 13.07 15.85 12.4 16.93C12.26 17.16 12.18 17.43 12.19 17.71C12.2 19.01 12.19 20.32 12.19 21.62C12.19 22.24 12.1 22.32 11.5 22.32C10.37 22.32 9.24 22.32 8.11 22.32C7.44 22.32 7.38 22.27 7.38 21.62C7.38 20.37 7.37 19.11 7.38 17.86C7.39 17.51 7.3 17.17 7.11 16.88C6.47 15.84 5.84 14.81 5.24 13.75C5.03 13.38 4.82 13.37 4.49 13.5C2.84 14.16 1.77 15.32 1.36 17.06C0.93 18.87 0.83 20.71 0.76 22.55C0.75 22.89 0.88 22.96 1.19 22.95C1.86 22.93 2.54 22.93 3.22 22.95C3.56 22.96 3.67 22.86 3.67 22.51C3.65 21.38 3.66 20.25 3.66 19.12C3.66 18.83 3.68 18.51 4.04 18.5C4.41 18.49 4.44 18.81 4.44 19.11C4.44 20.2 4.46 21.3 4.43 22.39C4.42 22.82 4.54 22.96 4.98 22.96C6.67 22.93 8.36 22.95 10.04 22.95ZM9.74 11.76C9.79 11.76 9.91 11.75 10.03 11.73C11.73 11.46 12.58 10.31 13.03 8.78C13.11 8.47 13.23 8.27 13.54 8.12C14.35 7.7 14.42 6.55 13.69 6.05C13.52 5.93 13.45 5.76 13.36 5.59C13.06 4.99 12.66 4.43 12.2 3.93C12.09 3.81 11.96 3.59 11.73 3.8C11.25 4.27 10.66 4.3 10.03 4.29C9.01 4.28 7.98 4.27 6.97 4.45C6.31 4.57 5.79 4.88 5.7 5.63C5.66 5.8 5.58 5.96 5.45 6.08C4.8 6.79 4.95 7.71 5.82 8.15C6.12 8.31 6.22 8.52 6.29 8.83C6.63 10.54 8.05 11.76 9.74 11.76ZM5.39 4.43C6.22 3.66 7.13 3.59 8.04 3.56C8.78 3.53 9.53 3.53 10.27 3.53C10.65 3.53 10.99 3.45 11.27 3.17C11.73 2.69 11.87 2.68 12.4 3.07C12.88 3.44 13.22 3.92 13.56 4.4C13.64 4.51 13.66 4.7 13.85 4.71C14.09 3.96 14 3.59 13.34 3.14C12.75 2.74 12.25 2.29 11.98 1.61C11.87 1.32 11.6 1.19 11.33 1.15C9.59 0.93 7.93 1.12 6.49 2.22C5.84 2.72 5.45 3.41 5.39 4.43ZM13.67 13.29C13.35 13.16 13.23 13.37 13.08 13.5C12.24 14.24 11.39 14.99 10.55 15.75C9.78 16.46 9.79 16.46 9.01 15.73C8.22 14.97 7.42 14.23 6.62 13.47C6.42 13.28 6.23 13.12 5.92 13.29C5.94 13.35 5.96 13.42 5.99 13.48C6.6 14.51 7.22 15.53 7.83 16.57C7.96 16.79 8.13 16.81 8.35 16.81C9.05 16.81 9.75 16.74 10.44 16.83C11.31 16.94 11.8 16.6 12.18 15.84C12.62 14.96 13.16 14.14 13.67 13.29ZM8.14 19.58C8.14 20.12 8.15 20.65 8.14 21.19C8.13 21.46 8.22 21.56 8.49 21.56C9.33 21.55 10.16 21.54 10.99 21.56C11.32 21.56 11.41 21.43 11.41 21.13C11.4 20.08 11.4 19.04 11.41 18C11.41 17.68 11.31 17.58 10.99 17.59C10.18 17.6 9.36 17.61 8.54 17.59C8.21 17.58 8.13 17.71 8.14 18.02C8.16 18.54 8.14 19.06 8.14 19.58L8.14 19.58ZM11.49 13.66C11.32 13.33 11.22 12.98 11.17 12.61C11.15 12.29 11.03 12.3 10.78 12.38C10.16 12.57 9.5 12.59 8.87 12.46C8.17 12.32 8.17 12.32 7.99 13.02C7.93 13.27 7.75 13.52 8.05 13.77C8.57 14.21 9.05 14.69 9.54 15.16C9.7 15.32 9.83 15.36 10.02 15.18C10.45 14.78 10.9 14.4 11.34 14.01C11.43 13.93 11.55 13.86 11.49 13.66L11.49 13.66Z" fill="#FA8B02" fill-opacity="1.000000" fill-rule="nonzero"/>
		<path id="Vector" d="M6.91 11.45C6.29 10.9 5.85 10.19 5.63 9.39C5.57 9.09 5.39 8.83 5.14 8.65C4.22 7.99 4.01 6.86 4.6 5.88C4.7 5.72 4.76 5.59 4.71 5.4C4.22 3.67 5.2 1.66 7.29 0.84C8.49 0.37 9.79 0.19 11.08 0.32C11.85 0.38 12.49 0.69 12.79 1.48C12.93 1.82 13.18 2.1 13.49 2.29C14.74 3.1 14.97 3.79 14.52 5.21C14.47 5.37 14.41 5.5 14.54 5.69C15.27 6.69 15.06 8.01 14.04 8.74C13.87 8.86 13.75 9.03 13.7 9.23C13.44 10.16 12.91 10.99 12.17 11.62C11.86 11.89 11.84 12.82 12.12 13.11C12.26 13.26 12.35 13.13 12.41 13.05C12.99 12.25 13.8 12.36 14.59 12.53C16.78 13 18.34 14.24 19.01 16.42C19.68 18.63 19.74 20.91 19.75 23.19C19.75 23.66 19.47 23.71 19.1 23.71C15.6 23.71 12.1 23.71 8.61 23.71C5.98 23.71 3.35 23.71 0.73 23.71C0.04 23.71 -0.01 23.66 0 22.96C0.01 21.01 0.12 19.07 0.54 17.15C1.14 14.38 3.25 12.56 5.96 12.43C6.5 12.41 6.5 12.41 7.18 12.85C7.46 12.2 7.4 11.9 6.91 11.45ZM15.11 22.96C15.52 22.96 15.64 22.84 15.63 22.43C15.6 21.32 15.62 20.21 15.62 19.09C15.62 18.89 15.6 18.67 15.83 18.55C16.12 18.38 16.38 18.6 16.38 19.04C16.39 20.21 16.39 21.37 16.38 22.54C16.38 22.85 16.47 22.97 16.79 22.95C17.4 22.93 18.01 22.94 18.62 22.95C18.85 22.95 18.98 22.9 18.97 22.64C18.9 20.54 18.87 18.43 18.17 16.41C17.64 14.86 16.5 13.93 14.98 13.42C14.68 13.32 14.52 13.38 14.36 13.66C13.72 14.76 13.07 15.85 12.4 16.93C12.26 17.16 12.18 17.43 12.19 17.71C12.2 19.01 12.19 20.32 12.19 21.62C12.19 22.24 12.1 22.32 11.5 22.32C10.37 22.32 9.24 22.32 8.11 22.32C7.44 22.32 7.38 22.27 7.38 21.62C7.38 20.37 7.37 19.11 7.38 17.86C7.39 17.51 7.3 17.17 7.11 16.88C6.47 15.84 5.84 14.81 5.24 13.75C5.03 13.38 4.82 13.37 4.49 13.5C2.84 14.16 1.77 15.32 1.36 17.06C0.93 18.87 0.83 20.71 0.76 22.55C0.75 22.89 0.88 22.96 1.19 22.95C1.86 22.93 2.54 22.93 3.22 22.95C3.56 22.96 3.67 22.86 3.67 22.51C3.65 21.38 3.66 20.25 3.66 19.12C3.66 18.83 3.68 18.51 4.04 18.5C4.41 18.49 4.44 18.81 4.44 19.11C4.44 20.2 4.46 21.3 4.43 22.39C4.42 22.82 4.54 22.96 4.98 22.96C6.67 22.93 8.36 22.95 10.04 22.95C11.73 22.95 13.42 22.93 15.11 22.96ZM10.03 11.73C11.73 11.46 12.58 10.31 13.03 8.78C13.11 8.47 13.23 8.27 13.54 8.12C14.35 7.7 14.42 6.55 13.69 6.05C13.52 5.93 13.45 5.76 13.36 5.59C13.06 4.99 12.66 4.43 12.2 3.93C12.09 3.81 11.96 3.59 11.73 3.8C11.25 4.27 10.66 4.3 10.03 4.29C9.01 4.28 7.98 4.27 6.97 4.45C6.31 4.57 5.79 4.88 5.7 5.63C5.66 5.8 5.58 5.96 5.45 6.08C4.8 6.79 4.95 7.71 5.82 8.15C6.12 8.31 6.22 8.52 6.29 8.83C6.63 10.54 8.05 11.76 9.74 11.76C9.79 11.76 9.91 11.75 10.03 11.73ZM8.04 3.56C8.78 3.53 9.53 3.53 10.27 3.53C10.65 3.53 10.99 3.45 11.27 3.17C11.73 2.69 11.87 2.68 12.4 3.07C12.88 3.44 13.22 3.92 13.56 4.4C13.64 4.51 13.66 4.7 13.85 4.71C14.09 3.96 14 3.59 13.34 3.14C12.75 2.74 12.25 2.29 11.98 1.61C11.87 1.32 11.6 1.19 11.33 1.15C9.59 0.93 7.93 1.12 6.49 2.22C5.84 2.72 5.45 3.41 5.39 4.43C6.22 3.66 7.13 3.59 8.04 3.56ZM13.08 13.5C12.24 14.24 11.39 14.99 10.55 15.75C9.78 16.46 9.79 16.46 9.01 15.73C8.22 14.97 7.42 14.23 6.62 13.47C6.42 13.28 6.23 13.12 5.92 13.29C5.94 13.35 5.96 13.42 5.99 13.48C6.6 14.51 7.22 15.53 7.83 16.57C7.96 16.79 8.13 16.81 8.35 16.81C9.05 16.81 9.75 16.74 10.44 16.83C11.31 16.94 11.8 16.6 12.18 15.84C12.62 14.96 13.16 14.14 13.67 13.29C13.35 13.16 13.23 13.37 13.08 13.5ZM8.14 21.19C8.13 21.46 8.22 21.56 8.49 21.56C9.33 21.55 10.16 21.54 10.99 21.56C11.32 21.56 11.41 21.43 11.41 21.13C11.4 20.08 11.4 19.04 11.41 18C11.41 17.68 11.31 17.58 10.99 17.59C10.18 17.6 9.36 17.61 8.54 17.59C8.21 17.58 8.13 17.71 8.14 18.02C8.16 18.54 8.14 19.06 8.14 19.58L8.14 19.58C8.14 20.12 8.15 20.65 8.14 21.19ZM11.17 12.61C11.15 12.29 11.03 12.3 10.78 12.38C10.16 12.57 9.5 12.59 8.87 12.46C8.17 12.32 8.17 12.32 7.99 13.02C7.93 13.27 7.75 13.52 8.05 13.77C8.57 14.21 9.05 14.69 9.54 15.16C9.7 15.32 9.83 15.36 10.02 15.18C10.45 14.78 10.9 14.4 11.34 14.01C11.43 13.93 11.55 13.86 11.49 13.66L11.49 13.66C11.32 13.33 11.22 12.98 11.17 12.61Z" stroke="#FA8B02" stroke-opacity="1.000000" stroke-width="0.500000"/>
		<path id="Vector" d="M17.17 6.67L17.17 1.46C17.17 1.41 17.17 1.36 17.17 1.3C17.18 1.03 17.26 0.81 17.58 0.82C17.87 0.83 17.98 1.05 17.94 1.29C17.84 1.85 18.16 2.12 18.56 2.42C20.25 3.7 21.92 5 23.6 6.3C23.8 6.46 24.08 6.6 23.97 6.92C23.86 7.24 23.57 7.19 23.3 7.19L19.19 7.19C17.95 7.19 17.95 7.19 17.95 8.45C17.95 9.6 17.95 10.75 17.95 11.9C17.95 12.18 17.97 12.51 17.59 12.52C17.16 12.54 17.17 12.19 17.17 11.89C17.17 10.15 17.17 8.41 17.17 6.67ZM22.31 6.29C20.95 5.24 19.6 4.19 18.23 3.15C17.97 2.94 17.96 3.15 17.96 3.34C17.96 4.21 17.97 5.08 17.95 5.95C17.94 6.33 18.09 6.42 18.44 6.42C19.58 6.4 20.73 6.42 21.88 6.41C22.01 6.41 22.16 6.46 22.31 6.29Z" fill="#FA8B02" fill-opacity="1.000000" fill-rule="nonzero"/>
		<path id="Vector" d="M17.17 1.46C17.17 1.41 17.17 1.36 17.17 1.3C17.18 1.03 17.26 0.81 17.58 0.82C17.87 0.83 17.98 1.05 17.94 1.29C17.84 1.85 18.16 2.12 18.56 2.42C20.25 3.7 21.92 5 23.6 6.3C23.8 6.46 24.08 6.6 23.97 6.92C23.86 7.24 23.57 7.19 23.3 7.19L19.19 7.19C17.95 7.19 17.95 7.19 17.95 8.45C17.95 9.6 17.95 10.75 17.95 11.9C17.95 12.18 17.97 12.51 17.59 12.52C17.16 12.54 17.17 12.19 17.17 11.89C17.17 10.15 17.17 8.41 17.17 6.67L17.17 1.46ZM18.23 3.15C17.97 2.94 17.96 3.15 17.96 3.34C17.96 4.21 17.97 5.08 17.95 5.95C17.94 6.33 18.09 6.42 18.44 6.42C19.58 6.4 20.73 6.42 21.88 6.41C22.01 6.41 22.16 6.46 22.31 6.29C20.95 5.24 19.6 4.19 18.23 3.15Z" stroke="#FA8B02" stroke-opacity="1.000000" stroke-width="0.500000"/>
		<path id="Vector" d="M9.8 18.04C10.02 18.04 10.25 18.03 10.47 18.04C10.52 18.04 10.57 18.05 10.62 18.07C10.66 18.08 10.7 18.11 10.74 18.14C10.77 18.18 10.8 18.22 10.82 18.26C10.84 18.31 10.85 18.35 10.85 18.4C10.86 18.45 10.85 18.5 10.84 18.55C10.82 18.59 10.8 18.64 10.77 18.67C10.74 18.71 10.7 18.74 10.65 18.76C10.61 18.78 10.56 18.79 10.51 18.79C10.03 18.81 9.54 18.81 9.05 18.79C9 18.79 8.95 18.78 8.91 18.76C8.86 18.74 8.82 18.72 8.79 18.68C8.76 18.64 8.73 18.6 8.72 18.55C8.7 18.51 8.7 18.46 8.7 18.41C8.7 18.36 8.71 18.31 8.72 18.27C8.74 18.22 8.77 18.18 8.8 18.15C8.84 18.11 8.88 18.09 8.92 18.07C8.97 18.05 9.02 18.04 9.06 18.04C9.31 18.03 9.55 18.04 9.8 18.04Z" fill="#FA8B02" fill-opacity="1.000000" fill-rule="nonzero"/>
		<path id="Vector" d="M10.47 18.04C10.52 18.04 10.57 18.05 10.62 18.07C10.66 18.08 10.7 18.11 10.74 18.14C10.77 18.18 10.8 18.22 10.82 18.26C10.84 18.31 10.85 18.35 10.85 18.4C10.86 18.45 10.85 18.5 10.84 18.55C10.82 18.59 10.8 18.64 10.77 18.67C10.74 18.71 10.7 18.74 10.65 18.76C10.61 18.78 10.56 18.79 10.51 18.79C10.03 18.81 9.54 18.81 9.05 18.79C9 18.79 8.95 18.78 8.91 18.76C8.86 18.74 8.82 18.72 8.79 18.68C8.76 18.64 8.73 18.6 8.72 18.55C8.7 18.51 8.7 18.46 8.7 18.41C8.7 18.36 8.71 18.31 8.72 18.27C8.74 18.22 8.77 18.18 8.8 18.15C8.84 18.11 8.88 18.09 8.92 18.07C8.97 18.05 9.02 18.04 9.06 18.04C9.31 18.03 9.55 18.04 9.8 18.04C10.02 18.04 10.25 18.03 10.47 18.04Z" stroke="#FA8B02" stroke-opacity="1.000000" stroke-width="0.200000"/>
		<path id="Vector" d="M9.79 19.94C9.55 19.94 9.31 19.95 9.06 19.94C9.02 19.94 8.97 19.93 8.92 19.92C8.88 19.9 8.84 19.87 8.8 19.84C8.77 19.8 8.74 19.76 8.73 19.71C8.71 19.67 8.7 19.62 8.7 19.57C8.7 19.52 8.7 19.48 8.72 19.43C8.73 19.38 8.76 19.34 8.79 19.3C8.82 19.27 8.87 19.24 8.91 19.22C8.95 19.2 9 19.19 9.05 19.19C9.52 19.18 9.99 19.18 10.46 19.19C10.7 19.2 10.85 19.34 10.85 19.59C10.84 19.81 10.69 19.93 10.47 19.95C10.25 19.96 10.02 19.94 9.79 19.94Z" fill="#FA8B02" fill-opacity="1.000000" fill-rule="nonzero"/>
		<path id="Vector" d="M9.06 19.94C9.02 19.94 8.97 19.93 8.92 19.92C8.88 19.9 8.84 19.87 8.8 19.84C8.77 19.8 8.74 19.76 8.73 19.71C8.71 19.67 8.7 19.62 8.7 19.57C8.7 19.52 8.7 19.48 8.72 19.43C8.73 19.38 8.76 19.34 8.79 19.3C8.82 19.27 8.87 19.24 8.91 19.22C8.95 19.2 9 19.19 9.05 19.19C9.52 19.18 9.99 19.18 10.46 19.19C10.7 19.2 10.85 19.34 10.85 19.59C10.84 19.81 10.69 19.93 10.47 19.95C10.25 19.96 10.02 19.94 9.79 19.94C9.55 19.94 9.31 19.95 9.06 19.94Z" stroke="#FA8B02" stroke-opacity="1.000000" stroke-width="0.200000"/>
		<path id="Vector" d="M9.76 21.08C9.53 21.08 9.31 21.08 9.08 21.08C9.03 21.09 8.98 21.08 8.94 21.06C8.89 21.05 8.85 21.02 8.82 20.99C8.78 20.96 8.75 20.92 8.74 20.87C8.72 20.83 8.71 20.78 8.71 20.73C8.7 20.68 8.7 20.63 8.72 20.59C8.73 20.54 8.75 20.5 8.78 20.46C8.82 20.42 8.86 20.4 8.9 20.38C8.94 20.36 8.99 20.35 9.04 20.35C9.53 20.33 10.01 20.33 10.5 20.35C10.54 20.34 10.59 20.35 10.64 20.37C10.68 20.39 10.72 20.42 10.76 20.45C10.79 20.49 10.82 20.53 10.83 20.58C10.85 20.62 10.85 20.67 10.85 20.72C10.85 20.77 10.84 20.81 10.82 20.86C10.81 20.9 10.78 20.95 10.75 20.98C10.71 21.01 10.67 21.04 10.63 21.06C10.58 21.08 10.53 21.08 10.49 21.08C10.24 21.09 10 21.08 9.75 21.08L9.76 21.08Z" fill="#FA8B02" fill-opacity="1.000000" fill-rule="nonzero"/>
		<path id="Vector" d="M9.08 21.08C9.03 21.09 8.98 21.08 8.94 21.06C8.89 21.05 8.85 21.02 8.82 20.99C8.78 20.96 8.75 20.92 8.74 20.87C8.72 20.83 8.71 20.78 8.71 20.73C8.7 20.68 8.7 20.63 8.72 20.59C8.73 20.54 8.75 20.5 8.78 20.46C8.82 20.42 8.86 20.4 8.9 20.38C8.94 20.36 8.99 20.35 9.04 20.35C9.53 20.33 10.01 20.33 10.5 20.35C10.54 20.34 10.59 20.35 10.64 20.37C10.68 20.39 10.72 20.42 10.76 20.45C10.79 20.49 10.82 20.53 10.83 20.58C10.85 20.62 10.85 20.67 10.85 20.72C10.85 20.77 10.84 20.81 10.82 20.86C10.81 20.9 10.78 20.95 10.75 20.98C10.71 21.01 10.67 21.04 10.63 21.06C10.58 21.08 10.53 21.08 10.49 21.08C10.24 21.09 10 21.08 9.75 21.08L9.76 21.08C9.53 21.08 9.31 21.08 9.08 21.08Z" stroke="#FA8B02" stroke-opacity="1.000000" stroke-width="0.200000"/>
	</g>
</svg>
