<svg width="24.000000" height="24.000000" viewBox="0 0 24 24" fill="none" xmlns="http://www.w3.org/2000/svg" xmlns:xlink="http://www.w3.org/1999/xlink">
	<desc>
			Created with Pixso.
	</desc>
	<defs>
		<clipPath id="clip201_1928">
			<rect id="icon_support" width="24.000000" height="24.000000" transform="translate(0.000000 -0.500000)" fill="white" fill-opacity="0"/>
		</clipPath>
	</defs>
	<g opacity="0.800000">
		<rect id="icon_support" width="24.000000" height="24.000000" transform="translate(0.000000 -0.500000)" fill="#FFFFFF" fill-opacity="0"/>
		<g clip-path="url(#clip201_1928)">
			<path id="Vector" d="M1.48 12.5C1.48 11.82 1.47 11.15 1.48 10.47C1.5 8.96 2.05 8.18 3.49 7.75C3.84 7.65 3.79 7.42 3.8 7.2C3.91 5.23 4.67 3.54 5.99 2.08C8.13 -0.27 11.62 -1.12 14.71 -0.05C17.73 1 19.94 3.84 20.13 6.98C20.16 7.49 20.31 7.71 20.81 7.86C21.76 8.14 22.35 8.84 22.42 9.84C22.55 11.62 22.55 13.41 22.42 15.2C22.34 16.31 21.64 17 20.58 17.28C20.26 17.36 20.15 17.5 20.14 17.8C20.14 17.99 20.12 18.18 20.09 18.37C19.69 20.84 18.35 22 15.66 22.23C15.48 22.25 15.31 22.26 15.13 22.26C14.8 22.25 14.64 22.37 14.61 22.73C14.55 23.21 14.21 23.47 13.75 23.48C12.79 23.5 11.83 23.5 10.88 23.48C10.32 23.47 9.97 23.12 9.94 22.56C9.91 22.07 9.91 21.58 9.94 21.1C9.98 20.53 10.31 20.2 10.88 20.19C11.82 20.17 12.76 20.17 13.7 20.19C14.22 20.2 14.57 20.47 14.6 21.01C14.63 21.35 14.77 21.39 15.07 21.36C15.8 21.29 16.53 21.23 17.22 20.97C18.48 20.48 19.42 18.92 19.26 17.63C19.22 17.34 19.03 17.42 18.87 17.41C17.97 17.37 17.95 17.34 17.95 16.44C17.95 13.82 17.95 11.19 17.95 8.57C17.95 7.75 18.01 7.66 18.83 7.66C19.17 7.66 19.27 7.57 19.26 7.22C19.07 3.5 16.02 0.56 12.13 0.38C8.57 0.21 5.25 3.02 4.78 6.59C4.77 6.68 4.76 6.76 4.74 6.85C4.64 7.6 4.64 7.61 5.39 7.64C5.82 7.66 6.01 7.86 6.01 8.29C6.01 11.11 6.01 13.93 6.01 16.75C6.01 17.2 5.82 17.43 5.35 17.41C4.78 17.39 4.21 17.45 3.64 17.35C2.41 17.13 1.63 16.35 1.53 15.11C1.46 14.25 1.52 13.37 1.52 12.5L1.48 12.5ZM5.09 12.52L5.09 9.5C5.09 8.5 5.09 8.5 4.07 8.55C3.09 8.6 2.43 9.15 2.41 10.07C2.36 11.71 2.37 13.34 2.41 14.98C2.42 15.77 2.95 16.29 3.73 16.44C4 16.49 4.28 16.46 4.56 16.49C4.97 16.54 5.11 16.4 5.1 15.97C5.07 14.82 5.09 13.67 5.09 12.52L5.09 12.52ZM18.87 12.52C18.87 13.69 18.88 14.85 18.86 16.02C18.86 16.38 18.96 16.54 19.33 16.5C19.54 16.47 19.75 16.5 19.96 16.48C20.9 16.4 21.51 15.85 21.54 14.93C21.59 13.33 21.58 11.73 21.55 10.13C21.54 9.3 21.04 8.78 20.22 8.63C19.93 8.57 19.63 8.6 19.34 8.56C18.98 8.52 18.86 8.66 18.86 9.03C18.88 10.19 18.87 11.36 18.87 12.52L18.87 12.52ZM12.27 22.57L12.69 22.57C13.81 22.57 13.8 22.57 13.74 21.45C13.73 21.18 13.64 21.09 13.38 21.09C12.65 21.1 11.92 21.09 11.2 21.09C11.04 21.09 10.85 21.07 10.86 21.3C10.86 21.7 10.71 22.14 10.92 22.47C11.08 22.71 11.5 22.53 11.8 22.56C11.96 22.57 12.12 22.56 12.27 22.56L12.27 22.57Z" fill="#FA8B02" fill-opacity="1.000000" fill-rule="nonzero"/>
			<path id="Vector" d="M1.48 10.47C1.5 8.96 2.05 8.18 3.49 7.75C3.84 7.65 3.79 7.42 3.8 7.2C3.91 5.23 4.67 3.54 5.99 2.08C8.13 -0.27 11.62 -1.12 14.71 -0.05C17.73 1 19.94 3.84 20.13 6.98C20.16 7.49 20.31 7.71 20.81 7.86C21.76 8.14 22.35 8.84 22.42 9.84C22.55 11.62 22.55 13.41 22.42 15.2C22.34 16.31 21.64 17 20.58 17.28C20.26 17.36 20.15 17.5 20.14 17.8C20.14 17.99 20.12 18.18 20.09 18.37C19.69 20.84 18.35 22 15.66 22.23C15.48 22.25 15.31 22.26 15.13 22.26C14.8 22.25 14.64 22.37 14.61 22.73C14.55 23.21 14.21 23.47 13.75 23.48C12.79 23.5 11.83 23.5 10.88 23.48C10.32 23.47 9.97 23.12 9.94 22.56C9.91 22.07 9.91 21.58 9.94 21.1C9.98 20.53 10.31 20.2 10.88 20.19C11.82 20.17 12.76 20.17 13.7 20.19C14.22 20.2 14.57 20.47 14.6 21.01C14.63 21.35 14.77 21.39 15.07 21.36C15.8 21.29 16.53 21.23 17.22 20.97C18.48 20.48 19.42 18.92 19.26 17.63C19.22 17.34 19.03 17.42 18.87 17.41C17.97 17.37 17.95 17.34 17.95 16.44C17.95 13.82 17.95 11.19 17.95 8.57C17.95 7.75 18.01 7.66 18.83 7.66C19.17 7.66 19.27 7.57 19.26 7.22C19.07 3.5 16.02 0.56 12.13 0.38C8.57 0.21 5.25 3.02 4.78 6.59C4.77 6.68 4.76 6.76 4.74 6.85C4.64 7.6 4.64 7.61 5.39 7.64C5.82 7.66 6.01 7.86 6.01 8.29C6.01 11.11 6.01 13.93 6.01 16.75C6.01 17.2 5.82 17.43 5.35 17.41C4.78 17.39 4.21 17.45 3.64 17.35C2.41 17.13 1.63 16.35 1.53 15.11C1.46 14.25 1.52 13.37 1.52 12.5L1.48 12.5C1.48 11.82 1.47 11.15 1.48 10.47ZM5.09 9.5C5.09 8.5 5.09 8.5 4.07 8.55C3.09 8.6 2.43 9.15 2.41 10.07C2.36 11.71 2.37 13.34 2.41 14.98C2.42 15.77 2.95 16.29 3.73 16.44C4 16.49 4.28 16.46 4.56 16.49C4.97 16.54 5.11 16.4 5.1 15.97C5.07 14.82 5.09 13.67 5.09 12.52L5.09 12.52L5.09 9.5ZM18.86 16.02C18.86 16.38 18.96 16.54 19.33 16.5C19.54 16.47 19.75 16.5 19.96 16.48C20.9 16.4 21.51 15.85 21.54 14.93C21.59 13.33 21.58 11.73 21.55 10.13C21.54 9.3 21.04 8.78 20.22 8.63C19.93 8.57 19.63 8.6 19.34 8.56C18.98 8.52 18.86 8.66 18.86 9.03C18.88 10.19 18.87 11.36 18.87 12.52L18.87 12.52C18.87 13.69 18.88 14.85 18.86 16.02ZM12.69 22.57C13.81 22.57 13.8 22.57 13.74 21.45C13.73 21.18 13.64 21.09 13.38 21.09C12.65 21.1 11.92 21.09 11.2 21.09C11.04 21.09 10.85 21.07 10.86 21.3C10.86 21.7 10.71 22.14 10.92 22.47C11.08 22.71 11.5 22.53 11.8 22.56C11.96 22.57 12.12 22.56 12.27 22.56L12.27 22.57L12.69 22.57Z" stroke="#FA8B02" stroke-opacity="1.000000" stroke-width="0.200000"/>
		</g>
	</g>
</svg>
