<svg width="61.000000" height="59.000000" viewBox="0 0 61 59" fill="none" xmlns="http://www.w3.org/2000/svg" xmlns:xlink="http://www.w3.org/1999/xlink">
	<desc>
			Created with Pixso.
	</desc>
	<defs/>
	<path id="Vector" d="M17.96 31.14C18.66 29.52 18.52 28.77 17.28 27.63C15.73 26.26 14.63 24.48 14.09 22.49C13.93 21.74 13.49 21.07 12.86 20.64C10.55 18.99 10.04 16.15 11.52 13.71C11.76 13.31 11.91 12.99 11.78 12.51C10.57 8.19 13.01 3.16 18.23 1.1C21.25 -0.07 24.49 -0.51 27.71 -0.2C29.64 -0.04 31.23 0.72 31.98 2.71C32.33 3.55 32.95 4.26 33.74 4.73C36.86 6.77 37.43 8.47 36.31 12.03C36.18 12.44 36.03 12.76 36.37 13.22C38.2 15.74 37.66 19.03 35.11 20.86C34.68 21.16 34.38 21.59 34.25 22.09C33.61 24.41 32.28 26.49 30.44 28.05C29.66 28.72 29.6 31.05 30.3 31.78C30.65 32.15 30.89 31.83 31.03 31.63C32.49 29.64 34.51 29.91 36.48 30.32C41.96 31.51 45.85 34.61 47.53 40.07C49.21 45.58 49.35 51.29 49.4 56.98C49.4 58.16 48.68 58.29 47.75 58.29C39.01 58.28 30.27 58.28 21.53 58.29C14.96 58.29 8.39 58.29 1.83 58.29C0.11 58.29 -0.02 58.16 0 56.41C0.04 51.53 0.3 46.67 1.35 41.89C2.87 34.95 8.14 30.41 14.92 30.09C16.25 30.02 16.25 30.02 17.96 31.14ZM25.12 56.37C29.34 56.37 33.56 56.34 37.77 56.4C38.82 56.4 39.11 56.11 39.08 55.09C39.01 52.31 39.05 49.53 39.06 46.74C39.06 46.22 39.02 45.68 39.58 45.37C40.31 44.97 40.95 45.5 40.96 46.61C40.99 49.52 40.99 52.43 40.96 55.35C40.96 56.13 41.18 56.43 41.99 56.39C43.51 56.33 45.04 56.36 46.56 56.39C47.13 56.39 47.46 56.26 47.44 55.61C47.27 50.35 47.19 45.07 45.45 40.03C44.11 36.16 41.27 33.84 37.47 32.56C36.72 32.3 36.3 32.45 35.9 33.17C34.32 35.91 32.67 38.63 31.02 41.34C30.66 41.92 30.47 42.59 30.48 43.28C30.5 46.54 30.5 49.8 30.48 53.06C30.48 54.6 30.26 54.81 28.76 54.82C25.93 54.82 23.11 54.82 20.28 54.82C18.61 54.82 18.46 54.67 18.45 53.05C18.45 49.92 18.43 46.79 18.45 43.66C18.48 42.79 18.25 41.94 17.79 41.21C16.19 38.62 14.6 36.02 13.11 33.38C12.59 32.46 12.07 32.43 11.22 32.76C7.12 34.41 4.43 37.3 3.4 41.66C2.33 46.18 2.08 50.77 1.91 55.38C1.88 56.22 2.22 56.41 2.98 56.38C4.67 56.34 6.37 56.33 8.06 56.38C8.9 56.41 9.19 56.17 9.18 55.29C9.13 52.47 9.16 49.64 9.15 46.81C9.15 46.08 9.2 45.29 10.12 45.26C11.04 45.24 11.11 46.04 11.12 46.78C11.12 49.51 11.16 52.25 11.1 54.99C11.07 56.05 11.36 56.41 12.46 56.4C16.68 56.32 20.9 56.37 25.12 56.37ZM24.35 28.41C24.48 28.41 24.79 28.39 25.09 28.34C29.34 27.66 31.45 24.78 32.57 20.95C32.8 20.19 33.1 19.69 33.85 19.3C35.89 18.25 36.07 15.39 34.24 14.13C33.81 13.84 33.63 13.41 33.41 12.99C32.65 11.47 31.67 10.08 30.51 8.84C30.23 8.53 29.9 7.98 29.34 8.51C28.14 9.67 26.65 9.76 25.09 9.74C22.53 9.71 19.96 9.69 17.43 10.14C15.79 10.44 14.49 11.21 14.25 13.09C14.17 13.51 13.95 13.9 13.63 14.2C12 15.98 12.4 18.28 14.55 19.39C15.32 19.78 15.57 20.31 15.73 21.09C16.6 25.37 20.14 28.41 24.35 28.41ZM13.48 10.07C15.56 8.17 17.83 7.98 20.1 7.9C21.96 7.82 23.83 7.84 25.69 7.83C26.64 7.83 27.5 7.64 28.19 6.93C29.35 5.73 29.69 5.71 31 6.69C32.2 7.6 33.05 8.8 33.91 10C34.11 10.29 34.17 10.75 34.65 10.79C35.23 8.9 35.02 7.98 33.36 6.85C31.89 5.85 30.65 4.72 29.97 3.03C29.68 2.31 29.02 1.99 28.33 1.89C23.99 1.32 19.83 1.8 16.24 4.56C14.61 5.82 13.64 7.54 13.48 10.07ZM34.18 32.22C33.38 31.9 33.08 32.44 32.72 32.75C30.6 34.61 28.49 36.49 26.39 38.39C24.46 40.15 24.48 40.15 22.54 38.32C20.55 36.44 18.55 34.57 16.56 32.69C16.07 32.22 15.58 31.81 14.81 32.23C14.85 32.39 14.91 32.55 14.98 32.7C16.51 35.28 18.07 37.84 19.59 40.42C19.91 40.98 20.35 41.04 20.89 41.04C22.63 41.04 24.39 40.86 26.11 41.08C28.29 41.36 29.5 40.5 30.46 38.61C31.55 36.41 32.92 34.36 34.18 32.22ZM20.35 47.95C20.35 49.3 20.38 50.64 20.35 51.98C20.33 52.65 20.56 52.91 21.24 52.9C23.33 52.88 25.42 52.87 27.49 52.9C28.3 52.92 28.53 52.59 28.53 51.83C28.5 49.22 28.5 46.61 28.53 44.02C28.53 43.22 28.27 42.96 27.49 42.97C25.45 43.01 23.41 43.02 21.37 42.97C20.54 42.96 20.34 43.29 20.37 44.05C20.41 45.35 20.37 46.65 20.37 47.95L20.35 47.95ZM28.73 33.15C28.32 32.33 28.05 31.45 27.94 30.54C27.88 29.74 27.58 29.76 26.95 29.95C25.41 30.42 23.77 30.49 22.19 30.16C20.44 29.81 20.44 29.81 20 31.56C19.84 32.19 19.39 32.8 20.14 33.44C21.43 34.54 22.64 35.73 23.85 36.9C24.26 37.3 24.58 37.4 25.05 36.97C26.13 35.96 27.25 35.01 28.35 34.02C28.6 33.83 28.88 33.65 28.74 33.15L28.73 33.15Z" fill="#FA8B02" fill-opacity="1.000000" fill-rule="nonzero"/>
	<path id="Vector" d="M17.28 27.63C15.73 26.26 14.63 24.48 14.09 22.49C13.93 21.74 13.49 21.07 12.86 20.64C10.55 18.99 10.04 16.15 11.52 13.71C11.76 13.31 11.91 12.99 11.78 12.51C10.57 8.19 13.01 3.16 18.23 1.1C21.25 -0.07 24.49 -0.51 27.71 -0.2C29.64 -0.04 31.23 0.72 31.98 2.71C32.33 3.55 32.95 4.26 33.74 4.73C36.86 6.77 37.43 8.47 36.31 12.03C36.18 12.44 36.03 12.76 36.37 13.22C38.2 15.74 37.66 19.03 35.11 20.86C34.68 21.16 34.38 21.59 34.25 22.09C33.61 24.41 32.28 26.49 30.44 28.05C29.66 28.72 29.6 31.05 30.3 31.78C30.65 32.15 30.89 31.83 31.03 31.63C32.49 29.64 34.51 29.91 36.48 30.32C41.96 31.51 45.85 34.61 47.53 40.07C49.21 45.58 49.35 51.29 49.4 56.98C49.4 58.16 48.68 58.29 47.75 58.29C39.01 58.28 30.27 58.28 21.53 58.29C14.96 58.29 8.39 58.29 1.83 58.29C0.11 58.29 -0.02 58.16 0 56.41C0.04 51.53 0.3 46.67 1.35 41.89C2.87 34.95 8.14 30.41 14.92 30.09C16.25 30.02 16.25 30.02 17.96 31.14C18.66 29.52 18.52 28.77 17.28 27.63ZM37.77 56.4C38.82 56.4 39.11 56.11 39.08 55.09C39.01 52.31 39.05 49.53 39.06 46.74C39.06 46.22 39.02 45.68 39.58 45.37C40.31 44.97 40.95 45.5 40.96 46.61C40.99 49.52 40.99 52.43 40.96 55.35C40.96 56.13 41.18 56.43 41.99 56.39C43.51 56.33 45.04 56.36 46.56 56.39C47.13 56.39 47.46 56.26 47.44 55.61C47.27 50.35 47.19 45.07 45.45 40.03C44.11 36.16 41.27 33.84 37.47 32.56C36.72 32.3 36.3 32.45 35.9 33.17C34.32 35.91 32.67 38.63 31.02 41.34C30.66 41.92 30.47 42.59 30.48 43.28C30.5 46.54 30.5 49.8 30.48 53.06C30.48 54.6 30.26 54.81 28.76 54.82C25.93 54.82 23.11 54.82 20.28 54.82C18.61 54.82 18.46 54.67 18.45 53.05C18.45 49.92 18.43 46.79 18.45 43.66C18.48 42.79 18.25 41.94 17.79 41.21C16.19 38.62 14.6 36.02 13.11 33.38C12.59 32.46 12.07 32.43 11.22 32.76C7.12 34.41 4.43 37.3 3.4 41.66C2.33 46.18 2.08 50.77 1.91 55.38C1.88 56.22 2.22 56.41 2.98 56.38C4.67 56.34 6.37 56.33 8.06 56.38C8.9 56.41 9.19 56.17 9.18 55.29C9.13 52.47 9.16 49.64 9.15 46.81C9.15 46.08 9.2 45.29 10.12 45.26C11.04 45.24 11.11 46.04 11.12 46.78C11.12 49.51 11.16 52.25 11.1 54.99C11.07 56.05 11.36 56.41 12.46 56.4C16.68 56.32 20.9 56.37 25.12 56.37C29.34 56.37 33.56 56.34 37.77 56.4ZM25.09 28.34C29.34 27.66 31.45 24.78 32.57 20.95C32.8 20.19 33.1 19.69 33.85 19.3C35.89 18.25 36.07 15.39 34.24 14.13C33.81 13.84 33.63 13.41 33.41 12.99C32.65 11.47 31.67 10.08 30.51 8.84C30.23 8.53 29.9 7.98 29.34 8.51C28.14 9.67 26.65 9.76 25.09 9.74C22.53 9.71 19.96 9.69 17.43 10.14C15.79 10.44 14.49 11.21 14.25 13.09C14.17 13.51 13.95 13.9 13.63 14.2C12 15.98 12.4 18.28 14.55 19.39C15.32 19.78 15.57 20.31 15.73 21.09C16.6 25.37 20.14 28.41 24.35 28.41C24.48 28.41 24.79 28.39 25.09 28.34ZM20.1 7.9C21.96 7.82 23.83 7.84 25.69 7.83C26.64 7.83 27.5 7.64 28.19 6.93C29.35 5.73 29.69 5.71 31 6.69C32.2 7.6 33.05 8.8 33.91 10C34.11 10.29 34.17 10.75 34.65 10.79C35.23 8.9 35.02 7.98 33.36 6.85C31.89 5.85 30.65 4.72 29.97 3.03C29.68 2.31 29.02 1.99 28.33 1.89C23.99 1.32 19.83 1.8 16.24 4.56C14.61 5.82 13.64 7.54 13.48 10.07C15.56 8.17 17.83 7.98 20.1 7.9ZM32.72 32.75C30.6 34.61 28.49 36.49 26.39 38.39C24.46 40.15 24.48 40.15 22.54 38.32C20.55 36.44 18.55 34.57 16.56 32.69C16.07 32.22 15.58 31.81 14.81 32.23C14.85 32.39 14.91 32.55 14.98 32.7C16.51 35.28 18.07 37.84 19.59 40.42C19.91 40.98 20.35 41.04 20.89 41.04C22.63 41.04 24.39 40.86 26.11 41.08C28.29 41.36 29.5 40.5 30.46 38.61C31.55 36.41 32.92 34.36 34.18 32.22C33.38 31.9 33.08 32.44 32.72 32.75ZM20.35 51.98C20.33 52.65 20.56 52.91 21.24 52.9C23.33 52.88 25.42 52.87 27.49 52.9C28.3 52.92 28.53 52.59 28.53 51.83C28.5 49.22 28.5 46.61 28.53 44.02C28.53 43.22 28.27 42.96 27.49 42.97C25.45 43.01 23.41 43.02 21.37 42.97C20.54 42.96 20.34 43.29 20.37 44.05C20.41 45.35 20.37 46.65 20.37 47.95L20.35 47.95C20.35 49.3 20.38 50.64 20.35 51.98ZM27.94 30.54C27.88 29.74 27.58 29.76 26.95 29.95C25.41 30.42 23.77 30.49 22.19 30.16C20.44 29.81 20.44 29.81 20 31.56C19.84 32.19 19.39 32.8 20.14 33.44C21.43 34.54 22.64 35.73 23.85 36.9C24.26 37.3 24.58 37.4 25.05 36.97C26.13 35.96 27.25 35.01 28.35 34.02C28.6 33.83 28.88 33.65 28.74 33.15L28.73 33.15C28.32 32.33 28.05 31.45 27.94 30.54Z" stroke="#FA8B02" stroke-opacity="1.000000" stroke-width="0.200000"/>
	<path id="Vector" d="M42.93 15.69L42.93 2.66C42.93 2.53 42.93 2.4 42.93 2.27C42.96 1.59 43.15 1.02 43.96 1.05C44.68 1.08 44.97 1.62 44.86 2.23C44.62 3.62 45.41 4.32 46.41 5.07C50.64 8.26 54.82 11.52 59.01 14.76C59.51 15.15 60.21 15.5 59.93 16.3C59.66 17.11 58.92 16.99 58.27 16.99L47.98 16.99C44.89 16.99 44.89 16.99 44.89 20.14C44.89 23.01 44.89 25.88 44.89 28.75C44.89 29.46 44.94 30.29 43.97 30.31C42.9 30.35 42.93 29.47 42.93 28.72C42.93 24.38 42.93 20.03 42.93 15.69ZM55.79 14.73C52.37 12.1 49 9.49 45.59 6.89C44.93 6.36 44.9 6.89 44.9 7.37C44.9 9.54 44.94 11.71 44.88 13.89C44.86 14.83 45.23 15.06 46.1 15.05C48.97 15.01 51.84 15.05 54.71 15.03C55.03 15.03 55.4 15.15 55.79 14.73Z" fill="#FA8B02" fill-opacity="1.000000" fill-rule="nonzero"/>
	<path id="Vector" d="M42.93 2.66C42.93 2.53 42.93 2.4 42.93 2.27C42.96 1.59 43.15 1.02 43.96 1.05C44.68 1.08 44.97 1.62 44.86 2.23C44.62 3.62 45.41 4.32 46.41 5.07C50.64 8.26 54.82 11.52 59.01 14.76C59.51 15.15 60.21 15.5 59.93 16.3C59.66 17.11 58.92 16.99 58.27 16.99L47.98 16.99C44.89 16.99 44.89 16.99 44.89 20.14C44.89 23.01 44.89 25.88 44.89 28.75C44.89 29.46 44.94 30.29 43.97 30.31C42.9 30.35 42.93 29.47 42.93 28.72C42.93 24.38 42.93 20.03 42.93 15.69L42.93 2.66ZM45.59 6.89C44.93 6.36 44.9 6.89 44.9 7.37C44.9 9.54 44.94 11.71 44.88 13.89C44.86 14.83 45.23 15.06 46.1 15.05C48.97 15.01 51.84 15.05 54.71 15.03C55.03 15.03 55.4 15.15 55.79 14.73C52.37 12.1 49 9.49 45.59 6.89Z" stroke="#FA8B02" stroke-opacity="1.000000" stroke-width="0.200000"/>
	<path id="Vector" d="M24.5 44.11C25.07 44.11 25.63 44.09 26.2 44.11C26.32 44.11 26.44 44.13 26.55 44.17C26.66 44.22 26.77 44.28 26.86 44.36C26.94 44.45 27.01 44.55 27.06 44.66C27.11 44.77 27.13 44.89 27.13 45.01C27.15 45.13 27.14 45.26 27.1 45.37C27.07 45.49 27.01 45.6 26.93 45.69C26.85 45.78 26.75 45.86 26.64 45.91C26.53 45.96 26.41 45.98 26.29 45.98C25.07 46.03 23.86 46.02 22.63 45.98C22.51 45.99 22.39 45.96 22.28 45.91C22.17 45.87 22.07 45.8 21.98 45.71C21.9 45.62 21.84 45.51 21.8 45.39C21.76 45.28 21.75 45.16 21.76 45.04C21.76 44.91 21.78 44.79 21.82 44.68C21.86 44.57 21.93 44.46 22.02 44.38C22.1 44.29 22.2 44.22 22.32 44.18C22.43 44.13 22.55 44.11 22.67 44.11C23.28 44.09 23.89 44.12 24.5 44.11Z" fill="#FA8B02" fill-opacity="1.000000" fill-rule="nonzero"/>
	<path id="Vector" d="M26.2 44.11C26.32 44.11 26.44 44.13 26.55 44.17C26.66 44.22 26.77 44.28 26.86 44.36C26.94 44.45 27.01 44.55 27.06 44.66C27.11 44.77 27.13 44.89 27.13 45.01C27.15 45.13 27.14 45.26 27.1 45.37C27.07 45.49 27.01 45.6 26.93 45.69C26.85 45.78 26.75 45.86 26.64 45.91C26.53 45.96 26.41 45.98 26.29 45.98C25.07 46.03 23.86 46.02 22.63 45.98C22.51 45.99 22.39 45.96 22.28 45.91C22.17 45.87 22.07 45.8 21.98 45.71C21.9 45.62 21.84 45.51 21.8 45.39C21.76 45.28 21.75 45.16 21.76 45.04C21.76 44.91 21.78 44.79 21.82 44.68C21.86 44.57 21.93 44.46 22.02 44.38C22.1 44.29 22.2 44.22 22.32 44.18C22.43 44.13 22.55 44.11 22.67 44.11C23.28 44.09 23.89 44.12 24.5 44.11C25.07 44.11 25.63 44.09 26.2 44.11Z" stroke="#FA8B02" stroke-opacity="1.000000" stroke-width="0.200000"/>
	<path id="Vector" d="M24.5 48.86C23.89 48.86 23.28 48.88 22.67 48.86C22.55 48.86 22.43 48.84 22.32 48.8C22.2 48.75 22.1 48.68 22.02 48.6C21.93 48.51 21.87 48.41 21.82 48.29C21.78 48.18 21.76 48.06 21.77 47.94C21.75 47.82 21.77 47.7 21.81 47.58C21.84 47.46 21.91 47.36 21.99 47.27C22.07 47.18 22.17 47.11 22.28 47.06C22.4 47.01 22.52 46.99 22.64 46.99C23.81 46.96 24.98 46.96 26.16 46.99C26.76 47.01 27.15 47.35 27.12 47.98C27.1 48.54 26.73 48.84 26.19 48.87C25.64 48.9 25.06 48.86 24.5 48.86Z" fill="#FA8B02" fill-opacity="1.000000" fill-rule="nonzero"/>
	<path id="Vector" d="M22.67 48.86C22.55 48.86 22.43 48.84 22.32 48.8C22.2 48.75 22.1 48.68 22.02 48.6C21.93 48.51 21.87 48.41 21.82 48.29C21.78 48.18 21.76 48.06 21.77 47.94C21.75 47.82 21.77 47.7 21.81 47.58C21.84 47.46 21.91 47.36 21.99 47.27C22.07 47.18 22.17 47.11 22.28 47.06C22.4 47.01 22.52 46.99 22.64 46.99C23.81 46.96 24.98 46.96 26.16 46.99C26.76 47.01 27.15 47.35 27.12 47.98C27.1 48.54 26.73 48.84 26.19 48.87C25.64 48.9 25.06 48.86 24.5 48.86C23.89 48.86 23.28 48.88 22.67 48.86Z" stroke="#FA8B02" stroke-opacity="1.000000" stroke-width="0.200000"/>
	<path id="Vector" d="M24.4 51.72C23.84 51.72 23.28 51.72 22.71 51.72C22.59 51.73 22.47 51.71 22.36 51.67C22.24 51.63 22.14 51.56 22.05 51.48C21.96 51.4 21.89 51.3 21.85 51.19C21.8 51.08 21.78 50.96 21.78 50.84C21.76 50.72 21.77 50.59 21.8 50.48C21.83 50.36 21.89 50.25 21.97 50.16C22.05 50.07 22.15 50 22.26 49.95C22.37 49.9 22.49 49.87 22.61 49.87C23.82 49.84 25.04 49.84 26.25 49.87C26.37 49.87 26.49 49.89 26.61 49.94C26.72 49.98 26.82 50.05 26.9 50.14C26.99 50.23 27.05 50.33 27.09 50.45C27.13 50.56 27.14 50.68 27.13 50.8C27.13 50.92 27.11 51.04 27.07 51.16C27.03 51.27 26.96 51.37 26.87 51.46C26.79 51.54 26.69 51.61 26.58 51.65C26.46 51.7 26.34 51.72 26.22 51.71C25.62 51.74 25.01 51.71 24.4 51.71L24.4 51.72Z" fill="#FA8B02" fill-opacity="1.000000" fill-rule="nonzero"/>
	<path id="Vector" d="M22.71 51.72C22.59 51.73 22.47 51.71 22.36 51.67C22.24 51.63 22.14 51.56 22.05 51.48C21.96 51.4 21.89 51.3 21.85 51.19C21.8 51.08 21.78 50.96 21.78 50.84C21.76 50.72 21.77 50.59 21.8 50.48C21.83 50.36 21.89 50.25 21.97 50.16C22.05 50.07 22.15 50 22.26 49.95C22.37 49.9 22.49 49.87 22.61 49.87C23.82 49.84 25.04 49.84 26.25 49.87C26.37 49.87 26.49 49.89 26.61 49.94C26.72 49.98 26.82 50.05 26.9 50.14C26.99 50.23 27.05 50.33 27.09 50.45C27.13 50.56 27.14 50.68 27.13 50.8C27.13 50.92 27.11 51.04 27.07 51.16C27.03 51.27 26.96 51.37 26.87 51.46C26.79 51.54 26.69 51.61 26.58 51.65C26.46 51.7 26.34 51.72 26.22 51.71C25.62 51.74 25.01 51.71 24.4 51.71L24.4 51.72C23.84 51.72 23.28 51.72 22.71 51.72Z" stroke="#FA8B02" stroke-opacity="1.000000" stroke-width="0.200000"/>
</svg>
