<svg width="48.000000" height="61.000000" viewBox="0 0 48 61" fill="none" xmlns="http://www.w3.org/2000/svg" xmlns:xlink="http://www.w3.org/1999/xlink">
	<desc>
			Created with Pixso.
	</desc>
	<defs/>
	<path id="Vector" d="M33.83 58.05C34.66 56.83 35.43 55.79 36.11 54.7C36.34 54.28 36.68 53.93 37.11 53.71C37.53 53.48 38.01 53.38 38.49 53.43C39.44 53.47 40.4 53.36 41.36 53.41C42.52 53.48 42.46 53.04 41.97 52.24C41.43 51.35 40.97 50.42 40.47 49.5C40.16 48.93 40.1 48.38 40.75 48.05C41.35 47.74 41.73 48.16 42 48.65C42.73 49.98 43.49 51.31 44.16 52.67C44.76 53.89 44.12 54.93 42.73 55.04C41.65 55.17 40.56 55.21 39.48 55.16C38.27 55.06 37.54 55.56 36.97 56.56C36.55 57.31 36.02 58.01 35.53 58.72C34.31 60.45 33.08 60.39 32.08 58.55C30.18 55.08 28.28 51.61 26.44 48.12C25.98 47.25 25.59 46.7 24.5 47.24C24.18 47.39 23.83 47.47 23.48 47.47C23.13 47.46 22.78 47.38 22.46 47.23C21.44 46.72 21.06 47.2 20.62 48.05C18.79 51.51 16.91 54.94 15.05 58.37C13.92 60.46 12.5 60.63 11.45 58.54C10.04 55.77 8.02 54.82 5.01 55.03C2.63 55.2 2.09 54.05 3.24 51.93C4.98 48.72 6.72 45.51 8.46 42.3C9.25 40.83 9.03 39.78 7.61 38.79C6.88 38.32 6.11 37.91 5.32 37.55C3.27 36.56 2.12 34.97 2.41 32.66C2.72 30.27 2.12 28.24 0.68 26.33C-0.6 24.61 -0.59 22.71 0.71 21C1.41 20.11 1.92 19.1 2.21 18.01C2.51 16.92 2.57 15.78 2.41 14.66C2.14 12.42 3.2 10.77 5.26 9.88C7.27 9.02 8.75 7.72 9.59 5.65C10.54 3.3 12.41 2.27 14.9 2.62C15.87 2.77 16.85 2.71 17.8 2.46C18.74 2.2 19.62 1.75 20.38 1.14C22.43 -0.43 24.58 -0.43 26.62 1.14C27.4 1.76 28.31 2.21 29.27 2.47C30.24 2.72 31.25 2.77 32.23 2.61C34.61 2.3 36.43 3.28 37.35 5.53C38.22 7.64 39.67 9.01 41.75 9.88C43.82 10.76 44.88 12.42 44.59 14.66C44.43 15.78 44.5 16.91 44.8 18C45.09 19.09 45.6 20.11 46.3 21C47.63 22.77 47.58 24.69 46.26 26.44C44.87 28.27 44.29 30.23 44.59 32.53C44.91 34.94 43.73 36.59 41.57 37.62C40.37 38.2 39.09 38.67 38.35 39.94C37.96 40.61 37.86 41.16 38.29 41.85C38.84 42.73 39.3 43.68 39.79 44.6C40.09 45.16 40.15 45.73 39.49 46.04C38.89 46.33 38.52 45.92 38.24 45.42C38.16 45.27 38.08 45.11 37.98 44.96C37.64 44.36 37.42 43.51 36.9 43.23C36.3 42.92 35.99 43.92 35.44 44.21C34.14 44.92 32.75 44.82 31.36 44.73C30.13 44.66 28.93 44.67 27.85 45.41C27.46 45.67 27.15 45.88 27.46 46.43C29.57 50.24 31.64 54.05 33.83 58.05ZM15.66 4.42C13.05 3.76 11.58 4.96 10.7 7.29C9.98 9.2 8.49 10.37 6.65 11.11C4.74 11.87 3.86 13.18 4.18 15.28C4.36 16.35 4.31 17.45 4.02 18.5C3.74 19.55 3.23 20.52 2.53 21.35C1.28 22.88 1.27 24.45 2.51 25.98C3.22 26.81 3.74 27.78 4.02 28.84C4.31 29.89 4.37 30.99 4.19 32.07C3.88 34.15 4.68 35.48 6.64 36.24C7.63 36.59 8.52 37.16 9.27 37.9C10.01 38.64 10.58 39.54 10.93 40.52C11.66 42.48 13.02 43.31 15.11 42.99C16.16 42.81 17.24 42.85 18.27 43.13C19.31 43.41 20.27 43.9 21.08 44.59C22.69 45.89 24.32 45.92 25.94 44.6C26.76 43.92 27.72 43.41 28.75 43.13C29.78 42.86 30.86 42.81 31.91 42.99C33.97 43.3 35.35 42.51 36.09 40.54C36.44 39.56 37.01 38.66 37.75 37.92C38.49 37.17 39.38 36.61 40.37 36.25C42.31 35.5 43.15 34.18 42.84 32.1C42.66 31.02 42.71 29.92 43 28.87C43.29 27.81 43.8 26.84 44.51 26C45.75 24.49 45.77 22.91 44.51 21.38C43.8 20.55 43.28 19.57 42.99 18.52C42.7 17.47 42.65 16.37 42.83 15.29C43.15 13.2 42.31 11.86 40.38 11.12C39.38 10.75 38.47 10.16 37.71 9.4C36.96 8.64 36.39 7.72 36.02 6.72C35.33 4.89 34.04 4.07 32.06 4.37C29.75 4.69 27.64 4.19 25.82 2.7C24.22 1.4 22.69 1.51 21.09 2.75C19.49 4 17.73 4.73 15.66 4.42ZM13.19 58.04C15.37 54.07 17.42 50.29 19.49 46.54C19.8 45.97 19.61 45.72 19.14 45.4C17.83 44.52 16.4 44.7 14.96 44.77C13.37 44.85 11.81 44.77 10.68 43.42C10.21 42.86 9.99 43.16 9.75 43.59C8.11 46.61 6.48 49.62 4.84 52.62C4.54 53.19 4.67 53.41 5.31 53.41C6.39 53.41 7.48 53.48 8.56 53.44C9.65 53.4 10.36 53.84 10.91 54.74C11.58 55.79 12.33 56.8 13.19 58.04Z" fill="#FA8B02" fill-opacity="1.000000" fill-rule="nonzero"/>
	<path id="Vector" d="M23.67 5.5C28.44 5.56 33 7.5 36.36 10.9C39.71 14.29 41.6 18.87 41.61 23.65C41.63 28.42 39.76 33.01 36.42 36.42C33.09 39.84 28.54 41.8 23.77 41.89C10.46 42.13 1.33 28 7.02 15.99C7.17 15.67 7.32 15.36 7.5 15.06C7.84 14.47 8.16 13.65 9.04 14.16C9.84 14.62 9.34 15.28 9.04 15.86C6.75 20.36 6.4 24.99 8.24 29.72C10.85 36.47 17.89 40.77 25.14 40.04C32.38 39.32 38.44 33.7 39.67 26.59C40.9 19.42 37.54 12.59 31.06 9.11C25.1 5.89 17.42 6.94 12.28 11.69C12.06 11.9 11.83 12.11 11.59 12.29C11.42 12.41 11.22 12.47 11.01 12.45C10.8 12.43 10.61 12.33 10.47 12.18C10.33 12.03 10.25 11.83 10.25 11.62C10.24 11.41 10.32 11.21 10.45 11.05C10.96 10.52 11.5 10.01 12.07 9.55C15.47 6.8 19.34 5.49 23.67 5.5Z" fill="#FA8B02" fill-opacity="1.000000" fill-rule="nonzero"/>
	<path id="Vector" d="M14.88 33.4C15.15 31.72 15.42 29.91 15.75 28.12C15.83 27.83 15.82 27.52 15.73 27.24C15.64 26.95 15.47 26.7 15.23 26.51C14.05 25.42 12.92 24.27 11.76 23.16C11.01 22.45 10.6 21.64 10.96 20.59C11.3 19.6 12.1 19.26 13.08 19.13C14.58 18.93 16.08 18.64 17.59 18.49C18.46 18.39 19 18.06 19.37 17.24C20.02 15.77 20.77 14.35 21.48 12.9C21.9 12.05 22.56 11.51 23.51 11.51C24.47 11.51 25.13 12.05 25.54 12.91C26.25 14.35 27.01 15.77 27.66 17.24C28.02 18.07 28.57 18.39 29.44 18.48C31.03 18.66 32.62 18.95 34.21 19.18C35.1 19.3 35.77 19.73 36.07 20.6C36.39 21.52 36.12 22.31 35.44 22.97C34.23 24.16 33.03 25.36 31.79 26.51C31.56 26.7 31.38 26.96 31.29 27.24C31.2 27.53 31.19 27.83 31.27 28.12C31.57 29.66 31.79 31.21 32.05 32.75C32.24 33.79 32.21 34.77 31.27 35.45C30.37 36.08 29.46 35.86 28.57 35.38C27.15 34.62 25.71 33.9 24.31 33.12C24.07 32.97 23.8 32.89 23.53 32.89C23.25 32.89 22.98 32.97 22.74 33.12C21.22 33.95 19.7 34.79 18.13 35.54C16.39 36.35 14.83 35.34 14.88 33.4ZM16.7 33.12C16.53 34.13 16.96 34.17 17.71 33.77C19.17 32.98 20.65 32.26 22.09 31.46C22.52 31.19 23.01 31.05 23.51 31.05C24.01 31.05 24.51 31.19 24.93 31.46C26.26 32.19 27.61 32.89 28.97 33.58C29.34 33.77 29.75 34.21 30.15 33.93C30.6 33.62 30.3 33.04 30.23 32.59C30 31.09 29.75 29.59 29.44 28.1C29.33 27.63 29.35 27.14 29.5 26.69C29.65 26.23 29.92 25.83 30.28 25.52C31.52 24.36 32.72 23.17 33.93 21.97C34.15 21.76 34.46 21.54 34.33 21.2C34.2 20.87 33.86 20.87 33.55 20.83C31.92 20.59 30.29 20.29 28.65 20.11C27.48 19.98 26.76 19.42 26.28 18.37C25.59 16.87 24.83 15.4 24.09 13.93C23.96 13.67 23.88 13.32 23.49 13.33C23.11 13.33 23.04 13.68 22.91 13.94C22.13 15.51 21.36 17.06 20.6 18.62C20.43 19.02 20.15 19.37 19.8 19.62C19.45 19.88 19.03 20.04 18.6 20.08C16.93 20.31 15.26 20.57 13.58 20.83C13.24 20.88 12.81 20.83 12.69 21.22C12.56 21.62 12.95 21.84 13.18 22.07C14.26 23.14 15.32 24.24 16.45 25.25C17.43 26.12 17.81 27.08 17.53 28.38C17.19 29.94 16.97 31.54 16.7 33.12Z" fill="#FA8B02" fill-opacity="1.000000" fill-rule="nonzero"/>
</svg>
