<svg width="58.000000" height="57.000000" viewBox="0 0 58 57" fill="none" xmlns="http://www.w3.org/2000/svg" xmlns:xlink="http://www.w3.org/1999/xlink">
	<desc>
			Created with Pixso.
	</desc>
	<defs/>
	<path id="Vector" d="M-0.25 42.68C-0.25 39.55 -0.25 36.42 -0.25 33.29C-0.25 30.84 0.65 29.93 3.05 29.93C6.22 29.93 9.4 29.96 12.57 29.92C14.05 29.9 15.21 30.3 15.72 31.8C15.97 32.54 16.37 32.11 16.68 31.95C19.59 30.43 20.97 27.87 21.51 24.75C21.8 23.05 21.76 21.34 21.8 19.63C21.83 18.46 21.8 17.16 23.18 16.68C24.49 16.22 25.53 16.95 26.41 17.83C27.61 19.03 28.18 20.58 28.43 22.2C28.93 25.47 28.8 28.71 27.25 31.71C26.85 32.5 26.95 32.69 27.84 32.69C31.76 32.65 35.68 32.71 39.61 32.65C41.14 32.63 42.36 33.04 42.98 34.49C43.56 35.87 43.25 37.13 42.07 38.09C41.68 38.42 41.78 38.63 41.98 39.02C42.93 40.86 42.65 42.02 40.93 43.32C40.56 43.6 40.49 43.75 40.67 44.21C41.48 46.28 41.06 47.4 39.07 48.53C38.62 48.78 38.64 48.97 38.78 49.4C39.61 52.02 38.15 53.98 35.41 53.99C29.81 53.99 24.22 53.98 18.62 54C17.75 54 16.99 53.48 16.23 53.47C15.4 53.47 15.49 54.8 14.7 55.18C14.14 55.46 13.52 55.61 12.89 55.61C9.51 55.61 6.13 55.61 2.75 55.61C0.75 55.6 -0.23 54.6 -0.25 52.57C-0.25 49.28 -0.25 45.98 -0.25 42.68ZM27.01 52.87C29.85 52.87 32.68 52.89 35.53 52.87C36.93 52.87 37.94 51.94 37.97 50.73C38 49.52 37.11 48.8 35.58 48.79C33.58 48.78 31.57 48.79 29.57 48.76C29.09 48.76 28.4 48.92 28.39 48.2C28.38 47.49 29.06 47.6 29.54 47.6C32.25 47.6 34.97 47.6 37.68 47.58C39.14 47.58 39.95 46.86 39.93 45.65C39.91 44.5 39.12 43.8 37.74 43.79C36.15 43.76 34.57 43.79 32.98 43.79C32.51 43.79 31.82 43.94 31.84 43.2C31.86 42.49 32.55 42.63 33.03 42.63C34.99 42.62 36.95 42.63 38.91 42.63C40.54 42.63 41.3 42.03 41.31 40.75C41.33 39.48 40.55 38.82 38.98 38.79C38.35 38.79 37.73 38.79 37.1 38.79L33.34 38.79C32.94 38.79 32.56 38.7 32.59 38.19C32.62 37.75 33 37.72 33.34 37.7C33.63 37.69 33.93 37.7 34.22 37.7C36.18 37.7 38.14 37.7 40.1 37.69C40.91 37.69 41.59 37.4 41.92 36.61C42.09 36.27 42.15 35.89 42.11 35.51C42.06 35.14 41.91 34.78 41.67 34.49C41.14 33.81 40.38 33.82 39.62 33.82C35.15 33.82 30.69 33.82 26.22 33.82C25.86 33.82 25.44 33.91 25.2 33.51C24.97 33.12 25.28 32.8 25.49 32.51C27.85 29.19 27.86 25.48 27.19 21.7C26.96 20.32 26.21 19.08 25.09 18.25C24.65 17.92 24.15 17.61 23.59 17.83C22.96 18.08 23.02 18.7 22.99 19.23C22.9 20.94 22.94 22.66 22.74 24.35C22.28 28.39 20.43 31.55 16.62 33.3C15.87 33.65 15.87 34.19 15.87 34.82C15.87 40.04 15.87 45.25 15.87 50.47C15.87 51.99 16.49 52.71 18 52.91C18.29 52.93 18.58 52.94 18.87 52.93L27.01 52.87ZM14.68 42.76C14.68 39.59 14.68 36.41 14.68 33.24C14.68 31.51 14.27 31.06 12.59 31.04C11.58 31.04 10.58 31.11 9.58 31.02C8.58 30.94 8.4 31.36 8.42 32.25C8.47 35.42 8.44 38.59 8.43 41.77C8.44 42.1 8.43 42.44 8.39 42.77C8.39 42.9 8.34 43.02 8.25 43.11C8.16 43.2 8.04 43.26 7.92 43.27C7.84 43.28 7.77 43.28 7.7 43.26C7.62 43.24 7.56 43.2 7.5 43.15C7.45 43.1 7.4 43.04 7.37 42.97C7.35 42.9 7.33 42.83 7.33 42.76C7.3 42.42 7.29 42.09 7.29 41.75C7.29 38.54 7.27 35.33 7.31 32.12C7.31 31.3 7.04 31.01 6.22 31.04C5.1 31.1 3.97 31.04 2.85 31.06C1.36 31.09 0.91 31.54 0.9 33.03C0.89 39.54 0.89 46.04 0.9 52.54C0.9 54.01 1.4 54.5 2.86 54.5C6.11 54.52 9.36 54.52 12.62 54.5C14.22 54.5 14.69 54 14.69 52.39C14.69 49.18 14.68 45.97 14.68 42.76Z" fill="#FA8B02" fill-opacity="1.000000" fill-rule="nonzero"/>
	<path id="Vector" d="M0.14 30.34Q-0.75 31.25 -0.75 33.29L-0.75 42.68L-0.75 52.58Q-0.73 54.36 0.17 55.25Q1.04 56.1 2.75 56.11L12.9 56.11Q13.47 56.11 14.01 55.97Q14.47 55.85 14.91 55.63Q15.44 55.38 15.86 54.48Q16.1 53.97 16.22 53.97Q16.51 53.97 17.18 54.2Q18.09 54.5 18.63 54.5L19.64 54.5L35.41 54.49Q37.13 54.49 38.19 53.64Q38.55 53.36 38.84 52.97Q39.13 52.57 39.3 52.13Q39.77 50.88 39.26 49.25Q39.21 49.09 39.26 49.01Q39.28 48.99 39.31 48.97Q40.9 48.07 41.33 46.77Q41.74 45.57 41.14 44.02Q41.1 43.94 41.12 43.87Q41.14 43.79 41.23 43.72Q42.63 42.66 42.9 41.37Q43.14 40.18 42.42 38.79Q42.31 38.57 42.38 38.49Q42.38 38.48 42.39 38.48Q43.46 37.61 43.71 36.54Q43.96 35.51 43.44 34.3Q43.12 33.55 42.57 33.06Q41.51 32.12 39.6 32.15Q37.42 32.18 33.05 32.18Q29.57 32.17 27.83 32.19Q27.69 32.19 27.58 32.18Q27.62 32.08 27.69 31.94Q29.8 27.86 28.92 22.12Q28.46 19.17 26.76 17.47Q25.28 16 23.85 16.05Q23.43 16.06 23.01 16.21Q22.68 16.32 22.41 16.53Q21.35 17.33 21.3 19.48Q21.3 19.57 21.3 19.62Q21.29 19.95 21.28 20.62Q21.24 23.33 21.01 24.66Q20.42 28.12 18.39 30.11Q17.55 30.93 16.45 31.51Q16.38 31.54 16.25 31.62L16.12 31.72L16.2 31.64Q15.91 30.8 15.33 30.28Q14.36 29.39 12.56 29.42Q10.27 29.44 5.69 29.43Q3.93 29.43 3.05 29.43Q1.04 29.43 0.14 30.34ZM-0.25 52.57L-0.25 33.29C-0.25 30.84 0.65 29.93 3.05 29.93C3.93 29.93 4.81 29.93 5.69 29.93C7.98 29.94 10.28 29.94 12.57 29.92C14.05 29.9 15.21 30.3 15.72 31.8C15.93 32.42 16.24 32.22 16.52 32.05C16.58 32.01 16.63 31.98 16.68 31.95C19.59 30.43 20.97 27.87 21.51 24.75C21.8 23.05 21.76 21.34 21.8 19.63C21.83 18.46 21.8 17.16 23.18 16.68C24.49 16.22 25.53 16.95 26.41 17.83C27.61 19.03 28.18 20.58 28.43 22.2C28.93 25.47 28.8 28.71 27.25 31.71C26.85 32.5 26.95 32.69 27.84 32.69C29.57 32.67 31.31 32.67 33.05 32.68L33.05 32.68C35.24 32.68 37.42 32.68 39.61 32.65C41.14 32.63 42.36 33.04 42.98 34.49C43.56 35.87 43.25 37.13 42.07 38.09C41.68 38.42 41.78 38.63 41.98 39.02C42.93 40.86 42.65 42.02 40.93 43.32C40.56 43.6 40.49 43.75 40.67 44.21C41.48 46.28 41.06 47.4 39.07 48.53C38.62 48.78 38.64 48.97 38.78 49.4C39.61 52.02 38.15 53.98 35.41 53.99C34.07 53.99 32.74 53.99 31.41 53.99C27.15 53.99 22.89 53.98 18.62 54C17.75 54 16.99 53.48 16.23 53.47C15.4 53.47 15.49 54.8 14.7 55.18C14.14 55.46 13.52 55.61 12.89 55.61L2.75 55.61C0.75 55.6 -0.23 54.6 -0.25 52.57ZM18.87 52.93L27.01 52.87C27.96 52.87 28.9 52.87 29.85 52.88C31.74 52.88 33.63 52.88 35.53 52.87C36.93 52.87 37.94 51.94 37.97 50.73C38 49.52 37.11 48.8 35.58 48.79C33.58 48.78 31.57 48.79 29.57 48.76C29.5 48.76 29.43 48.77 29.35 48.77C28.91 48.79 28.4 48.81 28.39 48.2C28.38 47.58 28.9 47.59 29.36 47.6C29.42 47.6 29.49 47.6 29.54 47.6C32.25 47.6 34.97 47.6 37.68 47.58C39.14 47.58 39.95 46.86 39.93 45.65C39.91 44.5 39.12 43.8 37.74 43.79C36.68 43.77 35.63 43.78 34.57 43.78L34.57 43.78C34.04 43.78 33.51 43.79 32.98 43.79C32.91 43.79 32.84 43.79 32.77 43.79C32.33 43.81 31.82 43.83 31.84 43.2C31.86 42.59 32.36 42.61 32.81 42.62L32.81 42.62C32.88 42.63 32.96 42.63 33.03 42.63C34.33 42.62 35.64 42.62 36.95 42.63C37.6 42.63 38.26 42.63 38.91 42.63C40.54 42.63 41.3 42.03 41.31 40.75C41.33 39.48 40.55 38.82 38.98 38.79L33.34 38.79C32.94 38.79 32.56 38.7 32.59 38.19C32.62 37.75 33 37.72 33.34 37.7C33.54 37.7 33.73 37.7 33.93 37.7L33.93 37.7C34.02 37.7 34.12 37.7 34.22 37.7L34.22 37.7C36.18 37.7 38.14 37.7 40.1 37.69C40.91 37.69 41.59 37.4 41.92 36.61C42.09 36.27 42.15 35.89 42.11 35.51C42.06 35.14 41.91 34.78 41.67 34.49C41.15 33.82 40.4 33.82 39.66 33.82L39.62 33.82L26.22 33.82C26.17 33.82 26.11 33.82 26.05 33.82C25.73 33.84 25.4 33.85 25.2 33.51C25 33.16 25.21 32.88 25.41 32.61C25.44 32.58 25.46 32.54 25.49 32.51C27.85 29.19 27.86 25.48 27.19 21.7C26.96 20.32 26.21 19.08 25.09 18.25C24.65 17.92 24.15 17.61 23.59 17.83C23.03 18.05 23.02 18.56 23 19.04C23 19.1 23 19.17 22.99 19.23C22.9 20.94 22.94 22.66 22.74 24.35C22.28 28.39 20.43 31.55 16.62 33.3C15.87 33.65 15.87 34.19 15.87 34.82L15.87 50.47C15.87 51.99 16.49 52.71 18 52.91C18.29 52.93 18.58 52.94 18.87 52.93ZM18.05 52.41Q18.25 52.43 18.45 52.43Q18.65 52.44 18.85 52.43L18.86 52.43L27.01 52.37L35.53 52.37Q36.61 52.37 37.09 51.83Q37.45 51.43 37.47 50.72Q37.48 50.27 37.28 49.96Q37.19 49.81 37.05 49.7Q36.55 49.3 35.58 49.29L33.02 49.28L29.57 49.26Q29.51 49.26 29.37 49.27Q28.81 49.3 28.53 49.19Q28.27 49.09 28.12 48.91Q27.9 48.65 27.89 48.21Q27.88 47.77 28.1 47.5Q28.25 47.3 28.52 47.2Q28.8 47.08 29.37 47.1Q29.49 47.1 29.54 47.1L37.68 47.08Q38.58 47.08 39.03 46.69Q39.11 46.63 39.17 46.55Q39.44 46.21 39.43 45.66Q39.42 45.13 39.16 44.8Q38.75 44.3 37.73 44.29Q36.68 44.27 34.57 44.28Q33.51 44.29 32.98 44.29Q32.92 44.29 32.79 44.29Q32.22 44.32 31.94 44.2Q31.69 44.1 31.55 43.92Q31.33 43.64 31.34 43.18Q31.35 42.78 31.56 42.53Q31.91 42.1 32.82 42.12Q32.96 42.13 33.02 42.13L34.99 42.12L36.95 42.13L38.91 42.13Q40.14 42.13 40.58 41.54Q40.81 41.23 40.81 40.75Q40.82 40.22 40.57 39.88Q40.14 39.31 38.97 39.29L37.1 39.29L33.34 39.29Q32.84 39.29 32.54 39.11Q32.34 38.99 32.23 38.81Q32.07 38.55 32.09 38.16Q32.11 37.84 32.27 37.63Q32.56 37.24 33.32 37.21Q33.53 37.2 33.93 37.2Q34.13 37.2 34.22 37.2L40.1 37.19Q40.78 37.19 41.16 36.85Q41.35 36.68 41.46 36.42L41.47 36.41L41.47 36.39Q41.57 36.2 41.6 35.99Q41.64 35.79 41.61 35.57Q41.59 35.36 41.51 35.16Q41.42 34.97 41.29 34.81L41.28 34.8L41.28 34.8Q40.91 34.32 39.66 34.32L39.62 34.32L26.22 34.32Q26.17 34.32 26.07 34.32Q25.33 34.35 24.95 33.99Q24.85 33.89 24.77 33.77Q24.68 33.6 24.65 33.43Q24.55 32.92 25.01 32.31Q25.06 32.25 25.08 32.22Q25.15 32.12 25.22 32.02Q27.82 28.16 26.7 21.79Q26.54 20.8 26.05 20.01Q25.57 19.23 24.79 18.65Q24.13 18.15 23.77 18.29L23.77 18.29Q23.52 18.39 23.5 19.06Q23.5 19.19 23.49 19.25Q23.46 19.87 23.42 21.11Q23.37 23.31 23.24 24.41Q22.77 28.46 20.57 31Q19.09 32.72 16.83 33.76Q16.77 33.78 16.72 33.82Q16.37 34.07 16.37 34.82L16.37 50.47Q16.37 51.34 16.8 51.82Q17.22 52.3 18.05 52.41ZM14.68 42.76L14.68 33.24C14.68 31.51 14.27 31.06 12.59 31.04C12.28 31.04 11.98 31.05 11.68 31.06L11.68 31.06C10.98 31.07 10.28 31.08 9.58 31.02C8.58 30.94 8.4 31.36 8.42 32.25C8.45 34.59 8.45 36.93 8.44 39.27C8.44 40.1 8.43 40.93 8.43 41.77C8.44 42.1 8.43 42.44 8.39 42.77C8.39 42.9 8.34 43.02 8.25 43.11C8.16 43.2 8.04 43.26 7.92 43.27C7.84 43.28 7.77 43.28 7.7 43.26C7.62 43.24 7.56 43.2 7.5 43.15C7.45 43.1 7.4 43.04 7.37 42.97C7.35 42.9 7.33 42.83 7.33 42.76C7.3 42.42 7.29 42.09 7.29 41.75C7.29 40.85 7.29 39.95 7.29 39.05L7.29 39.04C7.29 36.74 7.28 34.43 7.31 32.12C7.31 31.3 7.04 31.01 6.22 31.04C5.55 31.08 4.87 31.07 4.2 31.06L4.2 31.06C3.75 31.06 3.3 31.06 2.85 31.06C1.36 31.09 0.91 31.54 0.9 33.03Q0.88 42.79 0.9 52.54C0.9 54.01 1.4 54.5 2.86 54.5Q7.73 54.53 12.62 54.5C14.22 54.5 14.69 54 14.69 52.39C14.69 49.18 14.68 45.97 14.68 42.76ZM6.83 42.78Q6.81 42.53 6.8 42.28Q6.79 42.01 6.79 41.74Q6.79 40.85 6.79 39.05Q6.78 34.43 6.81 32.11Q6.81 31.7 6.72 31.61Q6.63 31.53 6.25 31.54Q5.56 31.58 4.19 31.56Q3.3 31.56 2.86 31.56Q2.12 31.58 1.76 31.95Q1.4 32.32 1.4 33.03L1.4 52.54Q1.4 53.27 1.77 53.64Q2.13 54 2.86 54L12.62 54Q13.38 54 13.77 53.63Q14.19 53.22 14.19 52.39L14.18 42.76L14.18 33.24Q14.18 32.36 13.74 31.94Q13.34 31.55 12.58 31.54Q12.29 31.54 11.69 31.56Q10.27 31.58 9.54 31.52Q9.09 31.49 9.01 31.59Q8.91 31.7 8.92 32.24Q8.95 34.58 8.94 39.27Q8.93 40.93 8.93 41.76Q8.94 42.03 8.93 42.29Q8.92 42.55 8.89 42.8Q8.88 42.99 8.82 43.15Q8.75 43.32 8.61 43.46Q8.48 43.6 8.31 43.68Q8.16 43.75 7.97 43.77Q7.87 43.78 7.77 43.77Q7.66 43.77 7.56 43.74Q7.45 43.71 7.35 43.65Q7.26 43.6 7.17 43.53Q7.09 43.45 7.02 43.36Q6.96 43.27 6.91 43.17Q6.87 43.07 6.85 42.96Q6.83 42.87 6.83 42.78Z" fill="#FA8B02" fill-opacity="1.000000" fill-rule="evenodd"/>
	<path id="Vector" d="M40.14 0.38C48.31 0.44 55.21 6.14 56.89 14.2C58.52 21.99 54.42 30.09 47.18 33.29C46.5 33.59 45.49 34.51 45.01 33.46C44.53 32.41 45.93 32.41 46.53 32.13C53.48 28.89 57.22 21.4 55.51 14C53.83 6.74 47.2 1.6 39.69 1.73C36.37 1.79 33.15 2.89 30.49 4.88C27.83 6.87 25.87 9.65 24.88 12.81C24.78 13.13 24.69 13.45 24.58 13.77C24.56 13.86 24.52 13.95 24.47 14.03C24.41 14.1 24.34 14.16 24.25 14.21C24.17 14.25 24.08 14.28 23.98 14.29C23.89 14.29 23.79 14.28 23.71 14.24C23.32 14.12 23.21 13.8 23.29 13.44C23.37 13.04 23.48 12.63 23.61 12.24C24.75 8.76 26.96 5.74 29.94 3.61C32.91 1.47 36.48 0.34 40.14 0.38Z" fill="#FA8B02" fill-opacity="1.000000" fill-rule="nonzero"/>
	<path id="Vector" d="M57.67 19.59Q57.97 16.89 57.38 14.1Q56.69 10.75 54.97 8.06Q53.49 5.74 51.27 3.9Q48.94 1.98 46.28 0.98Q43.41 -0.1 40.15 -0.12Q37.25 -0.15 34.62 0.68Q32 1.51 29.65 3.2Q27.29 4.89 25.66 7.11Q24.03 9.33 23.13 12.08Q23.03 12.39 22.95 12.71Q22.86 13.02 22.8 13.34Q22.67 13.91 22.89 14.26Q23.08 14.57 23.54 14.71Q23.65 14.75 23.76 14.77Q23.88 14.79 24.01 14.78Q24.14 14.78 24.26 14.74Q24.38 14.71 24.49 14.65Q24.6 14.59 24.7 14.51Q24.79 14.43 24.87 14.32Q24.94 14.22 25 14.11Q25.04 14.01 25.06 13.9Q25.13 13.7 25.25 13.32Q25.32 13.08 25.36 12.96Q26.09 10.6 27.45 8.68Q28.81 6.76 30.79 5.28Q32.77 3.8 35 3.04Q37.23 2.27 39.7 2.23Q42.39 2.19 44.8 2.98Q47.28 3.79 49.48 5.49Q51.75 7.25 53.16 9.54Q54.44 11.61 55.02 14.12Q55.65 16.82 55.34 19.42Q55.03 21.96 53.82 24.4Q52.69 26.68 51 28.4Q49.04 30.41 46.32 31.67Q46.22 31.72 45.87 31.82Q45.11 32.02 44.82 32.25Q44.55 32.47 44.45 32.75Q44.32 33.15 44.56 33.67Q44.79 34.17 45.17 34.35Q45.46 34.49 45.85 34.44Q46.25 34.38 46.98 33.96Q47.27 33.8 47.38 33.75Q49.88 32.64 51.83 30.91Q54.24 28.78 55.81 25.69Q57.33 22.71 57.67 19.59ZM24.58 13.77C24.69 13.45 24.78 13.13 24.88 12.81C25.87 9.65 27.83 6.87 30.49 4.88C33.15 2.89 36.37 1.79 39.69 1.73C47.2 1.6 53.83 6.74 55.51 14C57.22 21.4 53.48 28.89 46.53 32.13C46.39 32.19 46.2 32.25 46 32.3C45.37 32.47 44.65 32.66 45.01 33.46C45.39 34.3 46.11 33.88 46.73 33.53C46.89 33.44 47.04 33.35 47.18 33.29C54.42 30.09 58.52 21.99 56.89 14.2C55.21 6.14 48.31 0.44 40.14 0.38C36.48 0.34 32.91 1.47 29.94 3.61C26.96 5.74 24.75 8.76 23.61 12.24C23.48 12.63 23.37 13.04 23.29 13.44C23.21 13.8 23.32 14.12 23.71 14.24C23.79 14.28 23.89 14.29 23.98 14.29C24.08 14.28 24.17 14.25 24.25 14.21C24.34 14.16 24.41 14.1 24.47 14.03C24.52 13.95 24.56 13.86 24.58 13.77Z" fill="#FA8B02" fill-opacity="1.000000" fill-rule="evenodd"/>
	<path id="Vector" d="M43.46 21.63C43.46 20.14 42.51 18.92 40.91 18.47C40.07 18.23 39.18 18.15 38.36 17.88C36.35 17.2 35.24 15.59 35.26 13.51C35.26 11.38 36.31 9.85 38.4 9.21C39.17 8.98 39.38 8.62 39.32 7.89C39.28 7.39 39.27 6.77 39.95 6.73C40.74 6.68 40.74 7.35 40.7 7.89C40.6 8.74 41.05 8.93 41.77 9.05C43.54 9.35 44.65 10.47 45.23 12.13C45.41 12.66 45.69 13.4 44.96 13.66C44.11 13.98 44.12 13.1 43.94 12.6C43.3 10.87 41.77 10 39.74 10.27C37.92 10.5 36.78 11.55 36.61 13.14C36.42 14.84 37.34 16.16 39.11 16.69C39.99 16.94 40.92 17.04 41.77 17.35C43.76 18.06 44.82 19.62 44.82 21.63C44.82 23.73 43.74 25.28 41.69 25.96C41 26.19 40.62 26.46 40.69 27.25C40.74 27.75 40.82 28.47 40.04 28.5C39.26 28.53 39.27 27.84 39.33 27.31C39.41 26.5 39.08 26.29 38.31 26.14C36.31 25.74 34.94 24.29 34.66 22.49C34.59 22.03 34.57 21.62 35.1 21.48C35.63 21.34 35.83 21.66 36 22.11C36.91 24.58 38.37 25.37 40.93 24.77C41.66 24.63 42.31 24.24 42.77 23.66C43.23 23.09 43.48 22.36 43.46 21.63Z" fill="#FA8B02" fill-opacity="1.000000" fill-rule="nonzero"/>
	<path id="Vector" d="M40.77 18.95L40.77 18.95Q41.68 19.2 42.23 19.79Q42.32 19.87 42.4 19.97Q42.62 20.25 42.75 20.56Q42.96 21.05 42.96 21.63L42.96 21.63L42.96 21.64Q42.97 21.87 42.93 22.1Q42.9 22.32 42.82 22.54Q42.75 22.76 42.64 22.96Q42.53 23.17 42.38 23.35Q42.24 23.53 42.06 23.68Q41.89 23.83 41.69 23.95Q41.49 24.07 41.28 24.15Q41.06 24.23 40.84 24.28L40.83 24.28L40.82 24.28Q39.92 24.49 39.23 24.45Q38.58 24.42 38.08 24.15Q37.58 23.88 37.19 23.35Q36.79 22.8 36.46 21.94Q36.38 21.71 36.3 21.56Q36.17 21.34 36.01 21.19Q35.88 21.08 35.72 21.02Q35.39 20.89 34.97 21Q34.66 21.08 34.46 21.27Q34.38 21.34 34.32 21.43Q34.22 21.56 34.17 21.72Q34.11 21.92 34.12 22.17Q34.13 22.33 34.16 22.56Q34.23 23.02 34.39 23.45Q34.49 23.72 34.62 23.98Q34.77 24.28 34.95 24.54Q35.19 24.89 35.48 25.19Q35.62 25.33 35.77 25.46Q36.2 25.83 36.7 26.09Q36.71 26.1 36.72 26.1Q37.41 26.47 38.22 26.63Q38.68 26.72 38.78 26.83Q38.87 26.92 38.83 27.26Q38.8 27.54 38.81 27.73Q38.81 28.05 38.9 28.29Q38.99 28.52 39.15 28.68Q39.23 28.76 39.32 28.82Q39.33 28.83 39.33 28.83Q39.64 29.02 40.06 29Q40.47 28.98 40.75 28.78Q40.76 28.77 40.78 28.76Q40.85 28.7 40.92 28.63Q41.07 28.46 41.15 28.21Q41.22 27.98 41.22 27.67Q41.22 27.52 41.19 27.23Q41.19 27.21 41.19 27.2Q41.16 26.87 41.28 26.73Q41.41 26.58 41.85 26.44Q43.28 25.96 44.14 24.99Q44.29 24.81 44.43 24.62Q44.56 24.43 44.68 24.23Q45.32 23.11 45.32 21.63Q45.32 20.8 45.1 20.07Q44.94 19.51 44.65 19.03Q44.56 18.87 44.45 18.71Q44.38 18.6 44.29 18.5Q43.91 18.01 43.38 17.63Q42.75 17.17 41.94 16.88Q41.59 16.75 41.13 16.64Q40.86 16.57 40.33 16.46Q39.6 16.31 39.25 16.21Q38.15 15.88 37.59 15.14Q37.56 15.1 37.53 15.07Q37.41 14.88 37.31 14.68Q37.01 14.03 37.1 13.2Q37.18 12.51 37.52 12Q37.68 11.76 37.9 11.56Q38.6 10.92 39.81 10.76Q41.16 10.59 42.12 11.12L42.12 11.12Q42.36 11.26 42.57 11.43Q43.16 11.94 43.47 12.78Q43.5 12.85 43.55 13.06Q43.61 13.32 43.66 13.45Q43.76 13.72 43.91 13.9Q44.03 14.04 44.18 14.12Q44.31 14.19 44.46 14.22Q44.77 14.27 45.14 14.13Q45.47 14.01 45.68 13.77Q45.71 13.72 45.75 13.67Q45.78 13.63 45.8 13.58Q45.93 13.34 45.94 13.03Q45.94 12.78 45.86 12.47Q45.82 12.31 45.72 12.01Q45.71 11.98 45.7 11.97Q45.22 10.57 44.29 9.71Q44.05 9.5 43.78 9.32Q42.95 8.75 41.85 8.56Q41.38 8.48 41.26 8.37Q41.16 8.28 41.2 7.93Q41.22 7.65 41.21 7.45Q41.2 7.13 41.1 6.9Q41.01 6.68 40.86 6.53Q40.77 6.44 40.66 6.38Q40.35 6.2 39.91 6.23Q39.56 6.25 39.3 6.43Q39.28 6.44 39.25 6.46Q39.18 6.52 39.13 6.58Q38.97 6.74 38.89 6.98Q38.81 7.2 38.81 7.49Q38.8 7.67 38.82 7.94Q38.85 8.31 38.76 8.46Q38.65 8.61 38.25 8.74Q36.79 9.18 35.92 10.16Q35.77 10.33 35.64 10.51Q35.55 10.63 35.47 10.76Q34.76 11.91 34.76 13.51Q34.75 14.36 34.97 15.12Q35.15 15.72 35.47 16.24Q35.55 16.38 35.64 16.51Q35.76 16.68 35.89 16.83Q36.26 17.27 36.73 17.61Q37.38 18.07 38.2 18.35Q38.53 18.46 38.95 18.56Q39.2 18.61 39.69 18.71Q40.43 18.85 40.77 18.95ZM43.46 21.63C43.46 20.14 42.51 18.92 40.91 18.47C40.07 18.23 39.18 18.15 38.36 17.88C36.35 17.2 35.24 15.59 35.26 13.51C35.26 11.38 36.31 9.85 38.4 9.21C39.17 8.98 39.38 8.62 39.32 7.89C39.28 7.39 39.27 6.77 39.95 6.73C40.74 6.68 40.74 7.35 40.7 7.89C40.6 8.74 41.05 8.93 41.77 9.05C43.54 9.35 44.65 10.47 45.23 12.13C45.24 12.15 45.24 12.16 45.25 12.18C45.43 12.7 45.67 13.41 44.96 13.66C44.28 13.92 44.15 13.41 44.04 12.94C44.01 12.82 43.98 12.7 43.94 12.6C43.3 10.87 41.77 10 39.74 10.27C37.92 10.5 36.78 11.55 36.61 13.14C36.42 14.84 37.34 16.16 39.11 16.69C39.99 16.94 40.92 17.04 41.77 17.35C43.76 18.06 44.82 19.62 44.82 21.63C44.82 23.73 43.74 25.28 41.69 25.96C41 26.19 40.62 26.46 40.69 27.25C40.69 27.26 40.69 27.27 40.69 27.28C40.74 27.78 40.81 28.47 40.04 28.5C39.26 28.53 39.27 27.84 39.33 27.31C39.41 26.5 39.08 26.29 38.31 26.14C36.31 25.74 34.94 24.29 34.66 22.49C34.59 22.03 34.57 21.62 35.1 21.48C35.63 21.34 35.83 21.66 36 22.11C36.91 24.58 38.37 25.37 40.93 24.77C41.66 24.63 42.31 24.24 42.77 23.66C43.23 23.09 43.48 22.36 43.46 21.63Z" fill="#FA8B02" fill-opacity="1.000000" fill-rule="evenodd"/>
	<path id="Vector" d="M10.56 48.44C10.84 48.43 11.13 48.47 11.39 48.57C11.65 48.67 11.89 48.83 12.09 49.03C12.29 49.22 12.45 49.46 12.56 49.72C12.66 49.98 12.71 50.26 12.71 50.55C12.72 50.84 12.68 51.13 12.57 51.4C12.47 51.68 12.31 51.92 12.11 52.13C11.91 52.34 11.67 52.51 11.4 52.62C11.13 52.73 10.84 52.79 10.55 52.78C9.29 52.78 8.39 51.82 8.41 50.53C8.41 50.25 8.46 49.97 8.56 49.71C8.67 49.44 8.83 49.21 9.03 49.01C9.23 48.81 9.47 48.66 9.74 48.56C10 48.46 10.28 48.42 10.56 48.44ZM10.61 49.54C9.95 49.54 9.58 49.9 9.55 50.53C9.53 51.16 9.85 51.56 10.52 51.59C10.65 51.61 10.79 51.6 10.92 51.55C11.05 51.51 11.17 51.44 11.27 51.35C11.37 51.26 11.45 51.14 11.5 51.02C11.55 50.89 11.57 50.75 11.56 50.61C11.58 50.48 11.57 50.34 11.53 50.21C11.49 50.08 11.42 49.96 11.33 49.86C11.24 49.76 11.13 49.68 11.01 49.62C10.88 49.57 10.75 49.54 10.61 49.54Z" fill="#FA8B02" fill-opacity="1.000000" fill-rule="nonzero"/>
	<path id="Vector" d="M12.04 48.34Q11.82 48.2 11.57 48.11Q11.32 48.01 11.06 47.97Q10.82 47.93 10.57 47.94Q10.31 47.93 10.07 47.96Q9.81 48 9.56 48.09Q9.31 48.19 9.09 48.33Q8.87 48.47 8.68 48.65Q8.49 48.84 8.34 49.05Q8.2 49.27 8.1 49.52Q8 49.76 7.95 50.02Q7.91 50.27 7.91 50.53Q7.91 51.03 8.05 51.48Q8.07 51.54 8.09 51.6Q8.22 51.94 8.42 52.22Q8.52 52.36 8.64 52.48Q8.81 52.66 9 52.8Q9.23 52.96 9.49 53.07Q9.64 53.14 9.8 53.18Q10.15 53.28 10.54 53.28Q10.81 53.29 11.07 53.24Q11.33 53.19 11.59 53.08Q11.84 52.98 12.06 52.83Q12.28 52.68 12.47 52.48Q12.66 52.29 12.8 52.06Q12.95 51.83 13.04 51.58Q13.14 51.32 13.18 51.06Q13.22 50.8 13.21 50.54Q13.21 50.28 13.17 50.04Q13.12 49.78 13.02 49.54Q12.92 49.29 12.78 49.07Q12.63 48.86 12.44 48.67Q12.25 48.48 12.04 48.34ZM12.71 50.55C12.71 50.26 12.66 49.98 12.56 49.72C12.45 49.46 12.29 49.22 12.09 49.03C11.89 48.83 11.65 48.67 11.39 48.57C11.13 48.47 10.84 48.43 10.56 48.44C10.28 48.42 10 48.46 9.74 48.56C9.47 48.66 9.23 48.81 9.03 49.01C8.83 49.21 8.67 49.44 8.56 49.71C8.46 49.97 8.41 50.25 8.41 50.53C8.39 51.82 9.29 52.78 10.55 52.78C10.84 52.79 11.13 52.73 11.4 52.62C11.67 52.51 11.91 52.34 12.11 52.13C12.31 51.92 12.47 51.68 12.57 51.4C12.68 51.13 12.72 50.84 12.71 50.55ZM11.56 50.61C11.58 50.48 11.57 50.34 11.53 50.21C11.49 50.08 11.42 49.96 11.33 49.86C11.24 49.76 11.13 49.68 11.01 49.62C10.88 49.57 10.75 49.54 10.61 49.54C9.95 49.54 9.58 49.9 9.55 50.53C9.53 51.16 9.85 51.56 10.52 51.59C10.65 51.61 10.79 51.6 10.92 51.55C11.05 51.51 11.17 51.44 11.27 51.35C11.37 51.26 11.45 51.14 11.5 51.02C11.55 50.89 11.57 50.75 11.56 50.61ZM10.15 50.95Q10.04 50.83 10.05 50.55Q10.06 50.28 10.18 50.16Q10.32 50.04 10.62 50.04Q10.67 50.04 10.71 50.05Q10.76 50.06 10.81 50.08Q10.85 50.1 10.89 50.13Q10.93 50.16 10.96 50.19Q10.99 50.23 11.02 50.27Q11.04 50.31 11.05 50.36Q11.07 50.41 11.07 50.45Q11.08 50.5 11.07 50.55L11.06 50.6L11.07 50.65Q11.07 50.7 11.06 50.74Q11.06 50.79 11.04 50.83Q11.02 50.88 10.99 50.91Q10.97 50.95 10.93 50.98Q10.9 51.02 10.86 51.04Q10.82 51.06 10.77 51.08Q10.73 51.09 10.68 51.09Q10.64 51.1 10.59 51.09L10.56 51.09L10.53 51.09Q10.26 51.08 10.15 50.95Z" fill="#FA8B02" fill-opacity="1.000000" fill-rule="evenodd"/>
</svg>
