<svg width="19.000000" height="19.000000" viewBox="0 0 19 19" fill="none" xmlns="http://www.w3.org/2000/svg" xmlns:xlink="http://www.w3.org/1999/xlink">
	<desc>
			Created with Pixso.
	</desc>
	<defs/>
	<path id="Vector" d="M15.85 -0.15C16.46 -0.15 17.04 0.09 17.47 0.52C17.9 0.95 18.14 1.53 18.14 2.14L18.14 15.85C18.14 16.46 17.9 17.04 17.47 17.47C17.04 17.9 16.46 18.14 15.85 18.14L2.14 18.14C1.53 18.14 0.95 17.9 0.52 17.47C0.09 17.04 -0.15 16.46 -0.15 15.85L-0.15 2.14C-0.15 1.53 0.09 0.95 0.52 0.52C0.95 0.09 1.53 -0.15 2.14 -0.15L15.85 -0.15ZM-0.15 4.42L18.14 4.42" stroke="#FA8B02" stroke-opacity="1.000000" stroke-width="1.000000" stroke-linejoin="round" stroke-linecap="round"/>
	<path id="Vector" d="M10.14 9C10.14 9.63 9.63 10.14 9 10.14C8.36 10.14 7.85 9.63 7.85 9C7.85 8.36 8.36 7.85 9 7.85C9.63 7.85 10.14 8.36 10.14 9Z" fill="#FA8B02" fill-opacity="1.000000" fill-rule="evenodd"/>
	<path id="Vector" d="M5.57 9C5.57 9.63 5.05 10.14 4.42 10.14C3.79 10.14 3.28 9.63 3.28 9C3.28 8.36 3.79 7.85 4.42 7.85C5.05 7.85 5.57 8.36 5.57 9Z" fill="#FA8B02" fill-opacity="1.000000" fill-rule="evenodd"/>
	<path id="Vector" d="M14.71 9C14.71 9.63 14.2 10.14 13.57 10.14C12.94 10.14 12.42 9.63 12.42 9C12.42 8.36 12.94 7.85 13.57 7.85C14.2 7.85 14.71 8.36 14.71 9Z" fill="#FA8B02" fill-opacity="1.000000" fill-rule="evenodd"/>
	<path id="Vector" d="M10.14 13.57C10.14 14.2 9.63 14.71 9 14.71C8.36 14.71 7.85 14.2 7.85 13.57C7.85 12.94 8.36 12.42 9 12.42C9.63 12.42 10.14 12.94 10.14 13.57Z" fill="#FA8B02" fill-opacity="1.000000" fill-rule="evenodd"/>
	<path id="Vector" d="M5.57 13.57C5.57 14.2 5.05 14.71 4.42 14.71C3.79 14.71 3.28 14.2 3.28 13.57C3.28 12.94 3.79 12.42 4.42 12.42C5.05 12.42 5.57 12.94 5.57 13.57Z" fill="#FA8B02" fill-opacity="1.000000" fill-rule="evenodd"/>
	<path id="Vector" d="M14.71 13.57C14.71 14.2 14.2 14.71 13.57 14.71C12.94 14.71 12.42 14.2 12.42 13.57C12.42 12.94 12.94 12.42 13.57 12.42C14.2 12.42 14.71 12.94 14.71 13.57Z" fill="#FA8B02" fill-opacity="1.000000" fill-rule="evenodd"/>
</svg>
