<svg width="21.000000" height="24.000000" viewBox="0 0 21 24" fill="none" xmlns="http://www.w3.org/2000/svg" xmlns:xlink="http://www.w3.org/1999/xlink">
	<desc>
			Created with Pixso.
	</desc>
	<defs/>
	<path id="Vector" d="M9.97 23.99L0.93 23.99C0.79 24 0.64 24 0.5 23.99C0.28 23.97 0.08 23.87 -0.06 23.71C-0.21 23.55 -0.29 23.34 -0.29 23.13C-0.29 22.91 -0.2 22.7 -0.05 22.55C0.1 22.39 0.3 22.3 0.52 22.29C0.98 22.26 1.44 22.26 1.9 22.29C2.22 22.31 2.29 22.18 2.28 21.88C2.24 20.4 2.32 18.94 2.83 17.53C3.53 15.56 4.73 14.04 6.67 13.17C7.19 12.94 7.48 12.55 7.48 11.99C7.47 11.43 7.17 11.05 6.65 10.82C4.21 9.69 3 7.66 2.48 5.12C2.28 4.17 2.26 3.2 2.29 2.24C2.31 1.84 2.24 1.64 1.79 1.71C1.52 1.75 1.25 1.71 0.98 1.71C0.13 1.71 -0.3 1.43 -0.29 0.84C-0.28 0.26 0.13 0 0.95 0L19.04 0C19.18 0 19.32 -0.01 19.46 0C19.68 0.01 19.88 0.11 20.04 0.26C20.19 0.42 20.28 0.63 20.28 0.84C20.28 0.95 20.26 1.07 20.22 1.17C20.18 1.27 20.12 1.37 20.04 1.45C19.97 1.53 19.87 1.6 19.77 1.64C19.67 1.68 19.56 1.71 19.45 1.71C19 1.74 18.56 1.74 18.11 1.71C17.77 1.69 17.69 1.82 17.7 2.14C17.75 3.6 17.66 5.05 17.17 6.45C16.46 8.44 15.25 9.98 13.29 10.84C12.8 11.06 12.51 11.45 12.51 11.99C12.51 12.54 12.8 12.93 13.31 13.17C15.79 14.31 17.02 16.36 17.53 18.94C17.72 19.88 17.73 20.83 17.7 21.79C17.69 22.17 17.77 22.34 18.18 22.29C18.45 22.27 18.72 22.27 18.99 22.28C19.86 22.28 20.27 22.55 20.28 23.13C20.28 23.7 19.86 23.99 19.02 23.99L9.97 23.99ZM10 1.71C8.15 1.71 6.29 1.72 4.43 1.7C4.07 1.7 3.98 1.8 3.99 2.15C4.02 2.88 3.97 3.61 4.08 4.34C4.43 6.55 5.35 8.36 7.52 9.34C8.64 9.84 9.2 10.79 9.2 12C9.2 13.25 8.58 14.19 7.43 14.71C6.14 15.28 5.27 16.23 4.69 17.48C4.02 18.93 3.96 20.48 4 22.04C4 22.28 4.13 22.28 4.3 22.28C8.09 22.28 11.89 22.28 15.68 22.28C15.93 22.28 16 22.2 16 21.95C15.98 21.18 16.02 20.4 15.9 19.63C15.56 17.43 14.64 15.63 12.49 14.66C11.37 14.16 10.8 13.22 10.79 12.01C10.79 10.79 11.37 9.83 12.5 9.32C13.8 8.74 14.7 7.8 15.29 6.53C15.94 5.13 16.02 3.63 16 2.11C16 1.77 15.89 1.7 15.57 1.7C13.71 1.72 11.86 1.71 10 1.71Z" fill="#FA8B02" fill-opacity="1.000000" fill-rule="nonzero"/>
	<path id="Vector" d="M9.99 21.42C8.63 21.42 7.26 21.42 5.9 21.42C5.15 21.42 4.83 21.09 4.85 20.34C4.93 17.77 7.05 15.6 9.64 15.43C12.3 15.26 14.67 17.14 15.06 19.73C15.07 19.83 15.09 19.93 15.11 20.02C15.24 21.06 14.92 21.43 13.89 21.43L9.99 21.42Z" fill="#FA8B02" fill-opacity="1.000000" fill-rule="nonzero"/>
	<path id="Vector" d="M10.05 5.14C10.86 5.14 11.67 5.14 12.47 5.14C13.17 5.14 13.49 5.5 13.41 6.19C13.35 6.83 13.06 7.42 12.59 7.86C12.12 8.3 11.51 8.55 10.87 8.57C10.28 8.59 9.7 8.59 9.11 8.57C8.48 8.55 7.88 8.3 7.41 7.87C6.95 7.44 6.66 6.86 6.58 6.23C6.49 5.52 6.81 5.15 7.53 5.14C8.37 5.14 9.21 5.14 10.05 5.14Z" fill="#FA8B02" fill-opacity="1.000000" fill-rule="nonzero"/>
</svg>
