<svg width="25.000000" height="17.000000" viewBox="0 0 25 17" fill="none" xmlns="http://www.w3.org/2000/svg" xmlns:xlink="http://www.w3.org/1999/xlink">
	<desc>
			Created with Pixso.
	</desc>
	<defs/>
	<path id="Vector" d="M7.92 3.73C8.62 1.29 10.03 0.07 12.06 0.09C14.02 0.11 15.42 1.36 16.07 3.73C16.15 3.49 16.21 3.32 16.27 3.15C16.75 1.86 17.67 1.09 19.04 0.98C20.29 0.88 21.3 1.43 21.94 2.52C22.62 3.69 22.54 4.87 21.74 5.96C21.46 6.33 21.48 6.43 21.89 6.64C23.29 7.35 23.98 8.52 23.99 10.08C24.01 12 24.01 12 22.16 12.61C21.68 12.78 21.18 12.9 20.67 12.95C20.36 12.98 20.12 12.88 20.07 12.56C20.02 12.24 20.23 12.06 20.53 12.01C21.25 11.9 21.96 11.7 22.63 11.4C22.8 11.32 23.03 11.27 23.03 11.01C23.03 10.28 23.12 9.53 22.79 8.84C22.38 7.99 21.73 7.4 20.77 7.29C19.77 7.18 18.77 7.18 17.77 7.28C17.51 7.31 17.25 7.39 17.01 7.5C16.23 7.86 16.22 7.98 16.81 8.6C17.61 9.41 18.08 10.5 18.13 11.64C18.16 12.18 18.08 12.72 18.16 13.24C18.29 14.11 17.88 14.5 17.12 14.81C13.51 16.33 9.95 16.27 6.41 14.59C5.99 14.39 5.81 14.14 5.84 13.67C5.88 13.14 5.86 12.6 5.84 12.07C5.82 10.6 6.32 9.36 7.41 8.39C7.77 8.07 7.66 7.93 7.35 7.71C6.34 7 3.08 7.01 2.08 7.75C1.18 8.41 0.66 9.98 0.97 11.05C1.04 11.29 1.23 11.34 1.4 11.42C2.03 11.7 2.7 11.89 3.38 11.99C3.69 12.04 3.96 12.18 3.92 12.54C3.87 12.94 3.56 12.99 3.21 12.94C2.19 12.79 1.24 12.43 0.32 11.98C0.23 11.95 0.16 11.89 0.1 11.82C0.05 11.75 0.02 11.66 0.01 11.57C0.03 10.53 -0.14 9.48 0.32 8.48C0.69 7.64 1.36 6.96 2.19 6.58C2.46 6.46 2.6 6.39 2.35 6.08C1.46 4.95 1.34 3.72 2.09 2.48C2.73 1.4 3.75 0.86 5 0.99C6.48 1.14 7.41 2.02 7.81 3.45C7.83 3.51 7.86 3.57 7.92 3.73ZM12 8.12C11.47 8.12 10.93 8.1 10.4 8.12C9.46 8.17 8.57 8.57 7.91 9.24C7.24 9.91 6.86 10.8 6.82 11.74C6.81 12.19 6.85 12.63 6.8 13.08C6.75 13.59 6.98 13.82 7.43 14.01C10.31 15.19 13.21 15.25 16.13 14.18C17.19 13.79 17.18 13.78 17.18 12.68C17.18 12.37 17.18 12.06 17.18 11.75C17.14 10.81 16.76 9.91 16.09 9.24C15.43 8.57 14.54 8.17 13.6 8.13C13.07 8.1 12.53 8.12 12 8.12ZM15.05 4.08C15.04 3.27 14.72 2.49 14.14 1.92C13.57 1.35 12.79 1.04 11.98 1.04C11.17 1.05 10.4 1.37 9.83 1.95C9.26 2.52 8.94 3.3 8.95 4.11C8.96 5.76 10.38 7.17 12.02 7.16C13.65 7.14 15.07 5.72 15.05 4.08ZM4.77 6.25C5.34 6.24 5.89 6 6.29 5.59C6.69 5.18 6.91 4.63 6.91 4.06C6.89 2.89 5.87 1.89 4.71 1.91C3.55 1.94 2.54 2.97 2.56 4.12C2.58 4.69 2.82 5.23 3.23 5.63C3.65 6.03 4.2 6.25 4.77 6.25ZM19.25 6.25C19.82 6.24 20.37 6.02 20.78 5.61C21.18 5.21 21.42 4.67 21.43 4.09C21.42 3.52 21.18 2.98 20.78 2.57C20.38 2.16 19.83 1.93 19.26 1.91C18.69 1.92 18.14 2.16 17.73 2.56C17.33 2.97 17.1 3.52 17.09 4.09C17.09 4.66 17.32 5.21 17.72 5.61C18.13 6.02 18.68 6.25 19.25 6.25L19.25 6.25ZM9.46 7.2C8.62 6.46 8.08 5.44 7.95 4.32C7.8 4.76 7.75 5.03 7.63 5.26C7.44 5.64 6.96 6.09 7.05 6.37C7.15 6.68 7.8 6.79 8.1 7.09C8.51 7.52 8.9 7.58 9.46 7.2ZM14.47 7.27C14.95 7.33 15.24 7.71 15.6 7.35C15.94 7 16.35 6.72 16.8 6.53C17 6.45 17.12 6.36 16.92 6.15C16.46 5.69 16.28 5.09 16.03 4.33C15.88 5.58 15.34 6.45 14.47 7.27L14.47 7.27Z" fill="#FA8B02" fill-opacity="1.000000" fill-rule="nonzero"/>
	<path id="Vector" d="M12.06 0.09C14.02 0.11 15.42 1.36 16.07 3.73C16.15 3.49 16.21 3.32 16.27 3.15C16.75 1.86 17.67 1.09 19.04 0.98C20.29 0.88 21.3 1.43 21.94 2.52C22.62 3.69 22.54 4.87 21.74 5.96C21.46 6.33 21.48 6.43 21.89 6.64C23.29 7.35 23.98 8.52 23.99 10.08C24.01 12 24.01 12 22.16 12.61C21.68 12.78 21.18 12.9 20.67 12.95C20.36 12.98 20.12 12.88 20.07 12.56C20.02 12.24 20.23 12.06 20.53 12.01C21.25 11.9 21.96 11.7 22.63 11.4C22.8 11.32 23.03 11.27 23.03 11.01C23.03 10.28 23.12 9.53 22.79 8.84C22.38 7.99 21.73 7.4 20.77 7.29C19.77 7.18 18.77 7.18 17.77 7.28C17.51 7.31 17.25 7.39 17.01 7.5C16.23 7.86 16.22 7.98 16.81 8.6C17.61 9.41 18.08 10.5 18.13 11.64C18.16 12.18 18.08 12.72 18.16 13.24C18.29 14.11 17.88 14.5 17.12 14.81C13.51 16.33 9.95 16.27 6.41 14.59C5.99 14.39 5.81 14.14 5.84 13.67C5.88 13.14 5.86 12.6 5.84 12.07C5.82 10.6 6.32 9.36 7.41 8.39C7.77 8.07 7.66 7.93 7.35 7.71C6.34 7 3.08 7.01 2.08 7.75C1.18 8.41 0.66 9.98 0.97 11.05C1.04 11.29 1.23 11.34 1.4 11.42C2.03 11.7 2.7 11.89 3.38 11.99C3.69 12.04 3.96 12.18 3.92 12.54C3.87 12.94 3.56 12.99 3.21 12.94C2.19 12.79 1.24 12.43 0.32 11.98C0.23 11.95 0.16 11.89 0.1 11.82C0.05 11.75 0.02 11.66 0.01 11.57C0.03 10.53 -0.14 9.48 0.32 8.48C0.69 7.64 1.36 6.96 2.19 6.58C2.46 6.46 2.6 6.39 2.35 6.08C1.46 4.95 1.34 3.72 2.09 2.48C2.73 1.4 3.75 0.86 5 0.99C6.48 1.14 7.41 2.02 7.81 3.45C7.83 3.51 7.86 3.57 7.92 3.73C8.62 1.29 10.03 0.07 12.06 0.09ZM10.4 8.12C9.46 8.17 8.57 8.57 7.91 9.24C7.24 9.91 6.86 10.8 6.82 11.74C6.81 12.19 6.85 12.63 6.8 13.08C6.75 13.59 6.98 13.82 7.43 14.01C10.31 15.19 13.21 15.25 16.13 14.18C17.19 13.79 17.18 13.78 17.18 12.68C17.18 12.37 17.18 12.06 17.18 11.75C17.14 10.81 16.76 9.91 16.09 9.24C15.43 8.57 14.54 8.17 13.6 8.13C13.07 8.1 12.53 8.12 12 8.12C11.47 8.12 10.93 8.1 10.4 8.12ZM14.14 1.92C13.57 1.35 12.79 1.04 11.98 1.04C11.17 1.05 10.4 1.37 9.83 1.95C9.26 2.52 8.94 3.3 8.95 4.11C8.96 5.76 10.38 7.17 12.02 7.16C13.65 7.14 15.07 5.72 15.05 4.08C15.04 3.27 14.72 2.49 14.14 1.92ZM6.29 5.59C6.69 5.18 6.91 4.63 6.91 4.06C6.89 2.89 5.87 1.89 4.71 1.91C3.55 1.94 2.54 2.97 2.56 4.12C2.58 4.69 2.82 5.23 3.23 5.63C3.65 6.03 4.2 6.25 4.77 6.25C5.34 6.24 5.89 6 6.29 5.59ZM20.78 5.61C21.18 5.21 21.42 4.67 21.43 4.09C21.42 3.52 21.18 2.98 20.78 2.57C20.38 2.16 19.83 1.93 19.26 1.91C18.69 1.92 18.14 2.16 17.73 2.56C17.33 2.97 17.1 3.52 17.09 4.09C17.09 4.66 17.32 5.21 17.72 5.61C18.13 6.02 18.68 6.25 19.25 6.25L19.25 6.25C19.82 6.24 20.37 6.02 20.78 5.61ZM7.95 4.32C7.8 4.76 7.75 5.03 7.63 5.26C7.44 5.64 6.96 6.09 7.05 6.37C7.15 6.68 7.8 6.79 8.1 7.09C8.51 7.52 8.9 7.58 9.46 7.2C8.62 6.46 8.08 5.44 7.95 4.32ZM15.6 7.35C15.94 7 16.35 6.72 16.8 6.53C17 6.45 17.12 6.36 16.92 6.15C16.46 5.69 16.28 5.09 16.03 4.33C15.88 5.58 15.34 6.45 14.47 7.27L14.47 7.27C14.95 7.33 15.24 7.71 15.6 7.35Z" stroke="#FA8B02" stroke-opacity="1.000000" stroke-width="0.300000"/>
</svg>
