<svg width="60.000000" height="60.000000" viewBox="0 0 60 60" fill="none" xmlns="http://www.w3.org/2000/svg" xmlns:xlink="http://www.w3.org/1999/xlink">
	<desc>
			Created with Pixso.
	</desc>
	<defs/>
	<path id="Vector" d="M26.99 1.01C34.48 1.01 41.99 1.01 49.49 1.01C50.26 1.01 51.08 1.19 51.02 -0.09C50.99 -0.64 51.5 -0.97 52.07 -0.98C53.23 -0.98 54.4 -1.07 55.54 -0.92C57.64 -0.64 58.99 1.1 58.99 3.44C59 10.06 59 16.68 58.99 23.29C58.99 30.93 58.99 38.57 58.99 46.2C58.99 49.43 57.46 50.95 54.22 50.95C49.41 50.95 44.59 50.97 39.77 50.95C38.96 50.95 38.31 51.07 37.87 51.78C37.83 51.86 37.74 51.91 37.69 51.99C35.3 55.54 31.81 57.47 27.81 58.64C27.31 58.79 26.82 58.99 26.36 58.61C25.85 58.18 25.99 57.64 26.16 57.08C26.65 55.4 27.09 53.7 27.59 52.01C27.79 51.32 27.83 50.93 26.87 50.94C21.22 50.98 15.57 50.97 9.91 50.94C9.19 50.94 8.95 51.15 8.97 51.88C9.01 53.74 8.95 55.59 8.99 57.44C9.02 58.58 8.51 59.04 7.4 59C6.38 58.96 5.36 59 4.34 59C1.12 58.94 -1 56.82 -1 53.54C-1 42.43 -1 31.33 -1 20.22C-1 15.68 -1 11.15 -1 6.6C-0.99 3.06 1.05 1.02 4.62 1.01C12.08 1 19.53 1 26.99 1.01ZM27.06 3.06L4.96 3.06C1.95 3.06 1.01 4.02 1.01 7.08L1.01 48.2C1.01 48.43 1.01 48.66 1.01 48.89C0.97 49.58 1.16 49.87 1.87 49.49C2.8 48.99 3.82 48.99 4.85 48.99C12.63 48.99 20.42 48.99 28.2 48.99C28.57 48.99 28.94 48.99 29.31 48.99C29.5 48.99 29.68 48.92 29.83 48.8C29.98 48.69 30.08 48.52 30.13 48.34C30.25 47.97 29.91 47.76 29.65 47.58C29.2 47.25 28.65 47.06 28.09 47.04C27.31 47.02 26.52 47.01 25.73 47.02C25.05 47.02 25 46.58 25.04 46.09C25.07 45.67 24.83 45.04 25.56 45.02C27.36 44.97 29.25 44.68 30.76 45.94C31.6 46.63 31.96 46.47 32.61 45.74C36.95 40.86 41.36 36.04 45.71 31.17C46.93 29.81 48.35 29.2 50.16 29.58C50.41 29.63 50.83 29.97 50.9 29.41C50.97 28.84 50.49 29.03 50.22 29.02C48.64 29.01 47.07 29.01 45.49 29.02C44.73 29.02 44.01 28.9 44.05 27.96C44.09 27.09 44.81 27.04 45.49 27.05C46.97 27.05 48.46 27.01 49.94 27.05C50.71 27.07 51 26.84 50.97 26.04C50.92 24.37 50.92 22.7 50.97 21.04C51 20.2 50.7 20.02 49.93 20.04C48.4 20.09 46.87 20.05 45.34 20.04C44.61 20.04 44.01 19.79 44.04 18.95C44.07 18.19 44.67 18.01 45.33 18C46.82 18 48.3 17.96 49.78 18C50.65 18.03 51.02 17.82 50.98 16.86C50.91 14.96 50.9 13.06 50.98 11.17C51.02 10.2 50.65 10 49.78 10.03C48.26 10.09 46.73 10.06 45.2 10.03C44.51 10.03 44.01 9.71 44.04 8.95C44.07 8.26 44.6 8.05 45.21 8.03C45.9 8.02 46.6 8.05 47.29 8.01C48.48 7.95 50.07 8.54 50.75 7.74C51.33 7.06 50.86 5.51 50.98 4.38C51.1 3.24 50.62 3.01 49.59 3.02C42.08 3.07 34.58 3.06 27.07 3.06L27.06 3.06ZM56.99 22.84C56.99 16.54 56.99 10.25 56.99 3.96C57.01 3.46 56.97 2.95 56.85 2.46C56.5 1.28 55.21 0.73 53.61 1.03C52.41 1.25 52.98 2.22 52.98 2.82C52.94 15.26 52.94 27.7 52.96 40.14C52.96 41.01 52.62 42.04 53.14 42.71C53.6 43.31 54.62 42.83 55.38 42.99C55.47 42.99 55.57 43.01 55.66 43.04C56.97 43.64 57.02 42.92 57.02 41.87C56.97 35.52 56.99 29.18 56.99 22.84ZM50.96 37.5C48.96 39.27 41.25 47.96 40.77 48.98C45.57 48.98 50.32 49.01 55.07 48.95C56.23 48.94 56.96 48.12 56.95 46.94C56.93 45.77 56.19 45.08 55 45C54.17 44.94 53.33 44.95 52.5 44.97C51.39 45.01 50.91 44.51 50.94 43.38C50.98 41.51 50.96 39.61 50.96 37.5ZM7.04 53.99C7.04 50.59 7.04 50.59 3.8 50.97C3.71 50.97 3.62 50.98 3.53 51C2.33 51.33 1.45 52 1.13 53.24C0.98 53.75 0.98 54.3 1.13 54.82C1.29 55.33 1.59 55.79 1.99 56.14C3.35 57.39 5.11 57.2 6.59 56.85C7.63 56.61 6.81 55.15 7.03 54.27C7.05 54.18 7.05 54.08 7.04 53.99L7.04 53.99ZM30.86 51.81C31.29 51.77 31.47 51.42 31.71 51.15C35.43 47.05 39.14 42.94 42.85 38.82C43 38.65 43.15 38.47 43.3 38.29C43.35 38.25 43.39 38.19 43.42 38.13C43.45 38.06 43.46 37.99 43.45 37.92C43.44 37.85 43.42 37.79 43.38 37.73C43.35 37.67 43.29 37.62 43.23 37.58C43.19 37.54 43.15 37.51 43.09 37.5C43.04 37.48 42.98 37.47 42.93 37.47C42.87 37.48 42.82 37.49 42.77 37.52C42.72 37.54 42.67 37.58 42.64 37.62C42.44 37.81 42.26 38.02 42.08 38.22L31.12 50.35C30.89 50.57 30.68 50.82 30.5 51.09C30.23 51.51 30.56 51.66 30.85 51.81L30.86 51.81ZM45.74 40.02C45.62 39.85 45.55 39.66 45.41 39.59C44.88 39.31 44.68 39.82 44.43 40.09C40.66 44.24 36.9 48.39 33.16 52.56C32.89 52.85 32.25 53.18 32.84 53.67C33.43 54.16 33.65 53.45 33.9 53.17C37.65 49.06 41.37 44.94 45.09 40.81C45.3 40.57 45.49 40.32 45.73 40.02L45.74 40.02ZM51.05 33.35C51.03 32.94 50.89 32.53 50.65 32.2C49.93 31.28 48.65 31.21 47.72 31.98C46.48 33.02 47.75 33.37 48.22 33.95C48.39 34.17 48.6 34.36 48.84 34.51C49.26 34.75 49.5 35.57 50.16 35.13C50.45 34.94 50.69 34.67 50.84 34.36C51 34.05 51.07 33.7 51.04 33.35L51.05 33.35ZM48.37 37.15C48.4 36.72 48.12 36.58 47.93 36.4C47.39 35.9 46.82 35.43 46.3 34.91C45.78 34.39 45.43 34.47 44.94 34.99C44.42 35.55 44.37 35.95 45 36.44C45.56 36.87 46.03 37.37 46.56 37.82C46.82 38.04 47.08 38.44 47.49 38.09C47.8 37.8 48.09 37.49 48.36 37.16L48.37 37.15ZM28.66 56.01C29.54 55.83 30.38 55.5 31.16 55.04C30.66 54.4 30.06 53.85 29.39 53.41C28.99 54.23 28.74 55.11 28.66 56.01Z" fill="#FA8B02" fill-opacity="1.000000" fill-rule="nonzero"/>
	<path id="Vector" d="M18.3 15.04C15.48 10.68 15.38 8.22 17.82 6.18C18.77 5.42 19.96 5.02 21.18 5.06C22.39 5.1 23.55 5.58 24.44 6.4C26.67 8.49 26.45 11.32 23.63 15.04C25.38 14.98 26.96 15.33 28.5 14.7C30.11 14.04 30.93 12.76 30.96 11C30.99 9.34 31.01 7.67 30.96 6C30.93 5.13 31.35 5.05 32.05 5.04C32.79 5.02 33.01 5.31 32.99 6.01C32.95 7.49 32.99 8.97 32.99 10.45C32.97 14.59 30.56 17.03 26.44 17.04C20.7 17.04 14.96 17.02 9.21 17.04C6.66 17.04 4.95 18.84 5.08 21.25C5.12 22.06 5.41 22.85 5.91 23.49C6.42 24.13 7.11 24.6 7.89 24.84C9.6 25.34 9.96 25.11 10.04 23.35C10.07 22.41 10.49 22.02 11.41 22.03C13.77 22.05 16.14 22.07 18.49 22.03C19.65 22.01 20.16 22.53 20.03 23.62C19.88 24.8 20.37 25.11 21.51 25.05C23.27 24.96 25.03 25.01 26.79 25.03C30.39 25.07 32.96 27.55 32.98 30.96C32.99 34.41 30.37 36.99 26.74 37.01C20.86 37.04 14.98 37.01 9.1 37.03C6.74 37.03 5.1 38.68 5.08 40.92C5.05 43.16 6.64 44.81 8.97 44.95C9.25 44.98 9.52 44.98 9.8 44.95C10.99 44.77 11.08 45.47 10.99 46.36C11 46.52 10.95 46.67 10.85 46.79C10.74 46.91 10.6 46.99 10.44 47C8.17 47.51 5.23 46.23 3.92 44.13C3.28 43.08 2.97 41.85 3.05 40.62C3.13 39.39 3.58 38.21 4.35 37.24C5.65 35.67 7.32 34.98 9.35 34.99C14.91 35.02 20.47 34.99 26.03 34.99C26.59 35.01 27.14 34.98 27.7 34.9C28.67 34.74 29.54 34.22 30.14 33.45C30.75 32.67 31.04 31.7 30.96 30.72C30.92 29.76 30.52 28.85 29.84 28.17C29.16 27.49 28.24 27.09 27.28 27.06C25.15 26.98 23.02 27.06 20.88 27.02C20.19 27.02 19.98 27.3 20.05 27.93C20.08 28.29 20.03 28.67 20.05 29.04C20.16 30.32 19.79 31.15 18.3 30.97C18.07 30.93 17.83 30.98 17.63 31.09C17.42 31.2 17.26 31.37 17.16 31.59C17 31.86 16.81 32.12 16.62 32.39C15.12 34.58 14.83 34.59 13.4 32.37C12.85 31.54 12.4 30.76 11.16 30.94C10.36 31.06 10.07 30.45 10.05 29.69C10.03 28.86 10.39 27.82 9.87 27.28C9.44 26.84 8.41 27.01 7.65 26.83C6.21 26.5 4.94 25.65 4.1 24.44C3.26 23.23 2.89 21.75 3.09 20.28C3.41 17.33 5.86 15.11 8.96 15.05C10.49 15.02 12.01 15.05 13.54 15.05L18.3 15.04ZM14.98 24C12.04 24 12.03 24 12.05 26.93C12.05 27.93 11.62 29.24 13.43 29.15C14.5 31.02 15.56 30.99 16.6 29.13C18.33 29.28 17.99 28.04 17.99 27.04C18 24 18 24 14.98 24ZM23.99 10.08C23.99 9.68 23.92 9.28 23.77 8.92C23.62 8.55 23.39 8.21 23.11 7.93C22.83 7.65 22.49 7.42 22.12 7.27C21.75 7.12 21.36 7.05 20.96 7.06C20.56 7.06 20.17 7.15 19.8 7.31C19.44 7.47 19.11 7.7 18.83 7.99C18.56 8.28 18.35 8.62 18.21 8.99C18.07 9.37 18 9.76 18.02 10.16C18.05 12.13 19.58 13.09 20.74 14.31C20.87 14.45 21.03 14.44 21.23 14.35C22.35 13.88 23.99 11.36 23.99 10.08Z" fill="#FA8B02" fill-opacity="1.000000" fill-rule="nonzero"/>
	<path id="Vector" d="M42.02 9.61C42.02 13.32 42.3 13.03 38.55 13.03C34.59 13.03 35.02 13.36 35.01 9.42C35.01 5.72 34.68 5.98 38.45 5.98C42.36 5.99 42.02 5.71 42.02 9.61ZM38.35 10.94C39.31 11.1 40.13 11.12 40.02 9.66C39.94 8.65 40.02 7.85 38.59 8C37.71 8.09 36.81 7.89 37 9.29C37.12 10.18 36.71 11.33 38.35 10.94Z" fill="#FA8B02" fill-opacity="1.000000" fill-rule="nonzero"/>
	<path id="Vector" d="M38.5 30.97C34.68 30.95 35.01 31.41 35 27.49C35 23.57 34.71 24 38.5 24C42.24 24 42.03 23.61 42.02 27.5C42.01 31.39 42.28 30.95 38.5 30.97ZM39.94 27.55C40.22 26.43 39.92 25.88 38.59 25.94C37.5 25.97 36.86 26.05 36.99 27.41C37.08 28.4 36.95 29.19 38.41 29.04C39.42 28.92 40.33 29.03 39.94 27.55Z" fill="#FA8B02" fill-opacity="1.000000" fill-rule="nonzero"/>
	<path id="Vector" d="M42.02 18.53C42.03 22.38 42.26 22.04 38.5 22.04C34.74 22.03 35 22.4 35 18.53C35.01 14.65 34.67 15.05 38.51 15.05C42.35 15.04 42.02 14.65 42.02 18.53ZM37.06 18.49C36.8 19.68 37.21 20.1 38.47 20.08C39.67 20.08 40.05 19.78 40.04 18.54C40.02 17.37 39.76 16.96 38.52 16.99C37.36 17.03 36.73 17.2 37.06 18.49Z" fill="#FA8B02" fill-opacity="1.000000" fill-rule="nonzero"/>
	<path id="Vector" d="M13.93 45C14.78 44.86 15.08 45.17 15.07 45.97C15.07 46.73 14.86 47.03 14.05 47.03C13.24 47.02 12.97 46.8 13 46.01C13.02 45.29 13.12 44.78 13.93 45Z" fill="#FA8B02" fill-opacity="1.000000" fill-rule="nonzero"/>
	<path id="Vector" d="M18.98 46.05C19.15 46.9 18.67 47 17.96 47.03C17.08 47.06 17.05 46.62 17.01 45.94C16.97 45.1 17.35 44.97 18.07 44.95C18.93 44.92 19.1 45.33 18.98 46.05Z" fill="#FA8B02" fill-opacity="1.000000" fill-rule="nonzero"/>
	<path id="Vector" d="M22 44.98C22.83 44.84 23 45.28 23.01 46.01C23.01 46.81 22.71 47.02 21.95 47.03C21.13 47.03 20.96 46.7 20.95 45.96C20.94 45.16 21.23 44.86 22 44.98Z" fill="#FA8B02" fill-opacity="1.000000" fill-rule="nonzero"/>
	<path id="Vector" d="M20.96 9.02C21.55 9.06 21.94 9.37 21.99 9.94C22.01 10.07 22 10.2 21.96 10.32C21.93 10.44 21.86 10.56 21.78 10.65C21.69 10.75 21.59 10.82 21.47 10.87C21.35 10.92 21.22 10.95 21.09 10.94C20.97 10.97 20.84 10.96 20.71 10.93C20.59 10.9 20.47 10.83 20.37 10.75C20.28 10.67 20.2 10.56 20.15 10.44C20.1 10.33 20.07 10.2 20.08 10.07C20.03 9.48 20.38 9.15 20.96 9.02Z" fill="#FA8B02" fill-opacity="1.000000" fill-rule="nonzero"/>
</svg>
