<svg width="40.000000" height="30.000000" viewBox="0 0 40 30" fill="none" xmlns="http://www.w3.org/2000/svg" xmlns:xlink="http://www.w3.org/1999/xlink">
	<desc>
			Created with Pixso.
	</desc>
	<defs/>
	<rect id="Maestro" rx="12.000000" width="40.000000" height="30.000000" transform="translate(-0.781250 0.000000)" fill="#FFFFFF" fill-opacity="0"/>
	<rect id="BASE" width="40.000000" height="30.000000" transform="translate(-0.781250 0.000000)" fill="#FFFFFF" fill-opacity="0"/>
	<rect id="BASE" x="-0.781250" rx="4.000000" width="40.000000" height="30.000000" fill="#FFFFFF" fill-opacity="1.000000"/>
	<rect id="BASE" x="-0.281250" y="0.500000" rx="4.000000" width="39.000000" height="29.000000" stroke="#B2BCCA" stroke-opacity="1.000000" stroke-width="1.000000"/>
	<mask id="mask_201_22432" fill="white">
		<path id="Left" d="M6.27783 14.6323C6.27783 10.0029 9.76953 6.25006 14.0767 6.25006C18.3833 6.25006 21.875 10.0029 21.875 14.6323C21.875 19.2616 18.3833 23.0145 14.0767 23.0145C9.76953 23.0145 6.27783 19.2616 6.27783 14.6323Z" clip-rule="evenodd" fill="" fill-opacity="1.000000" fill-rule="evenodd"/>
	</mask>
	<path id="Left" d="M6.27783 14.6323C6.27783 10.0029 9.76953 6.25006 14.0767 6.25006C18.3833 6.25006 21.875 10.0029 21.875 14.6323C21.875 19.2616 18.3833 23.0145 14.0767 23.0145C9.76953 23.0145 6.27783 19.2616 6.27783 14.6323Z" clip-rule="evenodd" fill="#ED0006" fill-opacity="1.000000" fill-rule="evenodd" mask="url(#mask_201_22432)"/>
	<path id="Left" d="" fill="#979797" fill-opacity="0.000000" fill-rule="nonzero"/>
	<mask id="mask_201_22434" fill="white">
		<path id="Right" d="M16.395 14.6323C16.395 10.0029 19.8867 6.25006 24.1938 6.25006C28.5005 6.25006 31.9922 10.0029 31.9922 14.6323C31.9922 19.2616 28.5005 23.0145 24.1938 23.0145C19.8867 23.0145 16.395 19.2616 16.395 14.6323Z" clip-rule="evenodd" fill="" fill-opacity="1.000000" fill-rule="evenodd"/>
	</mask>
	<path id="Right" d="M16.395 14.6323C16.395 10.0029 19.8867 6.25006 24.1938 6.25006C28.5005 6.25006 31.9922 10.0029 31.9922 14.6323C31.9922 19.2616 28.5005 23.0145 24.1938 23.0145C19.8867 23.0145 16.395 19.2616 16.395 14.6323Z" clip-rule="evenodd" fill="#2F80ED" fill-opacity="1.000000" fill-rule="evenodd" mask="url(#mask_201_22434)"/>
	<path id="Right" d="" fill="#979797" fill-opacity="0.000000" fill-rule="nonzero"/>
	<path id="Middle" d="M19.1353 8.2525C17.458 9.78998 16.395 12.0776 16.395 14.6323C16.395 17.1869 17.458 19.4745 19.1353 21.012C20.812 19.4745 21.875 17.1869 21.875 14.6323C21.875 12.0776 20.812 9.78998 19.1353 8.2525Z" clip-rule="evenodd" fill="#6C6BBD" fill-opacity="1.000000" fill-rule="evenodd"/>
</svg>
