<svg width="50.000000" height="50.000000" viewBox="0 0 50 50" fill="none" xmlns="http://www.w3.org/2000/svg" xmlns:xlink="http://www.w3.org/1999/xlink">
	<desc>
			Created with Pixso.
	</desc>
	<defs>
		<clipPath id="clip201_29248">
			<rect id="fluent:mail-20-regular" width="24.000000" height="24.000000" transform="translate(13.000000 13.000000)" fill="white" fill-opacity="0"/>
		</clipPath>
	</defs>
	<g opacity="0.300000">
		<circle id="Ellipse 6" cx="25.000000" cy="25.000000" r="25.000000" fill="#FA8B02" fill-opacity="1.000000"/>
	</g>
	<rect id="fluent:mail-20-regular" width="24.000000" height="24.000000" transform="translate(13.000000 13.000000)" fill="#FFFFFF" fill-opacity="0"/>
	<g clip-path="url(#clip201_29248)">
		<path id="Vector" d="M31.6 17.79C32.39 17.79 33.15 18.11 33.72 18.67C34.28 19.24 34.6 20 34.6 20.8L34.6 30.4C34.6 31.19 34.28 31.95 33.72 32.52C33.15 33.08 32.39 33.4 31.6 33.4L18.4 33.4C17.6 33.4 16.84 33.08 16.27 32.52C15.71 31.95 15.4 31.19 15.4 30.4L15.4 20.8C15.4 20 15.71 19.24 16.27 18.67C16.84 18.11 17.6 17.79 18.4 17.79L31.6 17.79ZM33.4 22.55L25.3 27.31C25.22 27.36 25.14 27.38 25.05 27.39C24.96 27.4 24.87 27.39 24.79 27.36L24.69 27.31L16.6 22.55L16.6 30.4C16.6 30.87 16.79 31.33 17.12 31.67C17.46 32.01 17.92 32.2 18.4 32.2L31.6 32.2C32.07 32.2 32.53 32.01 32.87 31.67C33.21 31.33 33.4 30.87 33.4 30.4L33.4 22.55ZM31.6 19L18.4 19C17.92 19 17.46 19.18 17.12 19.52C16.79 19.86 16.6 20.32 16.6 20.8L16.6 21.16L25 26.1L33.4 21.16L33.4 20.8C33.4 20.32 33.21 19.86 32.87 19.52C32.53 19.18 32.07 19 31.6 19Z" fill="#FA8B02" fill-opacity="1.000000" fill-rule="nonzero"/>
		<path id="Vector" d="M34.34 18.96Q34.16 18.69 33.93 18.46Q33.7 18.23 33.43 18.05Q33.16 17.87 32.86 17.75Q32.55 17.62 32.24 17.56Q31.92 17.5 31.6 17.5L18.4 17.5Q18.07 17.5 17.75 17.56Q17.44 17.62 17.13 17.75Q16.83 17.87 16.56 18.05Q16.29 18.23 16.06 18.46Q15.83 18.69 15.65 18.96Q15.47 19.23 15.35 19.53Q15.22 19.84 15.16 20.15Q15.1 20.47 15.1 20.8L15.1 30.4Q15.1 30.72 15.16 31.04Q15.22 31.35 15.35 31.66Q15.47 31.96 15.65 32.23Q15.83 32.5 16.06 32.73Q16.29 32.96 16.56 33.14Q16.83 33.32 17.13 33.44Q17.44 33.57 17.75 33.63Q18.07 33.7 18.4 33.7L31.6 33.7Q31.92 33.7 32.24 33.63Q32.55 33.57 32.86 33.44Q33.16 33.32 33.43 33.14Q33.7 32.96 33.93 32.73Q34.16 32.5 34.34 32.23Q34.52 31.96 34.64 31.66Q34.77 31.35 34.83 31.04Q34.9 30.72 34.9 30.4L34.9 20.8Q34.9 20.47 34.83 20.15Q34.77 19.84 34.64 19.53Q34.52 19.23 34.34 18.96ZM31.6 17.79C32.39 17.79 33.15 18.11 33.72 18.67C34.28 19.24 34.6 20 34.6 20.8L34.6 30.4C34.6 31.19 34.28 31.95 33.72 32.52C33.15 33.08 32.39 33.4 31.6 33.4L18.4 33.4C17.6 33.4 16.84 33.08 16.27 32.52C15.71 31.95 15.4 31.19 15.4 30.4L15.4 20.8C15.4 20 15.71 19.24 16.27 18.67C16.84 18.11 17.6 17.79 18.4 17.79L31.6 17.79ZM31.6 19L18.4 19C17.92 19 17.46 19.18 17.12 19.52C16.79 19.86 16.6 20.32 16.6 20.8L16.6 21.16L25 26.1L33.4 21.16L33.4 20.8C33.4 20.32 33.21 19.86 32.87 19.52C32.53 19.18 32.07 19 31.6 19ZM33.1 20.98L33.1 20.8Q33.1 20.65 33.07 20.5Q33.04 20.36 32.98 20.22Q32.92 20.08 32.84 19.96Q32.76 19.84 32.66 19.73Q32.55 19.63 32.43 19.55Q32.31 19.47 32.17 19.41Q32.03 19.35 31.89 19.32Q31.75 19.29 31.6 19.29L18.4 19.29Q18.25 19.29 18.1 19.32Q17.96 19.35 17.82 19.41Q17.68 19.47 17.56 19.55Q17.44 19.63 17.33 19.73Q17.23 19.84 17.15 19.96Q17.07 20.08 17.01 20.22Q16.95 20.36 16.92 20.5Q16.9 20.65 16.9 20.8L16.9 20.99L25 25.75L33.1 20.98ZM24.69 27.31L16.9 22.73L16.6 22.55L16.6 30.4C16.6 30.87 16.79 31.33 17.12 31.67C17.46 32.01 17.92 32.2 18.4 32.2L31.6 32.2C32.07 32.2 32.53 32.01 32.87 31.67C33.21 31.33 33.4 30.87 33.4 30.4L33.4 22.55L33.1 22.72L25.3 27.31C25.22 27.36 25.14 27.38 25.05 27.39C24.96 27.4 24.87 27.39 24.79 27.36L24.69 27.31ZM33.1 23.07L25.45 27.57L25.45 27.57Q25.37 27.62 25.27 27.65Q25.18 27.68 25.08 27.69Q24.98 27.7 24.88 27.69Q24.78 27.67 24.69 27.64L24.67 27.64L24.55 27.58L16.9 23.08L16.9 30.4Q16.9 30.54 16.92 30.69Q16.95 30.83 17.01 30.97Q17.07 31.11 17.15 31.23Q17.23 31.35 17.33 31.46Q17.44 31.56 17.56 31.64Q17.68 31.72 17.82 31.78Q17.96 31.84 18.1 31.87Q18.25 31.9 18.4 31.9L31.6 31.9Q31.75 31.9 31.89 31.87Q32.03 31.84 32.17 31.78Q32.31 31.72 32.43 31.64Q32.55 31.56 32.66 31.46Q32.76 31.35 32.84 31.23Q32.92 31.11 32.98 30.97Q33.04 30.83 33.07 30.69Q33.1 30.54 33.1 30.4L33.1 23.07Z" fill="#FA8B02" fill-opacity="1.000000" fill-rule="evenodd"/>
	</g>
</svg>
