<svg width="40.000000" height="30.000000" viewBox="0 0 40 30" fill="none" xmlns="http://www.w3.org/2000/svg" xmlns:xlink="http://www.w3.org/1999/xlink">
	<desc>
			Created with Pixso.
	</desc>
	<defs/>
	<rect id="Mastercard" rx="12.000000" width="40.000000" height="30.000000" transform="translate(-0.197266 0.000000)" fill="#FFFFFF" fill-opacity="0"/>
	<rect id="BASE" width="40.000000" height="30.000000" transform="translate(-0.197266 0.000000)" fill="#FFFFFF" fill-opacity="0"/>
	<rect id="BASE" x="-0.197266" rx="4.000000" width="40.000000" height="30.000000" fill="#FFFFFF" fill-opacity="1.000000"/>
	<rect id="BASE" x="0.302734" y="0.500000" rx="4.000000" width="39.000000" height="29.000000" stroke="#B2BCCA" stroke-opacity="1.000000" stroke-width="1.000000"/>
	<mask id="mask_201_22392" fill="white">
		<path id="Left" d="M14.8384 6.28754C10.4331 6.28754 6.86133 10.0372 6.86133 14.6625C6.86133 19.2879 10.4331 23.0375 14.8384 23.0375C16.813 23.0375 18.6201 22.2844 20.0132 21.0369C21.4062 22.2844 23.2129 23.0375 25.1875 23.0375C29.5933 23.0375 33.1646 19.2879 33.1646 14.6625C33.1646 10.0372 29.5933 6.28754 25.1875 6.28754C23.2129 6.28754 21.4062 7.04065 20.0132 8.28821C18.6201 7.04065 16.813 6.28754 14.8384 6.28754Z" clip-rule="evenodd" fill="" fill-opacity="1.000000" fill-rule="evenodd"/>
	</mask>
	<path id="Left" d="M14.8384 6.28754C10.4331 6.28754 6.86133 10.0372 6.86133 14.6625C6.86133 19.2879 10.4331 23.0375 14.8384 23.0375C16.813 23.0375 18.6201 22.2844 20.0132 21.0369C21.4062 22.2844 23.2129 23.0375 25.1875 23.0375C29.5933 23.0375 33.1646 19.2879 33.1646 14.6625C33.1646 10.0372 29.5933 6.28754 25.1875 6.28754C23.2129 6.28754 21.4062 7.04065 20.0132 8.28821C18.6201 7.04065 16.813 6.28754 14.8384 6.28754Z" clip-rule="evenodd" fill="#ED0006" fill-opacity="1.000000" fill-rule="evenodd" mask="url(#mask_201_22392)"/>
	<path id="Left" d="" fill="#979797" fill-opacity="0.000000" fill-rule="nonzero"/>
	<mask id="mask_201_22395" fill="white">
		<path id="Right" d="M20.0132 21.0369C21.4062 22.2844 23.2129 23.0375 25.1875 23.0375C29.5933 23.0375 33.165 19.2879 33.165 14.6625C33.165 10.0372 29.5933 6.28754 25.1875 6.28754C23.2129 6.28754 21.4062 7.04065 20.0132 8.28815C21.7285 9.82428 22.8159 12.11 22.8159 14.6625C22.8159 17.215 21.7285 19.5008 20.0132 21.0369Z" clip-rule="evenodd" fill="" fill-opacity="1.000000" fill-rule="evenodd"/>
	</mask>
	<path id="Right" d="M20.0132 21.0369C21.4062 22.2844 23.2129 23.0375 25.1875 23.0375C29.5933 23.0375 33.165 19.2879 33.165 14.6625C33.165 10.0372 29.5933 6.28754 25.1875 6.28754C23.2129 6.28754 21.4062 7.04065 20.0132 8.28815C21.7285 9.82428 22.8159 12.11 22.8159 14.6625C22.8159 17.215 21.7285 19.5008 20.0132 21.0369Z" clip-rule="evenodd" fill="#F9A000" fill-opacity="1.000000" fill-rule="evenodd" mask="url(#mask_201_22395)"/>
	<path id="Right" d="" fill="#979797" fill-opacity="0.000000" fill-rule="nonzero"/>
	<path id="Middle" d="M20.0132 8.28821C21.7285 9.82434 22.8159 12.1101 22.8159 14.6625C22.8159 17.215 21.7285 19.5007 20.0132 21.0368C18.2979 19.5007 17.2104 17.215 17.2104 14.6625C17.2104 12.1101 18.2979 9.82434 20.0132 8.28821Z" clip-rule="evenodd" fill="#FD6020" fill-opacity="1.000000" fill-rule="evenodd"/>
</svg>
