<svg width="25.000000" height="22.000000" viewBox="0 0 25 22" fill="none" xmlns="http://www.w3.org/2000/svg" xmlns:xlink="http://www.w3.org/1999/xlink">
	<desc>
			Created with Pixso.
	</desc>
	<defs/>
	<path id="Vector" d="M11.98 11.11C11.82 12.12 11.7 12.98 11.57 13.84C11.54 14.02 11.63 14.07 11.79 14.1C12.08 14.15 12.19 14.34 12.07 14.6C11.98 14.78 12.02 14.92 12.06 15.09C12.18 15.65 11.87 16.25 11.33 16.36C10.89 16.44 10.86 16.66 10.81 17.02C10.61 18.78 8.99 19.97 7.32 19.63C5.54 19.27 4.5 17.56 5 15.84C5.12 15.4 5.36 15 5.67 14.67C5.85 14.49 6.05 14.31 6.29 14.54C6.5 14.75 6.36 14.95 6.2 15.13C5.96 15.39 5.79 15.7 5.68 16.03C5.58 16.37 5.56 16.72 5.62 17.06C5.8 18.28 6.94 19.12 8.2 18.95C9.37 18.79 10.24 17.66 10.13 16.48C10.1 16.15 9.97 16.16 9.73 16.27C9.22 16.5 8.71 16.72 8.2 16.93C7.73 17.14 7.56 17.04 7.5 16.54C7.37 15.25 7.2 13.95 7.12 12.65C7.08 12.09 6.7 11.88 6.38 11.59C6.22 11.45 6.09 11.63 5.96 11.69C5.73 11.8 5.51 11.83 5.38 11.57C5.25 11.3 5.42 11.16 5.62 11.07C6.02 10.89 6.14 10.74 5.83 10.3C5.29 9.54 5.56 8.53 6.37 8.04C7.12 7.59 7.87 7.15 8.63 6.73C8.74 6.68 8.83 6.6 8.9 6.5C8.97 6.4 9 6.29 9.01 6.17C9.03 5.89 9.17 5.63 9.38 5.45C9.59 5.26 9.87 5.17 10.15 5.18C10.41 5.19 10.66 5.3 10.86 5.48C11.05 5.66 11.17 5.91 11.19 6.17C11.21 6.31 11.2 6.45 11.17 6.59C11.13 6.72 11.07 6.85 10.98 6.96C10.89 7.07 10.79 7.16 10.66 7.23C10.54 7.29 10.41 7.34 10.27 7.35C9.97 7.4 9.88 7.49 9.93 7.78C9.98 8.08 10.01 8.39 10.06 8.75C10.51 8.52 10.82 8.17 11.19 7.89C11.4 7.74 11.61 7.58 11.82 7.85C12 8.09 11.83 8.26 11.65 8.42C10.92 9.1 10.92 9.1 11.64 9.82L11.68 9.86C11.95 10.12 12.18 10.51 12.51 10.63C12.9 10.77 13.08 10.24 13.39 10.05C14.49 9.38 15.92 9.43 16.91 10.24C17.4 10.63 17.75 11.16 17.91 11.77C18.08 12.37 18.05 13 17.83 13.59C17.62 14.17 17.22 14.68 16.71 15.03C16.19 15.38 15.58 15.56 14.96 15.54C14.33 15.53 13.73 15.32 13.23 14.95C12.74 14.57 12.37 14.05 12.19 13.45C12.13 13.25 12.02 13.02 12.24 12.88C12.63 12.62 12.74 12.91 12.85 13.22C13.28 14.4 14.29 15 15.47 14.78C16.44 14.6 17.15 13.84 17.29 12.82C17.34 12.35 17.25 11.87 17.02 11.45C16.79 11.04 16.44 10.71 16.01 10.5C15.58 10.3 15.1 10.23 14.64 10.31C14.17 10.39 13.74 10.62 13.41 10.95C13.12 11.23 13.19 11.39 13.48 11.6C13.9 11.9 14.39 12.02 14.88 12.15C15.14 12.22 15.43 12.29 15.34 12.64C15.24 13 14.95 12.88 14.69 12.83C13.6 12.65 12.77 12.05 11.98 11.11ZM6.4 8.84C7.35 9.16 7.44 9.15 8.1 8.77C8.3 8.65 8.48 8.51 8.69 8.43C9.27 8.22 9.35 7.83 9.09 7.27L6.4 8.84ZM10.82 13.24L10.94 13.22C11.07 12.41 11.19 11.6 11.32 10.8C11.34 10.68 11.39 10.55 11.26 10.46C11.13 10.38 11.04 10.5 10.94 10.55C10.69 10.69 10.46 10.84 10.21 10.97C10.05 11.06 9.95 11.15 10.03 11.34L10.82 13.24ZM10.36 14.27C10.38 14.17 10.4 14.13 10.39 14.11C10.17 13.54 9.94 12.98 9.71 12.41C9.46 11.78 8.81 11.63 8.29 12.07C8.16 12.17 8.15 12.25 8.27 12.35C8.96 12.98 9.64 13.61 10.36 14.27ZM8.02 14.79C8.04 15.02 8.06 15.17 8.07 15.32C8.17 16.17 8.18 16.18 8.94 15.82C9.2 15.7 9.66 15.68 9.66 15.41C9.66 15.05 9.24 14.86 8.93 14.68C8.79 14.61 8.64 14.56 8.49 14.51C8.16 14.4 7.93 14.41 8.02 14.79L8.02 14.79ZM9.11 10.97C8.41 10.08 7.45 9.74 6.34 9.64C6.5 10.26 7.5 10.75 9.11 10.97L9.11 10.97ZM8.37 9.44C8.75 9.67 9.12 9.81 9.35 10.07C9.65 10.4 9.89 10.41 10.2 10.15C10.34 10.04 10.64 10.05 10.57 9.79C10.52 9.58 10.31 9.52 10.06 9.56C9.8 9.6 9.54 9.49 9.47 9.24C9.36 8.79 9.15 8.97 8.92 9.1L8.37 9.44ZM10.08 5.89C9.85 5.93 9.71 6.06 9.72 6.3C9.72 6.35 9.73 6.4 9.75 6.44C9.77 6.49 9.8 6.53 9.83 6.56C9.87 6.59 9.91 6.62 9.95 6.63C10 6.65 10.05 6.66 10.1 6.65C10.34 6.65 10.5 6.51 10.49 6.27C10.48 6.02 10.33 5.9 10.08 5.89L10.08 5.89ZM11.37 15.35C11.37 15.1 11.23 14.96 10.99 14.95C10.95 14.94 10.9 14.95 10.85 14.96C10.81 14.97 10.76 15 10.73 15.03C10.69 15.06 10.66 15.1 10.64 15.14C10.62 15.18 10.61 15.23 10.61 15.28C10.58 15.52 10.7 15.68 10.95 15.7C11.19 15.72 11.33 15.59 11.37 15.35L11.37 15.35ZM7.92 13C7.88 13.73 7.88 13.74 8.74 13.75L7.92 13Z" fill="#FA8B02" fill-opacity="1.000000" fill-rule="nonzero"/>
	<path id="Vector" d="M11.57 13.84C11.54 14.02 11.63 14.07 11.79 14.1C12.08 14.15 12.19 14.34 12.07 14.6C11.98 14.78 12.02 14.92 12.06 15.09C12.18 15.65 11.87 16.25 11.33 16.36C10.89 16.44 10.86 16.66 10.81 17.02C10.61 18.78 8.99 19.97 7.32 19.63C5.54 19.27 4.5 17.56 5 15.84C5.12 15.4 5.36 15 5.67 14.67C5.85 14.49 6.05 14.31 6.29 14.54C6.5 14.75 6.36 14.95 6.2 15.13C5.96 15.39 5.79 15.7 5.68 16.03C5.58 16.37 5.56 16.72 5.62 17.06C5.8 18.28 6.94 19.12 8.2 18.95C9.37 18.79 10.24 17.66 10.13 16.48C10.1 16.15 9.97 16.16 9.73 16.27C9.22 16.5 8.71 16.72 8.2 16.93C7.73 17.14 7.56 17.04 7.5 16.54C7.37 15.25 7.2 13.95 7.12 12.65C7.08 12.09 6.7 11.88 6.38 11.59C6.22 11.45 6.09 11.63 5.96 11.69C5.73 11.8 5.51 11.83 5.38 11.57C5.25 11.3 5.42 11.16 5.62 11.07C6.02 10.89 6.14 10.74 5.83 10.3C5.29 9.54 5.56 8.53 6.37 8.04C7.12 7.59 7.87 7.15 8.63 6.73C8.74 6.68 8.83 6.6 8.9 6.5C8.97 6.4 9 6.29 9.01 6.17C9.03 5.89 9.17 5.63 9.38 5.45C9.59 5.26 9.87 5.17 10.15 5.18C10.41 5.19 10.66 5.3 10.86 5.48C11.05 5.66 11.17 5.91 11.19 6.17C11.21 6.31 11.2 6.45 11.17 6.59C11.13 6.72 11.07 6.85 10.98 6.96C10.89 7.07 10.79 7.16 10.66 7.23C10.54 7.29 10.41 7.34 10.27 7.35C9.97 7.4 9.88 7.49 9.93 7.78C9.98 8.08 10.01 8.39 10.06 8.75C10.51 8.52 10.82 8.17 11.19 7.89C11.4 7.74 11.61 7.58 11.82 7.85C12 8.09 11.83 8.26 11.65 8.42C10.92 9.1 10.92 9.1 11.64 9.82L11.68 9.86C11.95 10.12 12.18 10.51 12.51 10.63C12.9 10.77 13.08 10.24 13.39 10.05C14.49 9.38 15.92 9.43 16.91 10.24C17.4 10.63 17.75 11.16 17.91 11.77C18.08 12.37 18.05 13 17.83 13.59C17.62 14.17 17.22 14.68 16.71 15.03C16.19 15.38 15.58 15.56 14.96 15.54C14.33 15.53 13.73 15.32 13.23 14.95C12.74 14.57 12.37 14.05 12.19 13.45C12.13 13.25 12.02 13.02 12.24 12.88C12.63 12.62 12.74 12.91 12.85 13.22C13.28 14.4 14.29 15 15.47 14.78C16.44 14.6 17.15 13.84 17.29 12.82C17.34 12.35 17.25 11.87 17.02 11.45C16.79 11.04 16.44 10.71 16.01 10.5C15.58 10.3 15.1 10.23 14.64 10.31C14.17 10.39 13.74 10.62 13.41 10.95C13.12 11.23 13.19 11.39 13.48 11.6C13.9 11.9 14.39 12.02 14.88 12.15C15.14 12.22 15.43 12.29 15.34 12.64C15.24 13 14.95 12.88 14.69 12.83C13.6 12.65 12.77 12.05 11.98 11.11C11.82 12.12 11.7 12.98 11.57 13.84ZM8.1 8.77C8.3 8.65 8.48 8.51 8.69 8.43C9.27 8.22 9.35 7.83 9.09 7.27L6.4 8.84C7.35 9.16 7.44 9.15 8.1 8.77ZM10.94 13.22C11.07 12.41 11.19 11.6 11.32 10.8C11.34 10.68 11.39 10.55 11.26 10.46C11.13 10.38 11.04 10.5 10.94 10.55C10.69 10.69 10.46 10.84 10.21 10.97C10.05 11.06 9.95 11.15 10.03 11.34L10.82 13.24L10.94 13.22ZM10.39 14.11C10.17 13.54 9.94 12.98 9.71 12.41C9.46 11.78 8.81 11.63 8.29 12.07C8.16 12.17 8.15 12.25 8.27 12.35C8.96 12.98 9.64 13.61 10.36 14.27C10.38 14.17 10.4 14.13 10.39 14.11ZM8.07 15.32C8.17 16.17 8.18 16.18 8.94 15.82C9.2 15.7 9.66 15.68 9.66 15.41C9.66 15.05 9.24 14.86 8.93 14.68C8.79 14.61 8.64 14.56 8.49 14.51C8.16 14.4 7.93 14.41 8.02 14.79L8.02 14.79C8.04 15.02 8.06 15.17 8.07 15.32ZM6.34 9.64C6.5 10.26 7.5 10.75 9.11 10.97L9.11 10.97C8.41 10.08 7.45 9.74 6.34 9.64ZM9.35 10.07C9.65 10.4 9.89 10.41 10.2 10.15C10.34 10.04 10.64 10.05 10.57 9.79C10.52 9.58 10.31 9.52 10.06 9.56C9.8 9.6 9.54 9.49 9.47 9.24C9.36 8.79 9.15 8.97 8.92 9.1L8.37 9.44C8.75 9.67 9.12 9.81 9.35 10.07ZM9.72 6.3C9.72 6.35 9.73 6.4 9.75 6.44C9.77 6.49 9.8 6.53 9.83 6.56C9.87 6.59 9.91 6.62 9.95 6.63C10 6.65 10.05 6.66 10.1 6.65C10.34 6.65 10.5 6.51 10.49 6.27C10.48 6.02 10.33 5.9 10.08 5.89L10.08 5.89C9.85 5.93 9.71 6.06 9.72 6.3ZM10.99 14.95C10.95 14.94 10.9 14.95 10.85 14.96C10.81 14.97 10.76 15 10.73 15.03C10.69 15.06 10.66 15.1 10.64 15.14C10.62 15.18 10.61 15.23 10.61 15.28C10.58 15.52 10.7 15.68 10.95 15.7C11.19 15.72 11.33 15.59 11.37 15.35L11.37 15.35C11.37 15.1 11.23 14.96 10.99 14.95ZM8.74 13.75L7.92 13C7.88 13.73 7.88 13.74 8.74 13.75Z" stroke="#FA8B02" stroke-opacity="1.000000" stroke-width="0.200000"/>
	<path id="Vector" d="M23.52 17.79C22.42 17.46 21.33 17.14 20.22 16.82C19.99 16.76 19.87 16.69 19.87 16.42C19.88 13.72 19.88 11.02 19.87 8.32C19.87 7.94 20 7.97 20.26 8.12C20.76 8.41 21.26 8.69 21.75 8.98C21.95 9.09 22.15 9.23 22.38 9.05C22.58 8.88 22.49 8.66 22.43 8.47C21.59 5.72 20.76 2.98 19.92 0.23C19.85 0.03 19.79 -0.19 19.52 -0.19C19.25 -0.19 19.18 0.02 19.12 0.22C18.65 1.78 17.67 5.05 17.16 6.76C17.12 6.82 17.1 6.88 17.08 6.95C16.92 7.46 16.77 7.98 16.61 8.49C16.55 8.69 16.47 8.91 16.69 9.06C16.9 9.22 17.08 9.09 17.27 8.99C17.75 8.71 18.24 8.45 18.71 8.15C19.07 7.93 19.17 7.99 19.17 8.41C19.16 11.02 19.16 13.64 19.17 16.25C19.17 16.62 19.04 16.73 18.69 16.73C17.97 16.73 17.28 16.93 16.62 17.21C14.64 18.02 12.63 18.77 10.7 19.68C8.76 20.58 6.86 20.67 4.9 19.81C4.6 19.68 4.43 19.54 4.36 19.21C3.92 17.31 3.46 15.41 3.01 13.52C2.95 13.28 2.94 13 2.62 12.98C2.25 12.96 2.24 13.28 2.18 13.52C1.82 15.01 1.47 16.5 1.12 17.99C1.06 18.23 1.03 18.49 0.66 18.32C0.41 18.21 0.11 18.14 0.01 18.49C-0.09 18.85 0.23 18.92 0.48 19C2.25 19.63 4.02 20.26 5.8 20.86C7.16 21.33 8.66 21.28 9.99 20.71C12.26 19.78 14.52 18.84 16.79 17.89C18.06 17.34 19.49 17.27 20.82 17.68C21.65 17.94 22.48 18.19 23.31 18.45C23.57 18.53 23.86 18.63 23.97 18.29C24.08 17.95 23.78 17.86 23.52 17.79ZM1.9 18.74C1.74 18.69 1.67 18.62 1.72 18.44C1.99 17.32 2.26 16.2 2.65 15.08C2.98 16.47 3.31 17.85 3.68 19.37C3.01 19.14 2.46 18.93 1.9 18.74L1.9 18.74ZM19.05 7.15C18.57 7.43 18.08 7.7 17.51 8.02C17.59 7.75 17.64 7.54 17.7 7.34C17.72 7.29 17.73 7.24 17.75 7.19C18.06 6.18 18.92 3.28 19.24 2.27C19.31 2.03 19.34 1.77 19.56 1.5C20.22 3.67 20.87 5.79 21.54 8.03C20.94 7.69 20.46 7.42 19.98 7.15C19.84 7.06 19.68 7.01 19.51 7.01C19.35 7.01 19.19 7.06 19.05 7.15L19.05 7.15Z" fill="#FA8B02" fill-opacity="1.000000" fill-rule="nonzero"/>
	<path id="Vector" d="M20.22 16.82C19.99 16.76 19.87 16.69 19.87 16.42C19.88 13.72 19.88 11.02 19.87 8.32C19.87 7.94 20 7.97 20.26 8.12C20.76 8.41 21.26 8.69 21.75 8.98C21.95 9.09 22.15 9.23 22.38 9.05C22.58 8.88 22.49 8.66 22.43 8.47C21.59 5.72 20.76 2.98 19.92 0.23C19.85 0.03 19.79 -0.19 19.52 -0.19C19.25 -0.19 19.18 0.02 19.12 0.22C18.65 1.78 17.67 5.05 17.16 6.76C17.12 6.82 17.1 6.88 17.08 6.95C16.92 7.46 16.77 7.98 16.61 8.49C16.55 8.69 16.47 8.91 16.69 9.06C16.9 9.22 17.08 9.09 17.27 8.99C17.75 8.71 18.24 8.45 18.71 8.15C19.07 7.93 19.17 7.99 19.17 8.41C19.16 11.02 19.16 13.64 19.17 16.25C19.17 16.62 19.04 16.73 18.69 16.73C17.97 16.73 17.28 16.93 16.62 17.21C14.64 18.02 12.63 18.77 10.7 19.68C8.76 20.58 6.86 20.67 4.9 19.81C4.6 19.68 4.43 19.54 4.36 19.21C3.92 17.31 3.46 15.41 3.01 13.52C2.95 13.28 2.94 13 2.62 12.98C2.25 12.96 2.24 13.28 2.18 13.52C1.82 15.01 1.47 16.5 1.12 17.99C1.06 18.23 1.03 18.49 0.66 18.32C0.41 18.21 0.11 18.14 0.01 18.49C-0.09 18.85 0.23 18.92 0.48 19C2.25 19.63 4.02 20.26 5.8 20.86C7.16 21.33 8.66 21.28 9.99 20.71C12.26 19.78 14.52 18.84 16.79 17.89C18.06 17.34 19.49 17.27 20.82 17.68C21.65 17.94 22.48 18.19 23.31 18.45C23.57 18.53 23.86 18.63 23.97 18.29C24.08 17.95 23.78 17.86 23.52 17.79C22.42 17.46 21.33 17.14 20.22 16.82ZM1.72 18.44C1.99 17.32 2.26 16.2 2.65 15.08C2.98 16.47 3.31 17.85 3.68 19.37C3.01 19.14 2.46 18.93 1.9 18.74L1.9 18.74C1.74 18.69 1.67 18.62 1.72 18.44ZM17.51 8.02C17.59 7.75 17.64 7.54 17.7 7.34C17.72 7.29 17.73 7.24 17.75 7.19C18.06 6.18 18.92 3.28 19.24 2.27C19.31 2.03 19.34 1.77 19.56 1.5C20.22 3.67 20.87 5.79 21.54 8.03C20.94 7.69 20.46 7.42 19.98 7.15C19.84 7.06 19.68 7.01 19.51 7.01C19.35 7.01 19.19 7.06 19.05 7.15L19.05 7.15C18.57 7.43 18.08 7.7 17.51 8.02Z" stroke="#FA8B02" stroke-opacity="1.000000" stroke-width="0.200000"/>
</svg>
