<svg width="42.000000" height="30.000000" viewBox="0 0 42 30" fill="none" xmlns="http://www.w3.org/2000/svg" xmlns:xlink="http://www.w3.org/1999/xlink">
	<desc>
			Created with Pixso.
	</desc>
	<defs/>
	<rect id="PayPal" width="42.000000" height="30.000000" transform="translate(0.000000 -0.500000)" fill="#FFFFFF" fill-opacity="0"/>
	<rect id="BASE" width="42.000000" height="30.000000" transform="translate(0.000000 -0.500000)" fill="#FFFFFF" fill-opacity="0"/>
	<rect id="BASE" y="-0.500000" rx="4.000000" width="42.000000" height="30.000000" fill="#FFFFFF" fill-opacity="1.000000"/>
	<rect id="BASE" x="0.500000" rx="4.000000" width="41.000000" height="29.000000" stroke="#B2BCCA" stroke-opacity="1.000000" stroke-width="1.000000"/>
	<path id="Fill 7" d="M18.05 22.56L18.32 20.74L17.71 20.73L14.81 20.73L16.83 7.36C16.83 7.32 16.86 7.28 16.89 7.26C16.91 7.23 16.95 7.22 16.99 7.22L21.88 7.22C23.51 7.22 24.63 7.57 25.21 8.27C25.49 8.59 25.66 8.94 25.75 9.31C25.83 9.71 25.84 10.18 25.75 10.75L25.74 10.8L25.74 11.16L26.02 11.33C26.25 11.46 26.43 11.6 26.57 11.77C26.81 12.05 26.96 12.41 27.02 12.83C27.09 13.26 27.07 13.78 26.96 14.36C26.83 15.03 26.63 15.62 26.36 16.1C26.11 16.54 25.79 16.9 25.41 17.19C25.04 17.46 24.61 17.66 24.12 17.79C23.65 17.92 23.11 17.98 22.52 17.98L22.14 17.98C21.87 17.98 21.61 18.09 21.4 18.27C21.19 18.46 21.05 18.71 21.01 19L20.98 19.16L20.5 22.35L20.48 22.47C20.47 22.51 20.46 22.52 20.45 22.54C20.44 22.55 20.42 22.56 20.4 22.56L18.05 22.56Z" fill="#28356A" fill-opacity="1.000000" fill-rule="evenodd"/>
	<path id="Fill 8" d="M26.28 10.84C26.26 10.94 26.25 11.04 26.23 11.14C25.58 14.6 23.38 15.8 20.56 15.8L19.12 15.8C18.78 15.8 18.49 16.06 18.43 16.42L17.49 22.67C17.46 22.9 17.63 23.11 17.85 23.11L20.4 23.11C20.7 23.11 20.96 22.88 21 22.57L21.03 22.44L21.51 19.26L21.54 19.08C21.59 18.77 21.84 18.54 22.14 18.54L22.52 18.54C24.99 18.54 26.92 17.5 27.48 14.47C27.72 13.2 27.6 12.14 26.97 11.4C26.79 11.18 26.55 10.99 26.28 10.84Z" fill="#2F80ED" fill-opacity="1.000000" fill-rule="evenodd"/>
	<path id="Fill 9" d="M25.6 10.56C25.5 10.53 25.4 10.5 25.3 10.48C25.19 10.45 25.09 10.43 24.98 10.41C24.59 10.35 24.16 10.32 23.71 10.32L19.88 10.32C19.78 10.32 19.69 10.34 19.61 10.38C19.44 10.47 19.31 10.64 19.27 10.86L18.46 16.26L18.43 16.42C18.49 16.06 18.78 15.8 19.12 15.8L20.56 15.8C23.38 15.8 25.58 14.6 26.23 11.14C26.25 11.04 26.26 10.94 26.28 10.84C26.11 10.75 25.94 10.67 25.75 10.6C25.7 10.59 25.65 10.57 25.6 10.56Z" fill="#28356A" fill-opacity="1.000000" fill-rule="evenodd"/>
	<path id="Fill 11" d="M19.27 10.86C19.3 10.64 19.44 10.47 19.61 10.38C19.69 10.34 19.78 10.32 19.88 10.32L23.71 10.32C24.16 10.32 24.59 10.35 24.98 10.41C25.09 10.43 25.19 10.45 25.3 10.48C25.4 10.5 25.5 10.53 25.6 10.56C25.65 10.57 25.7 10.59 25.75 10.6C25.94 10.67 26.12 10.75 26.28 10.84C26.47 9.56 26.28 8.69 25.62 7.9C24.89 7.03 23.57 6.66 21.88 6.66L16.99 6.66C16.65 6.66 16.36 6.92 16.3 7.28L14.27 20.78C14.23 21.05 14.42 21.29 14.68 21.29L17.7 21.29L19.27 10.86Z" fill="#28356A" fill-opacity="1.000000" fill-rule="evenodd"/>
</svg>
