<svg width="43.000000" height="30.000000" viewBox="0 0 43 30" fill="none" xmlns="http://www.w3.org/2000/svg" xmlns:xlink="http://www.w3.org/1999/xlink">
	<desc>
			Created with Pixso.
	</desc>
	<defs/>
	<rect id="PayPal" width="42.500000" height="30.000000" fill="#FFFFFF" fill-opacity="0"/>
	<rect id="BASE" width="42.500000" height="30.000000" fill="#FFFFFF" fill-opacity="0"/>
	<rect id="BASE" rx="4.000000" width="42.500000" height="30.000000" fill="#FFFFFF" fill-opacity="1.000000"/>
	<rect id="BASE" x="0.500000" y="0.500000" rx="4.000000" width="41.500000" height="29.000000" stroke="#B2BCCA" stroke-opacity="1.000000" stroke-width="1.000000"/>
	<path id="Fill 7" d="M18.26 23.06L18.54 21.24L17.92 21.23L14.99 21.23L17.03 7.86C17.04 7.82 17.06 7.78 17.09 7.76C17.12 7.73 17.15 7.72 17.19 7.72L22.14 7.72C23.79 7.72 24.92 8.07 25.51 8.77C25.79 9.09 25.97 9.44 26.05 9.81C26.14 10.21 26.14 10.68 26.06 11.25L26.05 11.3L26.05 11.66L26.33 11.83C26.56 11.96 26.75 12.1 26.89 12.27C27.13 12.55 27.28 12.91 27.34 13.33C27.41 13.76 27.39 14.28 27.28 14.86C27.15 15.53 26.95 16.12 26.67 16.6C26.42 17.04 26.09 17.4 25.71 17.69C25.34 17.96 24.91 18.16 24.41 18.29C23.93 18.42 23.39 18.48 22.79 18.48L22.41 18.48C22.13 18.48 21.86 18.59 21.65 18.77C21.44 18.96 21.3 19.21 21.26 19.5L21.23 19.66L20.74 22.85L20.72 22.97C20.72 23.01 20.71 23.02 20.69 23.04C20.68 23.05 20.66 23.06 20.64 23.06L18.26 23.06Z" fill="#28356A" fill-opacity="1.000000" fill-rule="evenodd"/>
	<path id="Fill 8" d="M26.59 11.34C26.58 11.44 26.56 11.54 26.54 11.64C25.89 15.1 23.65 16.3 20.8 16.3L19.35 16.3C19 16.3 18.71 16.56 18.65 16.92L17.7 23.17C17.66 23.4 17.84 23.61 18.07 23.61L20.64 23.61C20.95 23.61 21.21 23.38 21.25 23.07L21.28 22.94L21.76 19.76L21.79 19.58C21.84 19.27 22.1 19.04 22.41 19.04L22.79 19.04C25.29 19.04 27.24 18 27.81 14.97C28.05 13.7 27.93 12.64 27.29 11.9C27.1 11.68 26.87 11.49 26.59 11.34Z" fill="#2F80ED" fill-opacity="1.000000" fill-rule="evenodd"/>
	<path id="Fill 9" d="M25.91 11.06C25.81 11.03 25.7 11 25.6 10.98C25.49 10.95 25.38 10.93 25.27 10.91C24.88 10.85 24.45 10.82 23.99 10.82L20.11 10.82C20.02 10.82 19.93 10.84 19.85 10.88C19.67 10.97 19.53 11.14 19.5 11.36L18.68 16.76L18.65 16.92C18.71 16.56 19 16.3 19.35 16.3L20.8 16.3C23.65 16.3 25.89 15.1 26.54 11.64C26.56 11.54 26.57 11.44 26.59 11.34C26.42 11.25 26.25 11.17 26.05 11.1C26.01 11.09 25.96 11.07 25.91 11.06Z" fill="#28356A" fill-opacity="1.000000" fill-rule="evenodd"/>
	<path id="Fill 11" d="M19.5 11.36C19.53 11.14 19.67 10.97 19.85 10.88C19.93 10.84 20.02 10.82 20.11 10.82L23.99 10.82C24.45 10.82 24.88 10.85 25.27 10.91C25.38 10.93 25.49 10.95 25.6 10.98C25.7 11 25.81 11.03 25.91 11.06C25.96 11.07 26.01 11.09 26.05 11.1C26.25 11.17 26.42 11.25 26.59 11.34C26.78 10.06 26.59 9.19 25.92 8.4C25.18 7.53 23.85 7.16 22.14 7.16L17.2 7.16C16.85 7.16 16.55 7.42 16.5 7.78L14.43 21.28C14.39 21.55 14.59 21.79 14.85 21.79L17.91 21.79L19.5 11.36Z" fill="#28356A" fill-opacity="1.000000" fill-rule="evenodd"/>
</svg>
