<svg width="23.000000" height="22.000000" viewBox="0 0 23 22" fill="none" xmlns="http://www.w3.org/2000/svg" xmlns:xlink="http://www.w3.org/1999/xlink">
	<desc>
			Created with Pixso.
	</desc>
	<defs/>
	<path id="Vector" d="M-0.5 16.37C-0.5 15.12 -0.5 13.86 -0.5 12.61C-0.5 11.63 -0.14 11.27 0.82 11.27C2.08 11.27 3.35 11.28 4.62 11.26C5.21 11.25 5.68 11.42 5.88 12.02C5.99 12.31 6.14 12.14 6.27 12.08C7.43 11.47 7.99 10.45 8.2 9.2C8.32 8.52 8.3 7.83 8.32 7.15C8.33 6.68 8.32 6.16 8.87 5.97C9.39 5.79 9.81 6.08 10.16 6.43C10.64 6.91 10.87 7.53 10.97 8.18C11.17 9.48 11.12 10.78 10.5 11.98C10.33 12.3 10.38 12.37 10.73 12.37C12.3 12.36 13.87 12.38 15.44 12.36C16.05 12.35 16.54 12.51 16.79 13.09C17.02 13.64 16.9 14.15 16.43 14.53C16.27 14.66 16.31 14.75 16.39 14.9C16.77 15.64 16.65 16.11 15.97 16.63C15.82 16.74 15.79 16.8 15.87 16.98C16.19 17.81 16.02 18.26 15.22 18.71C15.04 18.81 15.05 18.88 15.11 19.06C15.44 20.1 14.86 20.89 13.76 20.89C11.52 20.89 9.28 20.89 7.05 20.9C6.7 20.9 6.39 20.69 6.09 20.68C5.75 20.68 5.79 21.22 5.47 21.37C5.25 21.48 5 21.54 4.75 21.54C3.4 21.54 2.05 21.54 0.7 21.54C-0.1 21.54 -0.5 21.14 -0.5 20.33C-0.5 19.01 -0.5 17.69 -0.5 16.37ZM10.4 20.45C11.54 20.45 12.67 20.45 13.81 20.45C14.37 20.45 14.77 20.07 14.79 19.59C14.8 19.1 14.44 18.82 13.83 18.81C13.03 18.81 12.23 18.81 11.42 18.8C11.23 18.8 10.96 18.86 10.95 18.58C10.95 18.29 11.22 18.34 11.41 18.34C12.5 18.34 13.58 18.34 14.67 18.33C15.25 18.33 15.57 18.04 15.57 17.56C15.56 17.1 15.24 16.82 14.69 16.81C14.06 16.8 13.42 16.81 12.79 16.81C12.6 16.81 12.32 16.87 12.33 16.58C12.34 16.29 12.62 16.35 12.81 16.35C13.59 16.34 14.37 16.35 15.16 16.35C15.81 16.35 16.12 16.11 16.12 15.6C16.13 15.09 15.81 14.82 15.19 14.81C14.94 14.81 14.69 14.81 14.44 14.81L12.93 14.81C12.77 14.81 12.62 14.78 12.63 14.57C12.64 14.4 12.79 14.39 12.93 14.38C13.05 14.37 13.17 14.38 13.28 14.38C14.07 14.38 14.85 14.38 15.64 14.37C15.96 14.37 16.23 14.26 16.37 13.94C16.43 13.81 16.46 13.65 16.44 13.5C16.42 13.35 16.36 13.21 16.27 13.09C16.05 12.82 15.75 12.82 15.44 12.82C13.66 12.82 11.87 12.82 10.08 12.82C9.94 12.82 9.77 12.86 9.68 12.7C9.58 12.54 9.71 12.42 9.79 12.3C10.74 10.97 10.74 9.49 10.47 7.98C10.38 7.43 10.08 6.93 9.63 6.6C9.46 6.46 9.26 6.34 9.03 6.43C8.78 6.53 8.8 6.78 8.79 6.99C8.75 7.67 8.77 8.36 8.69 9.04C8.51 10.65 7.77 11.92 6.24 12.62C5.94 12.76 5.94 12.97 5.94 13.23C5.94 15.31 5.94 17.4 5.94 19.48C5.94 20.09 6.19 20.38 6.79 20.46C6.91 20.47 7.03 20.47 7.15 20.47L10.4 20.45ZM5.47 16.4C5.47 15.13 5.47 13.86 5.47 12.59C5.47 11.9 5.3 11.72 4.63 11.71C4.23 11.71 3.83 11.74 3.43 11.71C3.03 11.67 2.96 11.84 2.96 12.2C2.98 13.46 2.97 14.73 2.97 16C2.97 16.14 2.97 16.27 2.95 16.4C2.95 16.46 2.93 16.5 2.9 16.54C2.86 16.58 2.81 16.6 2.76 16.6C2.73 16.61 2.7 16.61 2.67 16.6C2.65 16.59 2.62 16.58 2.6 16.56C2.58 16.54 2.56 16.51 2.55 16.49C2.53 16.46 2.53 16.43 2.53 16.4C2.52 16.27 2.51 16.13 2.51 16C2.51 14.71 2.5 13.43 2.52 12.14C2.52 11.82 2.41 11.7 2.09 11.71C1.64 11.74 1.18 11.71 0.74 11.72C0.14 11.73 -0.04 11.91 -0.04 12.51C-0.05 15.11 -0.05 17.71 -0.04 20.31C-0.04 20.9 0.16 21.1 0.74 21.1C2.04 21.1 3.34 21.1 4.65 21.1C5.29 21.1 5.47 20.9 5.47 20.25C5.47 18.97 5.47 17.68 5.47 16.4Z" fill="#FA8B02" fill-opacity="1.000000" fill-rule="nonzero"/>
	<path id="Vector" d="M-0.72 11.91Q-0.8 12.2 -0.8 12.61L-0.8 20.32L-0.8 20.33Q-0.8 21.03 -0.44 21.42Q-0.43 21.43 -0.42 21.45Q-0.39 21.48 -0.36 21.5Q0.02 21.84 0.7 21.84L4.75 21.84Q5 21.84 5.24 21.78Q5.42 21.73 5.6 21.64Q5.62 21.63 5.63 21.63Q5.78 21.54 5.89 21.38Q5.95 21.3 6.03 21.13Q6.08 21.02 6.11 20.99Q6.21 21 6.43 21.07Q6.61 21.13 6.71 21.15Q6.89 21.2 7.05 21.2L7.45 21.2L13.76 21.19Q14.23 21.19 14.6 21.03Q14.88 20.9 15.07 20.71Q15.15 20.63 15.21 20.54Q15.28 20.45 15.33 20.36Q15.46 20.11 15.49 19.82Q15.54 19.41 15.39 18.97Q15.39 18.96 15.39 18.96Q15.71 18.77 15.91 18.58Q16.15 18.35 16.25 18.09Q16.34 17.82 16.31 17.51Q16.28 17.23 16.14 16.87Q16.15 16.87 16.15 16.87Q16.44 16.65 16.61 16.43Q16.8 16.18 16.87 15.92L16.87 15.92Q16.93 15.65 16.87 15.35Q16.82 15.08 16.65 14.77Q16.65 14.75 16.64 14.74Q16.99 14.45 17.12 14.09Q17.14 14.02 17.16 13.95Q17.18 13.86 17.19 13.77Q17.24 13.39 17.06 12.98Q16.92 12.64 16.67 12.42Q16.54 12.31 16.38 12.24Q16 12.05 15.43 12.06Q14.56 12.07 12.82 12.07Q11.48 12.07 10.79 12.07Q10.83 11.99 10.86 11.91Q11.24 11.1 11.34 10.15Q11.43 9.23 11.26 8.13Q11.07 6.92 10.37 6.22Q10.37 6.22 10.37 6.22Q10.02 5.86 9.7 5.72Q9.46 5.62 9.21 5.61Q8.99 5.61 8.77 5.69Q8.51 5.78 8.34 5.95Q8.19 6.11 8.11 6.33Q8.05 6.5 8.03 6.72Q8.02 6.85 8.02 7.09Q8.02 7.12 8.02 7.14Q8.01 7.28 8.01 7.54Q8 8.09 7.99 8.36Q7.96 8.8 7.9 9.14Q7.74 10.08 7.34 10.72Q7.19 10.95 7.01 11.14Q6.64 11.54 6.13 11.81Q6.13 11.81 6.13 11.81Q6 11.5 5.78 11.31Q5.67 11.21 5.54 11.15Q5.18 10.96 4.62 10.96Q3.7 10.97 1.87 10.97Q1.17 10.97 0.82 10.97Q0.41 10.97 0.12 11.05Q-0.2 11.15 -0.41 11.36Q-0.42 11.36 -0.42 11.36Q-0.63 11.58 -0.72 11.91ZM-0.5 20.33L-0.5 12.61C-0.5 11.63 -0.14 11.27 0.82 11.27C1.17 11.27 1.52 11.27 1.87 11.27C2.79 11.27 3.71 11.27 4.62 11.26C5.21 11.25 5.68 11.42 5.88 12.02C5.97 12.26 6.09 12.19 6.2 12.12C6.23 12.1 6.25 12.09 6.27 12.08C7.43 11.47 7.99 10.45 8.2 9.2C8.32 8.52 8.3 7.83 8.32 7.15C8.33 6.68 8.32 6.16 8.87 5.97C9.39 5.79 9.81 6.08 10.16 6.43C10.64 6.91 10.87 7.53 10.97 8.18C11.17 9.48 11.12 10.78 10.5 11.98C10.33 12.3 10.38 12.37 10.73 12.37C11.43 12.37 12.12 12.37 12.82 12.37L12.82 12.37C13.69 12.37 14.56 12.37 15.44 12.36C16.05 12.35 16.54 12.51 16.79 13.09C17.02 13.64 16.9 14.15 16.43 14.53C16.27 14.66 16.31 14.75 16.39 14.9C16.77 15.64 16.65 16.11 15.97 16.63C15.82 16.74 15.79 16.8 15.87 16.98C16.19 17.81 16.02 18.26 15.22 18.71C15.04 18.81 15.05 18.88 15.11 19.06C15.44 20.1 14.86 20.89 13.76 20.89C13.22 20.89 12.69 20.89 12.16 20.89C10.45 20.89 8.75 20.89 7.05 20.9C6.7 20.9 6.39 20.69 6.09 20.68C5.75 20.68 5.79 21.22 5.47 21.37C5.25 21.48 5 21.54 4.75 21.54L0.7 21.54C-0.1 21.54 -0.5 21.14 -0.5 20.33ZM7.15 20.47L10.4 20.45C10.78 20.45 11.16 20.45 11.54 20.45C12.29 20.45 13.05 20.45 13.81 20.45C14.37 20.45 14.77 20.07 14.79 19.59C14.8 19.1 14.44 18.82 13.83 18.81C13.03 18.81 12.23 18.81 11.42 18.8C11.4 18.8 11.37 18.8 11.34 18.81C11.16 18.81 10.96 18.82 10.95 18.58C10.95 18.33 11.16 18.33 11.34 18.34C11.37 18.34 11.39 18.34 11.41 18.34C12.5 18.34 13.58 18.34 14.67 18.33C15.25 18.33 15.57 18.04 15.57 17.56C15.56 17.1 15.24 16.82 14.69 16.81C14.27 16.81 13.85 16.81 13.42 16.81C13.21 16.81 13 16.81 12.79 16.81C12.76 16.81 12.73 16.81 12.7 16.81C12.53 16.82 12.32 16.83 12.33 16.58C12.34 16.33 12.54 16.34 12.72 16.35C12.75 16.35 12.78 16.35 12.81 16.35C13.33 16.35 13.85 16.35 14.37 16.35C14.64 16.35 14.9 16.35 15.16 16.35C15.81 16.35 16.12 16.11 16.12 15.6C16.13 15.09 15.81 14.82 15.19 14.81L12.93 14.81C12.77 14.81 12.62 14.78 12.63 14.57C12.64 14.4 12.79 14.39 12.93 14.38C13.01 14.38 13.09 14.38 13.17 14.38L13.17 14.38C13.21 14.38 13.25 14.38 13.28 14.38L13.29 14.38C14.07 14.38 14.85 14.38 15.64 14.37C15.96 14.37 16.23 14.26 16.37 13.94C16.43 13.81 16.46 13.65 16.44 13.5C16.42 13.35 16.36 13.21 16.27 13.09C16.06 12.82 15.76 12.82 15.46 12.82L15.44 12.82L10.08 12.82C10.06 12.82 10.04 12.83 10.02 12.83C9.89 12.83 9.76 12.84 9.68 12.7C9.6 12.56 9.68 12.45 9.76 12.34C9.77 12.33 9.78 12.31 9.79 12.3C10.74 10.97 10.74 9.49 10.47 7.98C10.38 7.43 10.08 6.93 9.63 6.6C9.46 6.46 9.26 6.34 9.03 6.43C8.81 6.52 8.8 6.72 8.8 6.91C8.79 6.94 8.79 6.96 8.79 6.99C8.75 7.67 8.77 8.36 8.69 9.04C8.51 10.65 7.77 11.92 6.24 12.62C5.94 12.76 5.94 12.97 5.94 13.23L5.94 19.48C5.94 20.09 6.19 20.38 6.79 20.46C6.91 20.47 7.03 20.47 7.15 20.47ZM12.33 14.55Q12.32 14.7 12.37 14.81Q12.38 14.82 12.38 14.82Q12.4 14.88 12.44 14.93Q12.49 14.98 12.56 15.02Q12.7 15.11 12.93 15.11L14.44 15.11L15.18 15.11Q15.55 15.12 15.7 15.25Q15.71 15.25 15.71 15.26Q15.82 15.37 15.82 15.59Q15.82 15.83 15.7 15.93Q15.7 15.93 15.7 15.93Q15.54 16.05 15.16 16.05L12.8 16.05Q12.78 16.05 12.73 16.05Q12.63 16.04 12.57 16.05Q12.45 16.05 12.36 16.09Q12.26 16.12 12.2 16.19Q12.16 16.22 12.12 16.27Q12.12 16.28 12.11 16.29Q12.04 16.41 12.03 16.57Q12.03 16.74 12.1 16.87Q12.1 16.87 12.1 16.87Q12.14 16.93 12.18 16.97Q12.25 17.04 12.34 17.07Q12.43 17.11 12.55 17.12Q12.61 17.12 12.72 17.11Q12.77 17.11 12.79 17.11Q13 17.11 13.42 17.11Q14.27 17.1 14.69 17.11Q15.05 17.12 15.19 17.29Q15.27 17.4 15.27 17.56Q15.27 17.76 15.17 17.87Q15.16 17.88 15.14 17.9Q14.99 18.03 14.67 18.03L14.66 18.03L11.41 18.04Q11.39 18.04 11.35 18.04Q11.24 18.03 11.18 18.04Q11.06 18.05 10.96 18.08Q10.87 18.12 10.8 18.18Q10.76 18.22 10.73 18.27Q10.73 18.28 10.72 18.29Q10.65 18.42 10.65 18.58Q10.66 18.75 10.73 18.87Q10.73 18.87 10.74 18.88Q10.77 18.93 10.81 18.97Q10.88 19.03 10.97 19.07Q11.07 19.1 11.19 19.11Q11.25 19.11 11.35 19.1Q11.4 19.1 11.42 19.1L12.87 19.11L13.83 19.11Q14.18 19.12 14.35 19.26Q14.39 19.29 14.42 19.32Q14.49 19.43 14.49 19.58Q14.48 19.7 14.44 19.8Q14.39 19.9 14.3 19.98Q14.27 20.01 14.23 20.03Q14.05 20.15 13.81 20.15L10.4 20.15L7.14 20.17L7.13 20.17Q7.05 20.17 6.98 20.17Q6.9 20.17 6.83 20.16Q6.49 20.12 6.37 19.97Q6.24 19.83 6.24 19.48L6.24 13.23Q6.24 13.03 6.26 12.98Q6.28 12.93 6.37 12.89Q7.26 12.48 7.86 11.81Q8.06 11.59 8.22 11.33Q8.84 10.4 8.99 9.07Q9.04 8.63 9.07 7.74Q9.08 7.25 9.09 7Q9.09 6.98 9.1 6.92Q9.1 6.77 9.12 6.73Q9.12 6.73 9.12 6.72Q9.13 6.71 9.14 6.71Q9.14 6.71 9.15 6.71Q9.19 6.69 9.25 6.71Q9.32 6.74 9.45 6.84Q9.6 6.94 9.72 7.08Q9.84 7.21 9.93 7.36Q10.01 7.5 10.07 7.64Q10.14 7.83 10.18 8.03Q10.39 9.27 10.29 10.17Q10.2 10.9 9.9 11.53Q9.75 11.84 9.55 12.13Q9.54 12.14 9.52 12.16Q9.41 12.31 9.38 12.41Q9.33 12.52 9.34 12.63Q9.35 12.74 9.42 12.85Q9.48 12.95 9.56 13.02Q9.65 13.08 9.75 13.11Q9.86 13.13 10.03 13.13Q10.07 13.12 10.08 13.12L15.44 13.12L15.46 13.12Q15.72 13.12 15.83 13.15Q15.91 13.17 15.98 13.22Q16.01 13.25 16.03 13.28L16.03 13.28L16.03 13.28Q16.08 13.34 16.11 13.4Q16.13 13.47 16.14 13.54Q16.15 13.61 16.14 13.68Q16.13 13.75 16.1 13.81L16.09 13.82L16.09 13.82Q16.04 13.94 15.96 14Q15.94 14 15.93 14.01Q15.82 14.07 15.64 14.07L13.29 14.08L13.28 14.08Q13.25 14.08 13.17 14.08Q13.01 14.08 12.92 14.08Q12.72 14.09 12.61 14.14Q12.53 14.18 12.47 14.23Q12.44 14.26 12.42 14.3Q12.4 14.32 12.39 14.34Q12.34 14.44 12.33 14.55ZM5.47 20.25C5.47 18.97 5.47 17.68 5.47 16.4L5.47 12.59C5.47 11.9 5.3 11.72 4.63 11.71C4.51 11.71 4.39 11.72 4.27 11.72L4.27 11.72C3.99 11.72 3.71 11.73 3.43 11.71C3.03 11.67 2.96 11.84 2.96 12.2C2.98 13.13 2.97 14.07 2.97 15C2.97 15.34 2.97 15.67 2.97 16C2.97 16.14 2.97 16.27 2.95 16.4C2.95 16.46 2.93 16.5 2.9 16.54C2.86 16.58 2.81 16.6 2.76 16.6C2.73 16.61 2.7 16.61 2.67 16.6C2.65 16.59 2.62 16.58 2.6 16.56C2.58 16.54 2.56 16.51 2.55 16.49C2.53 16.46 2.53 16.43 2.53 16.4C2.52 16.27 2.51 16.13 2.51 16C2.51 15.64 2.51 15.28 2.51 14.91C2.51 13.99 2.51 13.07 2.52 12.14C2.52 11.82 2.41 11.7 2.09 11.71C1.82 11.73 1.55 11.73 1.28 11.72C1.09 11.72 0.91 11.72 0.74 11.72C0.14 11.73 -0.04 11.91 -0.04 12.51Q-0.05 16.41 -0.04 20.31C-0.04 20.9 0.16 21.1 0.74 21.1Q2.69 21.11 4.65 21.1C5.29 21.1 5.47 20.9 5.47 20.25ZM2.23 16.41Q2.22 16.31 2.22 16.21Q2.21 16.1 2.21 15.99Q2.21 15.64 2.21 14.92Q2.21 13.07 2.22 12.14Q2.22 12.06 2.21 12.02Q2.17 12.01 2.1 12.01Q1.82 12.03 1.27 12.02Q0.92 12.02 0.74 12.02Q0.41 12.03 0.34 12.11Q0.26 12.19 0.26 12.51L0.26 20.31Q0.26 20.63 0.34 20.71Q0.43 20.8 0.74 20.8L4.65 20.8Q5 20.8 5.08 20.71Q5.17 20.62 5.17 20.25L5.17 16.4L5.17 14.5L5.17 12.59Q5.17 12.19 5.08 12.1Q5 12.02 4.63 12.02Q4.51 12.02 4.27 12.02Q3.7 12.03 3.4 12.01Q3.32 12 3.27 12.01Q3.27 12.01 3.27 12.02Q3.26 12.08 3.26 12.19Q3.28 13.13 3.27 15.01Q3.27 15.67 3.27 16Q3.27 16.11 3.27 16.22Q3.26 16.32 3.25 16.43Q3.25 16.52 3.22 16.59Q3.18 16.68 3.11 16.75Q3.05 16.82 2.96 16.86Q2.89 16.89 2.8 16.9Q2.75 16.91 2.7 16.91Q2.65 16.9 2.59 16.89Q2.54 16.87 2.49 16.85Q2.44 16.82 2.4 16.78Q2.36 16.74 2.32 16.7Q2.29 16.66 2.27 16.6Q2.25 16.55 2.24 16.5Q2.23 16.46 2.23 16.41Z" fill="#FA8B02" fill-opacity="1.000000" fill-rule="evenodd"/>
	<path id="Vector" d="M15.65 -0.55C18.92 -0.53 21.68 1.75 22.35 4.98C23 8.09 21.37 11.33 18.47 12.61C18.2 12.73 17.79 13.1 17.6 12.68C17.41 12.26 17.97 12.26 18.21 12.15C20.99 10.85 22.49 7.86 21.8 4.9C21.13 1.99 18.47 -0.06 15.47 -0.01C14.15 0.01 12.86 0.45 11.79 1.25C10.73 2.04 9.94 3.16 9.55 4.42C9.51 4.55 9.47 4.68 9.43 4.8C9.42 4.84 9.41 4.88 9.38 4.91C9.36 4.94 9.33 4.96 9.3 4.98C9.26 5 9.23 5.01 9.19 5.01C9.15 5.01 9.11 5.01 9.08 4.99C8.92 4.95 8.88 4.82 8.91 4.67C8.94 4.51 8.99 4.35 9.04 4.19C9.5 2.8 10.38 1.59 11.57 0.74C12.76 -0.11 14.19 -0.57 15.65 -0.55Z" fill="#FA8B02" fill-opacity="1.000000" fill-rule="nonzero"/>
	<path id="Vector" d="M22.79 5.96Q22.76 5.44 22.65 4.92L22.65 4.92Q22.49 4.13 22.17 3.42Q21.98 3 21.74 2.6Q21.4 2.04 20.97 1.56Q20.6 1.14 20.17 0.78Q19.69 0.38 19.15 0.08Q18.64 -0.21 18.09 -0.41Q17.61 -0.59 17.12 -0.69Q16.41 -0.85 15.66 -0.85Q15.08 -0.86 14.52 -0.77Q13.96 -0.69 13.42 -0.52Q12.87 -0.34 12.37 -0.09Q11.86 0.16 11.4 0.5Q10.93 0.83 10.53 1.23Q10.13 1.62 9.79 2.09Q9.45 2.55 9.19 3.04Q8.93 3.55 8.75 4.1Q8.71 4.23 8.68 4.36Q8.64 4.48 8.62 4.61Q8.58 4.78 8.62 4.92Q8.64 4.96 8.65 5Q8.69 5.08 8.75 5.14Q8.84 5.23 8.98 5.28Q9.03 5.3 9.08 5.3Q9.14 5.31 9.21 5.31Q9.27 5.31 9.33 5.29Q9.39 5.27 9.44 5.25Q9.5 5.22 9.54 5.18Q9.59 5.14 9.62 5.09Q9.66 5.04 9.69 4.98Q9.71 4.94 9.72 4.89Q9.75 4.8 9.79 4.65Q9.82 4.56 9.83 4.51Q9.98 4.06 10.18 3.64Q10.39 3.22 10.67 2.83Q10.94 2.44 11.27 2.11Q11.59 1.77 11.97 1.49Q12.35 1.2 12.77 0.99Q13.18 0.77 13.63 0.61Q14.08 0.46 14.54 0.38Q15 0.3 15.48 0.29Q16.02 0.28 16.55 0.36Q17.05 0.44 17.54 0.61Q18.01 0.77 18.44 1Q18.9 1.24 19.33 1.57Q19.79 1.93 20.17 2.36Q20.46 2.69 20.7 3.06Q20.99 3.51 21.2 4Q21.39 4.46 21.51 4.97Q21.65 5.57 21.66 6.18Q21.67 6.62 21.62 7.06Q21.56 7.53 21.44 7.97Q21.29 8.51 21.04 9.01Q20.83 9.43 20.56 9.81Q20.24 10.27 19.83 10.67Q19.54 10.96 19.21 11.2Q18.69 11.59 18.08 11.88Q18.05 11.89 17.92 11.93Q17.78 11.96 17.7 11.99Q17.56 12.04 17.46 12.12Q17.37 12.2 17.31 12.3Q17.29 12.36 17.27 12.43Q17.27 12.43 17.27 12.43Q17.24 12.61 17.33 12.81Q17.41 13 17.56 13.09Q17.58 13.1 17.59 13.11Q17.64 13.14 17.69 13.15Q17.81 13.19 17.95 13.17Q18.08 13.15 18.23 13.08Q18.3 13.05 18.44 12.97Q18.55 12.91 18.59 12.89Q19.06 12.68 19.49 12.41Q20.08 12.03 20.6 11.53Q20.94 11.2 21.24 10.83Q21.68 10.27 22.01 9.62Q22.31 9.03 22.5 8.4Q22.65 7.89 22.73 7.35Q22.82 6.65 22.79 5.96ZM9.43 4.8C9.47 4.68 9.51 4.55 9.55 4.42C9.94 3.16 10.73 2.04 11.79 1.25C12.86 0.45 14.15 0.01 15.47 -0.01C18.47 -0.06 21.13 1.99 21.8 4.9C22.49 7.86 20.99 10.85 18.21 12.15C18.15 12.17 18.08 12.2 18 12.22C17.74 12.28 17.46 12.36 17.6 12.68C17.75 13.02 18.04 12.85 18.29 12.71C18.35 12.67 18.41 12.64 18.47 12.61C21.37 11.33 23 8.09 22.35 4.98C21.68 1.75 18.92 -0.53 15.65 -0.55C14.19 -0.57 12.76 -0.11 11.57 0.74C10.38 1.59 9.5 2.8 9.04 4.19C8.99 4.35 8.94 4.51 8.91 4.67C8.88 4.82 8.92 4.95 9.08 4.99C9.11 5.01 9.15 5.01 9.19 5.01C9.23 5.01 9.26 5 9.3 4.98C9.33 4.96 9.36 4.94 9.38 4.91C9.41 4.88 9.42 4.84 9.43 4.8Z" fill="#FA8B02" fill-opacity="1.000000" fill-rule="evenodd"/>
	<path id="Vector" d="M16.98 7.95C16.98 7.35 16.6 6.86 15.96 6.68C15.62 6.59 15.27 6.56 14.94 6.45C14.14 6.18 13.69 5.53 13.7 4.7C13.7 3.85 14.12 3.24 14.96 2.98C15.26 2.89 15.35 2.74 15.33 2.45C15.31 2.25 15.3 2.01 15.57 1.99C15.89 1.97 15.89 2.24 15.87 2.45C15.84 2.79 16.02 2.87 16.3 2.92C17.01 3.04 17.46 3.49 17.69 4.15C17.76 4.36 17.87 4.66 17.58 4.76C17.24 4.89 17.25 4.54 17.17 4.34C16.92 3.64 16.3 3.3 15.49 3.4C14.77 3.5 14.31 3.92 14.24 4.55C14.16 5.23 14.53 5.76 15.24 5.97C15.59 6.07 15.96 6.11 16.31 6.24C17.1 6.52 17.53 7.14 17.52 7.95C17.52 8.79 17.09 9.41 16.27 9.68C15.99 9.78 15.85 9.88 15.87 10.2C15.89 10.4 15.93 10.68 15.61 10.7C15.3 10.71 15.31 10.43 15.33 10.22C15.36 9.9 15.23 9.81 14.92 9.75C14.12 9.59 13.57 9.01 13.46 8.29C13.43 8.11 13.42 7.95 13.64 7.89C13.85 7.83 13.93 7.96 14 8.14C14.36 9.13 14.94 9.44 15.97 9.2C16.26 9.15 16.52 8.99 16.7 8.76C16.89 8.53 16.99 8.24 16.98 7.95Z" fill="#FA8B02" fill-opacity="1.000000" fill-rule="nonzero"/>
	<path id="Vector" d="M15.88 6.97L15.88 6.97Q16.22 7.07 16.43 7.29Q16.45 7.32 16.48 7.35Q16.55 7.45 16.6 7.56Q16.68 7.73 16.68 7.95L16.68 7.95L16.68 7.95Q16.69 8.13 16.63 8.28Q16.58 8.44 16.47 8.57Q16.36 8.71 16.22 8.79Q16.08 8.88 15.91 8.91L15.91 8.91L15.9 8.91Q15.24 9.07 14.88 8.87Q14.51 8.67 14.28 8.04Q14.15 7.71 13.93 7.61Q13.77 7.54 13.56 7.6Q13.37 7.65 13.26 7.78Q13.11 7.97 13.16 8.34Q13.21 8.67 13.36 8.95Q13.5 9.22 13.72 9.44Q13.87 9.6 14.05 9.71Q14.4 9.96 14.86 10.05Q14.96 10.07 15.01 10.08Q15.02 10.09 15.03 10.09Q15.04 10.13 15.03 10.19Q15 10.48 15.06 10.65Q15.1 10.76 15.18 10.83Q15.22 10.88 15.27 10.91Q15.28 10.92 15.3 10.93Q15.44 11 15.62 11Q15.8 10.99 15.93 10.9Q15.95 10.89 15.97 10.88Q16.01 10.85 16.05 10.81Q16.12 10.72 16.15 10.61Q16.18 10.5 16.18 10.37Q16.18 10.3 16.17 10.18Q16.17 10.17 16.17 10.17Q16.16 10.08 16.18 10.06Q16.22 10.02 16.37 9.97Q16.95 9.77 17.31 9.37Q17.39 9.29 17.45 9.2Q17.51 9.11 17.56 9.02Q17.82 8.56 17.82 7.95Q17.83 7.42 17.62 6.99Q17.55 6.85 17.46 6.72Q17.38 6.62 17.3 6.52Q16.95 6.15 16.41 5.95Q16.19 5.88 15.75 5.78Q15.46 5.72 15.33 5.68Q14.9 5.56 14.7 5.28Q14.7 5.27 14.69 5.27Q14.65 5.21 14.62 5.14Q14.5 4.9 14.54 4.59Q14.57 4.33 14.69 4.15Q14.75 4.06 14.82 4Q15.08 3.76 15.53 3.7Q16.04 3.63 16.39 3.83Q16.48 3.88 16.55 3.94Q16.77 4.12 16.89 4.44Q16.9 4.47 16.92 4.54Q16.95 4.65 16.97 4.71Q17.01 4.84 17.08 4.92Q17.14 4.99 17.22 5.03Q17.28 5.07 17.36 5.08Q17.51 5.11 17.69 5.04Q17.84 4.99 17.93 4.88Q17.96 4.86 17.98 4.82Q18 4.79 18.01 4.76Q18.07 4.65 18.07 4.51Q18.07 4.4 18.04 4.26Q18.02 4.19 17.98 4.07Q17.97 4.06 17.97 4.05Q17.77 3.47 17.38 3.11Q17.27 3.01 17.15 2.93Q16.81 2.7 16.35 2.62Q16.21 2.6 16.17 2.57Q16.17 2.55 16.17 2.48Q16.2 2.19 16.13 2.02Q16.09 1.92 16.01 1.84Q15.97 1.8 15.91 1.76Q15.9 1.76 15.9 1.76Q15.75 1.68 15.55 1.69Q15.4 1.7 15.28 1.77Q15.26 1.79 15.24 1.8Q15.2 1.83 15.16 1.87Q15.1 1.95 15.06 2.06Q15 2.21 15.03 2.48Q15.04 2.59 15.02 2.62Q14.99 2.66 14.87 2.7Q14.27 2.88 13.9 3.28Q13.83 3.36 13.77 3.44Q13.73 3.5 13.69 3.57Q13.4 4.05 13.4 4.7Q13.4 5.25 13.61 5.69Q13.68 5.83 13.77 5.96Q13.87 6.1 13.99 6.22Q14.33 6.56 14.84 6.73Q15.05 6.8 15.45 6.88Q15.74 6.93 15.88 6.97ZM16.98 7.95C16.98 7.35 16.6 6.86 15.96 6.68C15.62 6.59 15.27 6.56 14.94 6.45C14.14 6.18 13.69 5.53 13.7 4.7C13.7 3.85 14.12 3.24 14.96 2.98C15.26 2.89 15.35 2.74 15.33 2.45C15.31 2.25 15.3 2.01 15.57 1.99C15.89 1.97 15.89 2.24 15.87 2.45C15.84 2.79 16.02 2.87 16.3 2.92C17.01 3.04 17.46 3.49 17.69 4.15C17.69 4.16 17.69 4.16 17.69 4.17C17.77 4.38 17.86 4.66 17.58 4.76C17.31 4.86 17.26 4.66 17.21 4.47C17.2 4.43 17.19 4.38 17.17 4.34C16.92 3.64 16.3 3.3 15.49 3.4C14.77 3.5 14.31 3.92 14.24 4.55C14.16 5.23 14.53 5.76 15.24 5.97C15.59 6.07 15.96 6.11 16.31 6.24C17.1 6.52 17.53 7.14 17.52 7.95C17.52 8.79 17.09 9.41 16.27 9.68C15.99 9.78 15.85 9.88 15.87 10.2C15.87 10.2 15.87 10.21 15.87 10.21C15.89 10.41 15.92 10.68 15.61 10.7C15.3 10.71 15.31 10.43 15.33 10.22C15.36 9.9 15.23 9.81 14.92 9.75C14.12 9.59 13.57 9.01 13.46 8.29C13.43 8.11 13.42 7.95 13.64 7.89C13.85 7.83 13.93 7.96 14 8.14C14.36 9.13 14.94 9.44 15.97 9.2C16.26 9.15 16.52 8.99 16.7 8.76C16.89 8.53 16.99 8.24 16.98 7.95Z" fill="#FA8B02" fill-opacity="1.000000" fill-rule="evenodd"/>
	<path id="Vector" d="M3.82 18.67C3.93 18.67 4.05 18.69 4.15 18.73C4.26 18.77 4.35 18.83 4.43 18.91C4.51 18.99 4.58 19.08 4.62 19.19C4.66 19.29 4.68 19.4 4.68 19.52C4.68 19.63 4.67 19.75 4.63 19.86C4.58 19.97 4.52 20.07 4.44 20.15C4.36 20.23 4.26 20.3 4.15 20.35C4.05 20.39 3.93 20.41 3.81 20.41C3.31 20.41 2.95 20.03 2.96 19.51C2.96 19.4 2.98 19.28 3.02 19.18C3.06 19.07 3.13 18.98 3.21 18.9C3.29 18.82 3.38 18.76 3.49 18.72C3.6 18.68 3.71 18.67 3.82 18.67ZM3.84 19.11C3.58 19.11 3.43 19.26 3.42 19.51C3.41 19.76 3.54 19.92 3.8 19.93C3.86 19.94 3.91 19.94 3.96 19.92C4.02 19.9 4.06 19.87 4.1 19.84C4.15 19.8 4.18 19.75 4.2 19.7C4.22 19.65 4.23 19.6 4.22 19.54C4.23 19.49 4.22 19.43 4.21 19.38C4.19 19.33 4.16 19.28 4.13 19.24C4.09 19.2 4.05 19.17 4 19.15C3.95 19.12 3.9 19.11 3.84 19.11Z" fill="#FA8B02" fill-opacity="1.000000" fill-rule="nonzero"/>
	<path id="Vector" d="M4.46 18.55Q4.37 18.49 4.26 18.45Q4.15 18.4 4.04 18.39Q3.93 18.37 3.82 18.37Q3.71 18.37 3.61 18.38Q3.49 18.4 3.38 18.44Q3.28 18.48 3.18 18.54Q3.08 18.6 3 18.69Q2.91 18.77 2.85 18.86Q2.79 18.96 2.74 19.07Q2.7 19.17 2.68 19.29Q2.66 19.4 2.66 19.51Q2.66 19.72 2.72 19.91Q2.73 19.94 2.74 19.97Q2.79 20.12 2.88 20.24Q2.92 20.3 2.98 20.36Q3.05 20.44 3.14 20.5Q3.24 20.57 3.35 20.62Q3.43 20.65 3.52 20.67Q3.66 20.71 3.81 20.71Q3.93 20.71 4.04 20.69Q4.16 20.67 4.27 20.62Q4.38 20.58 4.48 20.51Q4.57 20.45 4.66 20.36Q4.74 20.27 4.8 20.17Q4.86 20.08 4.91 19.96Q4.95 19.85 4.97 19.74Q4.98 19.62 4.98 19.51Q4.98 19.4 4.96 19.29Q4.94 19.18 4.9 19.07Q4.85 18.97 4.79 18.87Q4.73 18.78 4.64 18.69Q4.56 18.61 4.46 18.55ZM4.68 19.52C4.68 19.4 4.66 19.29 4.62 19.19C4.58 19.08 4.51 18.99 4.43 18.91C4.35 18.83 4.26 18.77 4.15 18.73C4.05 18.69 3.93 18.67 3.82 18.67C3.71 18.67 3.6 18.68 3.49 18.72C3.38 18.76 3.29 18.82 3.21 18.9C3.13 18.98 3.06 19.07 3.02 19.18C2.98 19.28 2.96 19.4 2.96 19.51C2.95 20.03 3.31 20.41 3.81 20.41C3.93 20.41 4.05 20.39 4.15 20.35C4.26 20.3 4.36 20.23 4.44 20.15C4.52 20.07 4.58 19.97 4.63 19.86C4.67 19.75 4.68 19.63 4.68 19.52ZM4.22 19.54C4.23 19.49 4.22 19.43 4.21 19.38C4.19 19.33 4.16 19.28 4.13 19.24C4.09 19.2 4.05 19.17 4 19.15C3.95 19.12 3.9 19.11 3.84 19.11C3.58 19.11 3.43 19.26 3.42 19.51C3.41 19.76 3.54 19.92 3.8 19.93C3.86 19.94 3.91 19.94 3.96 19.92C4.02 19.9 4.06 19.87 4.1 19.84C4.15 19.8 4.18 19.75 4.2 19.7C4.22 19.65 4.23 19.6 4.22 19.54ZM3.73 19.61Q3.71 19.59 3.72 19.52Q3.72 19.45 3.74 19.44Q3.76 19.41 3.84 19.41Q3.85 19.41 3.86 19.42Q3.87 19.42 3.88 19.42Q3.89 19.42 3.89 19.43Q3.9 19.43 3.9 19.44Q3.91 19.45 3.91 19.45Q3.92 19.46 3.92 19.47Q3.92 19.48 3.92 19.49Q3.92 19.5 3.92 19.5L3.92 19.53L3.92 19.56Q3.92 19.57 3.92 19.58Q3.92 19.59 3.92 19.59Q3.91 19.6 3.91 19.61Q3.91 19.61 3.9 19.62Q3.9 19.62 3.89 19.63Q3.88 19.63 3.88 19.63Q3.87 19.63 3.86 19.64Q3.85 19.64 3.85 19.63L3.83 19.63L3.81 19.63Q3.75 19.63 3.73 19.61Z" fill="#FA8B02" fill-opacity="1.000000" fill-rule="evenodd"/>
</svg>
