<svg width="44.000000" height="43.000000" viewBox="0 0 44 43" fill="none" xmlns="http://www.w3.org/2000/svg" xmlns:xlink="http://www.w3.org/1999/xlink">
	<desc>
			Created with Pixso.
	</desc>
	<defs/>
	<path id="Subtract" d="M-0.0751953 21C-0.0751953 8.91992 9.71973 -0.875 21.7998 -0.875C33.8799 -0.875 43.6748 8.91992 43.6748 21C43.6748 33.0801 33.8799 42.875 21.7998 42.875C9.71973 42.875 -0.0751953 33.0801 -0.0751953 21ZM21.7998 10C18.8115 10 18.4375 10.012 17.2646 10.066L17.2637 10.066C16.0938 10.12 15.2939 10.306 14.5938 10.577C13.8604 10.8534 13.1963 11.2865 12.6465 11.8459C12.0869 12.3953 11.6533 13.0601 11.377 13.7939C11.1055 14.494 10.9189 15.2939 10.8662 16.4659C10.8125 17.6379 10.7998 18.012 10.7998 21C10.7998 23.9871 10.8115 24.361 10.8662 25.536C10.9199 26.7061 11.1055 27.506 11.377 28.2061C11.6533 28.9399 12.0859 29.6046 12.6455 30.1541C13.1953 30.7133 13.8604 31.146 14.5947 31.422C15.2949 31.694 16.0947 31.881 17.2646 31.934C18.4375 31.9871 18.8115 32 21.7998 32C24.7881 32 25.1621 31.988 26.3359 31.934C27.5059 31.88 28.3057 31.694 29.0059 31.422C29.7393 31.146 30.4033 30.714 30.9541 30.1541C31.5127 29.6042 31.9453 28.9391 32.2217 28.205C32.4941 27.505 32.6807 26.705 32.7334 25.535C32.7871 24.3621 32.7998 23.988 32.7998 21C32.7998 18.0129 32.7881 17.639 32.7334 16.464C32.6797 15.2939 32.4941 14.494 32.2217 13.7939C31.9463 13.0601 31.5137 12.396 30.9541 11.847C30.4033 11.287 29.7393 10.854 29.0059 10.577C28.3057 10.306 27.5059 10.119 26.334 10.066C25.1621 10.0129 24.7881 10 21.7998 10ZM21.7998 11.9821C24.7363 11.9821 25.085 11.993 26.2451 12.046C27.3174 12.095 27.8994 12.274 28.2881 12.425C28.7656 12.6012 29.1973 12.8821 29.5527 13.2469C29.9375 13.632 30.1748 13.999 30.375 14.512C30.5254 14.9 30.7051 15.4821 30.7539 16.5551C30.8066 17.715 30.8174 18.063 30.8174 21C30.8174 23.937 30.8066 24.285 30.7539 25.4449C30.7051 26.5179 30.5254 27.1 30.375 27.488C30.1992 27.965 29.918 28.3979 29.5527 28.7531C29.168 29.1379 28.8008 29.375 28.2881 29.575C27.8994 29.726 27.3174 29.905 26.2451 29.954C25.085 30.007 24.7383 30.0179 21.7998 30.0179C18.8613 30.0179 18.5146 30.007 17.3545 29.954C16.2822 29.905 15.7002 29.726 15.3115 29.575C14.835 29.399 14.4014 29.118 14.0469 28.7531C13.6816 28.3979 13.4004 27.965 13.2246 27.488C13.0742 27.1 12.8945 26.5179 12.8457 25.4449C12.793 24.285 12.7822 23.937 12.7822 21C12.7822 18.063 12.793 17.715 12.8457 16.5551C12.8945 15.4821 13.0742 14.9 13.2246 14.512C13.4014 14.0343 13.6816 13.6021 14.0469 13.2469C14.4316 12.8621 14.7988 12.625 15.3115 12.425C15.7002 12.274 16.2822 12.095 17.3545 12.046C18.5146 11.993 18.8633 11.9821 21.7998 11.9821ZM29.0137 15.754C28.9424 15.9177 28.8379 16.0653 28.708 16.188C28.4551 16.4266 28.1191 16.5574 27.7705 16.5522C27.4229 16.5472 27.0908 16.4069 26.8447 16.1609C26.5986 15.9149 26.459 15.5828 26.4531 15.235C26.4482 14.8871 26.5791 14.551 26.8174 14.298C26.9404 14.1678 27.0879 14.0637 27.252 13.9917C27.416 13.9197 27.5918 13.8812 27.7705 13.8785C27.9502 13.876 28.127 13.9093 28.293 13.9766C28.459 14.0437 28.6094 14.1436 28.7354 14.27C28.8623 14.3965 28.9619 14.5471 29.0293 14.7128C29.0967 14.8785 29.1299 15.0562 29.127 15.235C29.125 15.4138 29.0859 15.5902 29.0137 15.754ZM19.6357 15.7764C18.9502 16.0605 18.3271 16.4769 17.8018 17.002C16.7412 18.0624 16.1455 19.5005 16.1455 21C16.1455 22.4995 16.7412 23.9376 17.8018 24.998C18.8623 26.0583 20.2998 26.6541 21.7998 26.6541C23.2998 26.6541 24.7373 26.0583 25.7979 24.998C26.3232 24.473 26.7393 23.8497 27.0234 23.1637C27.3076 22.4778 27.4541 21.7426 27.4541 21C27.4541 20.2574 27.3076 19.5222 27.0234 18.8363C26.7393 18.1503 26.3232 17.527 25.7979 17.002C25.2725 16.4769 24.6494 16.0605 23.9639 15.7764C23.2773 15.4922 22.542 15.3459 21.7998 15.3459C21.0576 15.3459 20.3223 15.4922 19.6357 15.7764ZM22.8672 24.5157C22.0527 24.7617 21.1797 24.7177 20.3945 24.391C19.8936 24.1832 19.4443 23.8668 19.0801 23.4647C18.7158 23.0626 18.4453 22.5847 18.2881 22.0656C18.1309 21.5463 18.0908 20.9987 18.1699 20.4619C18.25 19.9253 18.4473 19.413 18.749 18.9618C19.0508 18.5107 19.4482 18.1321 19.9141 17.8531C20.3789 17.5742 20.9004 17.4019 21.4404 17.3486C21.9805 17.2954 22.5254 17.3624 23.0361 17.5452C23.5469 17.7278 24.0107 18.0215 24.3945 18.405C24.9971 19.005 25.3721 19.7953 25.4561 20.6411C25.54 21.4868 25.3271 22.3356 24.8555 23.0422C24.3828 23.7489 23.6807 24.2698 22.8672 24.5157Z" clip-rule="evenodd" fill="#FA8B02" fill-opacity="1.000000" fill-rule="evenodd"/>
</svg>
