<svg width="25.000000" height="16.000000" viewBox="0 0 25 16" fill="none" xmlns="http://www.w3.org/2000/svg" xmlns:xlink="http://www.w3.org/1999/xlink">
	<desc>
			Created with Pixso.
	</desc>
	<defs/>
	<path id="Vector" d="M11.95 15.78L0.83 15.78C0.06 15.78 0 15.72 0 14.95C0 13.75 0.01 12.55 0 11.35C-0.01 10.92 0.14 10.72 0.59 10.65C0.98 10.61 1.33 10.42 1.59 10.13C1.84 9.84 1.98 9.46 1.97 9.07C1.97 8.69 1.84 8.32 1.59 8.04C1.34 7.75 0.99 7.57 0.61 7.52C0.15 7.46 0.02 7.25 0.02 6.82C0.04 5.57 0.04 4.31 0.02 3.06C0.01 2.58 0.22 2.4 0.67 2.34C6.8 1.44 12.93 0.53 19.05 -0.39C19.86 -0.51 20.68 -0.62 21.49 -0.77C21.97 -0.86 22.23 -0.75 22.28 -0.22C22.35 0.47 22.5 1.15 22.56 1.84C22.6 2.23 22.72 2.39 23.14 2.38C23.97 2.37 23.99 2.42 23.99 3.24C23.99 4.42 23.99 5.6 23.99 6.78C23.99 7.21 23.91 7.46 23.4 7.52C23.02 7.56 22.67 7.74 22.41 8.03C22.16 8.31 22.02 8.68 22.02 9.06C22.01 9.45 22.15 9.82 22.4 10.12C22.65 10.41 23.01 10.6 23.39 10.65C23.86 10.72 23.97 10.95 23.96 11.37C23.94 12.6 23.94 13.84 23.96 15.07C23.97 15.61 23.77 15.79 23.23 15.79C19.48 15.78 15.71 15.78 11.95 15.78ZM9.03 15.07C11.62 15.07 14.2 15.07 16.79 15.07C17.14 15.07 17.35 15.03 17.33 14.59C17.32 14.29 17.18 13.8 17.67 13.79C18.21 13.78 18.05 14.29 18.05 14.61C18.05 14.93 18.13 15.08 18.49 15.07C19.93 15.06 21.37 15.06 22.81 15.07C23.14 15.07 23.29 14.99 23.28 14.63C23.26 13.68 23.27 12.72 23.28 11.77C23.28 11.48 23.19 11.36 22.9 11.26C21.89 10.89 21.36 10.13 21.35 9.09C21.34 8.1 21.91 7.28 22.91 6.91C23.21 6.8 23.31 6.65 23.31 6.35C23.29 5.43 23.29 4.52 23.31 3.6C23.32 3.21 23.18 3.08 22.79 3.09C21.48 3.11 20.17 3.09 18.86 3.09C18.11 3.09 18.1 3.09 18.07 3.86C18.06 4.12 18.04 4.38 17.72 4.4C17.4 4.41 17.34 4.15 17.34 3.89C17.34 3.78 17.33 3.67 17.34 3.55C17.38 3.21 17.21 3.1 16.88 3.1C11.66 3.11 6.43 3.11 1.21 3.1C0.87 3.1 0.75 3.2 0.75 3.55C0.77 4.51 0.77 5.46 0.75 6.42C0.75 6.71 0.87 6.83 1.14 6.93C2.13 7.28 2.7 8.1 2.7 9.1C2.7 10.11 2.15 10.89 1.13 11.26C0.85 11.36 0.75 11.48 0.76 11.78C0.77 12.67 0.8 13.57 0.75 14.47C0.73 14.99 0.92 15.09 1.39 15.08C3.94 15.06 6.49 15.07 9.03 15.07ZM5.89 2.3L5.9 2.41L16.9 2.41C18.41 2.41 19.93 2.39 21.44 2.42C21.86 2.42 21.95 2.28 21.88 1.89C21.78 1.4 21.71 0.9 21.65 0.4C21.61 0.06 21.47 -0.03 21.14 0.03C20.03 0.21 18.92 0.36 17.81 0.52C16.9 0.65 16.89 0.65 16.93 1.54C16.95 1.77 16.89 1.96 16.64 2C16.39 2.04 16.28 1.86 16.23 1.64C16.2 1.53 16.18 1.41 16.18 1.3C16.2 0.86 16 0.78 15.59 0.84C13.45 1.18 11.3 1.49 9.16 1.81C8.06 1.98 6.97 2.14 5.89 2.3L5.89 2.3Z" fill="#FA8B02" fill-opacity="1.000000" fill-rule="nonzero"/>
	<path id="Vector" d="M0.34 15.96Q0.5 15.98 0.83 15.98L11.95 15.98L13.57 15.98L23.23 15.99Q23.72 15.99 23.94 15.78Q24.17 15.56 24.16 15.07Q24.13 13.53 24.16 11.37Q24.17 10.97 24.02 10.76Q24.01 10.75 24 10.75Q23.83 10.51 23.42 10.45L23.42 10.45L23.42 10.45Q23.29 10.43 23.17 10.4Q23.05 10.36 22.94 10.3Q22.83 10.24 22.73 10.16Q22.63 10.08 22.55 9.99Q22.47 9.89 22.41 9.78Q22.34 9.68 22.3 9.56Q22.26 9.44 22.24 9.31Q22.22 9.19 22.22 9.06L22.22 9.06L22.22 9.06Q22.22 8.93 22.25 8.81Q22.27 8.69 22.31 8.58Q22.36 8.46 22.42 8.36Q22.48 8.25 22.56 8.16Q22.65 8.07 22.74 7.99Q22.84 7.92 22.95 7.86Q23.05 7.81 23.15 7.78Q23.28 7.74 23.42 7.72Q23.84 7.67 24.03 7.43Q24.04 7.42 24.05 7.4Q24.14 7.28 24.17 7.1Q24.19 6.97 24.19 6.78L24.19 5.59L24.19 4.41L24.19 3.25L24.19 3.24Q24.19 2.88 24.17 2.73Q24.14 2.49 24.02 2.36Q23.89 2.23 23.65 2.2Q23.49 2.18 23.14 2.18Q22.92 2.19 22.85 2.12Q22.78 2.05 22.76 1.82Q22.73 1.47 22.62 0.77Q22.51 0.1 22.48 -0.24Q22.44 -0.69 22.19 -0.87Q22.17 -0.89 22.15 -0.9Q21.91 -1.05 21.45 -0.97Q20.8 -0.85 19.51 -0.66Q19.18 -0.61 19.02 -0.59L0.64 2.14Q0.23 2.2 0.03 2.4Q0.02 2.41 0.02 2.42Q-0.19 2.64 -0.18 3.06Q-0.15 4.52 -0.18 6.82Q-0.18 7.22 -0.02 7.43Q0.17 7.66 0.59 7.72Q0.71 7.74 0.83 7.77Q0.94 7.81 1.05 7.87Q1.16 7.92 1.26 8Q1.36 8.07 1.44 8.17Q1.52 8.26 1.58 8.37Q1.64 8.47 1.69 8.59Q1.73 8.7 1.75 8.82Q1.77 8.94 1.77 9.07L1.77 9.07L1.77 9.07Q1.77 9.2 1.75 9.32Q1.73 9.45 1.69 9.57Q1.65 9.69 1.58 9.79Q1.52 9.9 1.44 10Q1.35 10.09 1.26 10.17Q1.16 10.25 1.05 10.31Q0.93 10.36 0.81 10.4Q0.7 10.44 0.57 10.45L0.57 10.45L0.56 10.45Q0.15 10.51 -0.03 10.73Q-0.21 10.95 -0.2 11.35Q-0.19 12.22 -0.2 13.95Q-0.2 14.61 -0.2 14.95Q-0.2 15.28 -0.17 15.43Q-0.14 15.67 -0.02 15.8Q0.11 15.92 0.34 15.96ZM11.95 15.78L0.83 15.78C0.06 15.78 0 15.72 0 14.95C0 14.61 0 14.28 0 13.95C0.01 13.08 0.01 12.22 0 11.35C-0.01 10.92 0.14 10.72 0.59 10.65C0.98 10.61 1.33 10.42 1.59 10.13C1.84 9.84 1.98 9.46 1.97 9.07C1.97 8.69 1.84 8.32 1.59 8.04C1.34 7.75 0.99 7.57 0.61 7.52C0.15 7.46 0.02 7.25 0.02 6.82C0.04 5.57 0.04 4.31 0.02 3.06C0.01 2.58 0.22 2.4 0.67 2.34Q9.86 0.99 19.05 -0.39C19.86 -0.51 20.68 -0.62 21.49 -0.77C21.97 -0.86 22.23 -0.75 22.28 -0.22C22.35 0.47 22.5 1.15 22.56 1.84C22.6 2.23 22.72 2.39 23.14 2.38C23.97 2.37 23.99 2.42 23.99 3.24C23.99 3.63 23.99 4.02 23.99 4.42C23.99 5.2 23.99 5.99 23.99 6.78C23.99 7.21 23.91 7.46 23.4 7.52C23.02 7.56 22.67 7.74 22.41 8.03C22.16 8.31 22.02 8.68 22.02 9.06C22.01 9.45 22.15 9.82 22.4 10.12C22.65 10.41 23.01 10.6 23.39 10.65C23.86 10.72 23.97 10.95 23.96 11.37C23.94 12.6 23.94 13.84 23.96 15.07C23.97 15.61 23.77 15.79 23.23 15.79C20.31 15.78 17.39 15.78 14.46 15.78L14.46 15.78C13.62 15.78 12.79 15.78 11.95 15.78ZM5.89 2.33L5.9 2.41L16.9 2.41C17.31 2.41 17.72 2.41 18.13 2.41C19.24 2.4 20.34 2.4 21.44 2.42C21.86 2.42 21.95 2.28 21.88 1.89C21.78 1.4 21.71 0.9 21.65 0.4C21.61 0.06 21.47 -0.03 21.14 0.03C20.03 0.21 18.92 0.36 17.81 0.52L17.79 0.53C16.9 0.65 16.89 0.65 16.93 1.54C16.95 1.77 16.89 1.96 16.64 2C16.39 2.04 16.28 1.86 16.23 1.64C16.2 1.53 16.18 1.41 16.18 1.3C16.2 0.86 16 0.78 15.59 0.84C13.45 1.18 11.3 1.49 9.16 1.81Q7.82 2.01 6.49 2.21Q6.29 2.24 6.09 2.27Q5.99 2.28 5.9 2.29Q5.89 2.29 5.89 2.3L5.89 2.3L5.89 2.33ZM7.85 2.21L16.9 2.21Q17.31 2.21 18.13 2.21Q20.34 2.2 21.44 2.22Q21.57 2.22 21.64 2.2Q21.68 2.19 21.69 2.18Q21.7 2.16 21.7 2.12Q21.7 2.06 21.68 1.93Q21.54 1.23 21.45 0.42Q21.43 0.26 21.39 0.23Q21.34 0.19 21.17 0.22Q20.27 0.37 18.48 0.63Q18.05 0.69 17.84 0.72L17.82 0.72Q17.44 0.78 17.32 0.81Q17.2 0.84 17.16 0.88Q17.13 0.91 17.12 1.04Q17.12 1.15 17.13 1.53Q17.15 1.78 17.06 1.93Q17.02 2.01 16.96 2.07Q16.84 2.17 16.67 2.2Q16.49 2.22 16.36 2.16Q16.28 2.12 16.21 2.06Q16.08 1.92 16.04 1.68Q16.01 1.59 16 1.5Q15.98 1.41 15.98 1.31L15.98 1.3L15.98 1.29Q15.99 1.09 15.93 1.05Q15.86 1 15.62 1.04L12.89 1.46L9.19 2.01L7.85 2.21ZM9.03 15.07L16.79 15.07C17.14 15.07 17.35 15.03 17.33 14.59C17.33 14.54 17.33 14.49 17.32 14.43C17.29 14.14 17.26 13.8 17.67 13.79C18.12 13.78 18.09 14.13 18.06 14.43C18.06 14.49 18.05 14.56 18.05 14.61C18.05 14.93 18.13 15.08 18.49 15.07C19.93 15.06 21.37 15.06 22.81 15.07C23.14 15.07 23.29 14.99 23.28 14.63C23.26 13.68 23.27 12.72 23.28 11.77C23.28 11.48 23.19 11.36 22.9 11.26C21.89 10.89 21.36 10.13 21.35 9.09C21.34 8.1 21.91 7.28 22.91 6.91C23.21 6.8 23.31 6.65 23.31 6.35C23.29 5.43 23.29 4.52 23.31 3.6C23.32 3.21 23.18 3.08 22.79 3.09C21.85 3.1 20.91 3.1 19.97 3.09C19.6 3.09 19.23 3.09 18.86 3.09C18.11 3.09 18.1 3.09 18.07 3.86C18.06 4.12 18.04 4.38 17.72 4.4C17.4 4.41 17.34 4.15 17.34 3.89C17.34 3.85 17.34 3.82 17.34 3.78C17.33 3.7 17.33 3.63 17.34 3.55C17.38 3.21 17.21 3.1 16.88 3.1Q9.05 3.11 1.21 3.1C0.87 3.1 0.75 3.2 0.75 3.55C0.77 4.51 0.77 5.46 0.75 6.42C0.75 6.71 0.87 6.83 1.14 6.93C2.13 7.28 2.7 8.1 2.7 9.1C2.7 10.11 2.15 10.89 1.13 11.26C0.85 11.36 0.75 11.48 0.76 11.78C0.76 11.87 0.76 11.96 0.76 12.06C0.78 12.86 0.79 13.67 0.75 14.47C0.73 14.99 0.92 15.09 1.39 15.08C3.34 15.07 5.28 15.07 7.23 15.07C7.83 15.07 8.43 15.07 9.03 15.07ZM17.08 14.83Q17.02 14.87 16.79 14.87L9.03 14.87L1.39 14.88Q1.09 14.89 1.02 14.82Q0.94 14.76 0.95 14.48Q0.98 13.94 0.98 13.26Q0.98 12.86 0.96 12.05Q0.96 11.87 0.96 11.77Q0.96 11.62 1 11.56Q1.04 11.5 1.2 11.45Q1.91 11.19 2.33 10.69Q2.4 10.62 2.46 10.54Q2.59 10.36 2.68 10.17Q2.9 9.69 2.9 9.1Q2.9 8.54 2.69 8.06Q2.59 7.85 2.45 7.65Q2.34 7.49 2.2 7.35Q1.79 6.95 1.2 6.74Q1.05 6.68 1 6.62Q0.95 6.56 0.95 6.42Q0.98 4.89 0.95 3.55Q0.95 3.38 0.99 3.34Q1.03 3.3 1.21 3.3L16.88 3.3Q17.07 3.3 17.12 3.35Q17.16 3.38 17.14 3.53Q17.13 3.62 17.14 3.79Q17.14 3.86 17.14 3.89Q17.14 4.18 17.24 4.35Q17.3 4.45 17.39 4.51Q17.52 4.6 17.73 4.59Q17.93 4.59 18.05 4.48Q18.14 4.42 18.19 4.31Q18.26 4.16 18.27 3.87Q18.28 3.55 18.3 3.45Q18.31 3.35 18.33 3.33Q18.35 3.31 18.45 3.3Q18.54 3.29 18.86 3.29Q19.23 3.29 19.97 3.29Q21.85 3.3 22.79 3.29Q23.01 3.28 23.06 3.34Q23.11 3.39 23.11 3.6Q23.08 4.75 23.11 6.36Q23.11 6.52 23.06 6.59Q23.01 6.66 22.84 6.73Q22.24 6.95 21.83 7.36Q21.7 7.5 21.59 7.65Q21.42 7.89 21.32 8.15Q21.15 8.59 21.15 9.09Q21.16 9.83 21.48 10.38Q21.53 10.46 21.59 10.54Q21.64 10.61 21.69 10.68Q22.11 11.19 22.84 11.45Q22.99 11.5 23.04 11.56Q23.08 11.62 23.08 11.77Q23.06 13.35 23.08 14.64Q23.08 14.8 23.04 14.83Q23 14.87 22.82 14.87Q20.41 14.85 18.49 14.87Q18.32 14.87 18.29 14.83Q18.25 14.79 18.25 14.61Q18.25 14.56 18.26 14.45Q18.28 14.28 18.27 14.2Q18.27 14.04 18.23 13.92Q18.19 13.82 18.12 13.75Q18.08 13.71 18.03 13.67Q17.88 13.59 17.67 13.59Q17.46 13.59 17.32 13.69Q17.28 13.72 17.25 13.76Q17.17 13.83 17.14 13.95Q17.1 14.06 17.1 14.22Q17.11 14.3 17.12 14.46Q17.13 14.56 17.13 14.6Q17.14 14.79 17.08 14.83Z" fill="#FA8B02" fill-opacity="1.000000" fill-rule="evenodd"/>
	<path id="Vector" d="M8.92 10.59C7.57 10.59 6.22 10.59 4.88 10.59C4.6 10.59 4.25 10.61 4.26 10.2C4.27 9.84 4.59 9.85 4.86 9.85C7.61 9.85 10.36 9.85 13.11 9.85C13.37 9.85 13.69 9.84 13.69 10.21C13.69 10.62 13.35 10.59 13.07 10.59C11.69 10.59 10.31 10.59 8.92 10.59Z" fill="#FA8B02" fill-opacity="1.000000" fill-rule="nonzero"/>
	<path id="Vector" d="M4.84 10.79Q4.86 10.79 4.88 10.79L8.92 10.79L8.96 10.79L13.07 10.79Q13.09 10.79 13.13 10.79Q13.27 10.79 13.34 10.78Q13.49 10.77 13.59 10.73Q13.7 10.68 13.77 10.6Q13.89 10.45 13.89 10.21Q13.89 9.99 13.78 9.86Q13.71 9.76 13.58 9.71Q13.48 9.67 13.34 9.66Q13.27 9.65 13.13 9.65L13.11 9.65L7.83 9.65L4.86 9.65L4.82 9.65Q4.68 9.65 4.61 9.66Q4.47 9.67 4.37 9.71Q4.25 9.76 4.18 9.85Q4.07 9.98 4.06 10.2Q4.06 10.44 4.17 10.58Q4.25 10.67 4.37 10.73Q4.47 10.77 4.61 10.78Q4.69 10.79 4.84 10.79ZM8.92 10.59L4.88 10.59C4.86 10.59 4.85 10.59 4.84 10.59C4.57 10.59 4.25 10.59 4.26 10.2C4.27 9.85 4.56 9.85 4.82 9.85L4.86 9.85L13.11 9.85L13.13 9.85C13.39 9.85 13.69 9.85 13.69 10.21C13.69 10.59 13.39 10.59 13.13 10.59C13.11 10.59 13.09 10.59 13.07 10.59C12.15 10.59 11.23 10.59 10.31 10.59L10.31 10.59C9.84 10.59 9.38 10.59 8.92 10.59Z" fill="#FA8B02" fill-opacity="1.000000" fill-rule="evenodd"/>
	<path id="Vector" d="M9.03 12.09C10.38 12.09 11.73 12.09 13.08 12.09C13.36 12.09 13.71 12.06 13.7 12.47C13.69 12.87 13.34 12.83 13.06 12.83C10.34 12.83 7.63 12.83 4.92 12.83C4.86 12.83 4.8 12.83 4.75 12.83C4.51 12.82 4.27 12.76 4.26 12.47C4.25 12.15 4.5 12.09 4.77 12.09L9.03 12.09Z" fill="#FA8B02" fill-opacity="1.000000" fill-rule="nonzero"/>
	<path id="Vector" d="M13.14 11.89Q13.1 11.89 13.08 11.89L4.77 11.89Q4.48 11.89 4.31 11.99Q4.22 12.04 4.16 12.12Q4.06 12.26 4.07 12.48Q4.07 12.68 4.17 12.81Q4.33 13.01 4.74 13.03L4.75 13.03L13.06 13.03Q13.08 13.03 13.13 13.03Q13.28 13.03 13.35 13.02Q13.49 13.01 13.59 12.97Q13.7 12.92 13.77 12.84Q13.89 12.71 13.9 12.47Q13.9 12.23 13.79 12.09Q13.72 12 13.6 11.95Q13.5 11.91 13.36 11.9Q13.28 11.89 13.14 11.89ZM4.77 12.09L13.08 12.09C13.1 12.09 13.12 12.09 13.14 12.09C13.41 12.09 13.71 12.09 13.7 12.47C13.69 12.84 13.4 12.83 13.14 12.83C13.11 12.83 13.08 12.83 13.06 12.83L4.75 12.83C4.51 12.82 4.27 12.76 4.26 12.47C4.25 12.15 4.5 12.09 4.77 12.09Z" fill="#FA8B02" fill-opacity="1.000000" fill-rule="evenodd"/>
	<path id="Vector" d="M8.92 8.33C7.57 8.33 6.22 8.33 4.88 8.33C4.61 8.33 4.25 8.37 4.27 7.95C4.29 7.59 4.61 7.62 4.87 7.62L13.11 7.62C13.38 7.62 13.68 7.61 13.69 7.97C13.7 8.34 13.39 8.34 13.12 8.34C11.72 8.34 10.32 8.33 8.92 8.33Z" fill="#FA8B02" fill-opacity="1.000000" fill-rule="nonzero"/>
	<path id="Vector" d="M4.82 8.53Q4.86 8.53 4.88 8.53L8.92 8.53L11.01 8.53L13.12 8.54L13.12 8.54L13.13 8.54L13.13 8.54L13.13 8.54Q13.27 8.54 13.35 8.53Q13.49 8.52 13.59 8.48Q13.69 8.43 13.76 8.36Q13.79 8.33 13.81 8.29Q13.9 8.16 13.89 7.97Q13.89 7.75 13.78 7.62Q13.7 7.53 13.58 7.48Q13.48 7.44 13.34 7.42Q13.27 7.42 13.13 7.42L13.11 7.42L4.87 7.42Q4.85 7.42 4.82 7.42Q4.69 7.42 4.62 7.42Q4.48 7.43 4.38 7.47Q4.26 7.52 4.18 7.61Q4.08 7.74 4.07 7.95Q4.06 8.19 4.18 8.34Q4.25 8.42 4.36 8.47Q4.46 8.52 4.6 8.53Q4.68 8.54 4.82 8.53ZM8.92 8.33L4.88 8.33C4.86 8.33 4.84 8.33 4.82 8.33C4.55 8.34 4.25 8.34 4.27 7.95C4.28 7.61 4.57 7.62 4.82 7.62C4.84 7.62 4.85 7.62 4.87 7.62L13.11 7.62L13.13 7.62C13.39 7.62 13.68 7.62 13.69 7.97C13.7 8.34 13.39 8.34 13.13 8.34L13.12 8.34C11.72 8.34 10.32 8.33 8.92 8.33Z" fill="#FA8B02" fill-opacity="1.000000" fill-rule="evenodd"/>
	<path id="Vector" d="M6.83 5.36L8.79 5.36C9.04 5.36 9.31 5.37 9.32 5.71C9.33 6.04 9.06 6.07 8.8 6.07C7.46 6.07 6.12 6.07 4.77 6.07C4.52 6.07 4.24 6.05 4.27 5.7C4.29 5.38 4.55 5.36 4.81 5.37L6.83 5.36Z" fill="#FA8B02" fill-opacity="1.000000" fill-rule="nonzero"/>
	<path id="Vector" d="M9 5.17Q8.92 5.16 8.79 5.16L6.83 5.16L4.81 5.17Q4.53 5.16 4.37 5.23Q4.26 5.28 4.18 5.37Q4.08 5.49 4.07 5.69Q4.06 5.87 4.12 6Q4.15 6.05 4.18 6.09Q4.24 6.15 4.33 6.19Q4.48 6.27 4.77 6.27L8.8 6.27Q9.1 6.27 9.25 6.19Q9.36 6.14 9.42 6.05Q9.52 5.92 9.52 5.7Q9.51 5.49 9.41 5.36Q9.34 5.28 9.23 5.23Q9.13 5.18 9 5.17ZM4.81 5.37C4.55 5.36 4.29 5.38 4.27 5.7C4.24 6.05 4.52 6.07 4.77 6.07L8.8 6.07C9.06 6.07 9.33 6.04 9.32 5.71C9.31 5.37 9.04 5.36 8.79 5.36L6.83 5.36L4.81 5.37Z" fill="#FA8B02" fill-opacity="1.000000" fill-rule="evenodd"/>
	<path id="Vector" d="M18.06 7.03C18.06 7.39 18.07 7.75 18.06 8.1C18.05 8.35 17.95 8.55 17.67 8.54C17.41 8.53 17.33 8.33 17.33 8.11C17.32 7.4 17.32 6.68 17.33 5.97C17.33 5.72 17.43 5.52 17.72 5.53C17.97 5.55 18.06 5.73 18.06 5.96C18.06 6.32 18.06 6.68 18.06 7.03Z" fill="#FA8B02" fill-opacity="1.000000" fill-rule="nonzero"/>
	<path id="Vector" d="M18.12 8.54Q18.25 8.38 18.26 8.1L18.26 8.1Q18.26 7.86 18.26 7.39Q18.26 7.15 18.26 7.03L18.26 5.96L18.26 5.96Q18.26 5.71 18.15 5.55Q18.09 5.48 18.02 5.43Q17.9 5.34 17.73 5.33Q17.52 5.33 17.38 5.42Q17.31 5.46 17.26 5.53Q17.13 5.7 17.13 5.97L17.13 8.11Q17.13 8.35 17.23 8.51Q17.29 8.59 17.36 8.64Q17.48 8.73 17.66 8.74Q17.85 8.75 17.99 8.66Q18.07 8.61 18.12 8.54ZM18.06 7.03C18.06 7.15 18.06 7.27 18.06 7.39C18.06 7.63 18.06 7.86 18.06 8.1C18.05 8.35 17.95 8.55 17.67 8.54C17.41 8.53 17.33 8.33 17.33 8.11Q17.32 7.04 17.33 5.97C17.33 5.72 17.43 5.52 17.72 5.53C17.97 5.55 18.06 5.73 18.06 5.96C18.06 6.32 18.06 6.68 18.06 7.03Z" fill="#FA8B02" fill-opacity="1.000000" fill-rule="evenodd"/>
	<path id="Vector" d="M18.06 11.15C18.06 11.51 18.07 11.86 18.06 12.22C18.06 12.46 17.96 12.66 17.67 12.66C17.41 12.66 17.33 12.46 17.33 12.24C17.32 11.53 17.32 10.82 17.33 10.11C17.33 9.86 17.43 9.64 17.71 9.66C18 9.67 18.07 9.9 18.07 10.14L18.06 11.15Z" fill="#FA8B02" fill-opacity="1.000000" fill-rule="nonzero"/>
	<path id="Vector" d="M18.26 12.22Q18.26 12.49 18.13 12.65Q18.08 12.72 18.01 12.77Q17.87 12.86 17.67 12.86L17.67 12.86L17.67 12.86Q17.49 12.86 17.37 12.78Q17.29 12.73 17.24 12.64Q17.14 12.49 17.13 12.24Q17.12 11.17 17.13 10.11Q17.13 9.84 17.25 9.67Q17.32 9.58 17.4 9.53Q17.54 9.45 17.72 9.46Q17.91 9.47 18.04 9.56Q18.11 9.62 18.17 9.71Q18.27 9.88 18.27 10.14L18.26 11.15Q18.26 11.27 18.26 11.5Q18.26 11.98 18.26 12.22ZM18.06 11.15C18.06 11.27 18.06 11.39 18.06 11.51C18.06 11.74 18.06 11.98 18.06 12.22C18.06 12.46 17.96 12.66 17.67 12.66C17.41 12.66 17.33 12.46 17.33 12.24Q17.32 11.17 17.33 10.11C17.33 9.86 17.43 9.64 17.71 9.66C18 9.67 18.07 9.9 18.07 10.14L18.06 11.15Z" fill="#FA8B02" fill-opacity="1.000000" fill-rule="evenodd"/>
</svg>
