<svg width="16.000000" height="19.000000" viewBox="0 0 16 19" fill="none" xmlns="http://www.w3.org/2000/svg" xmlns:xlink="http://www.w3.org/1999/xlink">
	<desc>
			Created with Pixso.
	</desc>
	<defs/>
	<path id="Vector" d="M15.42 4.67C14.25 3.41 12.82 2.73 11.09 2.73C10.13 2.73 9.19 2.9 8.25 3C6.57 3.2 5 3.03 3.66 1.86C3.29 1.55 2.99 1.25 3.04 0.69C3.08 0.29 2.69 -0.01 2.26 6.1e-5C1.83 0 1.51 0.28 1.48 0.71C1.47 0.94 1.47 2.42 1.48 3.26C1.48 3.27 1.48 3.29 1.48 3.3C1.48 3.4 1.48 3.51 1.48 3.61C1.48 6.27 1.48 8.93 1.48 11.59C1.48 11.86 1.44 11.97 1.15 11.99C0.83 12.01 0.52 12.15 0.3 12.38C0.07 12.61 -0.06 12.92 -0.07 13.24C-0.08 13.55 -0.05 13.86 -0.08 14.17C-0.13 14.75 0.07 15.23 0.54 15.57C1.23 16.06 1.6 16.68 1.45 17.56C1.4 17.87 1.57 18 1.89 17.99C2.78 17.98 3.66 17.99 4.55 17.99C5.01 17.99 5.11 17.85 4.92 17.44C4.55 16.66 4.42 15.84 4.47 14.98C4.5 14.14 4.48 13.31 4.47 12.47C4.47 11.62 4.13 11.2 3.29 11.05C3.1 11.02 3.06 10.95 3.06 10.78C3.07 10.26 3.07 9.73 3.06 9.21C3.05 8.98 3.14 8.96 3.34 9.02C4.15 9.27 4.96 9.2 5.75 8.92C7.4 8.34 9.95 6.53 11.49 5.52C11.65 5.41 11.82 5.32 12 5.24C12.04 5.22 12.09 5.2 12.13 5.18C13.12 4.77 14.12 4.64 15.12 5.14C15.28 5.22 15.43 5.24 15.53 5.07C15.64 4.9 15.53 4.79 15.42 4.67ZM2 0.79C2 0.62 2.09 0.51 2.27 0.51C2.44 0.52 2.52 0.63 2.52 0.8C2.52 0.91 2.52 1.03 2.52 1.15C2.52 4.35 2.52 7.56 2.52 10.77C2.52 11.08 2.53 11.4 2.52 11.71C2.53 11.76 2.51 11.81 2.49 11.86C2.46 11.9 2.43 11.94 2.39 11.96C2.34 11.99 2.29 12 2.24 12C2.19 12 2.14 11.99 2.1 11.96C1.93 11.87 2 11.71 2 11.57C2 9.01 2 6.44 2 3.87C2 3.86 2 3.84 2 3.82C1.99 3.53 1.99 1.07 2 0.79ZM4.29 17.33C4.3 17.55 4.11 17.45 4 17.46C3.71 17.47 3.43 17.46 3.14 17.46C2.83 17.46 2.51 17.46 2.2 17.46C2.03 17.46 1.97 17.39 1.97 17.23C1.98 17.17 2 17.12 2.04 17.08C2.08 17.03 2.14 17.01 2.19 17.01C2.8 17.01 3.41 17.01 4.02 17.01C4.24 17.01 4.29 17.19 4.29 17.33ZM3.15 11.6C3.36 11.52 3.56 11.63 3.72 11.78C3.89 11.94 3.94 12.15 3.94 12.38C3.94 13.01 3.94 13.64 3.94 14.26C3.94 14.9 3.93 15.54 3.94 16.18C3.95 16.41 3.88 16.5 3.64 16.49C3.17 16.47 2.7 16.49 2.23 16.48C2.12 16.48 1.98 16.51 1.93 16.37C1.73 15.8 1.22 15.51 0.82 15.13C0.57 14.88 0.43 14.62 0.45 14.27C0.47 13.96 0.45 13.64 0.46 13.33C0.47 12.77 0.71 12.52 1.27 12.51C1.7 12.51 2.13 12.49 2.56 12.51C2.92 12.53 3.09 12.4 3.06 12.02C3.06 11.88 2.98 11.67 3.15 11.6ZM11.45 4.92C11.39 4.95 11.33 4.99 11.27 5.03C10.79 5.33 9.55 6.08 9.34 6.22C8.27 6.94 7.24 7.73 6.05 8.26C5.2 8.63 4.33 8.78 3.42 8.51C3.17 8.43 3.05 8.32 3.06 8.02C3.07 6.17 3.06 4.32 3.07 2.46C3.07 2.36 3.01 2.23 3.16 2.12C4.64 3.51 6.43 3.77 8.36 3.53C9.42 3.39 10.47 3.21 11.55 3.29C12.48 3.34 13.37 3.68 14.09 4.26C13.17 4.26 12.26 4.49 11.45 4.92Z" fill="#333333" fill-opacity="1.000000" fill-rule="nonzero"/>
	<path id="Vector" d="M13.24 3.02Q12.24 2.63 11.09 2.63Q10.61 2.63 10.01 2.69Q9.65 2.73 8.94 2.82Q8.47 2.88 8.24 2.91Q6.88 3.07 5.85 2.85Q5.24 2.72 4.7 2.45Q4.18 2.18 3.72 1.79Q3.56 1.65 3.47 1.55Q3.35 1.43 3.28 1.32Q3.23 1.23 3.2 1.15Q3.12 0.94 3.14 0.7Q3.15 0.6 3.13 0.51Q3.12 0.44 3.09 0.37Q3.08 0.35 3.07 0.33Q3 0.21 2.89 0.11Q2.88 0.11 2.87 0.1Q2.76 0 2.6 -0.05Q2.54 -0.07 2.48 -0.08Q2.37 -0.11 2.26 -0.1Q2 -0.1 1.81 0.01Q1.72 0.05 1.65 0.12Q1.56 0.21 1.49 0.31Q1.39 0.48 1.38 0.7Q1.37 0.91 1.38 2.89Q1.38 3.15 1.38 3.26L1.38 3.3L1.38 3.61L1.38 6.27L1.38 11.59Q1.38 11.77 1.34 11.82Q1.3 11.88 1.14 11.89Q1.03 11.9 0.91 11.93Q0.78 11.96 0.65 12.02Q0.53 12.07 0.42 12.14Q0.32 12.22 0.23 12.31Q0.13 12.4 0.06 12.51Q-0.01 12.62 -0.06 12.74Q-0.11 12.86 -0.14 12.98Q-0.17 13.11 -0.17 13.24Q-0.17 13.36 -0.17 13.61Q-0.16 13.98 -0.18 14.16Q-0.22 14.69 -0.02 15.08Q0.15 15.41 0.48 15.65Q1 16.03 1.22 16.46Q1.26 16.54 1.29 16.62Q1.44 17.04 1.35 17.54Q1.32 17.76 1.4 17.9Q1.43 17.94 1.46 17.97Q1.61 18.1 1.89 18.09Q2.41 18.09 3.44 18.09Q4.18 18.09 4.55 18.09Q4.74 18.09 4.85 18.06Q5 18.02 5.06 17.93L5.06 17.93Q5.07 17.92 5.08 17.91Q5.13 17.82 5.11 17.69Q5.09 17.57 5.01 17.4Q5.01 17.39 5 17.38Q4.5 16.31 4.57 14.98Q4.59 14.39 4.58 13.19Q4.57 12.71 4.57 12.47Q4.57 11.79 4.28 11.43Q3.98 11.07 3.31 10.95Q3.21 10.93 3.18 10.9Q3.16 10.87 3.16 10.78Q3.17 9.92 3.16 9.21Q3.16 9.14 3.17 9.1Q3.17 9.09 3.17 9.09Q3.2 9.08 3.31 9.11Q3.47 9.17 3.64 9.2Q4.65 9.41 5.79 9.01Q6.71 8.69 8.22 7.77Q9.09 7.25 10.75 6.14Q11.3 5.76 11.55 5.6Q11.67 5.52 11.8 5.45Q11.92 5.39 12.04 5.33Q12.1 5.3 12.17 5.28Q12.96 4.95 13.63 4.92Q13.98 4.91 14.33 4.97Q14.71 5.05 15.08 5.23Q15.23 5.31 15.36 5.3Q15.41 5.29 15.46 5.27Q15.55 5.23 15.62 5.12Q15.68 5.03 15.68 4.94Q15.68 4.88 15.65 4.82Q15.62 4.74 15.5 4.61L15.49 4.6Q14.48 3.51 13.24 3.02ZM15.42 4.67C14.25 3.41 12.82 2.73 11.09 2.73C10.13 2.73 9.19 2.9 8.25 3C6.57 3.2 5 3.03 3.66 1.86C3.29 1.55 2.99 1.25 3.04 0.69C3.08 0.29 2.69 -0.01 2.26 6.1e-5C1.83 0 1.51 0.28 1.48 0.71C1.47 0.91 1.47 2.04 1.48 2.89L1.48 2.89C1.48 3.02 1.48 3.15 1.48 3.26L1.48 3.61C1.48 6.27 1.48 8.93 1.48 11.59C1.48 11.86 1.44 11.97 1.15 11.99C0.83 12.01 0.52 12.15 0.3 12.38C0.07 12.61 -0.06 12.92 -0.07 13.24C-0.08 13.36 -0.07 13.48 -0.07 13.61C-0.07 13.79 -0.06 13.98 -0.08 14.17C-0.13 14.75 0.07 15.23 0.54 15.57C1.23 16.06 1.6 16.68 1.45 17.56C1.4 17.87 1.57 18 1.89 17.99C2.41 17.99 2.92 17.99 3.44 17.99C3.81 17.99 4.18 17.99 4.55 17.99C5.01 17.99 5.11 17.85 4.92 17.44C4.55 16.66 4.42 15.84 4.47 14.98C4.49 14.38 4.49 13.79 4.48 13.19C4.48 12.95 4.47 12.71 4.47 12.47C4.47 11.62 4.13 11.2 3.29 11.05C3.1 11.02 3.06 10.95 3.06 10.78C3.07 10.26 3.07 9.73 3.06 9.21C3.05 8.98 3.14 8.96 3.34 9.02C4.15 9.27 4.96 9.2 5.75 8.92C7.4 8.34 9.95 6.53 11.49 5.52C11.65 5.41 11.82 5.32 12 5.24C12.04 5.22 12.09 5.2 12.13 5.18C13.12 4.77 14.12 4.64 15.12 5.14C15.28 5.22 15.43 5.24 15.53 5.07C15.64 4.91 15.53 4.79 15.42 4.67L15.42 4.67ZM2.52 11.71C2.53 11.5 2.53 11.29 2.53 11.08L2.53 11.08C2.52 10.98 2.52 10.88 2.52 10.77L2.52 0.8C2.52 0.63 2.44 0.52 2.27 0.51C2.09 0.51 2 0.62 2 0.79C1.99 1.07 1.99 3.53 2 3.82L2 3.87Q1.99 7.72 2 11.57C2 11.6 2 11.63 1.99 11.66C1.98 11.77 1.97 11.89 2.1 11.96C2.14 11.99 2.19 12 2.24 12C2.29 12 2.34 11.99 2.39 11.96C2.43 11.94 2.46 11.9 2.49 11.86C2.51 11.81 2.53 11.76 2.52 11.71ZM2.1 0.79L2.09 2.31L2.1 3.82L2.1 11.57Q2.1 11.61 2.09 11.67Q2.08 11.77 2.09 11.8Q2.09 11.81 2.1 11.82Q2.11 11.85 2.15 11.87L2.15 11.87L2.15 11.87Q2.17 11.89 2.19 11.89Q2.22 11.9 2.24 11.9Q2.27 11.9 2.29 11.89Q2.31 11.89 2.33 11.88Q2.36 11.86 2.37 11.85Q2.39 11.83 2.4 11.81Q2.41 11.79 2.42 11.76Q2.42 11.74 2.42 11.71L2.42 11.71L2.42 11.71Q2.43 11.5 2.43 11.08Q2.42 10.88 2.42 10.77L2.42 0.8Q2.42 0.7 2.38 0.66Q2.38 0.66 2.38 0.66Q2.34 0.62 2.26 0.61Q2.19 0.61 2.15 0.65Q2.1 0.69 2.1 0.79ZM11.45 4.92C11.39 4.95 11.33 4.99 11.27 5.03C10.79 5.33 9.55 6.08 9.34 6.22C8.27 6.94 7.24 7.73 6.05 8.26C5.2 8.63 4.33 8.78 3.42 8.51C3.17 8.43 3.05 8.32 3.06 8.02C3.07 6.8 3.07 5.57 3.07 4.35C3.07 3.72 3.07 3.09 3.07 2.46C3.07 2.44 3.06 2.42 3.06 2.39C3.05 2.3 3.04 2.21 3.16 2.12C4.64 3.51 6.43 3.77 8.36 3.53C8.51 3.51 8.66 3.49 8.82 3.47C9.72 3.35 10.63 3.22 11.55 3.29C12.42 3.33 13.26 3.64 13.97 4.16C14.01 4.19 14.05 4.22 14.09 4.26C14.04 4.26 13.99 4.26 13.93 4.26C13.07 4.29 12.22 4.51 11.45 4.92ZM11.41 4.83Q11.35 4.86 11.31 4.89Q11.26 4.91 11.22 4.95Q11.15 4.98 11 5.08Q9.47 6.01 9.28 6.14Q9.06 6.29 8.63 6.58Q7.79 7.17 7.35 7.44Q6.63 7.89 6.01 8.17Q5.35 8.46 4.75 8.53Q4.37 8.57 4 8.53Q3.72 8.49 3.45 8.41Q3.28 8.36 3.22 8.28Q3.15 8.2 3.16 8.02L3.16 7.51L3.17 2.46Q3.17 2.43 3.16 2.38Q3.15 2.31 3.16 2.28Q3.16 2.27 3.16 2.27Q3.73 2.78 4.38 3.11Q4.94 3.39 5.57 3.54Q6.79 3.83 8.37 3.63Q8.53 3.61 8.83 3.57Q9.73 3.45 10.19 3.41Q10.94 3.35 11.54 3.39Q11.9 3.41 12.24 3.48Q12.56 3.55 12.86 3.67Q13.18 3.79 13.47 3.95Q13.64 4.05 13.8 4.16Q13.6 4.18 13.39 4.2Q13.05 4.24 12.71 4.33Q12.36 4.42 12.04 4.54Q11.71 4.67 11.41 4.83ZM3.15 11.6C3.36 11.52 3.56 11.63 3.72 11.78C3.89 11.94 3.94 12.15 3.94 12.38L3.94 14.26C3.94 14.44 3.94 14.61 3.94 14.79C3.93 15.25 3.93 15.71 3.94 16.18C3.95 16.41 3.88 16.5 3.64 16.49C3.36 16.48 3.08 16.48 2.8 16.48C2.61 16.48 2.42 16.49 2.23 16.48C2.21 16.48 2.2 16.48 2.18 16.48C2.08 16.49 1.97 16.49 1.93 16.37C1.73 15.8 1.22 15.51 0.82 15.13C0.57 14.88 0.43 14.62 0.45 14.27C0.46 14.08 0.46 13.89 0.46 13.7C0.46 13.57 0.46 13.45 0.46 13.33C0.47 12.77 0.71 12.52 1.27 12.51C1.34 12.51 1.42 12.51 1.5 12.51C1.85 12.5 2.2 12.5 2.56 12.51C2.92 12.53 3.09 12.4 3.06 12.02C3.06 11.99 3.06 11.96 3.05 11.93C3.04 11.8 3.01 11.66 3.15 11.6ZM3.25 11.68Q3.43 11.65 3.65 11.85L3.65 11.85Q3.69 11.89 3.73 11.94Q3.77 12.01 3.8 12.09Q3.84 12.21 3.84 12.38L3.84 13.32L3.84 14.26Q3.84 14.44 3.84 14.79Q3.83 15.71 3.84 16.18Q3.85 16.32 3.81 16.36Q3.78 16.39 3.64 16.39Q3.36 16.38 2.8 16.38Q2.42 16.39 2.23 16.38Q2.21 16.38 2.18 16.38Q2.09 16.39 2.06 16.38Q2.05 16.38 2.05 16.37Q2.03 16.36 2.02 16.34Q1.92 16.04 1.68 15.77Q1.54 15.61 1.22 15.34Q1 15.15 0.89 15.05Q0.71 14.87 0.63 14.7Q0.62 14.68 0.61 14.65Q0.54 14.48 0.55 14.28Q0.56 14.08 0.56 13.7Q0.56 13.45 0.56 13.33Q0.56 12.95 0.73 12.78Q0.9 12.62 1.27 12.61Q1.35 12.61 1.5 12.61Q2.2 12.6 2.55 12.61Q2.87 12.63 3.03 12.49Q3.03 12.48 3.04 12.47Q3.19 12.33 3.16 12.01Q3.16 11.98 3.15 11.91Q3.14 11.8 3.14 11.76Q3.15 11.73 3.16 11.72Q3.17 11.7 3.19 11.7Q3.22 11.68 3.25 11.68ZM4.29 17.33C4.3 17.5 4.19 17.48 4.09 17.47C4.05 17.46 4.02 17.46 4 17.46C3.79 17.47 3.59 17.47 3.38 17.46L3.38 17.46C3.3 17.46 3.22 17.46 3.14 17.46L2.2 17.46C2.03 17.46 1.97 17.39 1.97 17.23C1.98 17.17 2 17.12 2.04 17.08C2.08 17.03 2.14 17.01 2.19 17.01L4.02 17.01C4.24 17.01 4.29 17.19 4.29 17.33ZM4.1 17.37Q4.03 17.36 3.99 17.36L3.99 17.36Q3.79 17.37 3.38 17.36Q3.22 17.36 3.14 17.36L2.2 17.36Q2.12 17.36 2.1 17.34Q2.07 17.31 2.08 17.23Q2.08 17.2 2.08 17.18Q2.09 17.16 2.11 17.15Q2.13 17.13 2.15 17.12Q2.17 17.11 2.19 17.11L4.02 17.11Q4.08 17.11 4.12 17.14Q4.19 17.19 4.2 17.34Q4.2 17.36 4.19 17.37Q4.17 17.38 4.1 17.37Z" fill="#333333" fill-opacity="1.000000" fill-rule="evenodd"/>
</svg>
