<svg width="18.000000" height="13.000000" viewBox="0 0 18 13" fill="none" xmlns="http://www.w3.org/2000/svg" xmlns:xlink="http://www.w3.org/1999/xlink">
	<desc>
			Created with Pixso.
	</desc>
	<defs/>
	<path id="Vector" d="M1.14 3.94C0.81 3.9 0.61 3.89 0.43 3.85C0.22 3.8 0.04 3.68 -0.08 3.51C-0.21 3.34 -0.27 3.13 -0.25 2.92C-0.24 2.71 -0.15 2.51 0 2.37C0.15 2.22 0.35 2.13 0.56 2.12C0.98 2.1 1.42 2.01 1.81 2.29C2 2.42 1.99 2.21 2.02 2.12C2.17 1.69 2.3 1.25 2.45 0.82C2.73 0.05 3.22 -0.31 4.04 -0.31C7.18 -0.31 10.32 -0.31 13.46 -0.31C14.26 -0.31 14.76 0.04 15.03 0.8C15.18 1.24 15.33 1.69 15.47 2.13C15.52 2.32 15.58 2.35 15.76 2.25C16.19 2 16.67 2.06 17.13 2.15C17.51 2.23 17.75 2.62 17.74 3.01C17.74 3.21 17.67 3.39 17.55 3.54C17.43 3.69 17.27 3.8 17.09 3.84C16.89 3.89 16.68 3.9 16.36 3.94C16.74 4.3 17.06 4.61 17.38 4.91C17.5 5.02 17.6 5.15 17.66 5.3C17.72 5.45 17.75 5.61 17.74 5.78C17.73 7 17.73 8.23 17.74 9.45C17.74 9.82 17.64 10.13 17.33 10.33C17.16 10.44 17.13 10.58 17.14 10.76C17.23 12.03 16.87 12.36 15.58 12.29C15.14 12.27 14.7 12.29 14.25 12.29C13.61 12.28 13.26 11.94 13.24 11.3C13.22 10.49 13.22 10.49 12.41 10.49L4.75 10.49C4.25 10.49 4.25 10.49 4.25 11.01C4.25 11.15 4.25 11.29 4.24 11.44C4.2 11.92 3.86 12.27 3.38 12.28C2.66 12.3 1.95 12.3 1.23 12.28C0.73 12.27 0.39 11.91 0.36 11.4C0.35 11.27 0.35 11.14 0.36 11.01C0.38 10.69 0.36 10.42 0.04 10.21C-0.19 10.07 -0.25 9.79 -0.25 9.51C-0.25 8.25 -0.25 6.99 -0.25 5.72C-0.26 5.58 -0.23 5.44 -0.18 5.3C-0.12 5.17 -0.04 5.05 0.06 4.95C0.39 4.64 0.72 4.33 1.14 3.94ZM8.7 9.88C11.33 9.88 13.97 9.88 16.6 9.88C17.08 9.88 17.13 9.83 17.13 9.34C17.13 8.7 17.14 8.06 17.13 7.42C17.13 6.79 17.33 6.08 17.06 5.53C16.8 4.99 16.19 4.58 15.74 4.12C15.73 4.11 15.72 4.1 15.71 4.09C15.59 3.93 15.43 3.89 15.23 3.89C10.91 3.89 6.58 3.89 2.26 3.89C2.17 3.89 2.08 3.9 1.99 3.93C1.91 3.97 1.83 4.02 1.77 4.09C1.38 4.49 0.99 4.89 0.59 5.27C0.5 5.35 0.44 5.44 0.4 5.54C0.36 5.64 0.34 5.75 0.35 5.86C0.36 7.01 0.35 8.15 0.35 9.3C0.35 9.85 0.39 9.88 0.92 9.88C3.52 9.88 6.11 9.88 8.7 9.88L8.7 9.88ZM2.27 3.25C2.3 3.26 2.33 3.27 2.36 3.28C6.56 3.28 10.77 3.29 14.97 3.29C15.25 3.29 15.18 3.16 15.13 3.01C14.92 2.38 14.71 1.75 14.5 1.12C14.29 0.47 14.04 0.29 13.35 0.29C11.58 0.29 9.81 0.29 8.04 0.29C6.71 0.29 5.38 0.3 4.06 0.29C3.66 0.29 3.29 0.39 3.14 0.76C2.82 1.57 2.56 2.42 2.27 3.25ZM2.28 10.49C2.08 10.49 1.87 10.48 1.66 10.49C0.83 10.51 0.95 10.31 0.94 11.24C0.93 11.56 1.07 11.69 1.38 11.69C1.85 11.68 2.32 11.69 2.79 11.69C3.67 11.69 3.7 11.65 3.65 10.76C3.64 10.56 3.58 10.48 3.37 10.48C3.01 10.5 2.65 10.49 2.28 10.49ZM15.2 10.49C14.99 10.49 14.78 10.48 14.57 10.49C13.75 10.51 13.85 10.32 13.84 11.24C13.83 11.58 13.99 11.7 14.31 11.69C14.78 11.67 15.25 11.69 15.71 11.69C16.56 11.69 16.54 11.69 16.55 10.85C16.55 10.54 16.44 10.47 16.17 10.49C15.85 10.51 15.52 10.49 15.2 10.49ZM0.98 3.29C1.08 3.29 1.16 3.29 1.24 3.29C1.36 3.28 1.54 3.35 1.54 3.11C1.54 2.91 1.5 2.75 1.28 2.71C1.19 2.69 1.1 2.68 1.01 2.69C0.76 2.72 0.38 2.58 0.38 2.99C0.38 3.4 0.76 3.25 0.98 3.29ZM16.42 3.29C16.57 3.29 16.69 3.29 16.8 3.29C16.99 3.28 17.12 3.19 17.12 2.98C17.12 2.78 16.98 2.71 16.81 2.7C16.63 2.69 16.45 2.69 16.27 2.7C16.06 2.71 15.95 2.83 15.94 3.05C15.94 3.5 16.29 3.19 16.42 3.29Z" fill="#333333" fill-opacity="1.000000" fill-rule="nonzero"/>
	<path id="Vector" d="M0.43 3.85C0.22 3.8 0.04 3.68 -0.08 3.51C-0.21 3.34 -0.27 3.13 -0.25 2.92C-0.24 2.71 -0.15 2.51 0 2.37C0.15 2.22 0.35 2.13 0.56 2.12C0.98 2.1 1.42 2.01 1.81 2.29C2 2.42 1.99 2.21 2.02 2.12C2.17 1.69 2.3 1.25 2.45 0.82C2.73 0.05 3.22 -0.31 4.04 -0.31C7.18 -0.31 10.32 -0.31 13.46 -0.31C14.26 -0.31 14.76 0.04 15.03 0.8C15.18 1.24 15.33 1.69 15.47 2.13C15.52 2.32 15.58 2.35 15.76 2.25C16.19 2 16.67 2.06 17.13 2.15C17.51 2.23 17.75 2.62 17.74 3.01C17.74 3.21 17.67 3.39 17.55 3.54C17.43 3.69 17.27 3.8 17.09 3.84C16.89 3.89 16.68 3.9 16.36 3.94C16.74 4.3 17.06 4.61 17.38 4.91C17.5 5.02 17.6 5.15 17.66 5.3C17.72 5.45 17.75 5.61 17.74 5.78C17.73 7 17.73 8.23 17.74 9.45C17.74 9.82 17.64 10.13 17.33 10.33C17.16 10.44 17.13 10.58 17.14 10.76C17.23 12.03 16.87 12.36 15.58 12.29C15.14 12.27 14.7 12.29 14.25 12.29C13.61 12.28 13.26 11.94 13.24 11.3C13.22 10.49 13.22 10.49 12.41 10.49L4.75 10.49C4.25 10.49 4.25 10.49 4.25 11.01C4.25 11.15 4.25 11.29 4.24 11.44C4.2 11.92 3.86 12.27 3.38 12.28C2.66 12.3 1.95 12.3 1.23 12.28C0.73 12.27 0.39 11.91 0.36 11.4C0.35 11.27 0.35 11.14 0.36 11.01C0.38 10.69 0.36 10.42 0.04 10.21C-0.19 10.07 -0.25 9.79 -0.25 9.51C-0.25 8.25 -0.25 6.99 -0.25 5.72C-0.26 5.58 -0.23 5.44 -0.18 5.3C-0.12 5.17 -0.04 5.05 0.06 4.95C0.39 4.64 0.72 4.33 1.14 3.94C0.81 3.9 0.61 3.89 0.43 3.85ZM16.6 9.88C17.08 9.88 17.13 9.83 17.13 9.34C17.13 8.7 17.14 8.06 17.13 7.42C17.13 6.79 17.33 6.08 17.06 5.53C16.8 4.99 16.19 4.58 15.74 4.12C15.73 4.11 15.72 4.1 15.71 4.09C15.59 3.93 15.43 3.89 15.23 3.89C10.91 3.89 6.58 3.89 2.26 3.89C2.17 3.89 2.08 3.9 1.99 3.93C1.91 3.97 1.83 4.02 1.77 4.09C1.38 4.49 0.99 4.89 0.59 5.27C0.5 5.35 0.44 5.44 0.4 5.54C0.36 5.64 0.34 5.75 0.35 5.86C0.36 7.01 0.35 8.15 0.35 9.3C0.35 9.85 0.39 9.88 0.92 9.88C3.52 9.88 6.11 9.88 8.7 9.88L8.7 9.88C11.33 9.88 13.97 9.88 16.6 9.88ZM2.36 3.28C6.56 3.28 10.77 3.29 14.97 3.29C15.25 3.29 15.18 3.16 15.13 3.01C14.92 2.38 14.71 1.75 14.5 1.12C14.29 0.47 14.04 0.29 13.35 0.29C11.58 0.29 9.81 0.29 8.04 0.29C6.71 0.29 5.38 0.3 4.06 0.29C3.66 0.29 3.29 0.39 3.14 0.76C2.82 1.57 2.56 2.42 2.27 3.25C2.3 3.26 2.33 3.27 2.36 3.28ZM1.66 10.49C0.83 10.51 0.95 10.31 0.94 11.24C0.93 11.56 1.07 11.69 1.38 11.69C1.85 11.68 2.32 11.69 2.79 11.69C3.67 11.69 3.7 11.65 3.65 10.76C3.64 10.56 3.58 10.48 3.37 10.48C3.01 10.5 2.65 10.49 2.28 10.49C2.08 10.49 1.87 10.48 1.66 10.49ZM14.57 10.49C13.75 10.51 13.85 10.32 13.84 11.24C13.83 11.58 13.99 11.7 14.31 11.69C14.78 11.67 15.25 11.69 15.71 11.69C16.56 11.69 16.54 11.69 16.55 10.85C16.55 10.54 16.44 10.47 16.17 10.49C15.85 10.51 15.52 10.49 15.2 10.49C14.99 10.49 14.78 10.48 14.57 10.49ZM1.24 3.29C1.36 3.28 1.54 3.35 1.54 3.11C1.54 2.91 1.5 2.75 1.28 2.71C1.19 2.69 1.1 2.68 1.01 2.69C0.76 2.72 0.38 2.58 0.38 2.99C0.38 3.4 0.76 3.25 0.98 3.29C1.08 3.29 1.16 3.29 1.24 3.29ZM16.8 3.29C16.99 3.28 17.12 3.19 17.12 2.98C17.12 2.78 16.98 2.71 16.81 2.7C16.63 2.69 16.45 2.69 16.27 2.7C16.06 2.71 15.95 2.83 15.94 3.05C15.94 3.5 16.29 3.19 16.42 3.29C16.57 3.29 16.69 3.29 16.8 3.29Z" stroke="#333333" stroke-opacity="1.000000" stroke-width="0.200000"/>
	<path id="Vector" d="M8.74 5.69C9.77 5.69 10.8 5.69 11.83 5.69C12.16 5.69 12.46 5.76 12.59 6.11C12.71 6.46 12.52 6.7 12.27 6.96C11.64 7.63 10.9 7.88 9.97 7.81C8.89 7.73 7.81 7.78 6.73 7.8C6.56 7.81 6.39 7.78 6.23 7.72C6.07 7.66 5.93 7.57 5.81 7.45C5.61 7.25 5.37 7.08 5.15 6.9C4.9 6.7 4.77 6.44 4.89 6.11C5.01 5.8 5.26 5.7 5.57 5.7C6.63 5.7 7.69 5.69 8.74 5.69ZM5.51 6.32C5.99 6.96 6.41 7.18 7.1 7.18C8.17 7.18 9.24 7.12 10.3 7.2C11.08 7.26 11.5 6.82 12.03 6.32L5.51 6.32Z" fill="#333333" fill-opacity="1.000000" fill-rule="nonzero"/>
	<path id="Vector" d="M11.83 5.69C12.16 5.69 12.46 5.76 12.59 6.11C12.71 6.46 12.52 6.7 12.27 6.96C11.64 7.63 10.9 7.88 9.97 7.81C8.89 7.73 7.81 7.78 6.73 7.8C6.56 7.81 6.39 7.78 6.23 7.72C6.07 7.66 5.93 7.57 5.81 7.45C5.61 7.25 5.37 7.08 5.15 6.9C4.9 6.7 4.77 6.44 4.89 6.11C5.01 5.8 5.26 5.7 5.57 5.7C6.63 5.7 7.69 5.69 8.74 5.69C9.77 5.69 10.8 5.69 11.83 5.69ZM7.1 7.18C8.17 7.18 9.24 7.12 10.3 7.2C11.08 7.26 11.5 6.82 12.03 6.32L5.51 6.32C5.99 6.96 6.41 7.18 7.1 7.18Z" stroke="#333333" stroke-opacity="1.000000" stroke-width="0.200000"/>
	<path id="Vector" d="M2.7 7.79C2.33 7.79 1.97 7.8 1.6 7.79C1.17 7.77 0.94 7.56 0.94 7.14C0.92 5.89 0.83 5.71 2.3 5.66C3.27 5.63 3.78 6.22 4.39 6.74C4.58 6.91 4.58 7.17 4.48 7.4C4.44 7.51 4.36 7.62 4.26 7.69C4.15 7.76 4.03 7.79 3.9 7.79C3.5 7.8 3.1 7.79 2.7 7.79L2.7 7.79ZM3.92 7.19C3.39 6.49 2.78 6.15 1.96 6.29C1.83 6.32 1.63 6.23 1.58 6.39C1.51 6.63 1.51 6.88 1.58 7.12C1.59 7.15 1.69 7.18 1.75 7.18C2.45 7.19 3.15 7.19 3.92 7.19Z" fill="#333333" fill-opacity="1.000000" fill-rule="nonzero"/>
	<path id="Vector" d="M1.6 7.79C1.17 7.77 0.94 7.56 0.94 7.14C0.92 5.89 0.83 5.71 2.3 5.66C3.27 5.63 3.78 6.22 4.39 6.74C4.58 6.91 4.58 7.17 4.48 7.4C4.44 7.51 4.36 7.62 4.26 7.69C4.15 7.76 4.03 7.79 3.9 7.79C3.5 7.8 3.1 7.79 2.7 7.79L2.7 7.79C2.33 7.79 1.97 7.8 1.6 7.79ZM1.96 6.29C1.83 6.32 1.63 6.23 1.58 6.39C1.51 6.63 1.51 6.88 1.58 7.12C1.59 7.15 1.69 7.18 1.75 7.18C2.45 7.19 3.15 7.19 3.92 7.19C3.39 6.49 2.78 6.15 1.96 6.29Z" stroke="#333333" stroke-opacity="1.000000" stroke-width="0.200000"/>
	<path id="Vector" d="M14.75 7.79L13.65 7.79C13.33 7.79 13.09 7.66 12.98 7.35C12.88 7.05 12.98 6.8 13.23 6.59C13.52 6.36 13.8 6.13 14.07 5.9C14.23 5.76 14.44 5.68 14.64 5.69C15.05 5.69 15.45 5.69 15.85 5.69C16.32 5.7 16.53 5.92 16.54 6.39C16.55 6.62 16.55 6.84 16.54 7.06C16.53 7.56 16.33 7.77 15.83 7.78C15.47 7.8 15.11 7.79 14.75 7.79ZM13.58 7.19L15.43 7.19C15.95 7.19 15.95 7.19 15.94 6.65C15.93 6.51 16 6.33 15.75 6.3C14.89 6.18 14.14 6.36 13.58 7.19Z" fill="#333333" fill-opacity="1.000000" fill-rule="nonzero"/>
	<path id="Vector" d="M13.65 7.79C13.33 7.79 13.09 7.66 12.98 7.35C12.88 7.05 12.98 6.8 13.23 6.59C13.52 6.36 13.8 6.13 14.07 5.9C14.23 5.76 14.44 5.68 14.64 5.69C15.05 5.69 15.45 5.69 15.85 5.69C16.32 5.7 16.53 5.92 16.54 6.39C16.55 6.62 16.55 6.84 16.54 7.06C16.53 7.56 16.33 7.77 15.83 7.78C15.47 7.8 15.11 7.79 14.75 7.79L13.65 7.79ZM15.43 7.19C15.95 7.19 15.95 7.19 15.94 6.65C15.93 6.51 16 6.33 15.75 6.3C14.89 6.18 14.14 6.36 13.58 7.19L15.43 7.19Z" stroke="#333333" stroke-opacity="1.000000" stroke-width="0.200000"/>
	<path id="Vector" d="M8.73 8.68C9.58 8.68 10.42 8.68 11.27 8.68C11.49 8.68 11.72 8.69 11.72 8.98C11.73 9.27 11.5 9.29 11.28 9.29C9.58 9.29 7.89 9.29 6.19 9.29C5.97 9.29 5.75 9.26 5.76 8.97C5.77 8.71 5.97 8.69 6.19 8.69C7.04 8.68 7.88 8.68 8.73 8.68Z" fill="#333333" fill-opacity="1.000000" fill-rule="nonzero"/>
	<path id="Vector" d="M11.27 8.68C11.49 8.68 11.72 8.69 11.72 8.98C11.73 9.27 11.5 9.29 11.28 9.29C9.58 9.29 7.89 9.29 6.19 9.29C5.97 9.29 5.75 9.26 5.76 8.97C5.77 8.71 5.97 8.69 6.19 8.69C7.04 8.68 7.88 8.68 8.73 8.68C9.58 8.68 10.42 8.68 11.27 8.68Z" stroke="#333333" stroke-opacity="1.000000" stroke-width="0.200000"/>
	<path id="Vector" d="M2.6 8.68C2.92 8.68 3.25 8.68 3.57 8.68C3.79 8.68 3.94 8.77 3.94 9C3.94 9.2 3.78 9.28 3.59 9.28C2.93 9.29 2.27 9.29 1.6 9.28C1.41 9.28 1.26 9.2 1.26 8.99C1.26 8.77 1.42 8.69 1.63 8.69C1.95 8.68 2.28 8.68 2.6 8.68Z" fill="#333333" fill-opacity="1.000000" fill-rule="nonzero"/>
	<path id="Vector" d="M3.57 8.68C3.79 8.68 3.94 8.77 3.94 9C3.94 9.2 3.78 9.28 3.59 9.28C2.93 9.29 2.27 9.29 1.6 9.28C1.41 9.28 1.26 9.2 1.26 8.99C1.26 8.77 1.42 8.69 1.63 8.69C1.95 8.68 2.28 8.68 2.6 8.68C2.92 8.68 3.25 8.68 3.57 8.68Z" stroke="#333333" stroke-opacity="1.000000" stroke-width="0.200000"/>
	<path id="Vector" d="M14.91 8.68C15.23 8.68 15.55 8.68 15.88 8.68C16.08 8.68 16.21 8.77 16.22 8.97C16.23 9.17 16.09 9.28 15.9 9.28C15.22 9.28 14.55 9.28 13.87 9.28C13.68 9.28 13.54 9.18 13.55 8.97C13.56 8.77 13.7 8.68 13.9 8.69C14.23 8.68 14.57 8.68 14.91 8.68Z" fill="#333333" fill-opacity="1.000000" fill-rule="nonzero"/>
	<path id="Vector" d="M15.88 8.68C16.08 8.68 16.21 8.77 16.22 8.97C16.23 9.17 16.09 9.28 15.9 9.28C15.22 9.28 14.55 9.28 13.87 9.28C13.68 9.28 13.54 9.18 13.55 8.97C13.56 8.77 13.7 8.68 13.9 8.69C14.23 8.68 14.57 8.68 14.91 8.68C15.23 8.68 15.55 8.68 15.88 8.68Z" stroke="#333333" stroke-opacity="1.000000" stroke-width="0.200000"/>
</svg>
