<svg width="347.000000" height="347.000000" viewBox="0 0 347 347" fill="none" xmlns="http://www.w3.org/2000/svg" xmlns:xlink="http://www.w3.org/1999/xlink">
	<desc>
			Created with Pixso.
	</desc>
	<defs>
		<clipPath id="clip201_23889">
			<rect id="Trip-pana 1" width="347.000000" height="347.000000" transform="translate(-0.500000 0.000000)" fill="white" fill-opacity="0"/>
		</clipPath>
	</defs>
	<rect id="Trip-pana 1" width="347.000000" height="347.000000" transform="translate(-0.500000 0.000000)" fill="#FFFFFF" fill-opacity="0"/>
	<g clip-path="url(#clip201_23889)">
		<path id="Vector" d="M52.98 309.25C53.59 306.86 52.01 304.47 50.25 302.75C48.48 301.03 46.37 299.5 45.45 297.2C43.95 293.5 45.91 288.69 43.37 285.61C41.88 283.8 39.21 283.2 37.89 281.27C37.27 280.19 36.86 279.02 36.68 277.8C35.24 271.65 32.18 266 27.81 261.45C27.55 266.93 28.77 272.39 31.34 277.25C32.38 279.19 33.64 281.08 33.99 283.24C34.56 286.77 32.61 290.41 33.5 293.86C34.51 297.82 38.98 300.44 39.21 304.51C39.41 307.99 36.44 311 36.67 314.44C36.85 315.91 37.38 317.32 38.22 318.54C40.91 322.96 44.84 325.98 50.77 325.85L58.03 326.06L52.98 309.25Z" fill="#F5F5F5" fill-opacity="1.000000" fill-rule="nonzero"/>
		<path id="Vector" d="M59.5 326.22C60.17 326.32 60.85 326.3 61.5 326.16C62.31 326.04 63.1 325.84 63.86 325.56C64.91 325.18 65.9 324.64 66.77 323.94C67.29 323.51 67.7 322.96 67.96 322.34C68.17 321.63 68.28 320.9 68.28 320.17C68.29 319.38 68.35 318.59 68.44 317.81C68.58 316.98 68.88 316.19 69.32 315.47C70.16 313.96 71.58 312.53 72.02 310.48C72.47 308.44 72.14 306.32 71.8 304.12C71.45 301.92 71.1 299.57 71.93 297.3C72.75 295.02 74.27 292.96 75.05 290.39C75.83 287.82 75.45 285.03 75.6 282.28C75.64 280.89 75.96 279.51 76.52 278.24C77.1 276.95 77.91 275.74 78.54 274.38C79.81 271.61 80.02 268.53 80.36 265.49C80.52 263.96 80.69 262.41 80.85 260.85C80.95 259.28 81.22 257.72 81.64 256.2C82.12 254.67 82.69 253.16 83.34 251.7C83.69 250.94 83.96 250.15 84.18 249.34C84.29 248.51 84.37 247.68 84.4 246.84C84.47 245.16 84.39 243.48 84.18 241.81C83.97 240.14 83.66 238.48 83.48 236.8C83.48 236.7 83.48 236.6 83.48 236.51L83.44 236.18L83.14 236.33C81.61 237.12 80.28 238.26 79.25 239.65C78.25 241.01 77.46 242.5 76.88 244.09C75.68 247.22 75.26 250.49 74.67 253.62C74.08 256.75 73.28 259.82 71.73 262.42C70.94 263.72 69.99 264.9 69.15 266.17C68.26 267.4 67.65 268.83 67.37 270.33C66.96 273.4 68.67 276.1 68.33 278.82C68.17 280.15 67.73 281.44 67.03 282.59C66.38 283.76 65.64 284.84 64.88 285.92C64.13 286.98 63.49 288.11 62.95 289.29C62.44 290.44 62.15 291.68 62.07 292.93C61.91 295.38 62.27 297.71 62.11 299.87C61.92 301.96 61.32 304 60.34 305.85C59.48 307.65 58.51 309.26 57.7 310.84C57.3 311.59 56.93 312.37 56.61 313.16C56.33 313.9 56.12 314.67 55.99 315.46C55.79 316.84 55.79 318.24 55.99 319.62C56.18 321.54 56.9 323.37 58.07 324.9C58.24 325.13 58.44 325.34 58.66 325.53C58.8 325.68 58.96 325.82 59.14 325.93C59.41 326.13 59.55 326.22 59.55 326.22C59.04 325.81 58.58 325.35 58.17 324.84C57.04 323.3 56.35 321.49 56.17 319.6C55.99 318.24 56.02 316.86 56.24 315.51C56.36 314.74 56.58 313.98 56.87 313.26C57.19 312.48 57.55 311.71 57.96 310.97C58.78 309.42 59.75 307.8 60.64 305.99C61.64 304.1 62.26 302.04 62.46 299.91C62.64 297.67 62.29 295.34 62.46 292.97C62.51 291.74 62.77 290.53 63.24 289.39C63.78 288.24 64.41 287.14 65.15 286.1C65.88 285.02 66.65 283.94 67.33 282.74C68.06 281.55 68.54 280.21 68.71 278.82C69.05 275.92 67.33 273.21 67.77 270.35C68.04 268.92 68.63 267.56 69.49 266.38C70.31 265.14 71.28 263.95 72.09 262.62C73.72 259.94 74.5 256.81 75.08 253.67C75.67 250.54 76.11 247.29 77.28 244.23C77.84 242.68 78.62 241.23 79.6 239.9C80.57 238.57 81.85 237.48 83.32 236.72L82.99 236.53C82.99 236.63 82.99 236.73 82.99 236.83C83.18 238.52 83.49 240.19 83.68 241.84C83.9 243.48 83.97 245.14 83.91 246.8C83.86 247.6 83.82 248.45 83.7 249.22C83.49 249.99 83.22 250.75 82.89 251.49C82.23 252.97 81.65 254.49 81.16 256.04C80.74 257.58 80.48 259.17 80.37 260.77C80.21 262.33 80.05 263.88 79.89 265.42C79.55 268.47 79.35 271.52 78.12 274.17C77.51 275.49 76.73 276.71 76.11 278.04C75.53 279.35 75.21 280.77 75.16 282.2C75.02 284.98 75.4 287.76 74.66 290.23C73.91 292.71 72.34 294.78 71.55 297.12C70.76 299.47 71.08 301.95 71.44 304.12C71.8 306.29 72.17 308.43 71.71 310.37C71.25 312.3 69.93 313.74 69.06 315.29C68.61 316.05 68.32 316.9 68.2 317.78C68.11 318.57 68.06 319.36 68.05 320.16C68.06 320.86 67.96 321.56 67.76 322.24C67.52 322.84 67.14 323.36 66.64 323.77C65.79 324.47 64.83 325.01 63.81 325.4C63.05 325.68 62.28 325.9 61.48 326.04C61 326.13 60.5 326.18 60 326.19L59.5 326.22Z" fill="#E0E0E0" fill-opacity="1.000000" fill-rule="nonzero"/>
		<path id="Vector" d="M81.97 240.52C81.93 240.59 81.91 240.66 81.9 240.74C81.86 240.91 81.81 241.13 81.74 241.4C81.6 241.97 81.44 242.83 81.17 243.91C80.91 244.98 80.24 246.21 79.69 247.71C79.13 249.21 78.52 250.93 77.99 252.88C77.45 254.82 76.97 256.97 76.47 259.27C76.04 261.74 75.27 264.13 74.18 266.38C73.59 267.57 72.93 268.77 72.41 270.07C71.89 271.41 71.55 272.81 71.38 274.24C71.03 277.19 70.53 280.13 69.87 283.03L65.86 299.84C64.59 304.99 63.45 309.63 62.49 313.54C61.53 317.46 60.8 320.62 60.26 322.81C60.01 323.88 59.82 324.72 59.68 325.33C59.62 325.6 59.57 325.81 59.54 326.02C59.53 326.1 59.53 326.18 59.54 326.25C59.58 326.18 59.6 326.11 59.62 326.04L59.8 325.38C59.96 324.78 60.19 323.95 60.5 322.89C61.07 320.67 61.89 317.54 62.87 313.67C63.86 309.8 65.04 305.13 66.34 299.99C67.65 294.85 68.89 289.11 70.32 283.15C70.98 280.23 71.49 277.29 71.84 274.32C71.99 272.93 72.32 271.56 72.82 270.25C73.32 268.97 73.97 267.78 74.56 266.58C75.66 264.29 76.42 261.86 76.84 259.36C77.33 257.05 77.79 254.9 78.31 252.97C78.83 251.04 79.37 249.31 79.93 247.82C80.48 246.32 81.09 245.08 81.32 243.96C81.55 242.85 81.7 242 81.81 241.42C81.85 241.15 81.89 240.93 81.92 240.76C81.95 240.68 81.96 240.6 81.97 240.52Z" fill="#E0E0E0" fill-opacity="1.000000" fill-rule="nonzero"/>
		<path id="Vector" d="M60.79 326.23C65.51 323.39 66.83 314.81 64.82 309.68C62.81 304.54 59.32 299.85 58.75 294.35C58.32 290.14 59.68 285.8 58.67 281.68C57.28 276.12 51.85 271.83 51.88 266.1C51.88 262.89 53.71 259.86 53.54 256.65C53.34 252.72 50.3 249.61 48.41 246.15C45.52 240.86 45.3 234.57 44.29 228.64C43.27 222.71 40.97 216.33 35.67 213.44C34.92 218.49 33.59 221.96 34.07 228.81C34.24 231.26 37.12 235.96 37.54 241.34C37.79 244.55 37.97 247.78 38.18 251C38.4 254.22 38.61 257.33 39.75 260.25C40.62 262.49 42.02 264.52 42.67 266.84C43.9 271.2 42.34 275.94 43.36 280.36C44.21 284.1 46.83 287.3 47.37 291.11C48.15 296.44 44.72 302.01 46.52 307.07C47.41 309.59 49.5 311.61 50.11 314.21C50.58 316.24 50.11 318.37 50.52 320.42C51.21 323.69 57.46 326.2 60.81 325.97L60.79 326.23Z" fill="#E0E0E0" fill-opacity="1.000000" fill-rule="nonzero"/>
		<path id="Vector" d="M37.01 218.45C37 218.54 37 218.64 37.01 218.73C37.01 218.95 37.07 219.22 37.12 219.56C37.23 220.29 37.37 221.36 37.62 222.74C37.87 224.12 38.62 225.7 39.21 227.6C39.79 229.5 40.43 231.66 40.98 234.09C41.53 236.52 42 239.21 42.49 242.11C42.99 245.01 43.52 248.16 44.98 251.17C45.67 252.69 46.41 254.2 46.98 255.81C47.54 257.47 47.89 259.19 48.03 260.94C48.31 264.64 48.79 268.31 49.46 271.96C50.95 279.44 52.38 286.53 53.67 293.05C54.97 299.57 56.29 305.35 57.33 310.21C58.36 315.07 59.22 319.02 59.81 321.78L60.5 324.93C60.59 325.26 60.65 325.53 60.7 325.74C60.72 325.83 60.74 325.92 60.78 326.01C60.79 325.91 60.79 325.82 60.78 325.72C60.74 325.52 60.69 325.25 60.63 324.91C60.48 324.15 60.28 323.09 60.02 321.75C59.46 318.97 58.63 315.02 57.68 310.14C56.73 305.26 55.47 299.42 54.15 292.95C52.82 286.49 51.45 279.35 49.98 271.88C49.3 268.24 48.82 264.56 48.53 260.87C48.39 259.09 48.03 257.33 47.46 255.64C46.87 253.99 46.11 252.47 45.43 250.97C43.99 248.01 43.47 244.91 42.94 242.02C42.41 239.13 41.94 236.43 41.36 233.99C40.85 231.8 40.24 229.63 39.51 227.5C38.9 225.61 38.12 224.03 37.86 222.7C37.59 221.37 37.42 220.26 37.28 219.54C37.21 219.2 37.16 218.92 37.12 218.72C37.09 218.62 37.06 218.53 37.01 218.45Z" fill="#EBEBEB" fill-opacity="1.000000" fill-rule="nonzero"/>
		<path id="Vector" d="M145.45 38.32C149.5 33.6 160.02 36.57 167.26 40.41C167.26 40.41 172.22 42.75 174.07 43.97L174.13 43.97L191.01 41.88C192.38 41.71 193.78 41.95 195.01 42.58L196.4 43.27C196.55 43.35 196.68 43.48 196.77 43.63C196.86 43.78 196.91 43.95 196.9 44.13C196.89 44.31 196.84 44.48 196.74 44.62C196.64 44.77 196.5 44.88 196.34 44.95L183.91 50.26L183.91 50.41L196.18 58.48L196.37 58.6C198.68 60.08 201.47 60.64 204.18 60.15L210.75 58.97C211.08 58.91 211.42 58.94 211.74 59.05C212.01 59.16 212.24 59.34 212.42 59.56C212.6 59.79 212.71 60.05 212.76 60.34C212.8 60.62 212.77 60.91 212.67 61.18C212.57 61.45 212.41 61.69 212.19 61.87L204.55 68.23C203.97 68.72 203.26 69.03 202.5 69.13C201.75 69.23 200.98 69.12 200.29 68.8L196.72 67.16L178.68 58.58L180.76 68.84C180.77 68.94 180.77 69.04 180.74 69.14C180.71 69.23 180.66 69.32 180.6 69.39C180.53 69.47 180.45 69.53 180.36 69.57C180.27 69.61 180.17 69.63 180.07 69.63L179.22 69.63C178.65 69.61 178.1 69.44 177.61 69.14C177.13 68.85 176.73 68.43 176.44 67.94L169.18 54.06L147.89 43.93C145.05 42.63 144.03 40.19 145.45 38.32Z" fill="#E0E0E0" fill-opacity="1.000000" fill-rule="nonzero"/>
		<path id="Vector" d="M27.25 83.77L80.77 82.58C80.77 82.58 75.83 74.05 62.09 75.64C48.96 77.13 48.17 71.71 41.46 71.2C34.75 70.69 29.29 75.91 27.25 83.77Z" fill="#F5F5F5" fill-opacity="1.000000" fill-rule="nonzero"/>
		<path id="Vector" d="M277.5 112.72L327.92 112.72C327.92 112.72 323.46 104.6 310.48 105.78C298.08 106.9 297.46 101.78 291.15 101.15C284.84 100.53 279.59 105.36 277.5 112.72Z" fill="#F5F5F5" fill-opacity="1.000000" fill-rule="nonzero"/>
		<path id="Vector" d="M57.73 57.21L96.19 57.21C96.19 57.21 92.79 51.02 82.88 51.92C73.43 52.78 72.95 48.87 68.14 48.39C63.33 47.9 59.33 51.59 57.73 57.21Z" fill="#F5F5F5" fill-opacity="1.000000" fill-rule="nonzero"/>
		<path id="Vector" d="M277.55 138.16L302.7 138.16C302.7 138.16 300.48 134.1 294.01 134.69C287.82 135.25 287.51 132.7 284.36 132.38C281.22 132.07 278.59 134.49 277.55 138.16Z" fill="#F5F5F5" fill-opacity="1.000000" fill-rule="nonzero"/>
		<path id="Vector" d="M264.96 68.51L290.13 68.51C290.13 68.51 287.9 64.45 281.43 65.04C275.24 65.6 274.92 63.04 271.78 62.73C268.64 62.42 265.99 64.84 264.96 68.51Z" fill="#FAFAFA" fill-opacity="1.000000" fill-rule="nonzero"/>
		<path id="Vector" d="M328.75 326.27C328.75 326.37 258.7 326.45 172.31 326.45C85.91 326.45 15.85 326.37 15.85 326.27C15.85 326.18 85.88 326.09 172.31 326.09C258.73 326.09 328.75 326.18 328.75 326.27Z" fill="#263238" fill-opacity="1.000000" fill-rule="nonzero"/>
		<path id="Vector" d="M280.81 203.89C280.76 203.41 280.53 202.96 280.17 202.63C279.8 202.31 279.33 202.13 278.84 202.13L264.03 202.13C263.74 202.13 263.45 202.2 263.19 202.32C262.93 202.44 262.7 202.62 262.52 202.85C262.33 203.07 262.2 203.33 262.13 203.61C262.06 203.89 262.06 204.19 262.11 204.47C262.2 204.92 262.44 205.33 262.8 205.62C263.16 205.91 263.61 206.06 264.07 206.04L278.85 206.04C279.12 206.04 279.39 205.99 279.64 205.87C279.89 205.76 280.12 205.6 280.3 205.4C280.49 205.2 280.63 204.96 280.71 204.7C280.8 204.44 280.83 204.17 280.81 203.89Z" fill="#263238" fill-opacity="1.000000" fill-rule="nonzero"/>
		<path id="Vector" d="M313.13 321.41C312.99 322.34 313.13 323.28 313.53 324.13C313.94 324.97 314.58 325.68 315.38 326.16C316.18 326.64 317.11 326.87 318.04 326.82C318.98 326.77 319.88 326.45 320.63 325.89C321.38 325.33 321.94 324.56 322.26 323.68C322.57 322.8 322.61 321.85 322.39 320.94C322.16 320.04 321.66 319.22 320.97 318.59C320.27 317.97 319.41 317.56 318.49 317.42C317.25 317.24 315.98 317.56 314.98 318.31C313.98 319.06 313.31 320.18 313.13 321.41Z" fill="#263238" fill-opacity="1.000000" fill-rule="nonzero"/>
		<path id="Vector" d="M316.82 322.13L313.94 316.18L315.45 315.21L318.24 321.43L316.82 322.13Z" fill="#455A64" fill-opacity="1.000000" fill-rule="nonzero"/>
		<path id="Vector" d="M290.13 248.82L272.23 202.12L268.83 203.83L286.17 250.11L290.13 248.82Z" fill="#263238" fill-opacity="1.000000" fill-rule="nonzero"/>
		<path id="Vector" d="M331.46 310.51L305.01 321.01C304.54 321.2 304.01 321.19 303.55 320.99C303.08 320.79 302.71 320.41 302.52 319.94L276.22 253.75C275.23 251.25 275.27 248.45 276.34 245.98C277.4 243.51 279.41 241.57 281.91 240.57L293.05 236.14C295.55 235.15 298.35 235.19 300.82 236.26C303.29 237.32 305.23 239.33 306.23 241.83L332.53 308.02C332.72 308.49 332.71 309.02 332.51 309.48C332.31 309.95 331.93 310.32 331.46 310.51Z" fill="#FB9212" fill-opacity="1.000000" fill-rule="nonzero"/>
		<path id="Vector" d="M302.5 320.24C302.5 320.24 302.45 320.1 302.36 319.84L301.92 318.67L300.2 314.16L293.79 297.64C291.06 290.66 287.83 282.37 284.24 273.15L278.58 258.69C278.09 257.44 277.59 256.18 277.1 254.9C276.58 253.65 276.39 252.29 276.55 250.95C276.72 249.58 277.25 248.28 278.1 247.19C278.95 246.1 280.07 245.25 281.36 244.75C282.64 244.25 284.04 244.1 285.4 244.32C286.77 244.54 288.04 245.13 289.1 246.02C290.13 246.9 290.91 248.03 291.38 249.29L292.87 253.09C294.84 258.1 296.74 262.93 298.55 267.54L308.19 292C310.96 298.94 313.16 304.56 314.72 308.47L316.51 312.95C316.72 313.44 316.87 313.83 316.99 314.11C317.1 314.38 317.16 314.5 317.16 314.5C317.16 314.5 317.12 314.36 317.02 314.09L316.58 312.91C316.19 311.87 315.6 310.36 314.86 308.42L308.46 291.89L298.9 267.4C297.1 262.79 295.21 257.96 293.24 252.94C292.76 251.69 292.26 250.43 291.76 249.15C291.27 247.8 290.45 246.61 289.36 245.68C288.25 244.74 286.91 244.12 285.47 243.89C284.03 243.65 282.56 243.81 281.21 244.34C279.85 244.87 278.67 245.76 277.77 246.91C276.88 248.06 276.32 249.43 276.14 250.87C275.97 252.28 276.17 253.72 276.72 255.03L278.21 258.86C280.18 263.86 282.08 268.7 283.88 273.3C287.5 282.49 290.77 290.78 293.51 297.72L300.04 314.2L301.84 318.67C302.04 319.17 302.2 319.55 302.32 319.83C302.37 319.97 302.43 320.11 302.5 320.24Z" fill="#263238" fill-opacity="1.000000" fill-rule="nonzero"/>
		<path id="Vector" d="M300.79 273.2C300.85 273.38 304.3 272.01 308.51 270.16C312.73 268.31 316.09 266.65 316.04 266.48C315.98 266.3 312.52 267.66 308.31 269.52C304.11 271.38 300.73 273.02 300.79 273.2Z" fill="#263238" fill-opacity="1.000000" fill-rule="nonzero"/>
		<path id="Vector" d="M277.4 202.12L274.31 196.02C273.97 195.33 273.39 194.8 272.68 194.5L267.82 192.48L254.73 174.72L253.5 188.32L261.83 196.92C261.83 196.92 267.05 207.92 271.32 207.36C271.22 206.37 270.92 205.41 270.46 204.52C269.07 202.12 270.55 202.12 270.75 202.14L274.32 202.14L277.4 202.12Z" fill="#FFBE9D" fill-opacity="1.000000" fill-rule="nonzero"/>
		<path id="Vector" d="M256.03 192.73C256.43 193.32 259.66 197.71 259.66 197.71L268.83 191.04L265.5 187.78L256.03 192.73Z" fill="#FB9212" fill-opacity="1.000000" fill-rule="nonzero"/>
		<path id="Vector" d="M270.49 204.52C270.49 204.52 272.87 205.91 273.17 207.04L273.17 207.73L270.31 207.31L270.49 204.52Z" fill="#FFBE9D" fill-opacity="1.000000" fill-rule="nonzero"/>
		<path id="Vector" d="M273.69 205.83C273.26 205.5 272.93 205.06 272.73 204.57C272.64 204.32 272.64 204.04 272.74 203.79C272.84 203.54 273.03 203.34 273.27 203.23C273.76 203.06 274.27 203.41 274.66 203.77C275.15 204.2 275.61 204.67 276.05 205.16C276.25 205.33 276.42 205.56 276.52 205.81C276.62 206.06 276.67 206.33 276.64 206.61C276.58 206.82 276.45 207 276.28 207.14C276.1 207.27 275.89 207.35 275.67 207.36C275.45 207.37 275.23 207.33 275.02 207.24C274.82 207.16 274.63 207.04 274.48 206.88C274.17 206.57 273.92 206.2 273.75 205.79L273.69 205.83Z" fill="#FFBE9D" fill-opacity="1.000000" fill-rule="nonzero"/>
		<path id="Vector" d="M276.11 205.62C275.69 205.29 275.35 204.85 275.15 204.36C275.06 204.11 275.06 203.83 275.16 203.58C275.26 203.34 275.45 203.13 275.69 203.02C276.18 202.85 276.69 203.21 277.08 203.56C277.57 204 278.03 204.46 278.47 204.95C278.68 205.13 278.84 205.35 278.94 205.6C279.04 205.85 279.09 206.13 279.07 206.4C279 206.61 278.87 206.79 278.7 206.93C278.53 207.07 278.31 207.14 278.09 207.15C277.87 207.16 277.65 207.12 277.45 207.03C277.24 206.95 277.06 206.83 276.9 206.67C276.59 206.36 276.34 205.99 276.17 205.59L276.11 205.62Z" fill="#FFBE9D" fill-opacity="1.000000" fill-rule="nonzero"/>
		<path id="Vector" d="M268.83 195.2C268.83 195.11 269.45 195.14 270.16 195.76C270.49 196.17 270.77 196.61 270.99 197.09C271.31 197.67 271.47 198.33 271.46 198.99C271.36 199.65 271.1 200.27 270.71 200.8C270.44 201.23 270.25 201.69 270.14 202.19C270.04 202.64 270.01 203.11 270.04 203.57C269.92 203.36 269.85 203.12 269.82 202.87C269.79 202.62 269.82 202.37 269.89 202.14C269.97 201.61 270.16 201.1 270.43 200.64C270.78 200.15 271.02 199.58 271.12 198.98C271.13 198.38 270.99 197.78 270.71 197.24C270.53 196.78 270.29 196.34 270.02 195.93C269.78 195.7 269.51 195.5 269.21 195.34C269.09 195.28 268.96 195.24 268.83 195.2Z" fill="#EB996E" fill-opacity="1.000000" fill-rule="nonzero"/>
		<path id="Vector" d="M170.07 132.56L160.34 163.66L188.96 193.55L215.18 186.74L170.07 132.56Z" fill="#F5F5F5" fill-opacity="1.000000" fill-rule="nonzero"/>
		<path id="Vector" d="M170.06 132.55L170.28 132.81L170.94 133.58L173.49 136.62L183.01 147.97L215.33 186.63L215.51 186.84L215.24 186.91L200.46 190.76L189.01 193.73L188.91 193.73L188.84 193.65L160.23 163.78L160.18 163.72L160.18 163.64C163.19 154.11 165.66 146.33 167.37 140.92C168.22 138.24 168.89 136.15 169.35 134.72L169.86 133.11C169.98 132.76 170.03 132.58 170.03 132.58C169.7 133.67 166.28 144.79 160.45 163.72L160.41 163.59L189.05 193.43L188.88 193.38L200.32 190.4L215.11 186.56L215.02 186.85L182.99 148.21L173.51 136.75L170.95 133.65L170.26 132.85L170.06 132.55Z" fill="#263238" fill-opacity="1.000000" fill-rule="nonzero"/>
		<path id="Vector" d="M170.95 153.07C171.32 152.51 171.79 152.02 172.35 151.64C172.9 151.27 173.53 151 174.19 150.87C174.85 150.75 175.53 150.75 176.18 150.89C176.84 151.03 177.46 151.3 178.01 151.68C179.8 153.07 180.63 155.69 182.78 156.38C184.33 156.88 186.05 156.15 187.64 156.44C189.52 156.78 190.92 158.52 191.46 160.32C192 162.13 191.86 164.12 191.71 166.03L182.4 166.15L170.95 153.07Z" fill="#E0E0E0" fill-opacity="1.000000" fill-rule="nonzero"/>
		<path id="Vector" d="M153.74 135.39L214.05 197.54L189.48 195.05L155.1 158.76L153.74 135.39Z" fill="#F5F5F5" fill-opacity="1.000000" fill-rule="nonzero"/>
		<path id="Vector" d="M153.75 135.39C153.81 136.3 154.31 144.3 155.22 158.75L155.22 158.68C164.02 167.94 176.04 180.59 189.64 194.93L189.53 194.88L208.38 196.78L214.1 197.36L213.96 197.67C180.42 162.97 155.11 136.78 153.79 135.39L214.21 197.42L214.56 197.77L214.07 197.72L208.34 197.14L189.49 195.22L189.43 195.22L189.38 195.18C175.81 180.81 163.81 168.12 155.05 158.85L155.05 158.81C154.22 144.31 153.79 136.3 153.75 135.39Z" fill="#263238" fill-opacity="1.000000" fill-rule="nonzero"/>
		<path id="Vector" d="M177.35 160.09C175.49 162.24 175.76 165.65 177.35 168.01C178.93 170.38 181.56 171.81 184.21 172.83C186.35 173.66 189 174.18 190.77 172.72L177.35 160.09Z" fill="#E0E0E0" fill-opacity="1.000000" fill-rule="nonzero"/>
		<path id="Vector" d="M174.21 156.71C174.32 157.24 173.67 157.62 173.14 157.58C172.61 157.53 172.13 157.23 171.59 157.2C170.14 157.12 169.35 158.84 168.17 159.68C167.46 160.14 166.6 160.31 165.76 160.15C164.93 159.99 164.19 159.51 163.7 158.81C162.91 157.58 162.93 155.76 161.68 155.01C160.95 154.65 160.1 154.57 159.32 154.79C158.53 155.01 157.72 155.09 156.91 155.04C156.51 155 156.13 154.83 155.84 154.55C155.55 154.26 155.37 153.89 155.32 153.49L154.89 152.79L153.86 135.64L174.21 156.71Z" fill="#E0E0E0" fill-opacity="1.000000" fill-rule="nonzero"/>
		<path id="Vector" d="M203.6 196.29C203.91 196.36 204.23 196.38 204.55 196.33C204.86 196.28 205.16 196.16 205.43 195.99C205.7 195.82 205.93 195.59 206.11 195.33C206.29 195.07 206.41 194.77 206.47 194.45C206.55 193.77 206.36 193.07 205.94 192.52C205.53 191.97 204.91 191.59 204.23 191.48C203 191.32 201.73 192.03 200.55 191.66C199.21 191.24 198.65 189.68 198.31 188.31C197.97 186.95 197.49 185.38 196.19 184.84C194.03 183.97 191.75 186.74 189.5 186.13C187.82 185.68 187.18 183.66 185.87 182.53C185.34 182.08 184.7 181.78 184.02 181.64C183.33 181.51 182.63 181.55 181.97 181.77C181.37 181.91 180.82 182.23 180.4 182.68C179.98 183.14 179.69 183.7 179.59 184.31L189.55 194.81L203.6 196.29Z" fill="#E0E0E0" fill-opacity="1.000000" fill-rule="nonzero"/>
		<path id="Vector" d="M187.11 301.32L184.63 315.6C184.63 315.6 169.28 317.88 168.57 320.46L196.09 326.26L200.87 304.16L187.11 301.32Z" fill="#FB9212" fill-opacity="1.000000" fill-rule="nonzero"/>
		<g opacity="0.600000">
			<path id="Vector" d="M193.4 316.2C193.65 316.34 193.84 316.56 193.93 316.83C194.02 317.09 194.01 317.39 193.91 317.65C193.78 317.9 193.56 318.09 193.29 318.19C193.03 318.28 192.73 318.27 192.48 318.16C192.21 318.01 192.01 317.78 191.92 317.49C191.82 317.21 191.83 316.9 191.95 316.63C192.11 316.38 192.36 316.2 192.65 316.13C192.94 316.06 193.24 316.11 193.5 316.26L193.4 316.2Z" fill="#FFFFFF" fill-opacity="1.000000" fill-rule="nonzero"/>
		</g>
		<g opacity="0.600000">
			<path id="Vector" d="M196.09 326.27L196.59 324.09L169.97 319.33C169.97 319.33 168.64 319.61 168.58 320.5L196.09 326.27Z" fill="#FFFFFF" fill-opacity="1.000000" fill-rule="nonzero"/>
		</g>
		<path id="Vector" d="M184.22 315.36C184.22 315.5 184.85 315.7 185.42 316.27C185.99 316.84 186.23 317.49 186.36 317.46C186.49 317.43 186.46 316.61 185.76 315.93C185.06 315.25 184.22 315.24 184.22 315.36Z" fill="#263238" fill-opacity="1.000000" fill-rule="nonzero"/>
		<path id="Vector" d="M181.08 315.95C181.02 316.08 181.56 316.42 181.89 317.09C182.22 317.76 182.23 318.38 182.37 318.41C182.51 318.44 182.75 317.72 182.31 316.87C181.88 316.02 181.11 315.82 181.08 315.95Z" fill="#263238" fill-opacity="1.000000" fill-rule="nonzero"/>
		<path id="Vector" d="M178.71 319.06C178.83 319.12 179.16 318.49 178.97 317.67C178.78 316.86 178.21 316.44 178.13 316.54C178.05 316.65 178.35 317.12 178.51 317.79C178.66 318.45 178.58 319.02 178.71 319.06Z" fill="#263238" fill-opacity="1.000000" fill-rule="nonzero"/>
		<path id="Vector" d="M185.15 312.17C185.15 312.31 185.84 312.25 186.58 312.46C187.33 312.67 187.87 313.04 187.97 312.94C188.07 312.84 187.6 312.25 186.71 312C185.83 311.76 185.1 312.05 185.15 312.17Z" fill="#263238" fill-opacity="1.000000" fill-rule="nonzero"/>
		<g opacity="0.300000">
			<path id="Vector" d="M186.63 304.15L186.18 306.69L199.73 309.42L200.23 307.15L186.63 304.15Z" fill="#000000" fill-opacity="1.000000" fill-rule="nonzero"/>
		</g>
		<path id="Vector" d="M185.69 309.3C186.12 309.51 186.6 309.61 187.08 309.58C187.6 309.6 188.12 309.56 188.62 309.44C188.92 309.38 189.21 309.29 189.5 309.19C189.67 309.14 189.84 309.06 189.98 308.96C190.09 308.88 190.17 308.77 190.21 308.65C190.25 308.52 190.24 308.39 190.2 308.26C190.15 308.16 190.08 308.06 189.98 307.99C189.89 307.91 189.79 307.86 189.67 307.83C189.5 307.79 189.32 307.78 189.14 307.8C188.31 307.82 187.49 308.06 186.78 308.49C186.01 308.95 185.69 309.4 185.73 309.44C185.77 309.48 186.18 309.14 186.93 308.79C187.63 308.47 188.38 308.29 189.15 308.28C189.46 308.28 189.71 308.31 189.75 308.46C189.8 308.6 189.75 308.53 189.69 308.61C189.58 308.68 189.46 308.74 189.34 308.78C189.07 308.88 188.8 308.97 188.52 309.04C188.05 309.16 187.56 309.24 187.08 309.28C186.62 309.25 186.15 309.26 185.69 309.3Z" fill="#263238" fill-opacity="1.000000" fill-rule="nonzero"/>
		<path id="Vector" d="M185.83 309.52C185.88 309.55 186.24 309.13 186.48 308.27C186.61 307.76 186.65 307.24 186.6 306.72C186.58 306.41 186.52 306.1 186.43 305.81C186.39 305.61 186.31 305.43 186.18 305.27C186.05 305.12 185.89 305 185.7 304.93C185.58 304.91 185.45 304.92 185.34 304.97C185.22 305.01 185.12 305.09 185.04 305.19C184.94 305.34 184.85 305.5 184.79 305.67C184.68 305.96 184.62 306.27 184.6 306.59C184.57 307.12 184.66 307.66 184.88 308.15C185.27 308.97 185.8 309.25 185.82 309.21C185.84 309.17 185.47 308.79 185.2 308.01C185.05 307.57 184.99 307.09 185.04 306.63C185.07 306.35 185.13 306.09 185.23 305.83C185.34 305.56 185.49 305.34 185.6 305.4C185.7 305.45 185.93 305.69 185.99 305.95C186.08 306.21 186.14 306.47 186.18 306.74C186.25 307.22 186.25 307.7 186.18 308.18C186.02 309.02 185.77 309.52 185.83 309.52Z" fill="#263238" fill-opacity="1.000000" fill-rule="nonzero"/>
		<path id="Vector" d="M277.55 302.18L271.6 294.41L271.29 294.01L261.13 301.55L270.52 311.87L270.18 322.31C264.95 323.66 264.17 326.27 264.17 326.27L275.03 326.27L284.91 307.26L277.55 302.18Z" fill="#FB9212" fill-opacity="1.000000" fill-rule="nonzero"/>
		<g opacity="0.600000">
			<path id="Vector" d="M284.93 307.24L275.06 326.26L264.19 326.27L265.41 324.63L274.25 324.14L283.36 306.17L284.93 307.24Z" fill="#FFFFFF" fill-opacity="1.000000" fill-rule="nonzero"/>
		</g>
		<path id="Vector" d="M270.27 317.52C270.35 317.63 270.96 317.28 271.81 317.3C272.67 317.32 273.27 317.67 273.35 317.56C273.44 317.45 272.85 316.87 271.82 316.82C270.79 316.77 270.15 317.44 270.27 317.52Z" fill="#263238" fill-opacity="1.000000" fill-rule="nonzero"/>
		<path id="Vector" d="M270.44 314.93C270.55 315.01 271.03 314.37 271.9 314.2C272.76 314.02 273.46 314.43 273.53 314.32C273.6 314.2 273.45 314.08 273.14 313.91C272.73 313.71 272.26 313.65 271.81 313.74C271.36 313.83 270.95 314.07 270.65 314.41C270.43 314.69 270.39 314.9 270.44 314.93Z" fill="#263238" fill-opacity="1.000000" fill-rule="nonzero"/>
		<path id="Vector" d="M270.37 311.6C270.49 311.66 270.85 311.03 271.61 310.77C272.37 310.51 273.05 310.77 273.1 310.63C273.16 310.49 273 310.43 272.69 310.32C272.29 310.17 271.85 310.17 271.45 310.32C271.05 310.46 270.71 310.74 270.49 311.09C270.32 311.38 270.31 311.6 270.37 311.6Z" fill="#263238" fill-opacity="1.000000" fill-rule="nonzero"/>
		<path id="Vector" d="M267.46 309.03C267.59 309.07 267.89 308.46 268.57 308.02C269.24 307.58 269.91 307.52 269.95 307.38C270 307.24 269.14 307.07 268.33 307.62C267.52 308.18 267.32 309.02 267.46 309.03Z" fill="#263238" fill-opacity="1.000000" fill-rule="nonzero"/>
		<path id="Vector" d="M266.04 306.8C266.09 306.83 266.45 306.4 266.98 305.66L267.91 304.36C268.11 304.09 268.28 303.79 268.41 303.47C268.44 303.36 268.46 303.24 268.45 303.12C268.43 303 268.4 302.89 268.34 302.78C268.28 302.67 268.18 302.57 268.06 302.51C267.95 302.46 267.81 302.43 267.68 302.44C267.3 302.51 266.95 302.7 266.67 302.97C266.4 303.18 266.17 303.43 265.98 303.72C265.67 304.19 265.47 304.73 265.41 305.29C265.29 305.8 265.38 306.33 265.65 306.77C265.65 306.29 265.68 305.82 265.74 305.34C265.84 304.84 266.05 304.37 266.34 303.95C266.51 303.71 266.71 303.5 266.93 303.31C267.15 303.11 267.4 302.97 267.68 302.9C267.72 302.89 267.77 302.9 267.8 302.92C267.84 302.94 267.87 302.97 267.89 303C267.93 303.1 267.93 303.21 267.89 303.31C267.78 303.57 267.64 303.83 267.47 304.06C267.19 304.53 266.91 304.98 266.64 305.45C266.37 305.87 266.16 306.32 266.04 306.8Z" fill="#263238" fill-opacity="1.000000" fill-rule="nonzero"/>
		<path id="Vector" d="M265.65 307.13C265.7 307.13 265.65 306.55 265.07 305.9C264.67 305.46 264.14 305.17 263.56 305.07C262.97 304.96 262.38 305.05 261.85 305.31C261.79 305.36 261.75 305.42 261.72 305.49C261.69 305.56 261.67 305.63 261.68 305.7C261.68 305.83 261.73 305.95 261.81 306.05C261.92 306.18 262.05 306.29 262.2 306.39C262.44 306.56 262.69 306.71 262.97 306.83C263.42 307.03 263.9 307.17 264.4 307.23C264.85 307.32 265.32 307.28 265.74 307.1C265.74 307.03 265.23 307.06 264.45 306.9C264 306.8 263.57 306.64 263.16 306.43C262.92 306.31 262.69 306.17 262.47 306.01C262.36 305.94 262.26 305.86 262.18 305.76C262.13 305.67 262.18 305.7 262.18 305.67C262.28 305.61 262.39 305.57 262.5 305.55C262.63 305.52 262.77 305.5 262.9 305.49C263.16 305.47 263.42 305.49 263.67 305.54C264.11 305.64 264.51 305.85 264.85 306.14C265.42 306.65 265.57 307.15 265.65 307.13Z" fill="#263238" fill-opacity="1.000000" fill-rule="nonzero"/>
		<g opacity="0.600000">
			<path id="Vector" d="M276.26 306.92C276.26 307.17 276.33 307.42 276.47 307.63C276.61 307.85 276.82 308.01 277.05 308.11C277.29 308.21 277.55 308.23 277.8 308.18C278.05 308.13 278.28 308.01 278.46 307.83C278.64 307.65 278.76 307.42 278.81 307.17C278.86 306.92 278.84 306.66 278.74 306.42C278.64 306.19 278.48 305.99 278.26 305.84C278.05 305.7 277.8 305.63 277.55 305.63C277.2 305.63 276.88 305.76 276.63 306C276.39 306.25 276.26 306.57 276.26 306.92Z" fill="#FFFFFF" fill-opacity="1.000000" fill-rule="nonzero"/>
		</g>
		<g opacity="0.300000">
			<path id="Vector" d="M262.1 302.59L264.19 304.88L272.97 296.19L271.74 294.6L262.1 302.59Z" fill="#000000" fill-opacity="1.000000" fill-rule="nonzero"/>
		</g>
		<path id="Vector" d="M235.07 121.59C240.88 119.57 247.15 119.29 253.12 120.77C255.76 121.43 258.45 122.53 260.14 124.67C262.15 127.19 262.4 130.63 262.71 133.85C263.34 140.38 264.54 146.85 266.3 153.17C267.77 158.44 269.64 163.59 270.43 169.02C271.23 174.45 270.86 180.21 268.11 184.93C263.86 192.2 254.83 195.41 246.41 195.56C241.99 195.63 237.45 194.98 233.52 192.93C229.59 190.87 226.32 187.29 225.36 182.96L235.07 121.59Z" fill="#FB9212" fill-opacity="1.000000" fill-rule="nonzero"/>
		<g opacity="0.500000">
			<path id="Vector" d="M235.07 121.59C240.88 119.57 247.15 119.29 253.12 120.77C255.76 121.43 258.45 122.53 260.14 124.67C262.15 127.19 262.4 130.63 262.71 133.85C263.34 140.38 264.54 146.85 266.3 153.17C267.77 158.44 269.64 163.59 270.43 169.02C271.23 174.45 270.86 180.21 268.11 184.93C263.86 192.2 254.83 195.41 246.41 195.56C241.99 195.63 237.45 194.98 233.52 192.93C229.59 190.87 226.32 187.29 225.36 182.96L235.07 121.59Z" fill="#000000" fill-opacity="1.000000" fill-rule="nonzero"/>
		</g>
		<path id="Vector" d="M246.65 128.25C247.56 129.05 248.37 129.96 249.06 130.95C249.77 132.06 250.4 133.22 250.93 134.42C251.58 135.92 252.33 137.37 253.17 138.77C254.04 140.18 255.23 141.37 256.64 142.24C257.83 142.95 259.22 143.22 260.59 143.01C261.5 142.88 262.35 142.48 263.05 141.88C263.23 141.71 263.4 141.52 263.53 141.31C263.63 141.17 263.67 141.1 263.66 141.09C263.65 141.09 263.42 141.36 262.97 141.74C262.27 142.27 261.44 142.6 260.57 142.7C259.28 142.85 257.98 142.56 256.88 141.88C255.53 141.03 254.4 139.87 253.57 138.51C252.74 137.13 251.99 135.7 251.33 134.23C250.77 133.02 250.1 131.85 249.34 130.76C248.82 130.02 248.2 129.35 247.5 128.77C247.25 128.55 246.96 128.38 246.65 128.25Z" fill="#E0E0E0" fill-opacity="1.000000" fill-rule="nonzero"/>
		<path id="Vector" d="M258.84 193.26C258.86 193.08 258.86 192.89 258.84 192.71C258.84 192.31 258.84 191.8 258.84 191.16C258.84 189.81 258.75 187.85 258.64 185.45C258.43 180.59 258.05 173.95 257.47 166.61C256.89 159.27 256.23 152.62 255.68 147.82C255.41 145.42 255.17 143.48 254.99 142.15C254.91 141.52 254.83 141 254.78 140.61C254.76 140.42 254.72 140.25 254.67 140.07C254.65 140.25 254.65 140.43 254.67 140.61C254.71 141.02 254.76 141.53 254.8 142.16C254.94 143.55 255.13 145.49 255.35 147.85C255.82 152.66 256.43 159.3 257.01 166.65C257.59 173.99 258.02 180.64 258.31 185.46C258.45 187.83 258.57 189.76 258.66 191.16L258.77 192.72C258.78 192.9 258.8 193.08 258.84 193.26Z" fill="#E0E0E0" fill-opacity="1.000000" fill-rule="nonzero"/>
		<path id="Vector" d="M257.11 163.78C257.11 163.9 259.77 163.87 263.02 163.46C266.27 163.05 268.85 162.44 268.83 162.33C268.81 162.22 266.2 162.62 262.97 163.02C259.73 163.42 257.11 163.63 257.11 163.78Z" fill="#E0E0E0" fill-opacity="1.000000" fill-rule="nonzero"/>
		<path id="Vector" d="M259.26 163.69C259.05 164.08 258.93 164.51 258.9 164.95C258.82 165.42 258.77 165.9 258.75 166.38C258.73 166.69 258.78 167 258.91 167.28C258.98 167.46 259.11 167.61 259.27 167.71C259.43 167.82 259.61 167.88 259.8 167.88C259.91 167.89 260.02 167.86 260.12 167.82C260.22 167.78 260.3 167.71 260.37 167.62C260.49 167.47 260.56 167.29 260.57 167.1C260.58 166.8 260.54 166.5 260.45 166.21C260.33 165.73 260.17 165.27 259.97 164.82C259.63 164.08 259.31 163.68 259.28 163.71C259.38 164.13 259.52 164.54 259.7 164.94C259.84 165.38 259.97 165.82 260.06 166.27C260.13 166.52 260.16 166.77 260.15 167.03C260.15 167.26 260.01 167.41 259.81 167.41C259.35 167.41 259.16 166.85 259.18 166.35C259.2 165.85 259.18 165.35 259.22 164.96C259.29 164.54 259.3 164.11 259.26 163.69Z" fill="#E0E0E0" fill-opacity="1.000000" fill-rule="nonzero"/>
		<path id="Vector" d="M257.23 120.85L229.35 124.1C225.7 124.53 222.39 121.92 221.97 118.26L221.36 113.09C220.94 109.44 223.55 106.13 227.2 105.71L255.08 102.45C258.74 102.02 262.04 104.64 262.47 108.29L263.07 113.47C263.5 117.12 260.88 120.42 257.23 120.85Z" fill="#455A64" fill-opacity="1.000000" fill-rule="evenodd"/>
		<path id="Vector" d="M254.62 102.89C254.62 102.89 254.53 102.84 254.35 102.78C254.09 102.71 253.81 102.67 253.53 102.66C252.5 102.66 251.49 103.01 250.67 103.65C249.42 104.53 248.43 105.73 247.8 107.12C247.1 108.84 246.82 110.71 247.01 112.56C247.11 114.43 247.77 116.22 248.89 117.72C249.81 118.94 251.08 119.85 252.53 120.34C253.5 120.67 254.52 120.79 255.54 120.68C255.81 120.64 256.09 120.59 256.35 120.51C256.53 120.45 256.62 120.42 256.61 120.4C256.61 120.39 256.23 120.46 255.52 120.5C254.54 120.54 253.56 120.39 252.64 120.04C251.27 119.54 250.08 118.64 249.22 117.47C248.16 116.03 247.56 114.31 247.46 112.53C247.27 110.75 247.51 108.95 248.15 107.29C248.75 105.95 249.67 104.8 250.84 103.92C251.6 103.3 252.53 102.92 253.51 102.85C254.23 102.8 254.61 102.94 254.62 102.89Z" fill="#263238" fill-opacity="1.000000" fill-rule="nonzero"/>
		<path id="Vector" d="M238.68 104.3L242.98 103.88C241.84 104.23 240.85 104.99 240.21 106C239.59 107.02 239.18 108.15 239.03 109.33C238.26 114.28 240.89 119.59 245.12 122.27L241.65 122.73C241.65 122.73 231.72 113.87 238.65 104.3L238.68 104.3Z" fill="#263238" fill-opacity="1.000000" fill-rule="nonzero"/>
		<path id="Vector" d="M233.81 113.41C234.92 113.72 236.08 113.76 237.21 113.53C238.34 113.31 239.4 112.83 240.31 112.12C241.22 111.41 241.94 110.5 242.44 109.46C242.93 108.42 243.17 107.28 243.14 106.13C243.1 104 242.12 101.82 242.79 99.79C243.25 98.4 244.41 97.3 244.81 95.89C245.39 93.78 244.12 91.64 242.9 89.83C242.18 88.62 241.28 87.53 240.23 86.59C239.7 86.12 239.08 85.77 238.4 85.57C237.72 85.37 237.01 85.32 236.31 85.43L233.81 113.41Z" fill="#263238" fill-opacity="1.000000" fill-rule="nonzero"/>
		<path id="Vector" d="M214.1 85.61C214.22 87.22 213.16 88.67 212.08 89.87C211 91.08 209.82 92.35 209.58 93.95C209.17 96.79 211.95 99.42 211.38 102.23C211.07 103.73 209.84 104.94 209.62 106.46C209.39 107.98 210.19 109.38 211.17 110.49C212.15 111.61 213.34 112.58 214.2 113.76C215.03 115.09 215.72 116.5 216.29 117.96C216.85 119.44 217.87 120.69 219.19 121.54C221.28 122.67 224.16 122.14 225.75 123.88C227.33 125.62 229.16 125.82 231.05 127.09L214.1 85.61Z" fill="#263238" fill-opacity="1.000000" fill-rule="nonzero"/>
		<path id="Vector" d="M238.93 88.08C238.97 86.62 237.61 85.49 236.25 84.95C234.89 84.42 233.37 84.21 232.16 83.39C231.08 82.7 230.36 81.55 229.45 80.62C228.33 79.48 226.92 78.67 225.38 78.25C223.84 77.84 222.21 77.85 220.67 78.27C219.13 78.69 217.73 79.51 216.61 80.64C215.49 81.78 214.7 83.2 214.3 84.75C213.78 86.83 214.14 89.29 215.78 90.68C217.69 92.28 220.51 91.93 222.96 91.43C225.4 90.93 228.16 90.44 230.2 91.87C231.43 92.73 232.13 94.14 232.89 95.45C233.64 96.75 234.58 98.08 236 98.56C237.43 99.05 239.35 98.21 239.41 96.71L238.93 88.08Z" fill="#263238" fill-opacity="1.000000" fill-rule="nonzero"/>
		<path id="Vector" d="M233.13 88.38C233.74 88.45 234.3 88.74 234.71 89.2C235.11 89.66 235.33 90.26 235.31 90.87L233.85 123.93C233.79 127.84 228.09 130.03 223.9 129.93C219.68 129.84 219.54 127.76 219.49 124.05C219.4 117.84 219.41 115.51 219.41 115.55C219.41 115.58 214.07 114.65 212.98 107.69C212.44 104.22 212.63 98.55 212.93 93.91C213.21 89.75 215.98 84.62 220.15 85.07L233.13 88.38Z" fill="#FFBE9D" fill-opacity="1.000000" fill-rule="nonzero"/>
		<path id="Vector" d="M214.25 97.89C214.25 98.12 214.34 98.35 214.5 98.52C214.66 98.69 214.88 98.79 215.11 98.79C215.23 98.8 215.34 98.79 215.45 98.75C215.55 98.71 215.65 98.66 215.74 98.58C215.82 98.51 215.89 98.41 215.94 98.31C215.99 98.21 216.02 98.1 216.02 97.99C216.03 97.76 215.94 97.53 215.78 97.36C215.62 97.19 215.4 97.09 215.17 97.09C215.06 97.08 214.94 97.09 214.83 97.13C214.73 97.16 214.63 97.22 214.54 97.3C214.46 97.37 214.39 97.46 214.34 97.56C214.29 97.67 214.26 97.78 214.25 97.89Z" fill="#263238" fill-opacity="1.000000" fill-rule="nonzero"/>
		<path id="Vector" d="M214.16 96.86C214.27 96.98 214.95 96.48 215.9 96.49C216.86 96.5 217.57 96.97 217.68 96.86C217.78 96.74 217.61 96.59 217.31 96.37C216.9 96.09 216.41 95.94 215.92 95.93C215.42 95.93 214.94 96.09 214.53 96.38C214.2 96.61 214.1 96.82 214.16 96.86Z" fill="#263238" fill-opacity="1.000000" fill-rule="nonzero"/>
		<path id="Vector" d="M223.82 98.13C223.81 98.37 223.9 98.59 224.06 98.76C224.22 98.93 224.44 99.03 224.68 99.04C224.79 99.05 224.9 99.03 225.01 99C225.12 98.96 225.22 98.9 225.3 98.83C225.39 98.76 225.46 98.67 225.51 98.56C225.56 98.46 225.59 98.35 225.59 98.24C225.6 98 225.51 97.78 225.35 97.61C225.19 97.44 224.97 97.34 224.74 97.33C224.63 97.32 224.51 97.33 224.4 97.37C224.3 97.41 224.19 97.46 224.11 97.54C224.02 97.61 223.95 97.7 223.9 97.81C223.85 97.91 223.82 98.02 223.82 98.13Z" fill="#263238" fill-opacity="1.000000" fill-rule="nonzero"/>
		<path id="Vector" d="M223.6 97.06C223.71 97.18 224.39 96.68 225.35 96.69C226.31 96.7 227.01 97.18 227.11 97.06C227.22 96.94 227.06 96.79 226.74 96.57C226.34 96.29 225.85 96.13 225.36 96.13C224.86 96.13 224.37 96.28 223.97 96.58C223.66 96.8 223.55 97.02 223.6 97.06Z" fill="#263238" fill-opacity="1.000000" fill-rule="nonzero"/>
		<path id="Vector" d="M220.1 104.19C219.59 104.02 219.07 103.93 218.54 103.89C218.29 103.89 218.06 103.82 218.02 103.66C218 103.4 218.05 103.15 218.18 102.93L218.92 101.06C219.59 99.49 220.14 97.86 220.56 96.2C220.44 96.16 219.53 98.29 218.53 100.94C218.28 101.63 218.05 102.22 217.83 102.82C217.68 103.11 217.63 103.45 217.7 103.78C217.74 103.86 217.79 103.94 217.86 104C217.93 104.06 218.02 104.11 218.1 104.14C218.24 104.18 218.38 104.2 218.52 104.2C219.05 104.26 219.57 104.25 220.1 104.19Z" fill="#263238" fill-opacity="1.000000" fill-rule="nonzero"/>
		<path id="Vector" d="M219.41 115.55C222.68 115.61 225.91 114.77 228.74 113.12C228.74 113.12 226.43 117.86 219.49 117.19L219.41 115.55Z" fill="#EB996E" fill-opacity="1.000000" fill-rule="nonzero"/>
		<path id="Vector" d="M220.5 106.5C220.68 106.27 220.92 106.09 221.19 105.98C221.47 105.87 221.76 105.83 222.05 105.86C222.27 105.88 222.47 105.94 222.66 106.04C222.85 106.14 223.01 106.28 223.14 106.45C223.27 106.61 223.35 106.8 223.36 107.01C223.37 107.21 223.32 107.42 223.21 107.59C223.06 107.76 222.86 107.89 222.63 107.94C222.41 108 222.17 107.98 221.96 107.91C221.5 107.75 221.08 107.49 220.73 107.17C220.62 107.09 220.53 107 220.46 106.89C220.42 106.83 220.4 106.77 220.4 106.71C220.4 106.64 220.42 106.58 220.46 106.53L220.5 106.5Z" fill="#EB996E" fill-opacity="1.000000" fill-rule="nonzero"/>
		<path id="Vector" d="M222.92 104.85C222.77 104.85 222.76 105.89 221.87 106.62C220.97 107.36 219.86 107.25 219.85 107.39C219.85 107.54 220.1 107.59 220.55 107.61C221.16 107.62 221.75 107.41 222.23 107.02C222.68 106.66 222.98 106.12 223.05 105.54C223.11 105.11 222.96 104.84 222.92 104.85Z" fill="#263238" fill-opacity="1.000000" fill-rule="nonzero"/>
		<path id="Vector" d="M223.17 95.39C223.26 95.64 224.23 95.52 225.35 95.66C226.47 95.8 227.39 96.11 227.54 95.88C227.6 95.76 227.45 95.52 227.08 95.26C226.59 94.95 226.04 94.75 225.46 94.69C224.88 94.62 224.3 94.69 223.75 94.89C223.34 95.07 223.13 95.26 223.17 95.39Z" fill="#263238" fill-opacity="1.000000" fill-rule="nonzero"/>
		<path id="Vector" d="M214.52 94.09C214.68 94.3 215.35 94.09 216.14 94.09C216.93 94.09 217.61 94.23 217.77 94C217.83 93.9 217.73 93.68 217.44 93.47C217.04 93.22 216.58 93.09 216.12 93.11C215.65 93.12 215.2 93.27 214.81 93.55C214.54 93.75 214.44 93.98 214.52 94.09Z" fill="#263238" fill-opacity="1.000000" fill-rule="nonzero"/>
		<path id="Vector" d="M237.99 111.28C237.03 111.47 236.03 111.43 235.09 111.17C234.14 110.9 233.28 110.41 232.56 109.75C231.84 109.08 231.29 108.25 230.95 107.33C230.62 106.4 230.51 105.42 230.63 104.44C230.85 102.74 231.77 100.97 231.18 99.38C230.4 97.24 227.4 96.6 226.6 94.45C226.14 93.21 226.56 91.76 226.03 90.54C225.5 89.33 224.34 88.74 223.16 88.31C221.96 88 220.81 87.5 219.76 86.84C218.77 86.07 218.16 84.63 218.79 83.56C223.99 84.18 229.1 85.42 234 87.25C235.14 87.68 236.33 88.19 237 89.19C237.68 90.2 237.7 91.64 237.62 92.93L236.75 111.67L237.99 111.28Z" fill="#263238" fill-opacity="1.000000" fill-rule="nonzero"/>
		<path id="Vector" d="M241.74 117.07C241.73 116.47 241.61 115.88 241.37 115.33C241.09 114.7 240.68 114.12 240.19 113.63C239.52 112.99 238.76 112.46 237.94 112.04C237.03 111.55 235.98 111.1 234.91 110.49C233.74 109.86 232.74 108.94 232.03 107.81C231.66 107.18 231.46 106.46 231.45 105.73C231.48 104.98 231.59 104.24 231.76 103.52C231.96 102.81 232.01 102.06 231.91 101.33C231.83 100.97 231.68 100.64 231.46 100.34C231.23 100.05 230.95 99.81 230.62 99.64C229.93 99.25 229.24 99.01 228.51 98.67C227.76 98.37 227.13 97.84 226.71 97.16C226.36 96.48 226.18 95.72 226.18 94.96C226.18 94.23 226.18 93.53 226.18 92.87C226.2 92.22 226.11 91.57 225.91 90.95C225.7 90.38 225.34 89.89 224.85 89.53C223.91 88.92 222.86 88.51 221.76 88.31C220.83 88.13 219.94 87.78 219.14 87.27C218.53 86.86 218.09 86.25 217.88 85.54C217.74 85.11 217.74 84.64 217.88 84.2C217.94 84.05 218.02 83.91 218.12 83.8C218.12 83.8 218.04 83.94 217.95 84.23C217.84 84.65 217.85 85.1 217.99 85.51C218.21 86.17 218.64 86.73 219.22 87.11C220.02 87.57 220.89 87.9 221.8 88.07C222.93 88.26 224.02 88.67 225 89.29C225.54 89.68 225.95 90.22 226.18 90.84C226.39 91.49 226.5 92.18 226.49 92.87C226.49 93.56 226.49 94.25 226.49 94.95C226.49 95.66 226.65 96.36 226.97 96.99C227.36 97.61 227.94 98.1 228.62 98.38C229.31 98.7 230.06 98.94 230.77 99.36C231.13 99.57 231.45 99.84 231.71 100.16C231.97 100.49 232.14 100.88 232.22 101.28C232.33 102.06 232.27 102.86 232.07 103.62C231.89 104.31 231.79 105.03 231.76 105.75C231.76 106.43 231.94 107.09 232.28 107.68C232.96 108.76 233.9 109.65 235.02 110.27C236.07 110.88 237.11 111.34 238.02 111.85C238.86 112.29 239.63 112.86 240.29 113.53C240.8 114.04 241.19 114.65 241.47 115.31C241.64 115.73 241.73 116.18 241.74 116.63C241.74 116.75 241.74 116.87 241.74 116.98C241.75 117.02 241.74 117.07 241.74 117.07Z" fill="#263238" fill-opacity="1.000000" fill-rule="nonzero"/>
		<path id="Vector" d="M221.45 121.84C221.34 121.89 221.23 121.93 221.11 121.95C220.97 121.98 220.82 122 220.68 122.01C220.48 122.04 220.29 122.06 220.09 122.06C218.81 122.06 217.56 121.66 216.51 120.93C215.77 120.44 215.16 119.78 214.7 119.02C214.22 118.14 213.9 117.17 213.77 116.16C213.65 115.1 213.34 114.06 212.87 113.09C212.33 112.13 211.32 111.49 210.42 110.66C209.49 109.86 208.88 108.74 208.71 107.52C208.55 106.39 208.77 105.24 209.35 104.26C209.92 103.45 210.4 102.6 210.8 101.7C211.08 100.9 211.18 100.05 211.1 99.21C210.97 97.98 210.67 96.77 210.22 95.61C210.05 95.18 209.9 94.75 209.77 94.31C209.84 94.41 209.9 94.51 209.94 94.62C210.04 94.84 210.19 95.15 210.35 95.56C210.86 96.71 211.2 97.94 211.36 99.19C211.45 100.07 211.36 100.96 211.09 101.81C210.7 102.72 210.21 103.6 209.64 104.42C209.11 105.34 208.9 106.42 209.06 107.48C209.22 108.61 209.79 109.65 210.66 110.4C211.53 111.19 212.58 111.85 213.18 112.91C213.67 113.91 213.98 114.99 214.1 116.1C214.22 117.07 214.51 118.01 214.96 118.88C215.39 119.61 215.96 120.24 216.65 120.73C217.66 121.46 218.85 121.87 220.09 121.92C220.96 121.94 221.44 121.8 221.45 121.84Z" fill="#263238" fill-opacity="1.000000" fill-rule="nonzero"/>
		<path id="Vector" d="M241.7 88.67C241.77 88.75 241.81 88.85 241.82 88.95C241.83 89.1 241.82 89.25 241.77 89.4C241.72 89.54 241.65 89.67 241.55 89.78C241.39 89.97 241.2 90.12 240.99 90.23C240.77 90.34 240.54 90.4 240.3 90.42C239.68 90.38 239.08 90.2 238.54 89.89C237.91 89.54 237.22 89.34 236.51 89.29C235.68 89.27 234.86 89.34 234.05 89.51C233.13 89.71 232.2 89.83 231.27 89.87C230.22 89.91 229.2 89.54 228.42 88.83C227.72 88.09 227.17 87.23 226.78 86.29C226.43 85.44 225.98 84.64 225.45 83.9C225 83.29 224.37 82.83 223.66 82.57C222.95 82.3 222.18 82.26 221.44 82.43C220.43 82.7 219.56 83.34 219.02 84.23C218.82 84.56 218.65 84.9 218.5 85.25C218.5 85.25 218.5 85.15 218.56 84.95C218.63 84.67 218.75 84.4 218.89 84.15C219.33 83.33 220.04 82.69 220.9 82.34C221.77 81.99 222.72 81.95 223.61 82.23C224.44 82.49 225.17 83 225.69 83.69C226.24 84.45 226.71 85.27 227.08 86.13C227.45 87.03 227.98 87.85 228.65 88.56C229.35 89.21 230.29 89.55 231.25 89.51C232.16 89.48 233.07 89.37 233.97 89.18C234.81 89.02 235.66 88.95 236.51 88.99C237.26 89.06 237.98 89.3 238.63 89.68C239.13 89.99 239.69 90.18 240.28 90.24C240.49 90.23 240.71 90.18 240.9 90.09C241.1 90 241.28 89.87 241.42 89.72C241.52 89.62 241.6 89.5 241.65 89.38C241.7 89.25 241.72 89.12 241.72 88.98C241.7 88.76 241.65 88.67 241.7 88.67Z" fill="#455A64" fill-opacity="1.000000" fill-rule="nonzero"/>
		<path id="Vector" d="M237.77 86.66C236.62 86.4 235.6 85.75 234.88 84.82C234.15 83.89 233.77 82.73 233.8 81.56C233.83 80.38 234.27 79.25 235.04 78.35C235.8 77.46 236.86 76.86 238.02 76.65C238.56 76.52 239.14 76.54 239.68 76.71C240.22 76.88 240.7 77.19 241.07 77.61C241.71 78.48 241.67 79.78 242.46 80.49C243.25 81.19 244.67 80.92 245.79 81.18C246.65 81.42 247.4 81.97 247.9 82.71C248.39 83.46 248.61 84.36 248.51 85.25C248.37 86.13 248 86.96 247.43 87.66C246.87 88.36 246.13 88.89 245.3 89.22C243.6 89.83 241.75 89.87 240.04 89.31C238.34 88.76 236.72 87.98 235.23 86.98L237.77 86.66Z" fill="#263238" fill-opacity="1.000000" fill-rule="nonzero"/>
		<path id="Vector" d="M246.13 81.63C246.06 82.09 245.89 82.53 245.62 82.91C245.05 83.87 244.25 84.68 243.29 85.27C242.34 85.87 241.25 86.23 240.13 86.33C239.67 86.4 239.19 86.36 238.75 86.22C238.75 86.16 239.27 86.22 240.09 86.07C241.15 85.91 242.16 85.54 243.08 84.97C243.99 84.4 244.77 83.65 245.39 82.77C245.87 82.1 246.07 81.61 246.13 81.63Z" fill="#455A64" fill-opacity="1.000000" fill-rule="nonzero"/>
		<path id="Vector" d="M242.45 89.33C241.56 88.15 240.43 87.16 239.15 86.42C237.87 85.69 236.45 85.22 234.98 85.04C235.42 84.95 235.87 84.95 236.31 85.04C238.46 85.35 240.41 86.47 241.76 88.17C242.07 88.5 242.31 88.9 242.45 89.33Z" fill="#FB9212" fill-opacity="1.000000" fill-rule="nonzero"/>
		<path id="Vector" d="M191.88 164.91L180.63 162.73L182.66 165.61L177.85 168.01L173.84 166.13C174.15 166.95 174.54 167.74 175.01 168.48C175.89 169.95 177.09 171.13 177.83 171.18C178.07 172.2 178.59 173.13 179.31 173.88C179.96 174.53 180.77 175 181.66 175.24C182.55 175.48 183.49 175.49 184.38 175.27L191.94 172.53L191.88 164.91Z" fill="#FFBE9D" fill-opacity="1.000000" fill-rule="nonzero"/>
		<path id="Vector" d="M180.53 170.55C180.35 170.79 180.11 170.97 179.84 171.11C179.58 171.24 179.28 171.31 178.98 171.31C178.69 171.37 178.39 171.37 178.1 171.3C177.81 171.24 177.54 171.11 177.3 170.93C177.34 170.82 178.06 171.06 178.94 170.93C179.83 170.8 180.48 170.46 180.53 170.55Z" fill="#EB996E" fill-opacity="1.000000" fill-rule="nonzero"/>
		<path id="Vector" d="M182.02 172.95C182.09 173.02 181.6 173.56 180.77 173.77C180.53 173.87 180.27 173.91 180.01 173.89C179.75 173.87 179.5 173.79 179.28 173.66C179.28 173.56 179.97 173.62 180.66 173.43C181.36 173.23 181.93 172.87 182.02 172.95Z" fill="#EB996E" fill-opacity="1.000000" fill-rule="nonzero"/>
		<path id="Vector" d="M184.84 164.47C184.53 164.7 184.21 164.89 183.86 165.05C183.26 165.39 182.47 165.96 181.59 166.57C180.84 167.12 180 167.54 179.11 167.81C178.74 167.95 178.34 167.99 177.96 167.92C177.96 167.86 178.39 167.81 179.03 167.57C179.87 167.23 180.66 166.79 181.39 166.27C182.14 165.73 182.92 165.24 183.74 164.82C184.08 164.62 184.45 164.5 184.84 164.47Z" fill="#EB996E" fill-opacity="1.000000" fill-rule="nonzero"/>
		<path id="Vector" d="M253.08 183.59C253.08 183.59 253.46 183.83 254.42 185.53C257.36 190.77 258.54 203.32 247.48 214.53C233.17 229.01 216.41 252.7 216.41 252.7L203.22 308.33L183.35 304.02L193.59 246.21L221.68 194.1L253.08 183.59Z" fill="#263238" fill-opacity="1.000000" fill-rule="nonzero"/>
		<path id="Vector" d="M275.01 291.25L244.39 244.39L235.1 203.95L211.45 215.57L223.31 256.62L261.15 303.76L275.01 291.25Z" fill="#263238" fill-opacity="1.000000" fill-rule="nonzero"/>
		<path id="Vector" d="M203.24 308.33C203.24 308.24 203.26 308.15 203.29 308.06C203.33 307.86 203.39 307.6 203.45 307.26C203.62 306.56 203.85 305.51 204.15 304.2L206.75 292.97C208.98 283.47 212.05 270.39 215.45 255.94C215.72 254.82 215.98 253.7 216.23 252.66L216.23 252.61C224.91 241.51 232.81 231.69 238.63 224.71C241.54 221.24 243.92 218.47 245.61 216.57C246.43 215.61 247.11 214.91 247.57 214.42L248.08 213.87C248.2 213.75 248.26 213.69 248.27 213.69C248.22 213.76 248.17 213.83 248.11 213.89L247.61 214.46C247.18 214.97 246.52 215.69 245.71 216.66C244.05 218.56 241.71 221.37 238.82 224.87C233.05 231.89 225.18 241.74 216.52 252.83L216.52 252.76C216.27 253.81 216.01 254.92 215.74 256.05L207 293.03C205.86 297.74 204.92 301.57 204.29 304.23C203.96 305.54 203.71 306.56 203.53 307.27C203.45 307.61 203.38 307.87 203.33 308.06C203.31 308.15 203.28 308.25 203.24 308.33Z" fill="#455A64" fill-opacity="1.000000" fill-rule="nonzero"/>
		<path id="Vector" d="M239.15 198.38C239.01 198.49 238.84 198.58 238.67 198.64C238.21 198.84 237.73 198.99 237.25 199.1C235.62 199.47 233.93 199.42 232.33 198.96C230.74 198.49 229.28 197.63 228.11 196.45C227.76 196.09 227.44 195.71 227.15 195.29C226.96 195 226.87 194.82 226.89 194.81C226.91 194.79 227.38 195.42 228.28 196.26C229.46 197.36 230.88 198.16 232.42 198.61C233.97 199.06 235.6 199.15 237.18 198.85C238.41 198.63 239.13 198.32 239.15 198.38Z" fill="#455A64" fill-opacity="1.000000" fill-rule="nonzero"/>
		<path id="Vector" d="M256.03 185.99C244.05 192.3 224.61 196.06 218.4 193.5L218.18 170.43C218.18 170.43 209.67 156.39 209.63 151.08C209.58 143.45 219.11 125.98 219.11 125.98L233.41 122.14C236.29 122.08 239.14 122.74 241.7 124.07C244.38 125.55 246.55 127.79 247.96 130.51C249.36 133.23 249.93 136.3 249.59 139.34L245.99 162.29L256.03 185.99Z" fill="#FB9212" fill-opacity="1.000000" fill-rule="nonzero"/>
		<g opacity="0.300000">
			<path id="Vector" d="M240.68 124.05C241.51 123.92 241.82 125.28 241.23 125.87C240.64 126.47 239.7 126.5 238.88 126.62C235.15 127.21 232.27 130.4 230.92 133.92C229.56 137.44 229.43 141.28 229.21 145.02C228.99 148.76 228.62 152.65 226.85 155.99C225.2 153.06 224.22 149.8 223.98 146.45C223.75 143.09 224.26 139.73 225.49 136.6C226.72 133.47 228.63 130.65 231.08 128.35C233.53 126.04 236.47 124.32 239.67 123.29L240.68 124.05Z" fill="#000000" fill-opacity="1.000000" fill-rule="nonzero"/>
		</g>
		<path id="Vector" d="M241.7 124.07C241.7 124.07 239.62 120.68 232.74 122.15C228.13 123.13 218.05 132.81 220.86 148.37C223.67 163.92 231.21 169.43 231.21 169.43C231.21 169.43 224.27 145.62 228.13 135.23C229.14 132.3 230.94 129.7 233.34 127.73C235.73 125.76 238.63 124.49 241.7 124.07Z" fill="#263238" fill-opacity="1.000000" fill-rule="nonzero"/>
		<g opacity="0.300000">
			<path id="Vector" d="M218.44 175.33C221.3 176.24 224.03 177.41 227 177.78C229.97 178.27 233.02 177.95 235.83 176.86C239.64 175.24 242.47 171.77 243.93 167.89C245.39 164.01 245.59 159.76 245.2 155.63C242.6 158.85 242.91 163.62 240.69 167.12C239.31 169.31 237.05 170.8 234.73 171.98C229.66 174.42 224.07 175.58 218.44 175.35L218.44 175.33Z" fill="#000000" fill-opacity="1.000000" fill-rule="nonzero"/>
		</g>
		<path id="Vector" d="M227.02 151.75C227.02 151.75 226.09 169.27 247.46 165.79L249.61 170.85C249.61 170.85 227.15 175.6 223.93 156.97L227.02 151.75Z" fill="#263238" fill-opacity="1.000000" fill-rule="nonzero"/>
		<path id="Vector" d="M246.5 129.98C247.4 131.32 248 132.83 248.27 134.42C248.55 136 248.48 137.63 248.08 139.19L242.76 163.02C240.47 169.72 233.96 173.79 229.9 174.34L191.95 178.35L191.95 164.19L227.18 158.96L228.83 139.66C228.98 137.07 230.26 132.4 231.91 130.39C233.76 128.15 236.59 125.1 241.23 125.87C244.07 126.35 245.28 128.24 246.5 129.98Z" fill="#FB9212" fill-opacity="1.000000" fill-rule="nonzero"/>
		<path id="Vector" d="M247.59 140.12C247.6 140.3 247.59 140.48 247.56 140.66C247.52 141.01 247.45 141.52 247.36 142.19C247.18 143.52 246.91 145.44 246.48 147.8C246.06 150.16 245.52 152.97 244.8 156.06C244.45 157.6 244.07 159.22 243.6 160.91C243.15 162.65 242.52 164.33 241.74 165.94C240.95 167.57 239.86 169.03 238.54 170.25C237.3 171.38 235.89 172.32 234.37 173.02C231.79 174.18 229.03 174.9 226.22 175.14C223.82 175.38 221.88 175.4 220.54 175.41L218.99 175.41C218.81 175.43 218.64 175.43 218.46 175.41C218.64 175.38 218.81 175.37 218.99 175.37L220.53 175.31C221.87 175.25 223.82 175.2 226.19 174.92C228.97 174.64 231.68 173.91 234.23 172.75C235.72 172.06 237.1 171.15 238.31 170.05C239.6 168.85 240.66 167.42 241.44 165.83C242.21 164.24 242.82 162.58 243.28 160.87C243.74 159.22 244.13 157.6 244.5 156.06C245.19 152.98 245.8 150.19 246.25 147.84C246.69 145.49 247.02 143.58 247.24 142.29C247.35 141.65 247.43 141.15 247.5 140.77C247.51 140.55 247.54 140.33 247.59 140.12Z" fill="#263238" fill-opacity="1.000000" fill-rule="nonzero"/>
		<path id="Vector" d="M228.2 163.02C227.81 162.37 227.52 161.67 227.35 160.93C227.06 160.24 226.89 159.51 226.84 158.76C227.52 160.09 227.99 161.51 228.22 162.99L228.2 163.02Z" fill="#263238" fill-opacity="1.000000" fill-rule="nonzero"/>
		<path id="Vector" d="M230.36 162.47C229.61 162.12 228.95 161.61 228.42 160.97C227.81 160.41 227.34 159.72 227.04 158.96C227.63 159.51 228.19 160.1 228.7 160.73C229.29 161.27 229.85 161.85 230.36 162.47Z" fill="#263238" fill-opacity="1.000000" fill-rule="nonzero"/>
		<path id="Vector" d="M195.25 163.7L195.41 163.66L195.88 163.57L197.7 163.27L204.45 162.21L227.13 158.78L226.97 158.94C227.1 157.62 227.23 156.24 227.37 154.82C227.82 149.82 228.3 145.05 228.54 140.7C228.7 138.63 229.1 136.58 229.72 134.6C230.21 132.85 231.06 131.21 232.2 129.79C234.45 127.34 236.97 126.05 238.82 125.81C239.53 125.71 240.25 125.72 240.95 125.85C241.19 125.9 241.37 125.96 241.49 125.99L241.67 126.05C240.74 125.84 239.78 125.81 238.84 125.95C237.04 126.22 234.58 127.53 232.39 129.97C231.29 131.37 230.48 132.97 230.01 134.69C229.4 136.66 229.02 138.68 228.87 140.72C228.65 145.08 228.18 149.85 227.72 154.85C227.59 156.24 227.46 157.63 227.33 158.98L227.33 159.12L227.19 159.12L204.47 162.43L197.7 163.38L195.87 163.62L195.4 163.67L195.25 163.7Z" fill="#263238" fill-opacity="1.000000" fill-rule="nonzero"/>
		<path id="Vector" d="M216.97 175.24C216.88 175.24 216.47 172.05 216.08 168.08C215.68 164.12 215.44 160.89 215.54 160.87C215.96 163.24 216.26 165.64 216.44 168.04C216.74 170.43 216.92 172.84 216.97 175.24Z" fill="#FAFAFA" fill-opacity="1.000000" fill-rule="nonzero"/>
		<path id="Vector" d="M244.76 153.74C243.96 153.81 243.15 153.82 242.35 153.77C240.85 153.77 238.8 153.69 236.52 153.61C234.25 153.52 232.19 153.42 230.71 153.33C229.9 153.32 229.1 153.25 228.31 153.12C229.11 153.04 229.92 153.03 230.72 153.08C232.21 153.08 234.27 153.16 236.54 153.24C238.81 153.33 240.86 153.42 242.35 153.52C243.16 153.52 243.97 153.6 244.76 153.74Z" fill="#FAFAFA" fill-opacity="1.000000" fill-rule="nonzero"/>
		<path id="Vector" d="M220.67 149.21C220.15 149.34 219.62 149.41 219.09 149.41C218.12 149.48 216.77 149.53 215.27 149.5C213.78 149.48 212.43 149.37 211.46 149.26C210.93 149.24 210.4 149.15 209.9 148.99C210.42 148.94 210.95 148.94 211.48 148.99C212.45 149.04 213.8 149.09 215.28 149.12C216.77 149.15 218.11 149.12 219.08 149.12C219.61 149.09 220.14 149.12 220.67 149.21Z" fill="#FAFAFA" fill-opacity="1.000000" fill-rule="nonzero"/>
		<path id="Vector" d="M223.8 132.74C223.75 132.83 222.29 132.05 220.4 131.36C218.52 130.66 216.93 130.24 216.93 130.13C219.4 130.44 221.76 131.33 223.8 132.74Z" fill="#FAFAFA" fill-opacity="1.000000" fill-rule="nonzero"/>
		<path id="Vector" d="M251.37 176.04C251.27 176.11 251.17 176.16 251.06 176.2L250.14 176.58C249.35 176.9 248.18 177.33 246.73 177.84C242.95 179.14 239.1 180.24 235.19 181.13C231.29 182.04 227.34 182.73 223.36 183.21C221.83 183.39 220.58 183.5 219.74 183.56L218.75 183.61C218.64 183.63 218.52 183.63 218.4 183.61C218.51 183.58 218.63 183.55 218.74 183.54L219.72 183.42C220.58 183.32 221.8 183.17 223.33 182.96C226.36 182.55 230.55 181.86 235.13 180.82C239.71 179.78 243.76 178.57 246.67 177.62C248.13 177.15 249.31 176.75 250.14 176.47L251.08 176.15C251.17 176.11 251.27 176.07 251.37 176.04Z" fill="#FAFAFA" fill-opacity="1.000000" fill-rule="nonzero"/>
		<path id="Vector" d="M249.1 134.54C249.1 134.64 245.01 134.59 239.97 134.42C234.92 134.26 230.84 134.05 230.84 133.95C230.84 133.85 234.93 133.9 239.98 134.06C245.02 134.22 249.1 134.44 249.1 134.54Z" fill="#FAFAFA" fill-opacity="1.000000" fill-rule="nonzero"/>
		<path id="Vector" d="M200.2 177.31C199.93 175 199.78 172.68 199.76 170.37C199.6 168.06 199.58 165.74 199.67 163.42C199.94 165.73 200.09 168.05 200.12 170.37C200.27 172.68 200.29 174.99 200.2 177.31Z" fill="#FAFAFA" fill-opacity="1.000000" fill-rule="nonzero"/>
		<path id="Vector" d="M122.56 106.33C128.74 105.18 135.12 105.85 140.93 108.26C143.5 109.34 146.06 110.86 147.44 113.28C149.1 116.14 148.83 119.66 148.64 122.96C148.28 129.67 148.51 136.41 149.34 143.08C150.03 148.64 151.12 154.19 151.1 159.74C151.08 165.29 149.83 171.14 146.33 175.49C140.92 182.21 131.29 184.09 122.73 182.95C118.23 182.35 113.74 181 110.07 178.33C106.4 175.65 103.65 171.52 103.34 166.99L122.56 106.33Z" fill="#455A64" fill-opacity="1.000000" fill-rule="nonzero"/>
		<path id="Vector" d="M133.26 114.84C134.06 115.79 134.74 116.83 135.29 117.94C135.85 119.17 136.32 120.44 136.68 121.74C137.11 123.35 137.65 124.93 138.28 126.48C138.94 128.05 139.97 129.44 141.28 130.53C142.37 131.43 143.74 131.92 145.15 131.92C146.09 131.93 147.01 131.66 147.8 131.16C148.01 131.02 148.21 130.86 148.38 130.67C148.5 130.54 148.55 130.47 148.54 130.46C148.52 130.45 148.26 130.69 147.71 131.01C146.92 131.44 146.03 131.64 145.14 131.61C143.81 131.56 142.53 131.08 141.52 130.22C140.29 129.15 139.32 127.81 138.69 126.31C138.06 124.78 137.52 123.22 137.07 121.63C136.68 120.32 136.19 119.04 135.58 117.82C135.17 116.99 134.64 116.22 134.02 115.53C133.81 115.26 133.55 115.03 133.26 114.84Z" fill="#263238" fill-opacity="1.000000" fill-rule="nonzero"/>
		<path id="Vector" d="M135.71 182.52C135.77 182.34 135.8 182.16 135.82 181.98C135.87 181.57 135.94 181.04 136.02 180.39C136.2 179.01 136.43 177.03 136.72 174.58C137.24 169.66 137.86 162.86 138.41 155.33C138.95 147.81 139.27 140.98 139.45 136.03C139.54 133.56 139.6 131.56 139.62 130.18C139.62 129.53 139.62 129 139.62 128.59C139.64 128.41 139.64 128.22 139.62 128.04C139.58 128.22 139.56 128.4 139.56 128.59C139.56 129 139.49 129.52 139.45 130.17C139.38 131.61 139.27 133.6 139.14 136.02C138.88 140.96 138.49 147.78 137.96 155.3C137.43 162.82 136.84 169.62 136.41 174.54C136.19 176.97 136.02 178.94 135.89 180.37C135.84 181.03 135.8 181.55 135.77 181.96C135.73 182.14 135.71 182.33 135.71 182.52Z" fill="#263238" fill-opacity="1.000000" fill-rule="nonzero"/>
		<path id="Vector" d="M138.45 152.38C138.45 152.5 141.13 152.87 144.49 152.95C147.84 153.04 150.54 152.81 150.54 152.69C150.53 152.56 147.83 152.59 144.5 152.5C141.17 152.4 138.47 152.25 138.45 152.38Z" fill="#263238" fill-opacity="1.000000" fill-rule="nonzero"/>
		<path id="Vector" d="M140.64 152.67C140.36 153.04 140.17 153.45 140.08 153.9C139.93 154.35 139.81 154.81 139.72 155.28C139.64 155.59 139.64 155.92 139.72 156.23C139.77 156.42 139.88 156.59 140.02 156.72C140.17 156.85 140.34 156.94 140.54 156.98C140.64 156.99 140.76 156.99 140.86 156.96C140.97 156.92 141.07 156.87 141.15 156.8C141.3 156.67 141.4 156.49 141.43 156.29C141.48 155.99 141.48 155.68 141.43 155.38C141.38 154.89 141.29 154.4 141.16 153.93C141.07 153.48 140.89 153.06 140.61 152.7C140.64 153.14 140.72 153.58 140.84 154.01C140.93 154.47 140.98 154.93 141.01 155.39C141.05 155.65 141.05 155.92 141.01 156.17C140.95 156.41 140.81 156.54 140.62 156.51C140.14 156.43 140.04 155.82 140.14 155.34C140.23 154.86 140.31 154.33 140.39 153.95C140.53 153.54 140.61 153.11 140.64 152.67Z" fill="#263238" fill-opacity="1.000000" fill-rule="nonzero"/>
		<path id="Vector" d="M145.26 108.97L116.22 108.01C112.54 107.89 109.66 104.82 109.79 101.14L109.97 95.5C110.09 91.82 113.17 88.94 116.84 89.06L145.89 90.02C149.56 90.14 152.44 93.22 152.32 96.89L152.13 102.54C152.01 106.21 148.93 109.09 145.26 108.97Z" fill="#263238" fill-opacity="1.000000" fill-rule="evenodd"/>
		<path id="Vector" d="M145.19 90.38C145.19 90.38 145.12 90.31 144.94 90.23C144.69 90.11 144.41 90.02 144.13 89.98C143.08 89.82 142.01 90.02 141.09 90.55C139.69 91.24 138.51 92.3 137.66 93.6C136.68 95.24 136.12 97.09 136.03 98.99C135.84 100.89 136.23 102.81 137.14 104.5C137.89 105.87 139.04 106.99 140.43 107.71C141.36 108.19 142.38 108.46 143.42 108.5C143.71 108.51 143.99 108.5 144.27 108.46C144.37 108.46 144.47 108.43 144.56 108.39C144.56 108.35 144.15 108.39 143.44 108.32C142.43 108.22 141.46 107.91 140.59 107.42C139.28 106.7 138.21 105.62 137.51 104.3C136.66 102.68 136.31 100.84 136.48 99.02C136.57 97.19 137.1 95.41 138.01 93.82C138.81 92.57 139.93 91.54 141.24 90.83C142.1 90.31 143.11 90.06 144.11 90.14C144.82 90.22 145.18 90.42 145.19 90.38Z" fill="#455A64" fill-opacity="1.000000" fill-rule="nonzero"/>
		<path id="Vector" d="M128.85 89.38L133.26 89.6C132.05 89.79 130.94 90.41 130.15 91.34C129.36 92.27 128.78 93.35 128.45 94.52C126.91 99.38 128.77 105.2 132.61 108.55L129.04 108.5C129.04 108.5 120.34 98 128.82 89.38L128.85 89.38Z" fill="#455A64" fill-opacity="1.000000" fill-rule="nonzero"/>
		<path id="Vector" d="M107.28 81.07C105.48 76.7 105.38 69.12 108.13 65.11C110.89 61.09 116.05 58.49 120.79 57.47C121.57 57.23 122.41 57.23 123.19 57.47C123.57 57.62 123.88 57.9 124.06 58.26C124.24 58.62 124.28 59.04 124.17 59.43C125.09 58.8 126.11 58.32 127.19 58.03C127.73 57.87 128.3 57.86 128.85 57.98C129.4 58.1 129.92 58.35 130.34 58.72C130.55 58.91 130.71 59.14 130.83 59.39C130.95 59.65 131.01 59.92 131.02 60.2C131.03 60.48 130.98 60.76 130.88 61.02C130.77 61.28 130.62 61.51 130.42 61.71C131.09 61.46 131.82 61.42 132.51 61.58C133.21 61.74 133.84 62.11 134.33 62.62C134.82 63.14 135.14 63.79 135.26 64.49C135.39 65.2 135.3 65.92 135.01 66.57C134.36 67.91 133.46 69.11 132.36 70.1C131.37 71.02 131.2 71.96 131.37 73.3L107.28 81.07Z" fill="#263238" fill-opacity="1.000000" fill-rule="nonzero"/>
		<path id="Vector" d="M108.41 73.07L107.16 99.77C107.11 100.85 107.28 101.92 107.66 102.93C108.03 103.94 108.61 104.87 109.36 105.64C110.1 106.42 111 107.04 111.99 107.46C112.98 107.89 114.05 108.1 115.12 108.1C117.16 108.09 119.12 107.3 120.59 105.88C122.06 104.47 122.93 102.55 123.03 100.51C123.12 98.49 123.2 96.81 123.22 96.61C123.22 96.61 130.05 96.29 130.86 89.59C131.24 86.35 131.51 79.61 131.67 73.51C131.75 70.35 130.64 67.28 128.56 64.9C126.48 62.52 123.58 61.01 120.44 60.67L119.79 60.6C112.78 60.25 108.56 66.03 108.41 73.07Z" fill="#FFBE9D" fill-opacity="1.000000" fill-rule="nonzero"/>
		<path id="Vector" d="M123.26 96.52C120.16 96.24 117.21 95.05 114.78 93.09C114.78 93.09 116.12 97.29 122.88 97.4L123.26 96.52Z" fill="#EB996E" fill-opacity="1.000000" fill-rule="nonzero"/>
		<path id="Vector" d="M129.27 77.79C129.25 78.04 129.13 78.27 128.93 78.44C128.74 78.6 128.49 78.68 128.24 78.66C128.12 78.66 128 78.63 127.88 78.58C127.77 78.53 127.67 78.45 127.59 78.36C127.51 78.27 127.44 78.17 127.4 78.05C127.36 77.93 127.34 77.81 127.35 77.69C127.38 77.44 127.5 77.21 127.69 77.05C127.88 76.88 128.13 76.8 128.38 76.82C128.5 76.83 128.62 76.85 128.73 76.91C128.84 76.96 128.94 77.03 129.03 77.12C129.11 77.21 129.18 77.32 129.22 77.43C129.26 77.55 129.28 77.67 129.27 77.79Z" fill="#263238" fill-opacity="1.000000" fill-rule="nonzero"/>
		<path id="Vector" d="M129.89 76.65C129.76 76.76 129.09 76.15 128.06 76.04C127.02 75.93 126.22 76.36 126.12 76.22C126.03 76.09 126.21 75.95 126.57 75.75C127.05 75.49 127.6 75.38 128.14 75.44C128.68 75.5 129.18 75.72 129.59 76.09C129.88 76.33 129.97 76.6 129.89 76.65Z" fill="#263238" fill-opacity="1.000000" fill-rule="nonzero"/>
		<path id="Vector" d="M119.09 77.03C119.07 77.28 118.95 77.51 118.76 77.67C118.56 77.83 118.32 77.91 118.07 77.9C117.94 77.89 117.82 77.86 117.71 77.81C117.6 77.76 117.5 77.69 117.42 77.6C117.33 77.51 117.27 77.4 117.23 77.29C117.18 77.17 117.16 77.05 117.17 76.92C117.19 76.67 117.31 76.44 117.51 76.28C117.7 76.12 117.95 76.04 118.2 76.06C118.32 76.06 118.44 76.09 118.56 76.14C118.67 76.19 118.77 76.26 118.85 76.35C118.94 76.44 119 76.55 119.04 76.67C119.08 76.78 119.1 76.91 119.09 77.03Z" fill="#263238" fill-opacity="1.000000" fill-rule="nonzero"/>
		<path id="Vector" d="M119.73 75.75C119.6 75.86 118.93 75.25 117.9 75.13C116.86 75.02 116.05 75.46 115.96 75.32C115.86 75.18 116.05 75.05 116.41 74.84C116.89 74.58 117.44 74.48 117.98 74.54C118.52 74.6 119.02 74.82 119.43 75.18C119.71 75.46 119.79 75.7 119.73 75.75Z" fill="#263238" fill-opacity="1.000000" fill-rule="nonzero"/>
		<path id="Vector" d="M122.65 83.8C123.21 83.69 123.79 83.64 124.36 83.68C124.62 83.68 124.88 83.68 124.94 83.48C125 83.21 124.96 82.94 124.85 82.69L124.29 80.6C123.51 77.63 122.98 75.2 123.1 75.17C123.22 75.14 123.95 77.52 124.73 80.5C124.91 81.19 125.09 81.93 125.25 82.58C125.38 82.92 125.38 83.29 125.25 83.63C125.21 83.72 125.14 83.8 125.06 83.86C124.98 83.91 124.88 83.95 124.78 83.97C124.63 83.99 124.48 83.99 124.33 83.97C123.77 83.99 123.2 83.93 122.65 83.8Z" fill="#263238" fill-opacity="1.000000" fill-rule="nonzero"/>
		<path id="Vector" d="M119.56 84.19C119.72 84.19 119.61 85.32 120.48 86.22C121.35 87.12 122.56 87.12 122.56 87.28C122.56 87.44 122.28 87.47 121.77 87.43C121.11 87.37 120.5 87.07 120.04 86.6C119.59 86.15 119.34 85.54 119.34 84.91C119.31 84.44 119.46 84.18 119.56 84.19Z" fill="#263238" fill-opacity="1.000000" fill-rule="nonzero"/>
		<path id="Vector" d="M120.43 71.73C120.3 72 119.29 71.73 118.06 71.78C116.83 71.82 115.82 72.01 115.68 71.78C115.63 71.64 115.82 71.4 116.25 71.17C116.81 70.89 117.43 70.74 118.06 70.75C118.68 70.74 119.31 70.88 119.87 71.16C120.29 71.36 120.49 71.6 120.43 71.73Z" fill="#263238" fill-opacity="1.000000" fill-rule="nonzero"/>
		<path id="Vector" d="M129.83 73.62C129.63 73.84 128.95 73.52 128.09 73.41C127.24 73.31 126.5 73.41 126.36 73.14C126.3 73.01 126.43 72.79 126.77 72.6C127.22 72.39 127.73 72.31 128.22 72.38C128.71 72.45 129.17 72.66 129.55 72.99C129.86 73.26 129.92 73.52 129.83 73.62Z" fill="#263238" fill-opacity="1.000000" fill-rule="nonzero"/>
		<path id="Vector" d="M108.45 78.1C108.34 78.04 103.99 76.24 103.64 80.84C103.28 85.44 107.99 84.85 108 84.72C108.02 84.59 108.45 78.1 108.45 78.1Z" fill="#FFBE9D" fill-opacity="1.000000" fill-rule="nonzero"/>
		<path id="Vector" d="M106.7 82.87C106.7 82.87 106.62 82.91 106.47 82.97C106.28 83.04 106.07 83.04 105.88 82.97C105.6 82.76 105.37 82.48 105.23 82.15C105.1 81.82 105.05 81.47 105.09 81.12C105.11 80.72 105.22 80.33 105.41 79.99C105.46 79.85 105.55 79.72 105.66 79.62C105.77 79.52 105.91 79.45 106.05 79.42C106.15 79.4 106.24 79.41 106.33 79.46C106.41 79.51 106.48 79.58 106.51 79.67C106.56 79.81 106.51 79.9 106.55 79.9C106.59 79.91 106.66 79.83 106.63 79.65C106.62 79.53 106.56 79.42 106.47 79.34C106.35 79.23 106.2 79.18 106.04 79.19C105.85 79.21 105.66 79.28 105.51 79.4C105.35 79.51 105.23 79.66 105.15 79.84C104.92 80.22 104.79 80.66 104.77 81.1C104.72 81.51 104.78 81.93 104.97 82.3C105.15 82.67 105.43 82.98 105.79 83.18C105.91 83.23 106.04 83.25 106.17 83.24C106.3 83.23 106.43 83.19 106.54 83.12C106.68 82.98 106.72 82.87 106.7 82.87Z" fill="#EB996E" fill-opacity="1.000000" fill-rule="nonzero"/>
		<path id="Vector" d="M135.29 65.04C135.37 71.05 127.83 72.98 124.88 69.4C123.49 67.74 122.35 65.71 120.37 64.86C119.69 64.6 118.97 64.48 118.24 64.5C117.52 64.52 116.8 64.68 116.14 64.98L116.1 64.98C114.13 65.82 112.84 67.93 112.38 70.03C111.75 72.95 112.02 75.58 111.05 78.24C110.95 78.64 110.72 78.99 110.4 79.24C109.81 79.6 109.01 79.19 108.61 78.64C108.01 77.71 107.68 76.62 107.69 75.51C107.47 73 107.76 70.47 108.54 68.07C109.32 65.66 110.79 63.54 112.77 61.96C115.32 60.08 118.5 59.26 121.64 59.68C124.77 60.12 127.68 61.53 129.97 63.71C131.07 64.67 131.92 65.89 132.43 67.26L135.29 65.04Z" fill="#263238" fill-opacity="1.000000" fill-rule="nonzero"/>
		<path id="Vector" d="M130.66 61.39C130.88 61.36 131.1 61.38 131.3 61.46C131.86 61.65 132.36 62 132.74 62.46C133.33 63.12 133.67 63.97 133.71 64.86C133.72 65.95 133.32 67.01 132.6 67.83C131.9 68.64 130.98 69.25 129.96 69.58C129.13 69.84 128.27 69.96 127.41 69.94C126.83 69.93 126.25 69.87 125.68 69.76C125.47 69.74 125.26 69.68 125.07 69.58C125.07 69.52 125.97 69.72 127.4 69.69C128.23 69.68 129.06 69.53 129.85 69.27C130.81 68.94 131.67 68.36 132.33 67.6C133 66.85 133.37 65.88 133.38 64.87C133.36 64.05 133.07 63.26 132.56 62.61C132.21 62.18 131.76 61.83 131.24 61.62C130.89 61.44 130.66 61.42 130.66 61.39Z" fill="#455A64" fill-opacity="1.000000" fill-rule="nonzero"/>
		<path id="Vector" d="M127.75 59.04C127.75 59.04 127.92 59 128.18 59.15C128.36 59.27 128.51 59.42 128.62 59.6C128.73 59.78 128.8 59.98 128.82 60.19C128.87 60.81 128.69 61.42 128.34 61.93C127.96 62.55 127.49 63.11 126.95 63.59C125.96 64.48 124.77 65.11 123.48 65.43C122.96 65.59 122.4 65.64 121.86 65.58C121.86 65.51 122.47 65.48 123.41 65.18C124.62 64.81 125.74 64.18 126.69 63.33C127.21 62.87 127.67 62.34 128.06 61.76C128.39 61.32 128.57 60.78 128.57 60.23C128.56 60.04 128.51 59.87 128.43 59.7C128.35 59.54 128.24 59.39 128.1 59.27C127.88 59.1 127.74 59.07 127.75 59.04Z" fill="#455A64" fill-opacity="1.000000" fill-rule="nonzero"/>
		<path id="Vector" d="M108.23 124.62L110.39 108.84L79.37 115.08L51.15 105.28L43.52 113.12L73.56 128.59C76.24 129.87 79.26 130.25 82.17 129.69L108.23 124.62Z" fill="#FFBE9D" fill-opacity="1.000000" fill-rule="nonzero"/>
		<path id="Vector" d="M51.15 105.28C51.15 105.28 40.36 100.11 39.66 99.93C39.13 99.79 30.98 99.36 27.27 99.17C26.98 99.17 26.7 99.27 26.48 99.47C26.26 99.66 26.13 99.93 26.1 100.22C26.07 100.51 26.15 100.8 26.32 101.03C26.5 101.26 26.75 101.42 27.04 101.48L27.18 101.48C29.26 101.65 33.81 102.69 33.81 102.69L31.73 107.55C31.63 107.79 31.61 108.06 31.68 108.31C31.75 108.56 31.9 108.78 32.11 108.94L38.39 113.58C39.22 113.96 40.12 114.11 41.02 114.02C41.92 113.93 42.78 113.61 43.51 113.08L46.29 113.65L51.15 105.28Z" fill="#FFBE9D" fill-opacity="1.000000" fill-rule="nonzero"/>
		<path id="Vector" d="M31.71 107.86C31.9 108.77 34.07 110.63 35.71 110.63C36.08 110.64 36.43 110.51 36.71 110.28C36.84 110.16 36.93 110 36.97 109.82C37.01 109.65 37 109.46 36.94 109.29C36.82 109.09 36.66 108.91 36.46 108.78L32.81 105.91L31.71 107.86Z" fill="#FFBE9D" fill-opacity="1.000000" fill-rule="nonzero"/>
		<path id="Vector" d="M32.81 105.91C33.35 106.2 33.86 106.55 34.34 106.94L35.94 108.14C36.25 108.38 36.55 108.58 36.89 108.88C36.98 108.97 37.06 109.08 37.11 109.2C37.17 109.32 37.2 109.45 37.2 109.58C37.2 109.83 37.11 110.08 36.96 110.27C36.8 110.45 36.6 110.59 36.37 110.68C36.15 110.77 35.91 110.81 35.67 110.79C35.26 110.77 34.85 110.67 34.47 110.5C33.84 110.23 33.26 109.86 32.76 109.4C32.41 109.09 32.11 108.74 31.88 108.34C31.72 108.05 31.71 107.86 31.73 107.86C31.75 107.86 31.81 108.02 31.99 108.27C32.26 108.61 32.58 108.93 32.92 109.2C33.43 109.61 33.99 109.95 34.6 110.2C34.94 110.34 35.31 110.42 35.69 110.44C35.87 110.45 36.05 110.42 36.22 110.36C36.39 110.29 36.55 110.19 36.67 110.05C36.78 109.92 36.84 109.76 36.84 109.59C36.84 109.42 36.78 109.26 36.67 109.13C36.41 108.88 36.05 108.64 35.78 108.44L34.19 107.14C33.69 106.78 33.22 106.37 32.81 105.91Z" fill="#EB996E" fill-opacity="1.000000" fill-rule="nonzero"/>
		<path id="Vector" d="M40.44 110.66C40.44 110.66 40.2 110.54 39.98 110.19C39.69 109.73 39.52 109.2 39.5 108.66C39.48 108.12 39.59 107.58 39.83 107.09C40.02 106.73 40.22 106.55 40.25 106.58C40.02 107.25 39.89 107.95 39.86 108.66C39.95 109.35 40.15 110.03 40.44 110.66Z" fill="#EB996E" fill-opacity="1.000000" fill-rule="nonzero"/>
		<path id="Vector" d="M36.11 108.17C36.26 108.45 36.5 108.67 36.8 108.8C37.09 108.92 37.42 108.94 37.73 108.85C38.03 108.76 38.3 108.57 38.48 108.31C38.66 108.04 38.75 107.72 38.72 107.41C38.66 107.02 38.52 106.65 38.31 106.32C38.1 105.99 37.82 105.7 37.5 105.48L34.8 103.04L36.11 108.17Z" fill="#FFBE9D" fill-opacity="1.000000" fill-rule="nonzero"/>
		<path id="Vector" d="M34.8 103.01C35.21 103.25 35.59 103.54 35.93 103.87L37.09 104.86C37.59 105.26 38.06 105.71 38.48 106.2C38.69 106.48 38.83 106.81 38.89 107.16C38.95 107.49 38.88 107.84 38.71 108.13C38.58 108.38 38.38 108.59 38.13 108.74C37.89 108.88 37.61 108.95 37.32 108.94C36.95 108.92 36.6 108.77 36.34 108.5C36.16 108.32 36.12 108.18 36.13 108.17C36.14 108.16 36.24 108.26 36.43 108.4C36.69 108.59 37.01 108.69 37.33 108.68C37.56 108.68 37.78 108.61 37.97 108.48C38.16 108.36 38.32 108.19 38.42 107.99C38.54 107.73 38.58 107.45 38.54 107.17C38.49 106.89 38.37 106.63 38.18 106.42C37.79 105.96 37.35 105.52 36.89 105.12L35.78 104.07C35.4 103.76 35.07 103.41 34.8 103.01Z" fill="#EB996E" fill-opacity="1.000000" fill-rule="nonzero"/>
		<path id="Vector" d="M40.74 102.6C38.56 103.12 36.48 103.99 34.58 105.18C34.46 105.24 34.37 105.34 34.31 105.46C34.26 105.64 34.4 105.82 34.54 105.93C35.14 106.34 35.87 106.51 36.58 106.4C37.29 106.29 37.99 106.21 38.71 106.18C39.94 106.18 41.08 106.8 42.27 107.13C43.47 107.46 44.91 107.45 45.74 106.52L40.74 102.6Z" fill="#FFBE9D" fill-opacity="1.000000" fill-rule="nonzero"/>
		<path id="Vector" d="M45.73 106.52C45.73 106.52 45.73 106.59 45.62 106.68C45.49 106.83 45.33 106.95 45.17 107.04C44.53 107.39 43.8 107.52 43.08 107.41C42.07 107.24 41.07 106.96 40.1 106.59C39.54 106.42 38.96 106.34 38.37 106.36C37.76 106.39 37.13 106.55 36.44 106.59C35.74 106.67 35.05 106.5 34.47 106.12C34.3 106.01 34.17 105.84 34.12 105.65C34.09 105.53 34.11 105.4 34.17 105.3C34.23 105.21 34.3 105.14 34.38 105.09C34.65 104.91 34.9 104.78 35.16 104.63C36.05 104.12 36.98 103.69 37.94 103.33C38.59 103.09 39.25 102.89 39.93 102.73C40.17 102.65 40.43 102.61 40.68 102.6C40.68 102.67 39.64 102.91 38.03 103.57C37.08 103.96 36.17 104.41 35.29 104.91C35.05 105.06 34.78 105.22 34.55 105.37C34.44 105.46 34.4 105.5 34.42 105.57C34.46 105.68 34.54 105.77 34.64 105.83C35.16 106.16 35.77 106.3 36.38 106.23C37.03 106.18 37.67 106.04 38.32 106.01C38.94 105.99 39.57 106.08 40.16 106.27C41.11 106.65 42.08 106.95 43.08 107.16C43.74 107.28 44.42 107.19 45.04 106.93C45.28 106.8 45.51 106.67 45.73 106.52Z" fill="#EB996E" fill-opacity="1.000000" fill-rule="nonzero"/>
		<path id="Vector" d="M79.85 120.52C79.25 118.73 79.19 116.8 79.69 114.97C79.8 114.97 79.69 116.23 79.69 117.75C79.69 119.26 79.96 120.5 79.85 120.52Z" fill="#EB996E" fill-opacity="1.000000" fill-rule="nonzero"/>
		<path id="Vector" d="M106.99 101.51L98.19 111.43C98.19 111.43 93.49 145.68 93.16 148.37C92.82 151.07 91.93 159.66 91.93 162.01C91.93 164.36 89.98 181.18 89.98 181.18C89.98 181.18 127.32 188.94 133.57 181.18L131.62 166.78L133.32 131.06C133.32 131.06 136.09 106.26 123.05 100.52C123.03 100.51 114.78 105.48 106.99 101.51Z" fill="#FB9212" fill-opacity="1.000000" fill-rule="nonzero"/>
		<path id="Vector" d="M129.04 104.02C129.04 104.02 126.47 101.48 118.24 103.61C109.57 105.85 105 113.96 107.13 136.92C108.91 155.87 116.4 158.59 116.4 158.59C116.4 158.59 112.3 130.02 113.01 118.07C113.89 102.97 129.03 106.73 129.03 106.73C131.2 106.05 129.04 104.02 129.04 104.02Z" fill="#263238" fill-opacity="1.000000" fill-rule="nonzero"/>
		<path id="Vector" d="M107 101.51L99.39 103.61L82.27 114.09L87.15 129.57L97.2 128.46L107 101.51Z" fill="#FB9212" fill-opacity="1.000000" fill-rule="nonzero"/>
		<path id="Vector" d="M97.09 112.26C97.2 112.26 96.76 117.81 96.13 124.61C95.5 131.41 94.9 136.95 94.8 136.94C94.71 136.92 95.13 131.38 95.77 124.58C96.4 117.78 97 112.25 97.09 112.26Z" fill="#263238" fill-opacity="1.000000" fill-rule="nonzero"/>
		<path id="Vector" d="M131.93 160.36C131.93 160.36 129.5 168.17 120.92 155.27C112.33 142.38 113.53 148.14 113.53 148.14L111.78 150.23C111.78 150.23 121.22 171.5 131.82 168.17L131.93 160.36Z" fill="#263238" fill-opacity="1.000000" fill-rule="nonzero"/>
		<g opacity="0.300000">
			<path id="Vector" d="M96.74 115.98L89.98 129.25L95.57 128.64L96.74 115.98Z" fill="#000000" fill-opacity="1.000000" fill-rule="nonzero"/>
		</g>
		<g opacity="0.300000">
			<path id="Vector" d="M93.64 151.22C98.62 156.64 104.51 161.16 111.03 164.57C113.76 166 116.77 167.26 119.83 166.86C123.19 166.43 126.07 164 127.65 161.01C129.22 158.02 129.04 156.58 129.39 153.22C129.81 149.51 129.81 144.56 130 141.18C130 140.59 130.04 139.89 130.04 139.23C130.04 138.52 130.27 137.82 130.7 137.25C131.13 136.68 131.73 136.26 132.41 136.05C132.41 136.05 130.33 135.09 128.99 135.28C127.65 135.48 126.58 136.62 125.87 137.8C122.06 144.08 123.72 153.29 116.45 157.24C114.05 158.46 111.31 158.86 108.65 158.38C102.71 157.41 98.15 153.52 93.77 149.69L93.64 151.22Z" fill="#000000" fill-opacity="1.000000" fill-rule="nonzero"/>
		</g>
		<path id="Vector" d="M105.16 128.32C105.16 133.79 103.68 138.23 101.86 138.23C100.04 138.23 98.56 133.79 98.56 128.32C98.56 122.84 100.04 118.41 101.86 118.41C103.68 118.41 105.16 122.84 105.16 128.32Z" fill="#FAFAFA" fill-opacity="1.000000" fill-rule="evenodd"/>
		<path id="Vector" d="M103.6 300.68L104.35 316.99C104.35 316.99 88.02 323.24 87.86 326.27L119.55 325.95L119.42 300.48L103.6 300.68Z" fill="#FB9212" fill-opacity="1.000000" fill-rule="nonzero"/>
		<g opacity="0.600000">
			<path id="Vector" d="M114.17 315.52C114.47 315.61 114.73 315.81 114.9 316.08C115.07 316.35 115.13 316.67 115.07 316.99C115 317.29 114.8 317.56 114.53 317.73C114.26 317.9 113.94 317.96 113.62 317.9C113.3 317.8 113.03 317.59 112.85 317.3C112.67 317.01 112.61 316.67 112.67 316.34C112.78 316.03 113.02 315.77 113.32 315.63C113.62 315.48 113.96 315.46 114.28 315.56L114.17 315.52Z" fill="#FFFFFF" fill-opacity="1.000000" fill-rule="nonzero"/>
		</g>
		<g opacity="0.600000">
			<path id="Vector" d="M119.56 325.95L119.56 323.41L89.12 324.66C89.12 324.66 87.73 325.28 87.88 326.27L119.56 325.95Z" fill="#FFFFFF" fill-opacity="1.000000" fill-rule="nonzero"/>
		</g>
		<path id="Vector" d="M103.86 316.84C103.86 316.99 104.64 317.06 105.41 317.54C106.17 318.01 106.59 318.67 106.73 318.6C106.88 318.54 106.64 317.65 105.69 317.08C104.75 316.5 103.82 316.7 103.86 316.84Z" fill="#263238" fill-opacity="1.000000" fill-rule="nonzero"/>
		<path id="Vector" d="M100.56 318.25C100.52 318.4 101.19 318.66 101.72 319.3C102.25 319.95 102.42 320.64 102.57 320.64C102.72 320.63 102.81 319.75 102.14 318.96C101.46 318.17 100.56 318.1 100.56 318.25Z" fill="#263238" fill-opacity="1.000000" fill-rule="nonzero"/>
		<path id="Vector" d="M98.74 322.25C98.88 322.25 99.08 321.5 98.67 320.66C98.27 319.81 97.54 319.49 97.48 319.62C97.42 319.75 97.87 320.19 98.18 320.89C98.48 321.6 98.55 322.23 98.74 322.25Z" fill="#263238" fill-opacity="1.000000" fill-rule="nonzero"/>
		<path id="Vector" d="M104.1 313.1C104.17 313.25 104.88 313.02 105.75 313.1C106.63 313.18 107.31 313.42 107.39 313.29C107.48 313.16 106.81 312.59 105.77 312.56C104.74 312.52 104.03 312.99 104.1 313.1Z" fill="#263238" fill-opacity="1.000000" fill-rule="nonzero"/>
		<g opacity="0.300000">
			<path id="Vector" d="M103.77 303.91L103.91 306.82L119.48 306.51L119.47 303.89L103.77 303.91Z" fill="#000000" fill-opacity="1.000000" fill-rule="nonzero"/>
		</g>
		<path id="Vector" d="M104.01 309.81C104.53 309.95 105.08 309.95 105.6 309.81C106.17 309.7 106.72 309.52 107.25 309.28C107.57 309.14 107.87 308.97 108.16 308.79C108.33 308.69 108.49 308.56 108.63 308.42C108.73 308.3 108.79 308.16 108.8 308.01C108.81 307.86 108.78 307.72 108.7 307.59C108.62 307.48 108.51 307.39 108.39 307.33C108.27 307.27 108.14 307.24 108 307.24C107.8 307.24 107.6 307.27 107.4 307.33C107.07 307.42 106.74 307.53 106.43 307.68C105.89 307.92 105.4 308.25 104.97 308.65C104.24 309.35 104 309.92 104.05 309.96C104.11 309.99 104.48 309.51 105.22 308.94C105.65 308.62 106.11 308.34 106.61 308.13C106.9 308.01 107.21 307.92 107.52 307.84C107.85 307.75 108.14 307.75 108.21 307.9C108.28 308.04 108.21 307.97 108.18 308.08C108.07 308.18 107.96 308.28 107.83 308.35C107.56 308.53 107.28 308.69 107 308.84C106.51 309.09 105.99 309.29 105.47 309.44C104.97 309.53 104.49 309.65 104.01 309.81Z" fill="#263238" fill-opacity="1.000000" fill-rule="nonzero"/>
		<path id="Vector" d="M104.21 310.03C104.51 309.57 104.65 309.03 104.62 308.49C104.64 307.9 104.56 307.32 104.38 306.76C104.28 306.42 104.14 306.1 103.97 305.8C103.88 305.59 103.74 305.41 103.56 305.27C103.39 305.13 103.17 305.04 102.95 305.01C102.81 305.01 102.67 305.05 102.55 305.13C102.43 305.21 102.34 305.32 102.29 305.45C102.21 305.64 102.16 305.83 102.13 306.04C102.08 306.39 102.08 306.75 102.13 307.1C102.22 307.7 102.46 308.26 102.83 308.74C103.45 309.55 104.1 309.73 104.11 309.68C104.12 309.62 103.62 309.31 103.14 308.53C102.86 308.07 102.68 307.57 102.62 307.04C102.58 306.74 102.58 306.43 102.62 306.12C102.67 305.79 102.8 305.51 102.92 305.54C103.05 305.58 103.35 305.79 103.48 306.06C103.64 306.33 103.78 306.62 103.89 306.92C104.07 307.42 104.17 307.95 104.21 308.49C104.29 309.42 104.13 310.01 104.21 310.03Z" fill="#263238" fill-opacity="1.000000" fill-rule="nonzero"/>
		<path id="Vector" d="M134.33 290.78L147.14 300.91C147.14 300.91 141.15 317.33 143.33 319.44L163.86 295.3L144.54 278.69L134.33 290.78Z" fill="#FB9212" fill-opacity="1.000000" fill-rule="nonzero"/>
		<g opacity="0.600000">
			<path id="Vector" d="M152.44 292.55C152.71 292.38 153.03 292.31 153.34 292.36C153.66 292.41 153.94 292.57 154.14 292.82C154.33 293.08 154.4 293.4 154.35 293.72C154.31 294.03 154.14 294.32 153.89 294.51C153.6 294.69 153.26 294.76 152.93 294.71C152.6 294.65 152.3 294.48 152.08 294.22C151.92 293.92 151.88 293.58 151.97 293.26C152.05 292.93 152.26 292.65 152.55 292.48L152.44 292.55Z" fill="#FFFFFF" fill-opacity="1.000000" fill-rule="nonzero"/>
		</g>
		<g opacity="0.600000">
			<path id="Vector" d="M163.86 295.29L161.94 293.63L142.92 317.44C142.92 317.44 142.47 318.91 143.33 319.43L163.86 295.29Z" fill="#FFFFFF" fill-opacity="1.000000" fill-rule="nonzero"/>
		</g>
		<path id="Vector" d="M146.68 301.19C146.8 301.29 147.37 300.74 148.23 300.5C149.09 300.25 149.86 300.35 149.91 300.21C149.95 300.06 149.12 299.65 148.07 299.98C147.03 300.32 146.55 301.12 146.68 301.19Z" fill="#263238" fill-opacity="1.000000" fill-rule="nonzero"/>
		<path id="Vector" d="M145.57 304.61C145.66 304.74 146.27 304.4 147.14 304.42C148.02 304.44 148.61 304.78 148.7 304.65C148.79 304.53 148.19 303.89 147.15 303.88C146.11 303.88 145.46 304.51 145.57 304.61Z" fill="#263238" fill-opacity="1.000000" fill-rule="nonzero"/>
		<path id="Vector" d="M147.38 308.62C147.5 308.54 147.05 307.87 146.14 307.63C145.24 307.39 144.52 307.72 144.58 307.85C144.63 307.98 145.27 307.94 146.01 308.15C146.74 308.37 147.27 308.74 147.38 308.62Z" fill="#263238" fill-opacity="1.000000" fill-rule="nonzero"/>
		<path id="Vector" d="M144.02 298.55C144.17 298.6 144.47 297.92 145.08 297.29C145.69 296.66 146.34 296.33 146.29 296.17C146.24 296.02 145.39 296.17 144.69 296.92C143.98 297.67 143.85 298.53 144.02 298.55Z" fill="#263238" fill-opacity="1.000000" fill-rule="nonzero"/>
		<g opacity="0.300000">
			<path id="Vector" d="M136.86 292.77L139.15 294.58L149.13 282.63L147.14 280.91L136.86 292.77Z" fill="#000000" fill-opacity="1.000000" fill-rule="nonzero"/>
		</g>
		<path id="Vector" d="M141.47 296.47C141.52 296.51 141.99 296.1 142.49 295.25C142.79 294.75 143.02 294.21 143.19 293.65C143.28 293.32 143.36 292.99 143.41 292.65C143.44 292.45 143.44 292.24 143.41 292.04C143.39 291.9 143.32 291.76 143.22 291.65C143.11 291.55 142.97 291.48 142.83 291.45C142.7 291.45 142.57 291.47 142.45 291.52C142.33 291.57 142.22 291.64 142.13 291.74C142 291.89 141.89 292.06 141.81 292.25C141.65 292.56 141.53 292.88 141.42 293.22C141.26 293.78 141.19 294.37 141.21 294.96C141.17 295.5 141.31 296.04 141.59 296.5C141.67 296.5 141.54 295.9 141.59 294.96C141.64 294.1 141.88 293.25 142.28 292.49C142.43 292.18 142.61 291.96 142.78 291.99C142.95 292.02 142.86 291.99 142.9 292.13C142.92 292.28 142.92 292.43 142.9 292.58C142.85 292.9 142.79 293.21 142.72 293.52C142.58 294.06 142.4 294.58 142.17 295.08C141.9 295.52 141.67 295.98 141.47 296.47Z" fill="#263238" fill-opacity="1.000000" fill-rule="nonzero"/>
		<path id="Vector" d="M141.77 296.46C141.81 296.46 141.59 295.83 140.87 295.15C140.44 294.74 139.95 294.42 139.41 294.18C139.08 294.04 138.75 293.94 138.41 293.86C138.19 293.79 137.96 293.78 137.74 293.82C137.52 293.87 137.31 293.97 137.14 294.12C137.06 294.23 137 294.36 136.98 294.5C136.96 294.64 136.99 294.78 137.05 294.91C137.14 295.09 137.25 295.26 137.39 295.41C137.62 295.68 137.89 295.91 138.2 296.1C138.71 296.42 139.29 296.61 139.89 296.65C140.91 296.71 141.47 296.34 141.44 296.29C140.94 296.33 140.43 296.33 139.93 296.29C139.41 296.2 138.91 296.01 138.47 295.71C138.21 295.54 137.98 295.33 137.78 295.09C137.55 294.83 137.43 294.56 137.53 294.49C137.64 294.42 137.77 294.38 137.9 294.36C138.03 294.35 138.16 294.36 138.29 294.4C138.6 294.46 138.9 294.55 139.2 294.66C139.69 294.86 140.16 295.13 140.59 295.45C141.36 296 141.7 296.51 141.77 296.46Z" fill="#263238" fill-opacity="1.000000" fill-rule="nonzero"/>
		<path id="Vector" d="M98.8 231.65C98.8 231.65 99.65 192.68 98.8 192.68C97.95 192.68 91.94 189.25 91.94 189.25L84.43 247.16C84.43 247.16 83.74 253.67 91.8 258.27C99.87 262.87 135.82 294.83 135.82 294.83L148.01 279.99C148.01 279.99 124.34 255.32 114.7 247.16C107.07 240.81 98.8 231.65 98.8 231.65Z" fill="#263238" fill-opacity="1.000000" fill-rule="nonzero"/>
		<path id="Vector" d="M120.85 222.57L121.67 216.4C121.67 216.4 127.6 203.91 128.45 198.59C129.29 193.27 128.74 181.75 128.74 181.75L91.3 181.75C91.3 181.75 91.46 224.03 95.98 235.89C95.98 235.89 98.27 258.58 98.61 260.48C99.3 264.52 101.82 305.84 101.82 305.84L120.7 305.15C120.7 305.15 122.33 267.16 121.02 256.37C120.38 251.03 120.07 245.34 119.93 240.63C119.75 234.6 120.06 228.56 120.85 222.57Z" fill="#263238" fill-opacity="1.000000" fill-rule="nonzero"/>
		<path id="Vector" d="M92.32 194.09C92.32 194.15 92.32 194.21 92.32 194.27C92.32 194.41 92.32 194.59 92.35 194.82C92.35 195.32 92.41 196.03 92.45 196.9C92.52 198.72 92.66 201.37 92.84 204.63C93.22 211.15 93.92 220.15 94.93 230.07C95.93 239.99 97.06 248.95 97.86 255.44C98.26 258.66 98.56 261.27 98.8 263.12C98.9 264.01 98.99 264.7 99.04 265.2C99.04 265.42 99.08 265.6 99.1 265.75C99.11 265.89 99.1 265.94 99.1 265.94C99.07 265.88 99.06 265.82 99.05 265.76L98.96 265.21L98.65 263.13C98.4 261.29 98.04 258.68 97.6 255.46C96.74 248.98 95.59 240.02 94.56 230.1C93.52 220.17 92.87 211.17 92.56 204.64C92.4 201.37 92.31 198.72 92.28 196.9C92.28 196 92.28 195.3 92.25 194.82L92.25 194.27C92.26 194.21 92.29 194.15 92.32 194.09Z" fill="#455A64" fill-opacity="1.000000" fill-rule="nonzero"/>
		<path id="Vector" d="M119.89 244.12C119.94 244.32 119.98 244.52 120 244.73C120.06 245.16 120.14 245.75 120.24 246.49C120.43 248.03 120.67 250.26 120.88 253.01C121.33 258.53 121.66 266.2 121.79 274.61C121.91 283.02 121.79 290.71 121.45 296.23C121.31 299.01 121.13 301.23 120.99 302.77C120.9 303.51 120.83 304.1 120.79 304.54C120.77 304.74 120.74 304.95 120.7 305.15C120.68 304.95 120.68 304.74 120.7 304.53C120.73 304.09 120.77 303.5 120.83 302.75C120.93 301.21 121.07 298.98 121.18 296.22C121.41 290.7 121.51 283.03 121.4 274.62C121.3 266.21 120.99 258.54 120.61 253.03C120.43 250.26 120.23 248.04 120.09 246.5C120.01 245.76 119.95 245.17 119.9 244.73C119.88 244.53 119.88 244.32 119.89 244.12Z" fill="#455A64" fill-opacity="1.000000" fill-rule="nonzero"/>
		<path id="Vector" d="M127.25 103.15C127.25 103.15 133.38 104.78 134.69 113.92C135.99 123.05 133.58 125.66 133.58 125.66C133.58 125.66 134.57 108.66 126.95 106.34L127.25 103.48L127.25 103.15Z" fill="#263238" fill-opacity="1.000000" fill-rule="nonzero"/>
		<path id="Vector" d="M85.5 132.98L53.87 132.36L54.24 133.89L85.35 134.35L85.5 132.98Z" fill="#263238" fill-opacity="1.000000" fill-rule="nonzero"/>
		<path id="Vector" d="M123.86 106.02C122.67 105.73 121.42 105.84 120.31 106.33C117.74 107.41 113.05 110.49 112.72 119.27L112.18 133.4L132.41 136.05C132.41 136.05 134.13 108.75 123.86 106.02Z" fill="#FB9212" fill-opacity="1.000000" fill-rule="nonzero"/>
		<path id="Vector" d="M86.63 135.97L112.31 143.69L112.69 133.36L128.05 135.6L127.19 152.39C127.1 154.79 126.23 157.09 124.71 158.94C123.18 160.79 121.09 162.09 118.76 162.64C116.07 163.27 113.25 162.86 110.85 161.5L83.6 146L86.63 135.97Z" fill="#FFBE9D" fill-opacity="1.000000" fill-rule="nonzero"/>
		<path id="Vector" d="M132.41 136.05C132.41 136.05 132.41 135.96 132.41 135.81C132.41 135.66 132.41 135.41 132.38 135.12C132.38 134.5 132.33 133.63 132.28 132.52C132.22 130.27 132.11 127.05 131.99 123.07C131.92 121.08 131.86 118.91 131.8 116.57C131.8 115.99 131.77 115.39 131.74 114.79C131.74 114.5 131.69 114.2 131.65 113.89C131.62 113.59 131.55 113.3 131.47 113C130.96 111.06 129.84 109.34 128.28 108.09C126.72 106.83 124.8 106.11 122.8 106.02C121.36 106 119.95 106.41 118.74 107.18C117.49 107.98 116.42 109.03 115.6 110.27C114.44 112.06 113.65 114.06 113.29 116.16C112.94 118.18 112.72 120.21 112.66 122.26C112.55 126.24 112.44 129.99 112.35 133.4L112.22 133.24L126.84 135.24L130.95 135.81L132.05 136.02L132.43 136.09L132.05 136.02L130.99 135.9L126.9 135.4L112.15 133.56L112.02 133.56L112.02 133.42C112.1 130 112.17 126.26 112.3 122.27C112.35 120.21 112.56 118.15 112.92 116.12C113.28 113.97 114.09 111.92 115.28 110.1C116.13 108.81 117.23 107.72 118.53 106.9C119.8 106.09 121.28 105.67 122.78 105.69C124.19 105.75 125.57 106.12 126.83 106.77C128.08 107.42 129.18 108.34 130.04 109.45C130.84 110.48 131.43 111.66 131.76 112.92C131.83 113.23 131.88 113.54 131.95 113.85C132.01 114.17 132.01 114.47 132.03 114.78C132.03 115.39 132.03 115.99 132.08 116.58C132.13 118.94 132.17 121.14 132.21 123.15C132.28 127.13 132.33 130.36 132.38 132.61C132.38 133.7 132.38 134.56 132.41 135.17L132.41 135.86C132.42 135.92 132.42 135.99 132.41 136.05Z" fill="#263238" fill-opacity="1.000000" fill-rule="nonzero"/>
		<path id="Vector" d="M87.15 136.28L80.98 131.72C79.86 130.88 78.11 131.02 76.72 130.93C73.94 130.68 69.41 132.32 69.23 132.64L71.09 134.12L59.12 133.76C59.53 134.57 60.15 135.26 60.92 135.75C61.69 136.24 62.58 136.51 63.5 136.53C63.5 136.53 63.88 139.24 67.35 139.75C67.35 139.75 68.26 141.95 70.19 142.58C70.19 142.58 70.57 145.03 73.66 144.9L84.16 146.08L87.15 136.28Z" fill="#FFBE9D" fill-opacity="1.000000" fill-rule="nonzero"/>
		<path id="Vector" d="M70.98 136.96C69.71 137.07 68.44 137.05 67.18 136.91C65.91 136.91 64.65 136.77 63.41 136.51C64.67 136.41 65.94 136.42 67.2 136.55C68.47 136.57 69.73 136.71 70.98 136.96Z" fill="#EB996E" fill-opacity="1.000000" fill-rule="nonzero"/>
		<path id="Vector" d="M74.02 139.84C72.92 140.02 71.81 140.08 70.7 140.02C69.59 140.08 68.48 140.02 67.38 139.84C68.48 139.66 69.59 139.6 70.7 139.66C71.81 139.6 72.92 139.66 74.02 139.84Z" fill="#EB996E" fill-opacity="1.000000" fill-rule="nonzero"/>
		<path id="Vector" d="M77.27 142.56C76.18 142.75 75.06 142.81 73.95 142.74C72.85 142.81 71.74 142.75 70.64 142.56C71.74 142.39 72.85 142.33 73.95 142.38C75.06 142.33 76.17 142.39 77.27 142.56Z" fill="#EB996E" fill-opacity="1.000000" fill-rule="nonzero"/>
		<path id="Vector" d="M114.01 148.93C113.5 148.15 113.11 147.3 112.87 146.41C112.5 145.56 112.26 144.65 112.17 143.73C112.6 144.55 112.93 145.4 113.18 146.29C113.55 147.14 113.82 148.02 114.01 148.93Z" fill="#EB996E" fill-opacity="1.000000" fill-rule="nonzero"/>
		<path id="Vector" d="M115.83 147.93C115.12 147.27 114.47 146.54 113.89 145.76C113.23 145.05 112.63 144.29 112.11 143.47C112.91 144.05 113.61 144.75 114.19 145.55C114.85 146.26 115.4 147.06 115.83 147.93Z" fill="#EB996E" fill-opacity="1.000000" fill-rule="nonzero"/>
	</g>
</svg>
