<svg width="44.000000" height="43.000000" viewBox="0 0 44 43" fill="none" xmlns="http://www.w3.org/2000/svg" xmlns:xlink="http://www.w3.org/1999/xlink">
	<desc>
			Created with Pixso.
	</desc>
	<defs/>
	<path id="Vector" d="M21.79 -0.88C9.71 -0.88 -0.08 8.91 -0.08 21C-0.08 33.08 9.71 42.87 21.79 42.87C33.87 42.87 43.67 33.08 43.67 21C43.67 8.91 33.87 -0.88 21.79 -0.88ZM32.31 15.61C32.32 15.84 32.32 16.08 32.32 16.31C32.32 23.48 26.86 31.74 16.89 31.74C13.81 31.74 10.96 30.84 8.56 29.31C9 29.35 9.42 29.37 9.87 29.37C12.41 29.37 14.74 28.51 16.6 27.06C14.22 27.01 12.21 25.45 11.53 23.3C12.37 23.42 13.12 23.42 13.98 23.2C12.75 22.95 11.65 22.29 10.86 21.32C10.07 20.35 9.63 19.13 9.64 17.88L9.64 17.81C10.35 18.22 11.2 18.47 12.08 18.5C11.34 18 10.73 17.33 10.31 16.55C9.89 15.76 9.67 14.88 9.67 13.99C9.67 12.98 9.93 12.05 10.4 11.25C11.77 12.93 13.46 14.3 15.39 15.28C17.32 16.25 19.43 16.82 21.58 16.92C20.82 13.24 23.57 10.25 26.88 10.25C28.45 10.25 29.85 10.91 30.84 11.96C32.07 11.73 33.24 11.27 34.29 10.66C33.88 11.91 33.03 12.97 31.9 13.64C33 13.52 34.05 13.22 35.03 12.8C34.29 13.88 33.37 14.84 32.31 15.61Z" fill="#FA8B02" fill-opacity="1.000000" fill-rule="nonzero"/>
</svg>
