<svg width="48.000000" height="48.000000" viewBox="0 0 48 48" fill="none" xmlns="http://www.w3.org/2000/svg" xmlns:xlink="http://www.w3.org/1999/xlink">
	<desc>
			Created with Pixso.
	</desc>
	<defs/>
	<path id="Vector" d="M23.79 0C10.54 0 -0.21 10.74 -0.21 24C-0.21 37.25 10.54 48 23.79 48C37.05 48 47.79 37.25 47.79 24C47.79 10.74 37.05 0 23.79 0ZM29.48 16.58L25.87 16.58C25.45 16.58 24.97 17.14 24.97 17.89L24.97 20.5L29.48 20.5L28.8 24.21L24.97 24.21L24.97 35.36L20.71 35.36L20.71 24.21L16.85 24.21L16.85 20.5L20.71 20.5L20.71 18.31C20.71 15.18 22.89 12.63 25.87 12.63L29.48 12.63L29.48 16.58Z" fill="#FA8B02" fill-opacity="1.000000" fill-rule="nonzero"/>
</svg>
