<svg width="25.000000" height="23.000000" viewBox="0 0 25 23" fill="none" xmlns="http://www.w3.org/2000/svg" xmlns:xlink="http://www.w3.org/1999/xlink">
	<desc>
			Created with Pixso.
	</desc>
	<defs/>
	<path id="Vector" d="M11.97 -0.43C14.32 -0.43 16.68 -0.43 19.04 -0.43C19.98 -0.43 20.84 -0.26 21.34 0.67C21.53 1 21.64 1.36 21.64 1.73C21.64 2.17 21.64 2.6 21.64 3.03C21.64 3.85 21.64 3.85 22.45 3.92C23.62 4.03 24.37 5.45 23.8 6.47C23.76 6.56 23.69 6.63 23.6 6.68C23.51 6.73 23.41 6.74 23.31 6.73C23.22 6.72 23.13 6.67 23.05 6.61C22.98 6.54 22.93 6.45 22.91 6.35C22.88 6.14 22.87 5.93 22.88 5.71C22.91 5.17 22.64 4.97 22.13 4.99C21.77 5 21.62 5.14 21.64 5.49C21.66 5.64 21.64 5.8 21.64 5.96C21.64 9.9 21.64 13.85 21.64 17.8C21.64 18.86 21.42 19.18 20.37 19.46C20.06 19.55 19.96 19.71 19.97 20C19.97 20.35 19.98 20.7 19.96 21.06C19.95 21.38 19.83 21.68 19.62 21.92C19.41 22.15 19.12 22.31 18.81 22.35C18.28 22.43 17.75 22.44 17.22 22.38C16.36 22.27 15.95 21.81 15.93 20.92C15.92 20.59 15.92 20.25 15.93 19.92C15.93 19.63 15.79 19.49 15.5 19.49C13.14 19.49 10.78 19.49 8.43 19.49C8.1 19.49 7.96 19.64 7.97 19.96C7.98 20.29 7.98 20.63 7.97 20.96C7.94 21.81 7.53 22.27 6.7 22.38C6.17 22.45 5.64 22.44 5.11 22.35C4.8 22.32 4.51 22.17 4.29 21.94C4.08 21.7 3.95 21.4 3.93 21.09C3.92 20.97 3.92 20.85 3.93 20.73C3.99 20.04 4 19.46 3.05 19.3C2.4 19.18 2.25 18.53 2.25 17.88C2.26 13.94 2.25 9.99 2.25 6.04C2.25 5.89 2.24 5.73 2.25 5.57C2.28 5.19 2.17 4.97 1.73 4.99C1.33 5 1.03 5.09 1.03 5.57C1.03 5.82 1.02 6.08 0.99 6.33C0.98 6.44 0.93 6.55 0.84 6.62C0.76 6.7 0.65 6.74 0.54 6.73C0.48 6.74 0.42 6.74 0.36 6.72C0.3 6.7 0.25 6.67 0.2 6.63C0.16 6.6 0.12 6.55 0.09 6.5C0.06 6.44 0.05 6.39 0.04 6.33C-0.1 5.19 0.01 3.94 1.72 3.93C2.13 3.93 2.26 3.74 2.25 3.35C2.23 2.82 2.23 2.29 2.25 1.76C2.28 0.58 3.03 -0.23 4.19 -0.37C4.51 -0.41 4.82 -0.43 5.14 -0.43C7.41 -0.43 9.69 -0.43 11.97 -0.43ZM11.95 3.84C9.26 3.84 6.57 3.84 3.88 3.84C3.5 3.84 3.23 3.87 3.24 4.36C3.26 6.05 3.25 7.74 3.24 9.43C3.24 9.76 3.37 9.93 3.69 10.01C6.13 10.56 8.58 11 11.09 11.07C14.13 11.16 17.11 10.72 20.07 10.03C20.49 9.94 20.66 9.75 20.65 9.32C20.63 7.73 20.62 6.14 20.66 4.55C20.67 3.96 20.45 3.83 19.9 3.83C17.25 3.85 14.6 3.84 11.95 3.84L11.95 3.84ZM11.95 18.42C14.64 18.42 17.33 18.42 20.02 18.42C20.52 18.42 20.65 18.18 20.66 17.72C20.66 17.27 20.49 17.09 20.03 17.11C19.48 17.13 18.93 17.13 18.38 17.1C17.91 17.06 17.47 16.85 17.16 16.5C16.84 16.15 16.67 15.69 16.68 15.22C16.69 14.75 16.89 14.3 17.22 13.97C17.56 13.64 18.01 13.45 18.48 13.44C19.05 13.43 19.62 13.43 20.19 13.44C20.51 13.44 20.65 13.3 20.65 12.98C20.64 12.51 20.62 12.04 20.65 11.57C20.69 11.06 20.55 10.91 20.02 11.06C17.54 11.79 14.98 12.03 12.4 12.06C9.49 12.1 6.6 11.84 3.78 11.04C3.41 10.94 3.22 10.98 3.24 11.42C3.27 11.93 3.26 12.44 3.24 12.95C3.23 13.31 3.39 13.45 3.74 13.44C4.27 13.43 4.8 13.43 5.33 13.44C6.35 13.46 7.19 14.27 7.21 15.24C7.24 16.2 6.4 17.06 5.38 17.11C4.86 17.13 4.32 17.13 3.79 17.11C3.39 17.1 3.23 17.26 3.23 17.66C3.23 18.29 3.33 18.41 3.99 18.41C6.64 18.42 9.29 18.42 11.95 18.42L11.95 18.42ZM11.96 2.85L14.26 2.85C16.18 2.85 18.1 2.85 20.02 2.85C20.26 2.85 20.54 2.91 20.64 2.55C20.92 1.45 20.31 0.62 19.18 0.61C14.35 0.61 9.52 0.61 4.7 0.61C3.67 0.61 3.27 1.02 3.25 2.03C3.23 2.81 3.25 2.84 4.07 2.84L11.96 2.85ZM4.51 16.06C4.78 16.06 5.05 16.06 5.33 16.06C5.82 16.06 6.1 15.82 6.14 15.33C6.18 14.86 5.89 14.5 5.38 14.47C4.95 14.43 4.52 14.45 4.09 14.45C3.24 14.45 3.24 14.45 3.24 15.28C3.24 16.05 3.26 16.06 4.04 16.07L4.51 16.06ZM19.29 16.06C20.74 16.07 20.74 16.07 20.64 14.9C20.64 14.86 20.64 14.82 20.63 14.78C20.64 14.73 20.63 14.69 20.62 14.65C20.6 14.61 20.58 14.57 20.54 14.54C20.51 14.51 20.47 14.48 20.43 14.47C20.39 14.45 20.35 14.45 20.3 14.45C19.68 14.45 19.04 14.42 18.42 14.48C17.99 14.52 17.73 14.83 17.75 15.29C17.77 15.78 18.03 16.05 18.53 16.06C18.78 16.06 19.04 16.06 19.29 16.06L19.29 16.06ZM6.96 20.39C6.96 19.49 6.96 19.49 6.12 19.49C4.99 19.49 4.99 19.49 4.99 20.29C4.99 21.35 5 21.36 5.95 21.37C6.93 21.37 6.96 21.34 6.96 20.39ZM17.9 19.48C16.93 19.48 16.93 19.48 16.93 20.32C16.93 21.34 16.95 21.36 17.92 21.36C18.88 21.36 18.9 21.34 18.9 20.36C18.9 19.48 18.9 19.48 17.9 19.48Z" fill="#FA8B02" fill-opacity="1.000000" fill-rule="nonzero"/>
	<path id="Vector" d="M19.04 -0.43C19.98 -0.43 20.84 -0.26 21.34 0.67C21.53 1 21.64 1.36 21.64 1.73C21.64 2.17 21.64 2.6 21.64 3.03C21.64 3.85 21.64 3.85 22.45 3.92C23.62 4.03 24.37 5.45 23.8 6.47C23.76 6.56 23.69 6.63 23.6 6.68C23.51 6.73 23.41 6.74 23.31 6.73C23.22 6.72 23.13 6.67 23.05 6.61C22.98 6.54 22.93 6.45 22.91 6.35C22.88 6.14 22.87 5.93 22.88 5.71C22.91 5.17 22.64 4.97 22.13 4.99C21.77 5 21.62 5.14 21.64 5.49C21.66 5.64 21.64 5.8 21.64 5.96C21.64 9.9 21.64 13.85 21.64 17.8C21.64 18.86 21.42 19.18 20.37 19.46C20.06 19.55 19.96 19.71 19.97 20C19.97 20.35 19.98 20.7 19.96 21.06C19.95 21.38 19.83 21.68 19.62 21.92C19.41 22.15 19.12 22.31 18.81 22.35C18.28 22.43 17.75 22.44 17.22 22.38C16.36 22.27 15.95 21.81 15.93 20.92C15.92 20.59 15.92 20.25 15.93 19.92C15.93 19.63 15.79 19.49 15.5 19.49C13.14 19.49 10.78 19.49 8.43 19.49C8.1 19.49 7.96 19.64 7.97 19.96C7.98 20.29 7.98 20.63 7.97 20.96C7.94 21.81 7.53 22.27 6.7 22.38C6.17 22.45 5.64 22.44 5.11 22.35C4.8 22.32 4.51 22.17 4.29 21.94C4.08 21.7 3.95 21.4 3.93 21.09C3.92 20.97 3.92 20.85 3.93 20.73C3.99 20.04 4 19.46 3.05 19.3C2.4 19.18 2.25 18.53 2.25 17.88C2.26 13.94 2.25 9.99 2.25 6.04C2.25 5.89 2.24 5.73 2.25 5.57C2.28 5.19 2.17 4.97 1.73 4.99C1.33 5 1.03 5.09 1.03 5.57C1.03 5.82 1.02 6.08 0.99 6.33C0.98 6.44 0.93 6.55 0.84 6.62C0.76 6.7 0.65 6.74 0.54 6.73C0.48 6.74 0.42 6.74 0.36 6.72C0.3 6.7 0.25 6.67 0.2 6.63C0.16 6.6 0.12 6.55 0.09 6.5C0.06 6.44 0.05 6.39 0.04 6.33C-0.1 5.19 0.01 3.94 1.72 3.93C2.13 3.93 2.26 3.74 2.25 3.35C2.23 2.82 2.23 2.29 2.25 1.76C2.28 0.58 3.03 -0.23 4.19 -0.37C4.51 -0.41 4.82 -0.43 5.14 -0.43C7.41 -0.43 9.69 -0.43 11.97 -0.43C14.32 -0.43 16.68 -0.43 19.04 -0.43ZM3.88 3.84C3.5 3.84 3.23 3.87 3.24 4.36C3.26 6.05 3.25 7.74 3.24 9.43C3.24 9.76 3.37 9.93 3.69 10.01C6.13 10.56 8.58 11 11.09 11.07C14.13 11.16 17.11 10.72 20.07 10.03C20.49 9.94 20.66 9.75 20.65 9.32C20.63 7.73 20.62 6.14 20.66 4.55C20.67 3.96 20.45 3.83 19.9 3.83C17.25 3.85 14.6 3.84 11.95 3.84L11.95 3.84C9.26 3.84 6.57 3.84 3.88 3.84ZM20.02 18.42C20.52 18.42 20.65 18.18 20.66 17.72C20.66 17.27 20.49 17.09 20.03 17.11C19.48 17.13 18.93 17.13 18.38 17.1C17.91 17.06 17.47 16.85 17.16 16.5C16.84 16.15 16.67 15.69 16.68 15.22C16.69 14.75 16.89 14.3 17.22 13.97C17.56 13.64 18.01 13.45 18.48 13.44C19.05 13.43 19.62 13.43 20.19 13.44C20.51 13.44 20.65 13.3 20.65 12.98C20.64 12.51 20.62 12.04 20.65 11.57C20.69 11.06 20.55 10.91 20.02 11.06C17.54 11.79 14.98 12.03 12.4 12.06C9.49 12.1 6.6 11.84 3.78 11.04C3.41 10.94 3.22 10.98 3.24 11.42C3.27 11.93 3.26 12.44 3.24 12.95C3.23 13.31 3.39 13.45 3.74 13.44C4.27 13.43 4.8 13.43 5.33 13.44C6.35 13.46 7.19 14.27 7.21 15.24C7.24 16.2 6.4 17.06 5.38 17.11C4.86 17.13 4.32 17.13 3.79 17.11C3.39 17.1 3.23 17.26 3.23 17.66C3.23 18.29 3.33 18.41 3.99 18.41C6.64 18.42 9.29 18.42 11.95 18.42L11.95 18.42C14.64 18.42 17.33 18.42 20.02 18.42ZM14.26 2.85C16.18 2.85 18.1 2.85 20.02 2.85C20.26 2.85 20.54 2.91 20.64 2.55C20.92 1.45 20.31 0.62 19.18 0.61C14.35 0.61 9.52 0.61 4.7 0.61C3.67 0.61 3.27 1.02 3.25 2.03C3.23 2.81 3.25 2.84 4.07 2.84L11.96 2.85L14.26 2.85ZM5.33 16.06C5.82 16.06 6.1 15.82 6.14 15.33C6.18 14.86 5.89 14.5 5.38 14.47C4.95 14.43 4.52 14.45 4.09 14.45C3.24 14.45 3.24 14.45 3.24 15.28C3.24 16.05 3.26 16.06 4.04 16.07L4.51 16.06C4.78 16.06 5.05 16.06 5.33 16.06ZM20.64 14.9C20.64 14.86 20.64 14.82 20.63 14.78C20.64 14.73 20.63 14.69 20.62 14.65C20.6 14.61 20.58 14.57 20.54 14.54C20.51 14.51 20.47 14.48 20.43 14.47C20.39 14.45 20.35 14.45 20.3 14.45C19.68 14.45 19.04 14.42 18.42 14.48C17.99 14.52 17.73 14.83 17.75 15.29C17.77 15.78 18.03 16.05 18.53 16.06C18.78 16.06 19.04 16.06 19.29 16.06L19.29 16.06C20.74 16.07 20.74 16.07 20.64 14.9ZM6.12 19.49C4.99 19.49 4.99 19.49 4.99 20.29C4.99 21.35 5 21.36 5.95 21.37C6.93 21.37 6.96 21.34 6.96 20.39C6.96 19.49 6.96 19.49 6.12 19.49ZM16.93 20.32C16.93 21.34 16.95 21.36 17.92 21.36C18.88 21.36 18.9 21.34 18.9 20.36C18.9 19.48 18.9 19.48 17.9 19.48C16.93 19.48 16.93 19.48 16.93 20.32Z" stroke="#FA8B02" stroke-opacity="1.000000" stroke-width="0.500000"/>
</svg>
