<svg width="23.000000" height="23.000000" viewBox="0 0 23 23" fill="none" xmlns="http://www.w3.org/2000/svg" xmlns:xlink="http://www.w3.org/1999/xlink">
	<desc>
			Created with Pixso.
	</desc>
	<defs/>
	<path id="Vector" d="M9.24 12.76C10.63 14.17 12.32 15.26 14.17 15.95L16.69 13.95C16.76 13.9 16.85 13.87 16.94 13.87C17.03 13.87 17.12 13.9 17.2 13.95L21.86 16.96C22.04 17.06 22.19 17.21 22.3 17.38C22.41 17.56 22.48 17.75 22.5 17.96C22.52 18.17 22.5 18.37 22.42 18.57C22.35 18.76 22.23 18.93 22.08 19.08L19.9 21.24C19.58 21.54 19.2 21.77 18.78 21.9C18.35 22.02 17.91 22.04 17.48 21.95C13.18 21.06 9.21 18.98 6.04 15.95C2.94 12.89 0.79 8.99 -0.14 4.73C-0.23 4.3 -0.21 3.86 -0.08 3.45C0.05 3.03 0.28 2.66 0.59 2.36L2.86 0.18C3 0.03 3.17 -0.08 3.36 -0.15C3.55 -0.22 3.75 -0.24 3.95 -0.22C4.15 -0.2 4.35 -0.14 4.52 -0.03C4.69 0.08 4.83 0.22 4.94 0.39L8.05 5C8.1 5.07 8.13 5.16 8.13 5.25C8.13 5.34 8.1 5.42 8.05 5.5L6 7.96C6.71 9.78 7.82 11.42 9.24 12.76Z" fill="#FA8B02" fill-opacity="1.000000" fill-rule="nonzero"/>
</svg>
