<svg width="21.000000" height="14.000000" viewBox="0 0 21 14" fill="none" xmlns="http://www.w3.org/2000/svg" xmlns:xlink="http://www.w3.org/1999/xlink">
	<desc>
			Created with Pixso.
	</desc>
	<defs/>
	<path id="Vector" d="M-0.5 6.49C-0.5 6.3 -0.43 6.11 -0.29 5.96C-0.14 5.82 0.05 5.74 0.25 5.74L17.93 5.74L13.21 1.03C13.07 0.89 12.99 0.69 12.99 0.49C12.99 0.3 13.07 0.1 13.21 -0.04C13.35 -0.18 13.55 -0.26 13.75 -0.26C13.94 -0.26 14.14 -0.18 14.28 -0.04L20.28 5.96C20.35 6.03 20.4 6.12 20.44 6.21C20.48 6.3 20.5 6.4 20.5 6.49C20.5 6.59 20.48 6.69 20.44 6.78C20.4 6.87 20.35 6.96 20.28 7.03L14.28 13.03C14.14 13.17 13.94 13.25 13.75 13.25C13.55 13.25 13.35 13.17 13.21 13.03C13.07 12.89 12.99 12.69 12.99 12.5C12.99 12.3 13.07 12.1 13.21 11.96L17.93 7.24L0.25 7.24C0.05 7.24 -0.14 7.17 -0.29 7.03C-0.43 6.88 -0.5 6.69 -0.5 6.49Z" fill="#FA8B02" fill-opacity="1.000000" fill-rule="evenodd"/>
</svg>
