<svg width="17.000000" height="22.000000" viewBox="0 0 17 22" fill="none" xmlns="http://www.w3.org/2000/svg" xmlns:xlink="http://www.w3.org/1999/xlink">
	<desc>
			Created with Pixso.
	</desc>
	<defs/>
	<path id="Vector" d="M7.59 22C6.05 20.68 4.62 19.24 3.32 17.68C1.36 15.35 -0.96 11.87 -0.96 8.55C-0.96 6.86 -0.46 5.21 0.48 3.8C1.42 2.39 2.76 1.29 4.32 0.65C5.88 0 7.61 -0.17 9.27 0.16C10.93 0.49 12.45 1.31 13.65 2.5C14.44 3.3 15.07 4.24 15.5 5.28C15.93 6.32 16.15 7.43 16.15 8.55C16.15 11.87 13.83 15.35 11.87 17.68C10.57 19.24 9.14 20.68 7.59 22ZM7.59 4.89C6.62 4.89 5.69 5.27 5 5.96C4.32 6.65 3.93 7.58 3.93 8.55C3.93 9.53 4.32 10.46 5 11.15C5.69 11.83 6.62 12.22 7.59 12.22C8.57 12.22 9.5 11.83 10.19 11.15C10.87 10.46 11.26 9.53 11.26 8.55C11.26 7.58 10.87 6.65 10.19 5.96C9.5 5.27 8.57 4.89 7.59 4.89Z" fill="#FA8B02" fill-opacity="1.000000" fill-rule="nonzero"/>
</svg>
