<svg width="22.000000" height="19.000000" viewBox="0 0 22 19" fill="none" xmlns="http://www.w3.org/2000/svg" xmlns:xlink="http://www.w3.org/1999/xlink">
	<desc>
			Created with Pixso.
	</desc>
	<defs/>
	<path id="Vector" d="M2.76 -0.17C1.79 -0.17 0.86 0.21 0.17 0.9C-0.52 1.59 -0.91 2.52 -0.91 3.49L-0.91 3.86L10.09 9.79L21.09 3.87L21.09 3.49C21.09 2.52 20.71 1.59 20.02 0.9C19.33 0.21 18.4 -0.17 17.43 -0.17L2.76 -0.17ZM21.09 5.95L10.53 11.63C10.4 11.71 10.25 11.74 10.09 11.74C9.94 11.74 9.79 11.71 9.66 11.63L-0.91 5.95L-0.91 14.49C-0.91 15.47 -0.52 16.4 0.17 17.09C0.86 17.78 1.79 18.16 2.76 18.16L17.43 18.16C18.4 18.16 19.33 17.78 20.02 17.09C20.71 16.4 21.09 15.47 21.09 14.49L21.09 5.95Z" fill="#FA8B02" fill-opacity="1.000000" fill-rule="nonzero"/>
</svg>
