<svg width="21.000000" height="13.000000" viewBox="0 0 21 13" fill="none" xmlns="http://www.w3.org/2000/svg" xmlns:xlink="http://www.w3.org/1999/xlink">
	<desc>
			Created with Pixso.
	</desc>
	<defs/>
	<path id="Vector" d="M20.5 6C20.5 5.8 20.42 5.61 20.28 5.46C20.13 5.32 19.94 5.25 19.75 5.25L2.06 5.25L6.78 0.53C6.92 0.39 7 0.19 7 0C7 -0.2 6.92 -0.4 6.78 -0.54C6.64 -0.68 6.44 -0.76 6.25 -0.76C6.05 -0.76 5.85 -0.68 5.71 -0.54L-0.29 5.46C-0.36 5.53 -0.41 5.62 -0.45 5.71C-0.49 5.8 -0.51 5.9 -0.51 6C-0.51 6.09 -0.49 6.19 -0.45 6.28C-0.41 6.37 -0.36 6.46 -0.29 6.53L5.71 12.53C5.85 12.67 6.05 12.75 6.25 12.75C6.44 12.75 6.64 12.67 6.78 12.53C6.92 12.39 7 12.19 7 12C7 11.8 6.92 11.6 6.78 11.46L2.06 6.75L19.75 6.75C19.94 6.75 20.13 6.67 20.28 6.53C20.42 6.38 20.5 6.19 20.5 6Z" fill="#333333" fill-opacity="1.000000" fill-rule="evenodd"/>
</svg>
