<svg width="40.000000" height="30.000000" viewBox="0 0 40 30" fill="none" xmlns="http://www.w3.org/2000/svg" xmlns:xlink="http://www.w3.org/1999/xlink">
	<desc>
			Created with Pixso.
	</desc>
	<defs/>
	<rect id="Visa" rx="12.000000" width="40.000000" height="30.000000" transform="translate(-0.500000 -0.500000)" fill="#FFFFFF" fill-opacity="0"/>
	<rect id="BASE" width="40.000000" height="30.000000" transform="translate(-0.500000 -0.500000)" fill="#FFFFFF" fill-opacity="0"/>
	<rect id="BASE" x="-0.500000" y="-0.500000" rx="4.000000" width="40.000000" height="30.000000" fill="#FFFFFF" fill-opacity="1.000000"/>
	<rect id="BASE" rx="4.000000" width="39.000000" height="29.000000" stroke="#B2BCCA" stroke-opacity="1.000000" stroke-width="1.000000"/>
	<path id="visa-logo" d="M22.917 11.6672C22.4453 11.6672 22.042 11.9591 21.9746 12.4697C21.9746 13.5627 25.1387 13.7081 25.1387 16.1875C25.1387 18.1564 23.5908 19.4681 21.0996 19.3961C20.292 19.3961 19.417 19.2495 18.6094 18.8856L19.0137 16.8434C19.7529 17.2086 20.5615 17.4272 21.3691 17.4272C22.042 17.4272 22.7148 17.1353 22.7148 16.4794C22.7822 16.0422 22.4453 15.7502 21.5713 15.313C20.7627 14.8745 19.6182 14.1466 19.6182 12.7603C19.6182 10.938 21.2344 9.625 23.4561 9.625C24.1279 9.625 24.8691 9.77161 25.542 10.0635L25.1387 12.1044C24.4648 11.7405 23.6582 11.5939 22.917 11.6672ZM9.72461 19.3228L12.1475 19.3228L15.7822 9.84357L13.4258 9.84357L11.0039 16.2607L10.0615 10.7914C9.99414 10.2821 9.58984 9.84357 9.05078 9.84357L5.14746 9.84357L5.14746 10.1355C5.95605 10.2821 6.69629 10.5728 7.36816 10.9379C7.6377 11.0833 7.82129 11.3917 7.90723 11.7404L9.72461 19.3228ZM17.1289 19.3228L14.8408 19.3228L16.7246 9.84357L19.0137 9.84357L17.1289 19.3228ZM33.1475 19.3228L31.3301 9.84357L29.3789 9.84357C28.9746 9.84357 28.5703 10.1355 28.4355 10.5728L25.0703 19.3228L27.4268 19.3228L27.8965 17.9377L30.791 17.9377L31.0605 19.3228L33.1475 19.3228ZM30.3877 15.9688L29.7148 12.3962L28.5029 15.9688L30.3877 15.9688Z" clip-rule="evenodd" fill="#28356A" fill-opacity="1.000000" fill-rule="evenodd"/>
</svg>
