<svg width="40.000000" height="30.000000" viewBox="0 0 40 30" fill="none" xmlns="http://www.w3.org/2000/svg" xmlns:xlink="http://www.w3.org/1999/xlink">
	<desc>
			Created with Pixso.
	</desc>
	<defs/>
	<rect id="Visa" rx="12.000000" width="40.000000" height="30.000000" transform="translate(-0.947266 0.000000)" fill="#FFFFFF" fill-opacity="0"/>
	<rect id="BASE" width="40.000000" height="30.000000" transform="translate(-0.947266 0.000000)" fill="#FFFFFF" fill-opacity="0"/>
	<rect id="BASE" x="-0.947266" rx="4.000000" width="40.000000" height="30.000000" fill="#FFFFFF" fill-opacity="1.000000"/>
	<rect id="BASE" x="-0.447266" y="0.500000" rx="4.000000" width="39.000000" height="29.000000" stroke="#B2BCCA" stroke-opacity="1.000000" stroke-width="1.000000"/>
	<path id="visa-logo" d="M22.4692 12.1672C21.998 12.1672 21.5938 12.4591 21.5264 12.9697C21.5264 14.0627 24.6904 14.2081 24.6904 16.6875C24.6904 18.6564 23.1426 19.9681 20.6523 19.8961C19.8442 19.8961 18.9697 19.7495 18.1616 19.3856L18.5654 17.3434C19.3052 17.7086 20.1133 17.9272 20.9214 17.9272C21.5938 17.9272 22.2671 17.6353 22.2671 16.9794C22.3345 16.5422 21.998 16.2502 21.1235 15.813C20.3154 15.3745 19.1704 14.6466 19.1704 13.2603C19.1704 11.438 20.7866 10.125 23.0078 10.125C23.6802 10.125 24.4209 10.2716 25.0947 10.5635L24.6904 12.6044C24.0171 12.2405 23.21 12.0939 22.4692 12.1672ZM9.27686 19.8228L11.7002 19.8228L15.3345 10.3436L12.9785 10.3436L10.5562 16.7607L9.61328 11.2914C9.54639 10.7821 9.14209 10.3436 8.60352 10.3436L4.69971 10.3436L4.69971 10.6355C5.50781 10.7821 6.24854 11.0728 6.9209 11.4379C7.19043 11.5833 7.37354 11.8917 7.45947 12.2404L9.27686 19.8228ZM16.6812 19.8228L14.3926 19.8228L16.2773 10.3436L18.5654 10.3436L16.6812 19.8228ZM32.6997 19.8228L30.8823 10.3436L28.9307 10.3436C28.5269 10.3436 28.1226 10.6355 27.9878 11.0728L24.623 19.8228L26.979 19.8228L27.4492 18.4377L30.3438 18.4377L30.6133 19.8228L32.6997 19.8228ZM29.9399 16.4688L29.2676 12.8962L28.0552 16.4688L29.9399 16.4688Z" clip-rule="evenodd" fill="#28356A" fill-opacity="1.000000" fill-rule="evenodd"/>
</svg>
