<svg width="15.000000" height="24.000000" viewBox="0 0 15 24" fill="none" xmlns="http://www.w3.org/2000/svg" xmlns:xlink="http://www.w3.org/1999/xlink">
	<desc>
			Created with Pixso.
	</desc>
	<defs/>
	<path id="Vector" d="M4.21 16.87C3.62 16.11 3.06 15.4 2.5 14.68C1.54 13.42 0.58 12.16 -0.05 10.69C-0.71 9.12 -0.83 7.37 -0.4 5.72C0.04 4.07 1 2.61 2.35 1.57C3.69 0.55 5.32 -0.01 7 0C8.68 0 10.32 0.55 11.65 1.57C13 2.62 13.96 4.08 14.39 5.73C14.82 7.38 14.69 9.13 14.03 10.7C13.41 12.14 12.48 13.38 11.54 14.61C11.06 15.24 10.57 15.88 10.06 16.5C9.81 16.81 9.79 16.92 10.24 17C11.25 17.15 12.23 17.43 13.13 17.92C13.51 18.12 13.86 18.39 14.16 18.7C14.79 19.42 14.79 20.3 14.14 21C13.53 21.67 12.74 22.02 11.91 22.29C9.87 22.93 7.77 23.1 5.64 22.94C4.16 22.83 2.69 22.61 1.32 21.99C0.84 21.79 0.4 21.51 0.02 21.17C-0.85 20.33 -0.85 19.34 0.04 18.51C0.71 17.89 1.55 17.55 2.42 17.3C2.98 17.14 3.57 17.02 4.21 16.87ZM13.71 7.81C13.71 4.11 11.02 1.18 7.5 0.91C5.8 0.78 4.12 1.31 2.79 2.37C1.46 3.43 0.58 4.96 0.33 6.64C0.05 8.55 0.54 10.28 1.58 11.86C3.18 14.29 5.14 16.44 6.8 18.82C6.97 19.05 7.07 18.98 7.2 18.79C7.42 18.48 7.65 18.17 7.88 17.86C9.32 15.9 10.93 14.08 12.27 12.04C13.15 10.71 13.75 9.28 13.71 7.81ZM6.97 22.09C7.91 22.09 8.84 22.02 9.76 21.87C10.44 21.77 11.1 21.61 11.75 21.39C12.33 21.17 12.9 20.94 13.36 20.51C13.82 20.09 13.84 19.61 13.36 19.18C13.14 19 12.91 18.84 12.66 18.71C11.68 18.17 10.6 17.97 9.51 17.78C9.2 17.72 9.02 17.83 8.85 18.08C8.4 18.7 7.94 19.31 7.49 19.93C7.12 20.43 6.86 20.42 6.49 19.91C6.23 19.56 5.98 19.21 5.72 18.86C4.84 17.66 4.84 17.66 3.37 17.99C2.47 18.19 1.6 18.46 0.84 19.01C0.07 19.56 0.08 20.17 0.86 20.71C1.3 21.01 1.79 21.25 2.3 21.41C3.82 21.9 5.39 22.06 6.97 22.09Z" fill="#FA8B02" fill-opacity="1.000000" fill-rule="nonzero"/>
	<path id="Vector" d="M1.02 12.82Q1.49 13.52 2.42 14.74L2.43 14.75L4.03 16.81Q3.88 16.84 3.65 16.89Q2.8 17.09 2.39 17.21Q1.65 17.41 1.11 17.68Q0.45 17.99 -0.03 18.44Q-0.38 18.76 -0.55 19.11Q-0.7 19.41 -0.73 19.71Q-0.73 19.77 -0.73 19.83Q-0.73 19.88 -0.73 19.93Q-0.71 20.25 -0.56 20.56Q-0.39 20.91 -0.05 21.24L-0.05 21.24L-0.05 21.24Q0.25 21.51 0.58 21.72Q0.91 21.93 1.28 22.08Q2.24 22.51 3.42 22.75Q4.37 22.94 5.63 23.04Q9.06 23.3 11.94 22.38Q12.65 22.16 13.16 21.88Q13.78 21.54 14.21 21.07Q14.61 20.64 14.7 20.15Q14.73 20.01 14.73 19.86Q14.73 19.71 14.71 19.57Q14.62 19.08 14.23 18.64L14.23 18.64L14.23 18.64Q14 18.39 13.74 18.19Q13.47 17.99 13.18 17.83Q11.95 17.16 10.26 16.9Q10.1 16.87 10.03 16.84Q9.99 16.82 9.99 16.81Q9.97 16.76 10.14 16.56Q10.63 15.97 11.57 14.74L11.62 14.67Q12.54 13.47 12.99 12.79Q13.7 11.71 14.12 10.74Q14.37 10.14 14.52 9.52Q14.67 8.9 14.72 8.25Q14.77 7.61 14.71 6.97Q14.65 6.33 14.49 5.71Q14.33 5.08 14.07 4.49Q13.81 3.91 13.45 3.37Q13.1 2.83 12.66 2.37Q12.23 1.89 11.71 1.49Q11.21 1.11 10.65 0.81Q10.09 0.51 9.49 0.31Q8.88 0.1 8.26 0Q7.64 -0.1 7 -0.11Q6.37 -0.11 5.74 0Q5.12 0.1 4.52 0.3Q3.92 0.51 3.37 0.8Q2.8 1.1 2.29 1.49Q1.78 1.88 1.34 2.35Q0.91 2.82 0.55 3.36Q0.19 3.9 -0.07 4.48Q-0.33 5.07 -0.49 5.69Q-0.66 6.32 -0.72 6.96Q-0.78 7.59 -0.73 8.24Q-0.69 8.88 -0.54 9.5Q-0.39 10.13 -0.14 10.73Q0.29 11.72 1.02 12.82ZM13.13 17.92C12.23 17.43 11.25 17.15 10.24 17C9.79 16.92 9.81 16.81 10.06 16.5C10.57 15.88 11.06 15.24 11.54 14.61C12.48 13.38 13.41 12.14 14.03 10.7C14.69 9.13 14.82 7.38 14.39 5.73C13.96 4.08 13 2.62 11.65 1.57C10.32 0.55 8.68 0 7 0C5.32 -0.01 3.69 0.55 2.35 1.57C1 2.61 0.04 4.07 -0.4 5.72C-0.83 7.37 -0.71 9.12 -0.05 10.69C0.58 12.16 1.54 13.42 2.5 14.68C3.04 15.37 3.58 16.06 4.14 16.78C4.16 16.81 4.19 16.84 4.21 16.87C4.17 16.88 4.14 16.89 4.1 16.89C3.5 17.03 2.95 17.15 2.42 17.3C1.55 17.55 0.71 17.89 0.04 18.51C-0.85 19.34 -0.85 20.33 0.02 21.17C0.4 21.51 0.84 21.79 1.32 21.99C2.69 22.61 4.16 22.83 5.64 22.94C7.77 23.1 9.87 22.93 11.91 22.29C12.74 22.02 13.53 21.67 14.14 21C14.79 20.3 14.79 19.42 14.16 18.7C13.86 18.39 13.51 18.12 13.13 17.92ZM13.71 7.81C13.71 4.11 11.02 1.18 7.5 0.91C5.8 0.78 4.12 1.31 2.79 2.37C1.46 3.43 0.58 4.96 0.33 6.64C0.05 8.55 0.54 10.28 1.58 11.86C3.18 14.29 5.14 16.44 6.8 18.82C6.97 19.05 7.07 18.98 7.2 18.79C7.42 18.48 7.65 18.17 7.88 17.86C9.32 15.9 10.93 14.08 12.27 12.04C13.15 10.71 13.75 9.28 13.71 7.81ZM7.49 1.01L7.49 1.01Q8.25 1.07 8.96 1.29Q9.45 1.44 9.91 1.67Q10.41 1.92 10.86 2.25Q11.4 2.64 11.85 3.14Q12.2 3.52 12.48 3.95Q12.88 4.55 13.15 5.24Q13.28 5.59 13.37 5.94Q13.62 6.84 13.62 7.81L13.62 7.81L13.62 7.81Q13.66 9.75 12.19 11.99Q11.64 12.81 10.9 13.8Q10.45 14.39 9.53 15.55Q8.36 17.04 7.8 17.8Q7.73 17.9 7.59 18.08Q7.27 18.51 7.12 18.73Q7.03 18.86 6.99 18.87Q6.99 18.87 6.97 18.86Q6.93 18.83 6.88 18.76Q6.38 18.04 5.71 17.17Q5.32 16.65 4.5 15.62Q3.52 14.37 3.04 13.74Q2.25 12.69 1.67 11.81Q0.58 10.15 0.39 8.4Q0.3 7.54 0.43 6.66Q0.52 6.03 0.73 5.45Q0.93 4.87 1.24 4.32Q1.56 3.78 1.96 3.31Q2.36 2.84 2.85 2.45Q3.34 2.05 3.89 1.76Q4.43 1.48 5.04 1.29Q5.64 1.1 6.25 1.03Q6.86 0.96 7.49 1.01ZM9.76 21.87C8.84 22.02 7.91 22.09 6.97 22.09C5.39 22.06 3.82 21.9 2.3 21.41C1.79 21.25 1.3 21.01 0.86 20.71C0.08 20.17 0.07 19.56 0.84 19.01C1.6 18.46 2.47 18.19 3.37 17.99C4.11 17.83 4.48 17.74 4.77 17.86C5.07 17.97 5.28 18.27 5.72 18.86C5.98 19.21 6.23 19.56 6.49 19.91C6.86 20.42 7.12 20.43 7.49 19.93C7.94 19.31 8.4 18.7 8.85 18.08C9.02 17.83 9.2 17.72 9.51 17.78C10.6 17.97 11.68 18.17 12.66 18.71C12.91 18.84 13.14 19 13.36 19.18C13.84 19.61 13.82 20.09 13.36 20.51C12.9 20.94 12.33 21.17 11.75 21.39C11.1 21.61 10.44 21.77 9.76 21.87ZM10.74 21.58Q10.25 21.7 9.75 21.77L9.74 21.77L9.74 21.77Q9 21.89 8.25 21.95Q7.62 21.99 6.97 21.99Q5.68 21.97 4.62 21.82Q3.39 21.66 2.33 21.31Q1.94 21.19 1.57 21.01Q1.23 20.85 0.92 20.63Q0.37 20.25 0.37 19.86L0.37 19.86Q0.37 19.47 0.9 19.09Q1.42 18.72 2.09 18.46Q2.63 18.26 3.39 18.09Q4.03 17.95 4.25 17.92Q4.56 17.88 4.73 17.95Q4.91 18.02 5.12 18.24Q5.26 18.4 5.64 18.92L6.3 19.83L6.4 19.97Q6.55 20.18 6.68 20.28Q6.83 20.4 6.98 20.4L6.99 20.4Q7.14 20.4 7.29 20.29Q7.42 20.19 7.57 19.99Q7.68 19.83 7.92 19.52Q8.6 18.6 8.93 18.14Q9.05 17.96 9.17 17.9Q9.3 17.84 9.49 17.88Q10.53 18.06 11.1 18.21Q11.96 18.44 12.61 18.8Q12.82 18.91 13.02 19.05Q13.16 19.15 13.29 19.26Q13.6 19.54 13.61 19.82Q13.61 19.84 13.61 19.85L13.61 19.86Q13.61 20.15 13.29 20.44Q12.99 20.72 12.55 20.94Q12.23 21.1 11.71 21.29Q11.23 21.46 10.74 21.58Z" fill="#FA8B02" fill-opacity="1.000000" fill-rule="evenodd"/>
	<path id="Vector" d="M10.13 7.63C10.13 8.47 9.79 9.26 9.2 9.85C8.62 10.44 7.82 10.77 6.99 10.76C6.15 10.76 5.36 10.43 4.77 9.84C4.18 9.25 3.85 8.45 3.85 7.62C3.86 6.79 4.19 5.99 4.78 5.4C5.07 5.11 5.42 4.88 5.8 4.73C6.18 4.57 6.59 4.49 7 4.49C7.41 4.49 7.82 4.57 8.2 4.73C8.58 4.89 8.92 5.12 9.21 5.41C9.5 5.71 9.74 6.05 9.89 6.43C10.05 6.81 10.13 7.22 10.13 7.63ZM9.23 7.61C9.22 7.01 8.98 6.45 8.56 6.03C8.14 5.62 7.56 5.39 6.97 5.39C6.38 5.4 5.81 5.64 5.4 6.06C4.98 6.49 4.75 7.06 4.76 7.65C4.76 8.24 5 8.81 5.43 9.22C5.85 9.64 6.42 9.87 7.02 9.86C7.61 9.86 8.17 9.62 8.59 9.19C9 8.77 9.23 8.2 9.23 7.61Z" fill="#FA8B02" fill-opacity="1.000000" fill-rule="nonzero"/>
	<path id="Vector" d="M8.79 10.32Q9.05 10.15 9.28 9.92Q9.5 9.69 9.68 9.43Q9.86 9.17 9.98 8.87Q10.1 8.58 10.17 8.27Q10.23 7.96 10.23 7.63Q10.23 7.31 10.17 7Q10.11 6.69 9.99 6.4Q9.86 6.1 9.69 5.83Q9.51 5.57 9.29 5.34Q9.06 5.12 8.8 4.94Q8.53 4.76 8.24 4.64Q7.94 4.52 7.63 4.45Q7.32 4.39 7 4.39Q6.68 4.39 6.37 4.45Q6.06 4.51 5.76 4.63Q5.46 4.76 5.2 4.93Q4.94 5.11 4.71 5.33Q4.48 5.56 4.3 5.82Q4.13 6.09 4 6.38Q3.88 6.68 3.82 6.99Q3.75 7.3 3.75 7.62Q3.75 7.94 3.81 8.25Q3.88 8.56 4 8.86Q4.12 9.16 4.3 9.42Q4.47 9.68 4.7 9.91Q4.92 10.14 5.19 10.32Q5.45 10.49 5.75 10.62Q6.04 10.74 6.35 10.8Q6.66 10.86 6.99 10.86Q7.31 10.87 7.62 10.8Q7.93 10.74 8.22 10.62Q8.52 10.5 8.79 10.32ZM10.13 7.63C10.13 8.47 9.79 9.26 9.2 9.85C8.62 10.44 7.82 10.77 6.99 10.76C6.15 10.76 5.36 10.43 4.77 9.84C4.18 9.25 3.85 8.45 3.85 7.62C3.86 6.79 4.19 5.99 4.78 5.4C5.07 5.11 5.42 4.88 5.8 4.73C6.18 4.57 6.59 4.49 7 4.49C7.41 4.49 7.82 4.57 8.2 4.73C8.58 4.89 8.92 5.12 9.21 5.41C9.5 5.71 9.74 6.05 9.89 6.43C10.05 6.81 10.13 7.22 10.13 7.63ZM9.23 7.61C9.22 7.01 8.98 6.45 8.56 6.03C8.14 5.62 7.56 5.39 6.97 5.39C6.38 5.4 5.81 5.64 5.4 6.06C4.98 6.49 4.75 7.06 4.76 7.65C4.76 8.24 5 8.81 5.43 9.22C5.85 9.64 6.42 9.87 7.02 9.86C7.61 9.86 8.17 9.62 8.59 9.19C9 8.77 9.23 8.2 9.23 7.61ZM8.16 5.84Q8.34 5.95 8.49 6.1Q8.64 6.25 8.76 6.42Q8.87 6.6 8.96 6.79Q9.04 6.99 9.08 7.19Q9.13 7.39 9.13 7.61Q9.13 7.82 9.09 8.02Q9.05 8.23 8.97 8.43Q8.9 8.62 8.78 8.8Q8.67 8.97 8.52 9.12Q8.37 9.28 8.2 9.39Q8.03 9.51 7.83 9.59Q7.63 9.68 7.43 9.72Q7.23 9.76 7.01 9.76Q6.8 9.77 6.6 9.73Q6.39 9.69 6.2 9.61Q6 9.53 5.82 9.42Q5.65 9.3 5.5 9.15Q5.35 9 5.23 8.83Q5.11 8.66 5.03 8.46Q4.95 8.27 4.9 8.07Q4.86 7.86 4.86 7.65Q4.86 7.44 4.89 7.23Q4.93 7.03 5.01 6.83Q5.09 6.63 5.21 6.46Q5.32 6.28 5.47 6.13Q5.62 5.98 5.79 5.86Q5.96 5.75 6.16 5.66Q6.35 5.58 6.56 5.54Q6.76 5.5 6.97 5.49Q7.18 5.49 7.39 5.53Q7.59 5.57 7.79 5.65Q7.99 5.73 8.16 5.84Z" fill="#FA8B02" fill-opacity="1.000000" fill-rule="evenodd"/>
</svg>
